<svg width="24" height="24" xmlns="http://www.w3.org/2000/svg" viewBox="0 0 24 24" fill="none">
<g fill="#fff">
<path d="M6 2.9999c-1.6567 0-3 1.3432-3 3v1.5a.75.75 0 0 0 1.5 0v-1.5c0-.8284.6719-1.5 1.5-1.5h1.5a.75.75 0 0 0 0-1.5H6ZM16.5 2.9999a.75.75 0 0 0 0 1.5H18c.8281 0 1.5.6716 1.5 1.5v1.5a.75.75 0 0 0 1.5 0v-1.5c0-1.6568-1.3433-3-3-3h-1.5ZM4.5 16.4999a.75.75 0 0 0-1.5 0v1.5c0 1.6567 1.3433 3 3 3h1.5a.75.75 0 0 0 0-1.5H6c-.8281 0-1.5-.6717-1.5-1.5v-1.5ZM21 16.4999a.75.75 0 0 0-1.5 0v1.5c0 .8283-.6719 1.5-1.5 1.5h-1.5a.75.75 0 0 0 0 1.5H18c1.6567 0 3-1.3433 3-3v-1.5ZM13 13v3c0 .5519-.448 1-1 1s-1-.4481-1-1v-3H8c-.5518 0-1-.448-1-1s.4482-1 1-1h3V8c0-.5519.448-1 1-1s1 .4481 1 1v3h3c.552 0 1 .448 1 1s-.448 1-1 1h-3"/>
</g>
</svg>