<svg width="24" height="24" xmlns="http://www.w3.org/2000/svg" viewBox="0 0 24 24" fill="none"> <g fill="#fff">
<path d="M5.1822 1.9999c-1.7515 0-3.1817 1.4306-3.1817 3.1815v13.472c0 1.7509 1.4302 3.1816 3.1817 3.1816h13.4792c1.7505 0 3.1817-1.4307 3.1817-3.1817V5.1814c0-1.7509-1.4312-3.1815-3.1817-3.1815Zm0 1.469h13.4792c.9634 0 1.7127.7488 1.7127 1.7125v13.472c0 .9638-.7493 1.7126-1.7127 1.7126H5.1822c-.9644 0-1.7127-.7488-1.7127-1.7127V5.1814c0-.9637.7483-1.7125 1.7127-1.7125Z"/> <path fill="#000" d="M12.6521 7.9998c-2.1066 0-3.824 1.7357-3.824 3.8497 0 .8932.3074 1.7176.8204 2.3733L6.25 17.1953a.7314.7314 0 0 0-.068 1.033c.2665.3045.728.3369 1.0334.0707l3.5525-3.1055a3.7659 3.7659 0 0 0 1.8842.5038c2.1075 0 3.8284-1.7334 3.8284-3.8478 0-2.114-1.721-3.8497-3.8284-3.8497Zm0 1.4671c1.3094 0 2.3594 1.0552 2.3594 2.3826 0 1.3277-1.05 2.3848-2.3594 2.3848-1.3085 0-2.3586-1.057-2.3586-2.3848 0-1.3274 1.05-2.3826 2.3586-2.3826Z"/>
</g>
</svg>