<svg width="24" height="24" xmlns="http://www.w3.org/2000/svg" viewBox="0 0 24 24" fill="none"> <g fill="#ced4da">
<path d="M15.4776 2.129a.6265.6265 0 0 0-.4356.2188l-3.4333 3.994a1.3819 1.3819 0 0 0-.0332.0267.8671.8671 0 0 0-.0315.0485l-1.3923 1.6194c-.001.0005-.002.001-.002.0018-.0007.0015-.0017.0023-.0017.0038l-.0037.0037c-.0056.0073-.0092.015-.0139.0225a.5877.5877 0 0 0-.0876.1527.6006.6006 0 0 0-.0362.125.6449.6449 0 0 0-.009.072.706.706 0 0 0-.012.0784s.0442.6095-.0583 1.3943c-.1033.7853-.3672 1.701-.8442 2.2561-.5455.634-1.4617 1.3653-2.4019 2.0998-.9402.734-1.9055 1.4703-2.5864 2.2616-.7134.8208-1.1397 1.612-1.1267 2.453.013.8411.4882 1.5908 1.2226 2.25.6653.5976 1.4737.8805 2.2478.7111.7752-.1689 1.4378-.7017 2.0955-1.4671.6811-.7913 1.2761-1.859 1.8677-2.9063.5915-1.0467 1.1792-2.0752 1.7246-2.7086.477-.555 1.3269-.9305 2.0725-1.135.7456-.2039 1.3379-.244 1.3379-.244.0139-.0033.0268-.0075.0407-.0116a.641.641 0 0 0 .1429-.0387.7212.7212 0 0 0 .072-.0264.6232.6232 0 0 0 .166-.1273.2514.2514 0 0 1 .0122-.0148c0-.0008.0007-.0013.0017-.0023l4.898-5.6969a.6252.6252 0 0 0-.0545-.871l-2.438-2.1898-2.4433-2.197a.6244.6244 0 0 0-.4568-.1564Zm.096 1.5138 1.5253 1.369-1.4321 1.6857a.6264.6264 0 0 0 .0664.8844.6268.6268 0 0 0 .4587.149.6228.6228 0 0 0 .428-.2209l1.411-1.6605 1.4921 1.3403-2.6565 3.0916-3.9495-3.5489Zm-3.4732 4.0407 3.9558 3.5433-.6172.7188-3.9512-3.5489Zm-.908 2.1273 2.9204 2.623c-.082.0188-.1557.0341-.248.0585-.872.239-1.9377.6611-2.6863 1.5313-.68.7912-1.2751 1.8588-1.8664 2.906-.5916 1.0475-1.1795 2.0754-1.7246 2.7093-.5677.6597-1.0594.9863-1.4166 1.0643-.3562.078-.6672.001-1.1423-.4257-.5962-.5348-.799-.9427-.8047-1.3339-.0063-.3917.2068-.9154.8186-1.6194.5452-.6339 1.4698-1.3596 2.4102-2.0937.9402-.734 1.897-1.4763 2.5781-2.2676.7483-.8701 1.0178-2.0023 1.1367-2.9121.011-.0905.0166-.1597.025-.2405Z"/>
</g>
</svg>