<svg fill="none" viewBox="0 0 24 24"><g class="frame-container-wrapper"><g class="frame-container-blur"><g class="frame-container-shadows"><g class="fills"><rect width="24" height="24" class="frame-background" rx="0" ry="0"/></g><g fill="#000" class="frame-children"><path d="M13.9322 2.002c-4.45 0-8.0738 3.6447-8.0738 8.119 0 2.1239.8184 4.063 2.1524 5.5138l-5.4959 4.8144a.7335.7335 0 0 0-.0664 1.0332.7335.7335 0 0 0 1.0332.0664l5.6245-4.918c1.348 1.016 3.0184 1.6192 4.826 1.6192 4.4502 0 8.07-3.6545 8.07-8.129 0-4.4743-3.6198-8.119-8.07-8.119Zm0 1.5507c3.6052 0 6.5115 2.9264 6.5115 6.5684 0 3.642-2.9063 6.5781-6.5115 6.5781-3.605 0-6.5171-2.9361-6.5171-6.5781s2.9121-6.5684 6.517-6.5684Z" class="fills"/><path d="M13.8482 5.0313a.7324.7324 0 0 0-.4021.203l-4 4.002c-.4641.461-.1384 1.253.5156 1.254h1.2695v3.2636a.7334.7334 0 0 0 .7305.7305h4.0017a.7334.7334 0 0 0 .7305-.7305v-3.2637h1.2695c.655.0009.9825-.7923.5176-1.2539l-4.002-4.002a.7333.7333 0 0 0-.6308-.203Zm.1152 1.7617 2.1856 2.1777h-4.3728Zm-1.2693 3.6465h2.5389v2.584H12.694Z" class="fills"/></g></g></g></g></svg>