<svg fill="none" viewBox="0 0 24 24"><g class="frame-container-wrapper"><g class="frame-container-blur"><g class="frame-container-shadows"><g class="fills"><rect width="24" height="24" class="frame-background" rx="0" ry="0"/></g><g class="frame-children"><rect width="24" height="24" fill="#000" class="fills" rx="4" ry="4"/><path fill="#fff" d="M6.5 17.1361h2.4441V9.241h-2.444v7.8951M7.6456 7.914c.7983 0 1.445-.6528 1.445-1.4574C9.0906 5.6524 8.444 5 7.6456 5 6.847 5 6.2 5.6524 6.2 6.4566c0 .8046.647 1.4575 1.4456 1.4575M12.8443 12.9916c0-1.11.511-1.7712 1.4895-1.7712.8982 0 1.33.6348 1.33 1.7712v4.1445h2.4324v-4.999c0-2.1147-1.1984-3.137-2.8728-3.137-1.6745 0-2.3791 1.304-2.3791 1.304V9.241H10.5v7.8951h2.3443v-4.1445" class="fills"/></g></g></g></g></svg>