<svg width="24" height="24" xmlns="http://www.w3.org/2000/svg" viewBox="0 0 24 24" fill="none"> <g fill="#ced4da">
<path d="M2.5547 6.0012c-.307 0-.5515.2547-.5546.5704l-.086 8.8593c-.0032.3157.2456.5703.5528.5703H6v5.5215c0 .2296.2968.4785.5527.4785h11.0137c.2558 0 .4372-.2274.4336-.457v-5.543h3.4003c.3072 0 .5547-.2546.5547-.5703l.002-8.8593c0-.3157-.2476-.5704-.5547-.5704Zm2.7715 1.9532A1.8074 1.8074 0 0 1 7.1328 9.763c-.0004.9975-.809 1.8061-1.8066 1.8066-.9975-.0005-1.8061-.809-1.8066-1.8066a1.8074 1.8074 0 0 1 1.8066-1.8086Zm3.0078 6.3203h7.332c.1846 0 .334.1156.334.2597v5.207c0 .1444-.1494.2598-.334.2598H8.334c-.1845 0-.334-.1154-.334-.2597v-5.207c0-.1442.1495-.2598.334-.2598Z" paint-order="markers"/>
</g>
</svg>