<svg fill="none" viewBox="0 0 24 24"><g class="frame-container-wrapper"><g class="frame-container-blur"><g class="frame-container-shadows"><g class="fills"><rect width="24" height="24" class="frame-background" rx="0" ry="0"/></g><g class="frame-children"><path fill="#000" d="M11.7146 3.1306a.8669.8669 0 0 0-.8708.8716v8.9021L7.6114 9.672a.8657.8657 0 0 0-.6138-.2543.8666.8666 0 0 0-.6125 1.4786l4.6477 4.6489.0693.0682a.7026.7026 0 0 0 .0525.0411.8483.8483 0 0 0 .1265.0978.8715.8715 0 0 0 .3671.107.8109.8109 0 0 0 .0943.0037.8416.8416 0 0 0 .1467-.0189.8816.8816 0 0 0 .1209-.0337.8654.8654 0 0 0 .1135-.047.8817.8817 0 0 0 .2048-.1485l4.717-4.7166a.8673.8673 0 0 0 0-1.225.8676.8676 0 0 0-1.233 0l-3.234 3.2403v-8.91a.8693.8693 0 0 0-.251-.6146.8688.8688 0 0 0-.6128-.2564ZM2.8343 11.053c-.4761.0018-.8618.387-.8635.8631 0 5.4848 4.4584 9.9513 9.9433 9.9513 5.4846 0 9.9507-4.4665 9.9507-9.9513a.8658.8658 0 0 0-.8628-.8631.8655.8655 0 0 0-.6145.251.8655.8655 0 0 0-.2563.6121c0 4.5477-3.669 8.217-8.217 8.217-4.5482 0-8.2152-3.6693-8.2152-8.217-.002-.4765-.3884-.8623-.8647-.8631Z" class="fills"/></g></g></g></g></svg>