<svg width="24" height="24" xmlns="http://www.w3.org/2000/svg" viewBox="0 0 24 24" fill="none"> <g fill="#fff">
<path fill-rule="evenodd" d="M18.5738 4.0056c-.0027.0014-.0037-.0051-.0064-.0041l-.8518.3072-11.989 4.2838c-.3037.0983-.5766.3456-.7124.687-.2417.6117.0305 1.3374.5923 1.5987l3.0405 1.3965-4.1633 4.1541c-.4522.4499-.4754 1.2338-.059 1.72l1.3129 1.5447.0066.0046c.415.4849 1.1367.5209 1.5898.071l4.1607-4.1652 1.0241 3.362.0018-.0184c.0915.3252.3137.615.6294.7636.5646.2642 1.2402-.0148 1.4838-.628l.0044-.007 5.3225-13.4363.0064.0046c.1052-.2607.1274-.5795.0351-.8762-.3386-.768-1.0022-.9153-1.4284-.7626Zm-.2122 1.7034L13.638 17.6478l-.8184-2.6635c-.2998-.9804-1.5005-1.3185-2.2026-.6174l-4.0305 4.02-.8987-1.046 4.3572-4.3442c.5517-.5513.3774-1.6005-.3147-1.917L6.941 9.7957Z"/>
</g>
</svg>