<svg width="24" height="24" xmlns="http://www.w3.org/2000/svg" viewBox="-2 -2 28 28" fill="none">
<g fill="#fff">
<path d="M6.3398 11.984c-.0095 3.118 2.5237 5.6754 5.6382 5.6785 3.1152.0033 5.674-2.548 5.6834-5.6661.0095-3.1178-2.5337-5.6751-5.6492-5.6785-3.1145-.003-5.6633 2.5482-5.6724 5.6661Zm2.31.0025c.0057-1.864 1.4937-3.3478 3.3555-3.3452 1.8616.0025 3.3414 1.489 3.3355 3.3522-.0059 1.8644-1.4939 3.348-3.3557 3.3455-1.8616-.0026-3.3408-1.4882-3.3352-3.3525Z"/>
<path d="M-.0457 11.7083a.9472.9472 0 0 0 .0325 1.2562l11.6577 12.4364a.9403.9403 0 0 0 .7163.2969.9451.9451 0 0 0 .6975-.3406L24.0515 12.281c.3086-.367.2954-.9068-.0327-1.256L12.347-1.407a.941.941 0 0 0-.7082-.2916.9439.9439 0 0 0-.6917.331L-.0457 11.7084m1.9827.5738L11.7019.6611l10.3528 11.0506-9.751 11.6168L1.937 12.2821"/>
</g>
</svg>