<svg width="24" height="24" xmlns="http://www.w3.org/2000/svg" viewBox="0 0 24 24" fill="none"> <g fill="#fff">
<path d="M11.376 4.5957a1.05 1.05 0 0 0-.9826.6796L5.716 17.7249a.5039.5039 0 0 0 .0571.4627.5046.5046 0 0 0 .4134.2168h1.6057a1.006 1.006 0 0 0 .9568-.6897l.7363-2.2224h5.0178l.74 2.2224c.1377.412.5232.6902.957.6897h1.6158a.504.504 0 0 0 .4123-.2173.5027.5027 0 0 0 .0564-.4622L13.5816 5.2753a1.0523 1.0523 0 0 0-.9846-.6796h-.5122a.569.569 0 0 0-.0794.0166.6283.6283 0 0 0-.1365-.0166Zm.6155 3.3458 1.7717 5.3224h-3.5378Z" font-family="roboto" font-size="3.5278" font-weight="700"/>
</g>
</svg>