<svg fill="none" viewBox="0 0 24 24"><g class="frame-container-wrapper"><g class="frame-container-blur"><g class="frame-container-shadows"><g class="fills"><rect width="24" height="24" class="frame-background" rx="0" ry="0"/></g><g class="frame-children"><path fill="#000" d="M11.604 3.0001c-3.26 0-6.1408 1.6347-7.869 4.1306V6.1093a.8662.8662 0 0 0-.2547-.6174.8676.8676 0 0 0-1.229.0028.8698.8698 0 0 0-.251.6146v3.9921a.8686.8686 0 0 0 .251.6147.8675.8675 0 0 0 .6118.2564h4.0027a.864.864 0 0 0 .6164-.2538.8646.8646 0 0 0 .2547-.6173.8653.8653 0 0 0-.2574-.6121.8659.8659 0 0 0-.6137-.251H4.5193c1.2522-2.659 3.942-4.51 7.0848-4.51 4.3378 0 7.8396 3.5018 7.8396 7.84 0 4.3383-3.5018 7.8378-7.8396 7.8378-1.9812 0-3.7796-.7331-5.159-1.9414-.3591-.3119-.9033-.2755-1.218.082a.8625.8625 0 0 0-.2131.6294.86.86 0 0 0 .2951.5951c1.6822 1.4737 3.8858 2.3637 6.295 2.3637 5.2744 0 9.5761-4.2916 9.5761-9.5665C21.1802 7.2936 16.8785 3 11.6041 3Zm-.7363 4.238a.8674.8674 0 0 0-.8655.8712v5.994a.8674.8674 0 0 0 .252.6156.8649.8649 0 0 0 .6135.2556h5.9995a.8655.8655 0 0 0 .6119-.2566.8651.8651 0 0 0 .252-.6145c-.0018-.4757-.3875-.8615-.8639-.8633h-5.131V8.1093a.8627.8627 0 0 0-.253-.6164.8667.8667 0 0 0-.6155-.2547Z" class="fills"/></g></g></g></g></svg>