<svg fill="none" viewBox="0 0 24 24"><g class="frame-container-wrapper"><g class="frame-container-blur"><g class="frame-container-shadows"><g class="fills"><rect width="24" height="24" class="frame-background" rx="0" ry="0"/></g><g class="frame-children"><path fill="#000" d="M2.9954 3.2825c-.1414-.0065-.2805.0157-.4043.0664-.3294.1347-.598.4928-.598.8928v15.4138c0 1.3075 1.077 2.3848 2.3844 2.3848h13.7021c.659 0 1.209-.4304 1.4314-.961.2232-.5301.1355-1.2194-.326-1.6895L6.6495 6.6205v-.0018a.7102.7102 0 0 0-.1172-.1468.718.718 0 0 0-.1291-.1015L3.6477 3.5616c-.1753-.178-.4172-.2685-.6523-.2791Zm.4953 2.258 1.4424 1.4684-.4597.4591a.7501.7501 0 0 0 0 1.0625c.2925.2888.7632.2888 1.0547 0l.455-.4512L7.7709 9.9l-1.7703 1.7675a.7522.7522 0 0 0-.2214.532c0 .1996.0803.3917.2214.5324a.7513.7513 0 0 0 1.0652 0l1.7578-1.7598 2.3733 2.4158-3.4004 3.373a.7529.7529 0 0 0-.226.5307.7545.7545 0 0 0 .2177.5337.7512.7512 0 0 0 .5308.2239.7485.7485 0 0 0 .5322-.2174l3.3984-3.3713 2.0957 2.1366-.873.873a.75.75 0 0 0 0 1.0626.7505.7505 0 0 0 .5315.2205.7484.7484 0 0 0 .5307-.2205l.8619-.867 2.7182 2.7714c.0398.0402.0269.0402.0156.0684-.012.028.0076.0295-.0505.0295H4.3775c-.4964 0-.8868-.382-.8868-.8789ZM14.8784 1.9127a.866.866 0 0 0-.7456.4281l-2.0964 3.499a.8665.8665 0 0 0 0 .886l2.0964 3.499a.8673.8673 0 0 0 .7456.428h4.1932a.8674.8674 0 0 0 .7382-.428l2.0965-3.499a.8665.8665 0 0 0 0-.886l-2.0965-3.499a.8668.8668 0 0 0-.7382-.428Zm.4873 1.7348h3.2112l1.5725 2.6352-1.5725 2.6354h-3.2112l-1.5722-2.6354Z" class="fills"/></g></g></g></g></svg>