<svg width="24" height="24" xmlns="http://www.w3.org/2000/svg" viewBox="0 0 24 24" fill="none">
  <g fill="#fff">
    <path d="M3 4.2616a.7339.7339 0 0 0-.7309.7308v15.0148a.7339.7339 0 0 0 .731.7308h17.0005a.7336.7336 0 0 0 .7307-.7308V7.9968a.7339.7339 0 0 0-.7307-.7382h-8.002c.005 0 .0862.0804 0-.0811-.0862-.1617-.1882-.4961-.2878-.8711-.0999-.375-.1997-.7875-.4136-1.1885-.2136-.4009-.6933-.8563-1.299-.8563Zm.7308 1.469h6.2673c-.0048 0-.0788-.0804.0076.0811.0862.1617.188.4961.2878.8711.0999.375.1922.7876.406 1.1885.2137.401.6937.8563 1.2991.8563H19.27v10.5487H3.731Z"/>
    <path d="M13.9991 4.269a.7334.7334 0 0 0-.731.7307.7345.7345 0 0 0 .2122.5209.7342.7342 0 0 0 .5188.2174h4.001a.7336.7336 0 0 0 .7307-.7383.733.733 0 0 0-.7307-.7307Z"/>
  </g>
</svg>