<svg width="24" height="24" xmlns="http://www.w3.org/2000/svg" viewBox="0 0 24 24" fill="none"> <g fill="#fff">
<path d="M8.939 2.2676a.7335.7335 0 0 0-.6738.7304v9.336c-.9283.2278-1.7776.5396-2.5174.9257-1.6496.861-2.8496 2.1568-2.8496 3.7422 0 1.5855 1.2 2.8734 2.8496 3.7344 1.6495.861 3.838 1.3672 6.2515 1.3672 2.4138 0 4.604-.5062 6.2537-1.3672 1.6496-.861 2.8474-2.149 2.8474-3.7344s-1.1978-2.8812-2.8474-3.7422c-1.6497-.861-3.8399-1.3593-6.2537-1.3593-.7825 0-1.5408.0543-2.2654.1543V9.5469l9.478-2.8418a.7334.7334 0 0 0 0-1.4102L9.2105 2.2969a.732.732 0 0 0-.2715-.0295Zm.795 1.7129 6.7104 2.0234-6.7105 2.0137Zm2.2653 9.3886c2.2068 0 4.1958.478 5.574 1.1973 1.3784.7193 2.0586 1.6095 2.0586 2.4355 0 .826-.6802 1.7162-2.0586 2.4356-1.3782.7193-3.3672 1.1972-5.574 1.1972s-4.2014-.4779-5.5796-1.1972C5.0413 18.718 4.367 17.828 4.367 17.0019c0-.826.6743-1.7162 2.0527-2.4355.5308-.2771 1.1546-.5173 1.8455-.709v3.1445a.7334.7334 0 0 0 .7383.7305.7334.7334 0 0 0 .7304-.7305v-3.459a14.81 14.81 0 0 1 2.2654-.1738Z"/>
</g>
</svg>