<svg fill="none" viewBox="0 0 24 24"><g class="frame-container-wrapper"><g class="frame-container-blur"><g class="frame-container-shadows"><g class="fills"><rect width="24" height="24" class="frame-background" rx="0" ry="0"/></g><g class="frame-children"><path fill="#000" fill-rule="evenodd" d="M4.662 2h3.6761A2.6561 2.6561 0 0 1 11 4.662v3.676A2.6562 2.6562 0 0 1 8.338 11h-3.676A2.6562 2.6562 0 0 1 2 8.338V4.662A2.6562 2.6562 0 0 1 4.662 2ZM4.662 13h3.6761A2.6561 2.6561 0 0 1 11 15.662v3.676A2.6562 2.6562 0 0 1 8.338 22h-3.676A2.6562 2.6562 0 0 1 2 19.338v-3.676A2.6562 2.6562 0 0 1 4.662 13Z" class="fills"/><path fill="#000" fill-rule="evenodd" d="M15.662 2h3.6761A2.6561 2.6561 0 0 1 22 4.662v3.676A2.6562 2.6562 0 0 1 19.338 11h-3.676A2.6562 2.6562 0 0 1 13 8.338V4.662A2.6562 2.6562 0 0 1 15.662 2Z" class="fills" overflow="visible"/><path fill="#000" fill-rule="evenodd" d="M15.662 22h3.6761A2.6562 2.6562 0 0 0 22 19.338v-3.676A2.6561 2.6561 0 0 0 19.338 13h-3.676A2.6562 2.6562 0 0 0 13 15.662v3.676A2.6562 2.6562 0 0 0 15.662 22Z" class="fills"/></g></g></g></g></svg>