<svg width="24" height="24" xmlns="http://www.w3.org/2000/svg" viewBox="0 0 24 24" fill="none">
<g fill="#000">
<path d="M13.0987 3.1971c-4.2964 0-7.895 3.0654-8.7237 7.1213l-.74-1.6425a.8017.8017 0 0 0-.4428-.4222.803.803 0 0 0-.6118.0152.798.798 0 0 0-.421.448.7984.7984 0 0 0 .0206.6145l1.647 3.6467c.1818.401.6542.579 1.0566.3981L8.53 11.732a.7985.7985 0 0 0 .4209-.4493.7987.7987 0 0 0-.0232-.615c-.1817-.4014-.654-.5795-1.0564-.3987l-2.0134.9121c.4502-3.6046 3.511-6.3825 7.2407-6.3825 1.7854 0 3.413.6377 4.6809 1.6992a.8012.8012 0 0 0 .5842.1864.8013.8013 0 0 0 .5452-.2824.8017.8017 0 0 0 .1838-.5868.7988.7988 0 0 0-.288-.5439c-1.5438-1.2924-3.5386-2.0743-5.7071-2.0743Zm5.6887 6.588a.7986.7986 0 0 0-.5657.2343l-2.8347 2.8263a.8013.8013 0 0 0-.237.5684c0 .2136.0856.418.237.5684a.8003.8003 0 0 0 .5684.2367c.214 0 .418-.085.5683-.2367l1.875-1.8791c-.0017 4.0392-3.2607 7.297-7.3005 7.297-2.7315 0-5.1018-1.492-6.356-3.7053a.7987.7987 0 0 0-.4824-.3778.8025.8025 0 0 0-.6091.0752c-.3821.2172-.5166.7021-.3025 1.086 1.5288 2.6985 4.4336 4.5232 7.75 4.5232 4.6367 0 8.4595-3.5714 8.8655-8.1052l1.0852 1.086c.3127.3105.8176.3105 1.1294 0a.8019.8019 0 0 0 .2373-.5684.8016.8016 0 0 0-.2373-.5684l-2.8262-2.8263a.8008.8008 0 0 0-.5647-.2344Z"/>
</g>
</svg>