<svg fill="none" viewBox="0 0 24 24"><g class="frame-container-wrapper"><g class="frame-container-blur"><g class="frame-container-shadows"><g class="fills"><rect width="24" height="24" class="frame-background" rx="0" ry="0"/></g><g class="frame-children"><path fill="#000" d="M12.015 2.9185c-4.226.0044-7.7418 3.107-7.7367 7.0122v.627c0 2.5818-.5852 3.9459-1.0192 4.615-.6175.947-.2249 2.2448.7749 2.7678.325.1714.6848.252 1.0495.252h3.024c.4235 1.6838 2.0266 2.9216 3.8915 2.9216 1.8645 0 3.4686-1.2378 3.8904-2.9217h3.0572c1.1303 0 2.1323-.8504 2.1323-1.9863 0-.3376-.0989-.6672-.2661-.9532 0 0-1.0618-2.2072-1.0618-4.6952V9.997c0-3.913-3.4873-7.0503-7.6782-7.0785Zm0 1.4693h.0507c3.4685.023 6.2165 2.5733 6.2165 5.6092v.5607c0 2.9015 1.2166 5.3375 1.2166 5.3375l.0161.0374.0296.037c.0532.0827.0651.16.0651.2361 0 .2494-.2441.5236-.663.5236H5.0835a.783.783 0 0 1-.3618-.0881h-.008c-.3399-.1776-.3926-.4124-.2288-.664v-.0077c.6074-.9338 1.262-2.603 1.262-5.4107v-.629c-.0037-3.0185 2.751-5.5387 6.268-5.5424ZM9.6471 18.1924h4.7049c-.3728.8442-1.2686 1.453-2.353 1.453-1.085 0-1.9793-.6088-2.3519-1.453Z" class="fills"/></g></g></g></g></svg>