<svg width="24" height="24" xmlns="http://www.w3.org/2000/svg" viewBox="0 0 24 24" fill="none"> <g fill="#fff">
<path d="M12.0809 2.3302a.7984.7984 0 0 0-.5684.2266v-.0024L8.6409 5.338c-.3157.3081-.323.8143-.0149 1.1307.3054.317.8103.3272 1.1287.0227l1.469-1.4256v6.2008H5.021l1.5013-1.4529a.7998.7998 0 0 0 .0156-1.129.8.8 0 0 0-.561-.244.7986.7986 0 0 0-.5684.2205l-2.8706 2.7835a.7967.7967 0 0 0-.2483.5632.7994.7994 0 0 0 .2253.5735l2.7913 2.871c.3081.3148.8127.3217 1.1284.0149.3157-.3078.322-.8125.0156-1.1286l-1.4338-1.4768h6.209v6.205L9.7723 17.571c-.3084-.3151-.813-.322-1.1287-.0152a.8004.8004 0 0 0-.0156 1.1308l2.784 2.8711c.307.3151.812.3216 1.1283.0152l2.8716-2.7833a.801.801 0 0 0 .0222-1.129.8004.8004 0 0 0-1.137-.0148l-1.468 1.4196v-6.2031h6.21l-1.5012 1.4534a.7967.7967 0 0 0-.2483.5632.7994.7994 0 0 0 .2253.5735.7995.7995 0 0 0 1.1368.0148l2.8715-2.783a.8005.8005 0 0 0 .0147-1.1289l-2.783-2.8711a.7996.7996 0 0 0-.561-.2441.7991.7991 0 0 0-.5684.2205.8008.8008 0 0 0-.0222 1.129l1.4275 1.4764h-6.2034V5.061l1.4532 1.4963a.8009.8009 0 0 0 1.1294.0152.8007.8007 0 0 0 .0222-1.129l-2.7903-2.8711a.8008.8008 0 0 0-.561-.2422Z" color="#000" color-interpolation="srgb" color-interpolation-filters="linearrgb" font-family="sans-serif" font-weight="400" overflow="visible"/>
</g>
</svg>