<svg width="24" height="24" xmlns="http://www.w3.org/2000/svg" viewBox="0 0 24 24" fill="none"> <g fill="#fff">
<path d="M11.1998 1.7092 4.0394 5.7175c-.669.3747-.668 1.4257 0 1.8013l7.1308 4.0083a1.6347 1.6347 0 0 0 1.602 0l7.1605-4.0083c.669-.3746.668-1.4252 0-1.8013l-7.1309-4.0083a1.6357 1.6357 0 0 0-1.602 0Zm.731 1.3065a.1432.1432 0 0 1 .14 0l6.4002 3.6025-6.4297 3.6023a.1426.1426 0 0 1-.1401 0L5.4937 6.6182ZM6.2317 10.6256a.749.749 0 0 0-.5756.0516l-1.5872.8195c-.6846.3539-.7012 1.4172-.0295 1.7937l6.2009 3.477c.3606.2006.8166.0723 1.0185-.288a.75.75 0 0 0-.2878-1.0261l-5.4182-3.0339.7898-.4134a.7547.7547 0 0 0 .3728-.4383.7511.7511 0 0 0-.0481-.573.748.748 0 0 0-.4356-.369ZM17.242 12.322c-2.664 0-4.8425 2.1703-4.8425 4.8352 0 2.6643 2.1784 4.8426 4.8425 4.8426 2.6648 0 4.8425-2.1783 4.8425-4.8426 0-2.6649-2.1777-4.8352-4.8425-4.8352Zm0 1.41a3.4147 3.4147 0 0 1 3.425 3.4252 3.4146 3.4146 0 0 1-3.425 3.4252 3.4148 3.4148 0 0 1-3.4253-3.4252 3.4149 3.4149 0 0 1 3.4253-3.4253Z"/> <path d="M17.242 14.8535a.7084.7084 0 0 0-.502.2072.705.705 0 0 0-.2067.502v.8923h-.885a.7063.7063 0 0 0-.7086.7013.7061.7061 0 0 0 .7085.709h.885v.8947c.0027.3884.3204.7017.7088.7008.3894.0009.7058-.3124.7085-.7008v-.8946h.79a.707.707 0 0 0 .7002-.7092.7067.7067 0 0 0-.7002-.7012h-.79v-.8923a.7058.7058 0 0 0-.2066-.502.7084.7084 0 0 0-.502-.2072ZM6.2317 16.1505a.749.749 0 0 0-.5756.0516l-1.5872.8194c-.6846.3539-.7012 1.4173-.0295 1.7938l6.2009 3.477a.7494.7494 0 0 0 1.0185-.288.75.75 0 0 0-.2878-1.026l-5.4182-3.034.7898-.4134a.755.755 0 0 0 .3728-.4384.7509.7509 0 0 0-.0481-.573.748.748 0 0 0-.4356-.369Z"/>
</g>
</svg>