<svg width="24" height="24" xmlns="http://www.w3.org/2000/svg" viewBox="0 0 24 24" fill="none"> <g fill="#ced4da">
<path d="M2.5204 2.3015c0-.0005 0 .0719-.4888.201V21.4983c.4888.1286.4888.2008.4888.2003h18.5759c.4888.0005.4888-.0717.4888-.2003.489-.1288.489-.3034.489-.4854V2.9891c0-.1824 0-.3575-.489-.4866 0-.1291 0-.2015-.4888-.2011ZM3.498 3.669h17.1094v9.9457c-.489.5032-.9778 1.168-1.4665 1.6976-.4888.5297-1.4666.9593-2.9331.9593-.9776 0-1.9554-.3386-2.4441-.8928-.4888-.5542-.9778-1.3696-1.4666-2.2447-.4888-.8752-.9778-1.8104-1.9553-2.569C9.853 9.8066 8.3866 9.266 6.92 9.266c-.9778 0-2.4443.906-2.933 1.7114-.4889.1384-.4889.2759-.4889.4101Zm12.221 2.3326c-1.4666 0-2.4441 1.1215-2.4441 2.4947 0 1.373.9775 2.5045 2.444 2.5045 1.4666 0 2.4442-1.1314 2.4442-2.5045 0-1.3732-.9776-2.4947-2.4441-2.4947Zm0 1.3363c.4888 0 .9775.5106.9775 1.1584s-.4887 1.1604-.9775 1.1604-.9778-.5126-.9778-1.1604c0-.6478.489-1.1584.9778-1.1584ZM6.92 10.735c1.4665 0 1.9552.3386 2.444.8928.489.5542.9778 1.3616 1.4666 2.2368.4887.8753.9777 1.8181 1.9553 2.5768.9778.7587 1.9553 1.2932 3.4219 1.2932 1.9553 0 2.933-.5558 3.9106-1.3069 0-.1251.489-.2566.489-.3888v4.294H3.4981V13.4154s.4888-.702 1.4666-1.3969c.4888-.6948 1.4665-1.2834 1.9553-1.2834Z"/>
</g>
</svg>