<svg width="24" height="24" xmlns="http://www.w3.org/2000/svg" viewBox="0 0 24 24" fill="none">
  <g fill="#fff">
    <path d="M12.0694 1.2697C6.1151 1.2697 1.27 6.115 1.27 12.0694S6.115 22.8692 12.0694 22.8692c5.9546 0 10.7998-4.8454 10.7998-10.7998S18.024 1.2697 12.0694 1.2697Zm0 1.7274c5.0178 0 9.065 4.0544 9.065 9.0723s-4.0472 9.065-9.065 9.065c-5.0178 0-9.0722-4.0471-9.0722-9.065 0-5.0179 4.0544-9.0723 9.0722-9.0723Z"/>
    <path d="M12.003 5.1304a.866.866 0 0 0-.6172.2538.869.869 0 0 0-.2539.6173v6.0014a.8673.8673 0 0 0 .8711.8637h5.9942a.8673.8673 0 0 0 .871-.8636.869.869 0 0 0-.2539-.6174.866.866 0 0 0-.6171-.2537h-5.1304V6.0015a.8693.8693 0 0 0-.251-.6145.8699.8699 0 0 0-.6128-.2566Z"/>
  </g>
</svg>