<svg fill="none" viewBox="0 0 24 24"><g class="frame-container-wrapper"><g class="frame-container-blur"><g class="frame-container-shadows"><g class="fills"><rect width="24" height="24" class="frame-background" rx="0" ry="0"/></g><g fill="#000" class="frame-children"><path fill="none" d="M13.0098 20.354Z" class="fills"/><g fill="none" stroke-linecap="round" stroke-linejoin="round" class="strokes"><path stroke="#000" stroke-width=".3881" d="M13.0098 20.354h0Z" class="stroke-shape"/></g><path d="M2.0743 2.5471a.7337.7337 0 0 0-.5232.2072.7359.7359 0 0 0-.2222.5162.7317.7317 0 0 0 .2065.523.7355.7355 0 0 0 .5169.2225l2.7017.0516 1.5207 13.0137a.7335.7335 0 0 0 .7234.6495h12.003a.7341.7341 0 0 0 .716-.583l2.1113-10.2973a.7335.7335 0 0 0-.716-.8784H6.5552a.6855.6855 0 0 0-.096.0443l-.3249-2.7532a.7333.7333 0 0 0-.7085-.6497Zm4.5473 4.894h13.5901l-1.8086 8.8282H7.6551Z" class="fills"/><circle cx="7.4986" cy="20.489" r="1.508" class="fills"/><circle cx="17.4992" cy="20.489" r="1.508" class="fills"/></g></g></g></g></svg>