<svg width="24" height="24" xmlns="http://www.w3.org/2000/svg" viewBox="0 0 24 24" fill="none"> <g fill="#fff">
<path d="M5.2489 3.1163c-1.8242 0-3.322 1.4977-3.322 3.3224v13.5236c0 .6717.5417 1.2112 1.2126 1.2112h15.6118c1.825 0 3.3218-1.4977 3.3218-3.3224V6.4387c0-1.8247-1.4968-3.3224-3.3218-3.3224Zm0 1.735h13.5024c.895 0 1.5879.6928 1.5879 1.5874v11.4124c0 .8946-.6929 1.5876-1.5879 1.5876h-7.7307v-4.2146l4.4687-4.4688-.0314 4.2381a.7884.7884 0 0 0 .7834.7913.789.789 0 0 0 .7974-.7835l.0442-6.2303a.7862.7862 0 0 0-.3238-.6384.8673.8673 0 0 0-.539-.1957h-6.2017c-.476.0018-.8608.3876-.8628.8631a.8624.8624 0 0 0 .251.6147.8657.8657 0 0 0 .6118.2564h4.1035l-4.324 4.3263H3.6637V6.4387c0-.8946.6909-1.5875 1.5852-1.5875Z"/>
</g>
</svg>