<svg fill="none" viewBox="0 0 24 24"><g class="frame-container-wrapper"><g class="frame-container-blur"><g class="frame-container-shadows"><g class="fills"><rect width="24" height="24" class="frame-background" rx="0" ry="0"/></g><g class="frame-children"><path fill="#000" d="M5.9668 2.0618c-1.609 0-2.9296 1.3205-2.9296 2.9297V19.011c0 1.6091 1.3205 2.9297 2.9296 2.9297h12.0704c1.609 0 2.9238-1.3206 2.9238-2.9297V9.0012a.7328.7328 0 0 0-.2149-.5176l-6.2304-6.207A.7332.7332 0 0 0 14 2.0618Zm0 1.4687h6.297v5.4707a.7332.7332 0 0 0 .7382.7305H19.4903v9.2793c0 .822-.6311 1.461-1.4531 1.461H5.9668c-.822 0-1.4609-.639-1.4609-1.461V4.9915c0-.822.639-1.461 1.461-1.461Zm7.7657.0352 4.7207 4.705h-4.7207Zm-2.6602 6.7031a.7675.7675 0 0 0-.0605.0038l-.0113-.002a.777.777 0 0 0-.0449.0038.7379.7379 0 0 0-.1702.0314.7397.7397 0 0 0-.0976.0351.763.763 0 0 0-.0642.0334.7249.7249 0 0 0-.1465.1093l-2.998 2.998a.7322.7322 0 0 0-.2168.5206c0 .1954.0778.3828.2168.5205a.7333.7333 0 0 0 1.041 0l1.7422-1.75v5.2266a.7327.7327 0 0 0 .2146.5234.7342.7342 0 0 0 .5236.2148.7333.7333 0 0 0 .5183-.2176.7329.7329 0 0 0 .2122-.5206v-5.2266l1.75 1.75a.7333.7333 0 1 0 1.0332-1.041l-2.9707-2.9727a.8643.8643 0 0 0-.0266-.0254.7345.7345 0 0 0-.236-.162.7461.7461 0 0 0-.0765-.0197.7698.7698 0 0 0-.0378-.008.7225.7225 0 0 0-.0975-.0252Z" class="fills"/></g></g></g></g></svg>