<svg width="24" height="24" xmlns="http://www.w3.org/2000/svg" viewBox="0 0 24 24" fill="none">
  <g fill="#ced4da">
    <path d="M7.002 2.0947c-1.696 0-3.0857 1.3896-3.0857 3.0854-.0007 4.5498 0 9.0907 0 13.64 0 .0239.004.0465.004.07 0 .0236-.004.0467-.004.0706a.666.666 0 0 0 .0112.0568c.1033 1.6046 1.4451 2.8884 3.0745 2.8884h12.3496a.7328.7328 0 0 0 .7317-.7309V2.825a.7324.7324 0 0 0-.7317-.7303Zm0 1.4606h11.6189v12.3273H7.002c-.5942 0-1.148.1736-1.6204.4669.002-3.7239.0076-7.4441.0076-11.1694 0-.9087.7058-1.6248 1.6148-1.6248Zm0 13.7885h11.6189v3.101H7.002c-.8572 0-1.54-.637-1.6147-1.4725v-.0117c0-.9092.7058-1.6168 1.6147-1.6168Z"/>
    <path d="M7.9996 6.095a.7328.7328 0 0 0-.731.7308c.001.403.3276.7293.731.7307h8.0017a.7332.7332 0 0 0 .7307-.7307.733.733 0 0 0-.7307-.7308ZM7.9996 9.0918a.7328.7328 0 0 0-.731.7308.7332.7332 0 0 0 .731.738h8.0017a.7336.7336 0 0 0 .5185-.217.7336.7336 0 0 0 .2122-.521.733.733 0 0 0-.7307-.7308ZM7.9996 12.0887a.7332.7332 0 0 0-.731.738c.001.4033.3276.7295.731.731h8.0017a.7333.7333 0 0 0 .7307-.731.7336.7336 0 0 0-.2122-.5208.7336.7336 0 0 0-.5185-.2172Z"/>
  </g>
</svg>