<svg fill="none" viewBox="0 0 24 24"><g class="frame-container-wrapper"><g class="frame-container-blur"><g class="frame-container-shadows"><g class="fills"><rect width="24" height="24" class="frame-background" rx="0" ry="0"/></g><g class="frame-children"><path fill="#000" d="M5.2491 3.1166c-1.8242 0-3.3215 1.4977-3.3215 3.3223v13.6557c0 .5974.4824 1.0781 1.0803 1.0781H18.7508c1.8252 0 3.3218-1.4975 3.3218-3.3221V6.4389c0-1.8246-1.4966-3.3223-3.3218-3.3223Zm0 1.7347h13.5017c.895 0 1.5882.6929 1.5882 1.5876v11.4117c0 .8947-.6932 1.5874-1.5882 1.5874h-3.183a2.4402 2.4402 0 0 0 .1134-.732V11.251c0-1.3528-1.122-2.4645-2.4748-2.4645H4.3939c-.254 0-.4993.0387-.73.1112v-2.459c0-.8946.6912-1.5875 1.5852-1.5875Zm-.8552 5.6695h8.8125c.4226 0 .7383.3082.7383.7303v7.4548c0 .4223-.3167.7321-.7383.7321h-3.186v-4.363c0-.5977-.4798-1.078-1.0777-1.078H3.664v-2.7459c0-.4221.3084-.7303.73-.7303Z" class="fills"/></g></g></g></g></svg>