<svg fill="none" viewBox="0 0 24 24"><g class="frame-container-wrapper"><g class="frame-container-blur"><g class="frame-container-shadows"><g class="fills"><rect width="24" height="24" class="frame-background" rx="0" ry="0"/></g><g class="frame-children"><path fill="#000" d="M6.2684 5.0026a1.323 1.323 0 0 0-.6382.198c-.3936.2422-.629.6658-.629 1.1286v11.3455c0 .4622.2352.8838.629 1.1266.2146.1322.4546.2.696.2.2022 0 .4043-.0458.594-.1403l11.3484-5.6737c.4534-.226.7334-.6806.7327-1.1863 0-.5065-.2793-.9603-.7327-1.1863L6.9202 5.143c-.2075-.1034-.4302-.1505-.6518-.1404Z" class="fills"/></g></g></g></g></svg>