<svg fill="none" viewBox="0 0 24 24"><g class="frame-container-wrapper"><g class="frame-container-blur"><g class="frame-container-shadows"><g class="fills"><rect width="24" height="24" class="frame-background" rx="0" ry="0"/></g><g fill="#000" class="frame-children"><path d="M0 16.4063c0 1.4216 1.1565 2.578 2.5782 2.578h18.8437c1.4217 0 2.5781-1.1564 2.5781-2.578v-.2344H0v.2343ZM17.625 21.8906h-1.3647l-.489-1.5H8.2288l-.489 1.5H6.375a.703.703 0 0 0-.703.7032.703.703 0 0 0 .703.703h11.25a.703.703 0 0 0 .7032-.703.703.703 0 0 0-.7032-.7032ZM21.422.7031H2.5781C1.1565.7031 0 1.8596 0 3.2812v11.4844h24V3.2813C24 1.8596 22.8436.703 21.422.703ZM6.8781 12.7175c-1.227 0-2.2197-.3363-2.739-.6501l-.311-.1874.6555-2.4313.5403.2998c.283.1586 1.0049.456 1.7126.456.2466 0 1.052-.0452 1.052-.6266 0-.7094-1.0835-.7305-1.207-.7305H5.299V6.4767h1.2556c.387 0 1.0008-.1316 1.0008-.485 0-.3433-.473-.395-.7554-.395-.5776 0-1.2065.2584-1.4888.4319l-.5437.3346-.6699-2.378.3015-.193c.5095-.3264 1.562-.708 2.8528-.708 2.2368 0 3.2559 1.333 3.2559 2.5722 0 .7716-.3177 1.4258-.8975 1.89.7334.4581 1.1819 1.231 1.1819 2.1343 0 1.8164-1.573 3.0368-3.914 3.0368Zm11.6004-1.2907c-.9783.8116-2.4761 1.2387-4.3389 1.2387-1.0828 0-1.8467-.0728-2.2966-.1338l-.418-.056V3.1166l.4065-.0655c.7998-.1281 1.767-.1995 2.721-.1995 1.726 0 2.9174.3162 3.8627 1.0254 1.088.8083 1.6636 2.0743 1.6629 3.662 0 2.0764-.8699 3.2603-1.5996 3.8878Z" class="fills"/><path d="M16.38 9.5554c-.411.4043-1.0137.6098-1.8267.6098h-.0008c-.0598 0-.1298 0-.2006-.0008v-4.824a5.4527 5.4527 0 0 1 .4072-.0142c1.4902 0 2.2776.7877 2.2776 2.2773-.0003.8665-.2215 1.5235-.6568 1.952Z" class="fills"/></g></g></g></g></svg>