<svg width="24" height="24" xmlns="http://www.w3.org/2000/svg" viewBox="0 0 24 24" fill="none">
  <g fill="#ced4da">
    <path d="M3.5613 7.889a.8002.8002 0 0 0-.4431.2265.8032.8032 0 0 0-.2351.567c0 .2131.085.4171.235.5675l3.25 3.248-3.25 3.2503a.8025.8025 0 0 0 0 1.131.8045.8045 0 0 0 .5687.2362.804.804 0 0 0 .5683-.2362l3.2461-3.2482 3.25 3.2482a.8015.8015 0 0 0 1.1304 0 .802.802 0 0 0 0-1.131l-3.248-3.2503 3.248-3.248a.7986.7986 0 0 0 .2354-.5675.7983.7983 0 0 0-.2354-.567.8015.8015 0 0 0-1.1304 0l-3.25 3.2499-3.246-3.25a.8018.8018 0 0 0-.6939-.2265Z"/>
    <path d="M20.9383 15.7816v1.2499h-6.3538v-1.0741l3.0854-3.3662c.3387-.3816.6053-.7114.8008-.9896.1948-.2777.3323-.5273.41-.7483.083-.2256.1235-.4453.1235-.658 0-.2994-.0564-.5619-.1687-.7875-.1092-.2302-.2698-.4101-.482-.5402-.2131-.1348-.4712-.202-.7749-.202-.3515 0-.6467.076-.885.2278-.239.1523-.419.3626-.5405.6316-.1218.2648-.1829.5684-.1829.9116h-1.5686c0-.5513.1255-1.0546.3775-1.5105.2517-.46.6164-.8249 1.0942-1.094.477-.2735 1.052-.41 1.7249-.41.6335 0 1.1716.1066 1.6147.3192.4426.2128.7786.514 1.0093.9048.2344.3908.3516.853.3516 1.3869 0 .2948-.0479.5877-.1438.8789-.0953.2906-.2317.5813-.4097.8724-.1736.286-.3801.5748-.6182.8655-.239.2865-.5022.5776-.7883.8725l-2.051 2.2593Z"/>
  </g>
</svg>