<svg width="24" height="24" xmlns="http://www.w3.org/2000/svg" viewBox="0 0 24 24" fill="none"> <g fill="#ced4da">
<path d="M11.5137 2.0527c-.4265.003-.6555.1483-.8789.3906l-.0154.0155L2.346 12.578c-.2004.2308-.305.5592-.252.8867.0953.587.665.9935 1.248.9004l3.1446-.5176-1.4023 5.2871c-.1531.5731.2036 1.176.7754 1.3281l1.8086.4864h.0078c.5705.1511 1.175-.1944 1.3281-.7676l1.3945-5.293 1.797 1.4766c.5959 2.0929 2.5243 3.6328 4.8046 3.6328 2.7537 0 4.998-2.2445 4.998-4.998 0-2.7536-2.2443-4.998-4.998-4.998-1.1941 0-2.2915.4222-3.1524 1.125l-1.3222-8.131h.0056c-.0374-.2373-.1353-.4819-.332-.6718-.1968-.19-.4722-.273-.6856-.2715Zm-.252 1.8223 1.4044 8.6426a4.9615 4.9615 0 0 0-.629 1.9199l-.8554-.6992c-.7136-.5849-1.8538-.2201-2.0899.6718l-1.3574 5.1153-1.2324-.3243 1.4688-5.5292c.1855-.7011-.4583-1.4036-1.1739-1.2852l-2.8867.4727Zm5.5919 7.875c.474 0 .8589.3653.8593.8164.0005.4519-.3842.8185-.8593.8183-.4751.0002-.8599-.3664-.8594-.8183.0005-.451.3852-.8164.8594-.8164Zm-.0098 2.7773c.4026.0019.7273.3142.7246.6973v2.5742c-.0017.38-.3252.6877-.7246.6895-.4026.0023-.7307-.3066-.7324-.6895v-2.5742c-.003-.386.3266-.6996.7324-.6973Z"/>
</g>
</svg>