<svg width="24" height="24" xmlns="http://www.w3.org/2000/svg" viewBox="0 0 24 24" fill="none"> <g fill="#fff">
<path d="M12.0027 2.585a.8703.8703 0 0 0-.6347.2791l-8.0232 8.5491a.867.867 0 0 0 .6347 1.4552h1.1443v7.6836c.0017.4757.3875.8615.8638.8633h12.0249a.8671.8671 0 0 0 .8638-.8633v-7.6836h1.1443a.867.867 0 0 0 .6348-1.4552l-8.0252-8.549a.8661.8661 0 0 0-.6275-.2792Zm0 2.1329 5.9869 6.3849H6.017Zm-5.1443 8.121H17.148v6.8416h-4.2483c.002-.012.0027-.0245.0037-.037v-3.6387c-.0017-.4757-.3875-.8614-.8638-.8632-.4751.0018-.8608.3875-.8625.8632v3.6388a.3684.3684 0 0 0 .0036.037H6.8584Z"/>
</g>
</svg>