<svg width="24" height="24" xmlns="http://www.w3.org/2000/svg" viewBox="0 0 24 24" fill="none"> <g fill="#ced4da">
<path d="M5.2625 2.079c-1.752 0-3.1836 1.4306-3.1836 3.1815v13.479c0 1.751 1.4317 3.1815 3.1836 3.1815h13.4688c1.7505 0 3.1897-1.4306 3.1897-3.1815V5.2605c0-1.7509-1.4392-3.1816-3.1897-3.1816Zm0 1.469h13.4688c.9634 0 1.721.7492 1.721 1.7125v5.9946H3.541V5.2605c0-.9633.7568-1.7126 1.7214-1.7126Zm-1.7214 9.1973h16.9111v5.9942c0 .9637-.7575 1.7126-1.721 1.7126H5.2626c-.9646 0-1.7214-.7489-1.7214-1.7126Z"/>
</g>
</svg>