<svg width="24" height="24" xmlns="http://www.w3.org/2000/svg" viewBox="0 0 24 24" fill="none"> <g fill="#fff">
<path d="m14.7315 10.6483-.248.6935c.1806.065.321.1638.4226.2966.1005.1335.168.2912.2065.4748.0415.1832.0627.3834.0627.5993v.9066c0 .299.0657.5699.1995.8125.1318.238.3396.4253.6209.5642-.2813.1393-.489.3285-.6209.5666-.1338.2395-.1995.5094-.1995.8083v.9066c0 .216-.0212.4162-.0627.5993-.0386.1837-.106.3414-.2065.4747-.1016.1334-.242.2317-.4227.2968l.248.6971c.409-.1153.7281-.275.9588-.4822.2317-.2043.394-.4425.489-.715.097-.2696.146-.5602.146-.8711v-.9062c0-.281.0618-.5052.1853-.6736.1248-.1693.3277-.2542.6062-.2542V14.5502c-.1862 0-.3403-.0379-.4594-.1154-.1153-.077-.1983-.185-.252-.3238-.0534-.1394-.08-.3031-.08-.4923v-.9062c0-.3109-.0491-.602-.146-.8714-.095-.2719-.2574-.5104-.489-.7148-.2308-.2071-.5499-.3663-.9588-.4784ZM11.3165 13.459c0-.1896.0647-.3478.1948-.4752.1338-.1274.31-.191.5285-.191.2188 0 .394.0636.5242.191.133.1274.1995.2856.1995.4752 0 .1892-.0664.3479-.1995.4748-.1301.1274-.3054.191-.5242.191-.2185 0-.3947-.0636-.5285-.191-.1301-.127-.1948-.2856-.1948-.4748ZM11.3165 17.1218c0-.1895.0647-.3479.1948-.4752.1338-.1273.31-.1905.5285-.1905.2188 0 .394.0632.5242.1905.133.1273.1995.2857.1995.4752 0 .1896-.0664.348-.1995.4752-.1301.1274-.3054.1906-.5242.1906-.2185 0-.3947-.0632-.5285-.1906-.1301-.1273-.1948-.2856-.1948-.4752ZM9.3704 10.6483c-.406.1127-.725.2714-.9587.4785-.2315.2044-.3948.4424-.4927.7151-.094.2694-.1421.56-.1421.8711v.9061c0 .2842-.0637.5108-.1873.6796-.1218.1688-.323.2524-.6035.2524v.8923c.1863 0 .337.0383.4532.1153.1152.0744.2002.1813.2536.3202.0564.1393.084.3026.084.4923v.9061c0 .311.0481.6016.142.871.098.2722.2613.5108.4928.7152.2336.2072.5527.3667.9587.482l.2483-.697c-.181-.065-.321-.1638-.4216-.2967-.098-.1333-.169-.2911-.2132-.4747-.0415-.1831-.0627-.3834-.0627-.5998v-.906c0-.299-.0657-.57-.1995-.8126-.1255-.2339-.323-.4198-.5913-.5605.2683-.1431.4658-.3322.5913-.5666.1338-.2423.1995-.5135.1995-.8125v-.906c0-.3226.0488-.606.1467-.8518.0977-.2486.2813-.4217.5508-.5195Z" font-family="roboto" font-size="13.3333" font-weight="700"/> <path fill="#000" d="M6.0035 2.1232c-1.6094 0-2.9224 1.3204-2.9224 2.9297V19.072c0 1.6093 1.313 2.9297 2.9224 2.9297h12.0703c1.6091 0 2.9297-1.3204 2.9297-2.9297V9.0626a.7344.7344 0 0 0-.2205-.5176L14.56 2.3378a.7358.7358 0 0 0-.5176-.2146H12.3077Zm0 1.4686h6.3042v5.4708c.0017.4029.3283.7285.7307.7304h6.4961v9.279c0 .8222-.6387 1.4612-1.4607 1.4612H6.0035c-.8223 0-1.4607-.639-1.4607-1.4612V5.053c0-.8222.6384-1.4611 1.4607-1.4611Zm7.7732.0378 4.7207 4.7032h-4.7207Z"/>
</g>
</svg>