<svg width="24" height="24" xmlns="http://www.w3.org/2000/svg" viewBox="0 0 24 24" fill="none"> <g fill="#ced4da">
<path d="M6.6789 1.6277a.7965.7965 0 0 0-.7974.7972c0 3.4006 2.6731 6.2008 5.9942 6.2008 3.321 0 6.0014-2.8002 6.0014-6.2008a.7958.7958 0 0 0-.2334-.5638.7963.7963 0 0 0-.5637-.2334.7965.7965 0 0 0-.7973.7972c0 2.5718-1.9805 4.6064-4.407 4.6064s-4.407-2.0346-4.407-4.6064a.7968.7968 0 0 0-.7898-.7972ZM12.0007 14.2512a.7502.7502 0 0 0-.5313.2207l-2.996 2.998a.7506.7506 0 0 0-.2208.5313c0 .1994.0796.3905.2207.5313a.75.75 0 0 0 1.0547 0l1.7207-1.7207v5.1894a.7497.7497 0 0 0 .752.754.7497.7497 0 0 0 .7539-.754v-5.1855l1.7129 1.7168a.7496.7496 0 0 0 .5312.2206.7496.7496 0 0 0 .5313-.2206.7506.7506 0 0 0 .2207-.5313.7506.7506 0 0 0-.2207-.5312l-2.998-2.998a.7502.7502 0 0 0-.5313-.2208ZM12.0012 10.2498a.7501.7501 0 0 0-.753.753v.9965a.7504.7504 0 0 0 .753.753.7504.7504 0 0 0 .753-.753l-.0001-.9966a.7501.7501 0 0 0-.753-.753ZM5.4682 9.4673l-2.997 3.0044a.75.75 0 0 0 0 1.063.7503.7503 0 0 0 1.063 0l2.997-3.0044a.7502.7502 0 0 0 .221-.5315.7502.7502 0 0 0-.221-.5315.7503.7503 0 0 0-1.063 0ZM18.5844 9.467l2.997 3.0046a.75.75 0 0 1 0 1.063.7498.7498 0 0 1-1.0629 0l-2.997-3.0046a.75.75 0 0 1 0-1.063.7503.7503 0 0 1 1.063 0ZM20.4609 2.2478a.7499.7499 0 0 0-.7456.753.7498.7498 0 0 0 .7456.7529h2.0005a.7504.7504 0 0 0 .753-.753.75.75 0 0 0-.753-.753ZM1.9987 2.2478a.75.75 0 0 0-.7456.753.75.75 0 0 0 .7456.7529h2.0005a.7499.7499 0 0 0 .753-.753.75.75 0 0 0-.753-.7529Z"/>
</g>
</svg>