<svg width="24" height="24" xmlns="http://www.w3.org/2000/svg" viewBox="0 0 24 24" fill="none"> <g fill="#fff">
<path d="M3.9954 2.2812c-.1413-.0063-.2808.0159-.4043.0664-.329.1347-.5976.4927-.5976.8926v15.414c0 1.3078 1.0771 2.3848 2.3847 2.3848h13.7012c.659 0 1.2092-.4305 1.4316-.961.2224-.5302.1355-1.2193-.3261-1.6894L7.6497 5.6191v-.002a.7443.7443 0 0 0-.1172-.1464.7462.7462 0 0 0-.1289-.1016L4.6478 2.5605c-.1751-.1783-.4166-.2685-.6524-.2793Zm.4961 2.2578 1.4414 1.4688-.459.459a.7504.7504 0 0 0 0 1.0625.75.75 0 0 0 1.0547 0l.455-.4512 1.7872 1.8203-1.7695 1.7676a.7499.7499 0 0 0-.2215.5322c0 .1998.0796.3915.2215.5322a.7502.7502 0 0 0 1.0644 0l1.7578-1.7597 2.373 2.416-3.4003 3.373a.7497.7497 0 0 0-.0078 1.0645.7493.7493 0 0 0 .5298.2236.7507.7507 0 0 0 .5327-.2175l3.3984-3.3711 2.0957 2.1367-.873.873a.7496.7496 0 0 0 0 1.0626.7504.7504 0 0 0 1.0625 0l.8613-.8672 2.7188 2.7715c.0395.0401.027.0401.0153.0683-.0117.0283.0056.0294-.0507.0294H5.378c-.497 0-.8867-.3818-.8867-.8789Z"/>
</g>
</svg>