<svg fill="none" viewBox="0 0 24 24"><g class="frame-container-wrapper"><g class="frame-container-blur"><g class="frame-container-shadows"><g class="fills"><rect width="24" height="24" class="frame-background" rx="0" ry="0"/></g><g class="frame-children"><path fill="#000" d="M18.021 2.9995a3.0003 3.0003 0 0 0-2.9997 3.0003c.0027.1928.023.3852.0628.5738L8.2245 9.9641a3.0022 3.0022 0 0 0-2.2037-.9647c-.7954 0-1.5583.316-2.1203.879a2.9991 2.9991 0 0 0-.8794 2.1212c0 .7952.3166 1.5584.8794 2.1208a2.9962 2.9962 0 0 0 2.1203.8788 3.002 3.002 0 0 0 2.1788-.9452l6.8706 3.4373a3.0248 3.0248 0 0 0-.0489.5075 3.0003 3.0003 0 0 0 2.9998 3.0002c.7964 0 1.5596-.316 2.1213-.8789a2.9971 2.9971 0 0 0 .8784-2.1213 2.999 2.999 0 0 0-2.9997-2.9996 3.0005 3.0005 0 0 0-2.1758.9434l-6.8706-3.4393a3.0593 3.0593 0 0 0 .0469-.5037 3.0231 3.0231 0 0 0-.07-.639l6.8253-3.373a3.0005 3.0005 0 0 0 2.2442 1.0118 2.998 2.998 0 0 0 2.1213-.8784 2.9986 2.9986 0 0 0 .8784-2.1212 2.9978 2.9978 0 0 0-.8784-2.1214 2.9964 2.9964 0 0 0-2.1213-.8789Z" class="fills"/></g></g></g></g></svg>