<svg width="24" height="24" xmlns="http://www.w3.org/2000/svg" viewBox="0 0 24 24" fill="none"> <g fill="#fff">
<path d="M8.8616 3.139c-1.5752 0-2.8642 1.2812-2.8642 2.8567v2.0891c.001.3586.2917.6492.6496.6497a.65.65 0 0 0 .6497-.6497v-2.089c0-.8775.6885-1.5576 1.565-1.5576h9.2939c.8774 0 1.565.68 1.565 1.5575v9.2865c0 .8775-.6876 1.5575-1.565 1.5575h-2.0967c-.358 0-.6487.2907-.6494.6497.0007.3585.2915.6491.6494.6495h2.0967c1.575 0 2.864-1.2816 2.864-2.8567V5.9957c0-1.5755-1.289-2.8568-2.864-2.8568Z"/> <path fill="#000" fill-rule="evenodd" d="M17.4195 5.9989c-.2603-.1416-.6555.0841-.949.1967l-.764.2934L4.2768 10.849c-.2769.0964-.5225.3178-.634.615-.2012.5333.0776 1.1438.6071 1.3444l3.0496 1.1373-3.8968 3.9428c-.4004.4032-.3947 1.0695.0083 1.4685l1.3326 1.3266c.4023.3977 1.074.399 1.4755-.0047l3.8929-3.9364 1.1433 3.0054c.0969.2744.3156.5098.6118.6238.5315.203 1.149-.0692 1.3508-.6035L17.815 7.5455c.0867-.2275.2024-.7966.1045-1.0466m-1.5237 1.1172-4.1597 11.0604-.9311-2.4573c-.3164-.8332-1.4478-1.0671-2.0742-.4332L5.478 19.5812l-.97-.9647 4.0547-4.0993c.488-.4932.2869-1.3785-.3638-1.6212l-2.8457-1.0625 11.0425-4.2174"/>
</g>
</svg>