<svg width="24" xmlns="http://www.w3.org/2000/svg" height="24" viewBox="0 0 24 24" fill="none">
<g>
<g>
<g>
<g>
<g fill="none">
<g>
<rect rx="0" ry="0" x="0" y="0" width="24" height="24.000000000000455" transform="matrix(1, 0, 0, 1, 0, 0)"/>
</g>
<g>
<g width="24" height="24" rx="0" ry="0" style="fill: rgb(0, 0, 0);">
<g style="opacity: 1;">
<g>
<path d="M5.249358177185059,3.2884676456451416C3.5181570053100586,3.2884676456451416,2.1058034896850586,4.7093658447265625,2.1058034896850586,6.4403228759765625L2.1058034896850586,17.852066040039062C2.1058034896850586,19.583023071289062,3.5181570053100586,20.996231079101562,5.249358177185059,20.996231079101562L18.751066207885742,20.996231079101562C20.482023239135742,20.996231079101562,21.895597457885742,19.583023071289062,21.895597457885742,17.852066040039062L21.895597457885742,6.4403228759765625C21.895597457885742,4.7093658447265625,20.482023239135742,3.2884676456451416,18.751066207885742,3.2884676456451416ZM5.249358177185059,4.6771392822265625L18.751066207885742,4.6771392822265625C19.739103317260742,4.6771392822265625,20.514249801635742,5.4521636962890625,20.514249801635742,6.4403228759765625L20.514249801635742,8.131607055664062L3.4859304428100586,8.131607055664062L3.4859304428100586,6.4403228759765625C3.4859304428100586,5.4521636962890625,4.261076927185059,4.6771392822265625,5.249358177185059,4.6771392822265625ZM3.4859304428100586,9.866348266601562L20.514249801635742,9.866348266601562L20.514249801635742,17.852066040039062C20.514249801635742,18.840347290039062,19.739103317260742,19.615371704101562,18.751066207885742,19.615371704101562L5.249358177185059,19.615371704101562C4.261076927185059,19.615371704101562,3.4859304428100586,18.840347290039062,3.4859304428100586,17.852066040039062Z" style="display: inline; stroke-linecap: round; stroke-linejoin: round; fill: rgb(0, 0, 0); fill-opacity: 1;"/>
</g>
</svg>