<svg width="24" height="24" xmlns="http://www.w3.org/2000/svg" viewBox="0 0 24 24" fill="none">
  <g fill="#ced4da">
    <path d="M5.9668 2.0618c-1.609 0-2.9296 1.3205-2.9296 2.9297V19.011c0 1.6091 1.3205 2.9297 2.9296 2.9297h12.0704c1.609 0 2.9238-1.3206 2.9238-2.9297V9.0012a.7328.7328 0 0 0-.2149-.5176l-6.2304-6.207A.7332.7332 0 0 0 14 2.0618H5.9668m0 1.4687h6.297v5.4707a.7332.7332 0 0 0 .7382.7305H19.4903v9.2793c0 .822-.6311 1.461-1.4531 1.461H5.9668c-.822 0-1.4609-.639-1.4609-1.461V4.9915c0-.822.639-1.461 1.461-1.461m7.7656.0352 4.7207 4.705h-4.7207v-4.705"/>
    <path d="M10.4646 18.5328a.7132.7132 0 0 0 .0606-.0039.1801.1801 0 0 0 .0112.002.682.682 0 0 0 .045-.0037.7446.7446 0 0 0 .1701-.0315.7064.7064 0 0 0 .0977-.0351.7616.7616 0 0 0 .0642-.0332.7295.7295 0 0 0 .1465-.1094l2.998-2.998a.7325.7325 0 0 0 .2168-.5206.7325.7325 0 0 0-.2168-.5205.7335.7335 0 0 0-1.041 0l-1.7422 1.75v-5.2265a.7325.7325 0 0 0-.2146-.5235.7337.7337 0 0 0-.5237-.2148.7332.7332 0 0 0-.7304.7383v5.2265l-1.75-1.75a.733.733 0 0 0-1.2498.5205c0 .1956.0779.3829.2166.5205l2.9707 2.9727c.0087.0085.0175.017.0266.0254a.7383.7383 0 0 0 .236.1621.7456.7456 0 0 0 .0765.0195.9444.9444 0 0 0 .0378.008.7407.7407 0 0 0 .0974.0252h-.0032"/>
  </g>
</svg>