<svg width="24" height="24" xmlns="http://www.w3.org/2000/svg" viewBox="0 0 24 24" fill="none">
  <g fill="#ced4da">
    <path d="M13.97 3.3517v.0018a.6544.6544 0 0 0-.4494.2127L9.083 8.4687a.6509.6509 0 0 0-.1697.4494l.1697 6.9099a.6508.6508 0 0 0 .6274.6348l1.769.053a.6525.6525 0 0 0 .192.0037l4.3063.127a.6513.6513 0 0 0 .4807-.191l5.0032-4.9985a.649.649 0 0 0 0-.914.651.651 0 0 0-.9219 0l-3.8515 3.8497-5.6148-6.1893 3.4058-3.7657a.65.65 0 0 0-.0444-.9219.649.649 0 0 0-.4649-.1641Zm-3.75 5.8086 5.5667 6.1347-.0452.0448-3.8599-.1171-1.5546-1.709Z"/>
    <path d="M4.0044 2.268a.7305.7305 0 0 0-.5205.2121.7348.7348 0 0 0-.2177.5186v17.0006a.7356.7356 0 0 0 .2177.5185.7346.7346 0 0 0 .5205.2122h17.9971c.403-.0014.7298-.328.7307-.7307a.7328.7328 0 0 0-.7307-.7309H4.7352V2.9987a.7328.7328 0 0 0-.7308-.7308Z"/>
  </g>
</svg>