<svg width="24" height="24" xmlns="http://www.w3.org/2000/svg" viewBox="0 0 24 24" fill="none"> <g fill="#ced4da">
<path fill-rule="evenodd" d="m11.7345 18.5804-.7383 1.4042c.3337.0459.6704.0723 1.0078.0723 2.0398 0 4.0312-.9014 5.7207-1.9257 1.7104-1.036 3.2197-2.2824 4.252-3.2108 1.436-1.2897 1.436-3.5462 0-4.8357-1.0054-.9043-2.4651-2.1091-4.1211-3.1287L17.17 8.2586c1.5083.9396 2.8794 2.0699 3.8242 2.9198.8284.7438.8284 1.9063 0 2.6503-.9883.8888-2.4411 2.0856-4.0312 3.0486-1.5706.9521-3.3672 1.711-4.959 1.711a5.1327 5.1327 0 0 1-.2695-.008ZM17.0645 2.2668a.7323.7323 0 0 0-.2851.0314.7327.7327 0 0 0-.4277.3612l-1.4883 2.826c-.9239-.3273-1.885-.537-2.8594-.537-2.039 0-4.0332.9014-5.7227 1.9257-1.7104 1.036-3.2197 2.2822-4.252 3.2107-1.436 1.2897-1.436 3.5462 0 4.8357 1.032.9283 2.5416 2.1747 4.252 3.2108.4756.2882.9759.565 1.4942.8163l-1.4278 2.7128a.7331.7331 0 0 0 .8702 1.0382.7336.7336 0 0 0 .4306-.3605l10.002-18.9912a.7335.7335 0 0 0-.3106-.998.7372.7372 0 0 0-.2754-.082ZM12.004 6.4091c.695 0 1.4287.1475 2.166.3926l-1.4863 2.822a3.0223 3.0223 0 0 0-.6797-.078c-1.6418 0-3.0059 1.323-3.0059 2.953 0 .8775.3933 1.6674 1.0118 2.2068l-1.547 2.9374c-.4855-.2289-.962-.488-1.4198-.7656-1.5901-.9631-3.051-2.1598-4.0391-3.0486-.8284-.7438-.8284-1.9064 0-2.6503.988-.8889 2.449-2.0855 4.039-3.0487 1.5706-.9521 3.3702-1.7206 4.961-1.7206Z"/>
</g>
</svg>