<svg width="24" height="24" xmlns="http://www.w3.org/2000/svg" viewBox="0 0 24 24" fill="none"> <g fill="#fff">
<path fill="#fff" d="M12 4c-2.1728 0-2.445.0093-3.298.0476-.8514.039-1.4332.1747-1.9427.3722-.5256.2048-.9717.4782-1.4165.9226-.4448.445-.7185.8914-.9221 1.4173-.1982.5091-.334 1.0902-.3728 1.9417C4.0089 9.555 4 9.8277 4 12.0001s.0088 2.4452.0479 3.2985c.0388.8517.1746 1.4332.3728 1.9418.2036.526.4773.9724.9221 1.4172.4448.4446.8909.7178 1.4165.9229.5095.1973 1.0913.333 1.9427.3713.853.039 1.1252.0483 3.298.0483 2.1724 0 2.4451-.0094 3.2981-.0483.8516-.0383 1.4332-.174 1.9427-.3713.5259-.2051.9714-.4783 1.4162-.9229.4451-.4448.7188-.8912.9226-1.4172.1983-.5086.334-1.0901.3726-1.9418.039-.8533.0478-1.1261.0478-3.2985s-.0087-2.4452-.0478-3.2987c-.0388-.8515-.1743-1.4326-.3726-1.9417-.2038-.526-.4775-.9723-.9226-1.4173-.4448-.4444-.8903-.7178-1.4162-.9226-.5095-.1975-1.091-.3332-1.9427-.3722C14.4451 4.0093 14.1724 4 12.0001 4m0 1.4412c2.1362 0 2.3891.0084 3.2329.0467.7795.0356 1.2036.166 1.4853.2755.374.1452.6401.3188.9194.5986.2806.2801.4534.5465.5982.9199.1106.282.2405.7057.2759 1.4854.0388.8437.047 1.0964.047 3.2328s-.0082 2.389-.047 3.2327c-.0354.7803-.1653 1.2034-.276 1.4854-.1447.3734-.3175.6396-.598.92-.2794.2798-.5455.4532-.9195.5984-.2817.1095-.7058.2401-1.4853.2756-.8438.0384-1.0965.0463-3.233.0463-2.1364 0-2.3894-.008-3.2329-.0463-.7797-.0355-1.2036-.1661-1.4853-.2756-.374-.1452-.6401-.3186-.9197-.5984-.28-.2804-.4531-.5466-.5979-.92-.1094-.282-.2407-.7051-.2761-1.4854-.0386-.8437-.0466-1.0963-.0466-3.2327s.008-2.3891.0466-3.2328c.0354-.7797.1667-1.2034.2761-1.4854.1448-.3734.3179-.6398.598-.92.2795-.2797.5456-.4533.9196-.5985.2817-.1095.7056-.2398 1.4853-.2755.8435-.0383 1.0967-.0467 3.233-.0467"/> <path fill="#fff" d="M11.8155 14.482c-1.473 0-2.667-1.1944-2.667-2.6663 0-1.4735 1.194-2.6671 2.667-2.6671 1.4726 0 2.6662 1.1936 2.6662 2.667 0 1.472-1.1936 2.6665-2.6662 2.6665m0-6.7752c-2.2688 0-4.1084 1.8393-4.1084 4.1088 0 2.2687 1.8396 4.108 4.1084 4.108 2.269 0 4.1076-1.8393 4.1076-4.108 0-2.2695-1.8386-4.1088-4.1076-4.1088"/> <path fill="#fff" d="M17.0406 8.6665c0 .5307-.43.9607-.9595.9607-.5305 0-.9602-.43-.9602-.9607 0-.5296.4297-.9596.9602-.9596.5295 0 .9595.43.9595.9596"/>
</g>
</svg>