<svg width="24" height="24" xmlns="http://www.w3.org/2000/svg" viewBox="0 0 24 24" fill="none"> <g fill="#fff">
<path d="M22 12.6593V4.6648h-3.737V3.3463c0-.3678-.127-.6836-.3777-.9439C17.641 2.1354 17.345 2 17 2H3.263c-.3482 0-.6477.1354-.8985.4024C2.1204 2.6627 2 2.9785 2 3.3463v3.9833c0 .3713.1204.6905.3645.9577.2508.2602.5503.3886.8985.3886H17c.345 0 .6411-.1284.8853-.3886.2507-.2672.3777-.5864.3777-.9577V6.011h2.5v5.3296H9.5v2.6648h-.625c-.1757 0-.3222.066-.4426.1943-.114.1318-.1694.288-.1694.472v6.662c0 .1839.0554.34.1694.4718.1204.1285.2669.1944.4426.1944h2.5c.1726 0 .3189-.066.4427-.1944.1203-.1318.1823-.288.1823-.4719v-6.662c0-.184-.062-.34-.1823-.4719-.1236-.1283-.2703-.1943-.4427-.1943h-.612v-1.3462H22m-5-7.9945H3.263V3.3463H17v1.3185m5-1.3185v15.9889"/>
</g>
</svg>