<svg fill="none" viewBox="0 0 24 24"><g class="frame-container-wrapper"><g class="frame-container-blur"><g class="frame-container-shadows"><g class="fills"><rect width="24" height="24" class="frame-background" rx="0" ry="0"/></g><g fill="#000" class="frame-children"><ellipse cx="11.9025" cy="19.6873" class="fills" rx="1.7847" ry="1.8127"/><path d="M10.6001 15.4016c.029-.3704.0706-1.7697.134-2.058.103-.495.2793-.945.524-1.3466.25-.4025.583-.8277.9944-1.2765.3205-.3408.6093-.6628.8684-.9635.257-.3094.4631-.6354.6174-.9754.154-.3486.23-.7475.23-1.196 0-.4876-.0706-.9013-.2202-1.2422-.147-.3405-.362-.5992-.6492-.7783-.2786-.1776-.629-.266-1.0471-.266-.348 0-.6758.0773-.982.2311-.3085.1482-.5556.3794-.7443.6978-.186.3094-.2889.7197-.303 1.2304H7.5008c.01-.976.2229-1.7961.6267-2.4614.4038-.665.9475-1.165 1.6328-1.4978.683-.3323 1.4468-.4988 2.2915-.4988.935 0 1.7358.1778 2.3957.5332.6634.3484 1.1702.8592 1.5174 1.5332.3576.6652.5337 1.4706.5337 2.4141 0 .6815-.1224 1.3007-.3672 1.857a6.8105 6.8105 0 0 1-.952 1.5441c-.3893.4724-.813.945-1.265 1.4174-.392.394-.656.8242-.7955 1.2878-.081.2512-.1345 1.5222-.169 1.813l-2.3498.0014" class="fills" font-family="roboto" font-size="8" font-weight="500" style="white-space:pre"/><g stroke-linecap="round" stroke-linejoin="round" class="strokes" font-family="roboto" font-size="8" font-weight="500" style="white-space:pre"><path fill="none" d="M10.6001 15.4016c.029-.3704.0706-1.7697.134-2.058.103-.495.2793-.945.524-1.3466.25-.4025.583-.8277.9944-1.2765.3205-.3408.6093-.6628.8684-.9635.257-.3094.4631-.6354.6174-.9754.154-.3486.23-.7475.23-1.196 0-.4876-.0706-.9013-.2202-1.2422-.147-.3405-.362-.5992-.6492-.7783-.2786-.1776-.629-.266-1.0471-.266-.348 0-.6758.0773-.982.2311-.3085.1482-.5556.3794-.7443.6978-.186.3094-.2889.7197-.303 1.2304H7.5008c.01-.976.2229-1.7961.6267-2.4614.4038-.665.9475-1.165 1.6328-1.4978.683-.3323 1.4468-.4988 2.2915-.4988.935 0 1.7358.1778 2.3957.5332.6634.3484 1.1702.8592 1.5174 1.5332.3576.6652.5337 1.4706.5337 2.4141 0 .6815-.1224 1.3007-.3672 1.857a6.8105 6.8105 0 0 1-.952 1.5441c-.3893.4724-.813.945-1.265 1.4174-.392.394-.656.8242-.7955 1.2878-.081.2512-.1345 1.5222-.169 1.813l-2.3498.0014" class="stroke-shape"/></g></g></g></g></g></svg>