<svg width="24" height="24" xmlns="http://www.w3.org/2000/svg" viewBox="0 0 24 24" fill="none"> <g fill="#fff">
<path d="M12.118 3.451c3.0617 0 5.3989 2.903 5.3806 5.3888-.0342 2.6054-1.4902 5.6232-2.9824 7.9512-1.1958 1.8667-1.9534 2.6865-2.377 3.1737-.4216-.573-1.301-1.719-2.5918-3.8242-.7854-1.2817-1.5679-2.6769-2.1399-3.9626-.573-1.286-.9145-2.485-.907-3.2269.0379-3.452 2.4451-5.5 5.6175-5.5Zm0-1.498c-3.8616 0-7.0728 2.801-7.117 6.9828-.013 1.1664.419 2.4683 1.0325 3.8473.6145 1.379 1.4311 2.8236 2.2385 4.1409 1.6148 2.6343 3.2251 4.7751 3.2251 4.7751.2813.382.8416.4106 1.16.0586 0 0 1.5566-1.7135 3.1215-4.1542C23.4612 5.6157 14.9693 1.953 12.118 1.953Z"/> <path fill="#000" d="M12.0286 6.4043c.8682 0 1.5584.6892 1.5584 1.5585 0 .8691-.6892 1.5566-1.5584 1.5566-.8694 0-1.5566-.6875-1.5566-1.5566 0-.8693.6872-1.5585 1.5566-1.5585Zm0-1.506c-1.6804 0-3.0552 1.3847-3.0552 3.0645 0 1.6798 1.3748 3.0547 3.0552 3.0547 1.6792 0 3.056-1.375 3.056-3.0547 0-1.6798-1.3768-3.0645-3.056-3.0645Z"/>
</g>
</svg>