<svg width="24" height="24" xmlns="http://www.w3.org/2000/svg" viewBox="0 0 24 24" fill="none"> <g fill="#ced4da">
<path d="M3.4766 2.7496c-.4021.0019-.7288.3274-.7295.7303v5.043a.7324.7324 0 0 0 .7295.7306h1.7878v5.4921H3.4766a.7345.7345 0 0 0-.5186.2175.732.732 0 0 0-.211.5208v5.0332a.7317.7317 0 0 0 .7296.7381h5.0412a.7312.7312 0 0 0 .5198-.2167.7271.7271 0 0 0 .2127-.5214v-1.7853h4.0056c.3296 1.3385 1.5278 2.28 2.907 2.2833a3.0014 3.0014 0 0 0 2.121-.8786 3.0009 3.0009 0 0 0 .8782-2.1214c0-.7957-.3156-1.559-.8781-2.121a3.0011 3.0011 0 0 0-2.1211-.879c-1.3682.0026-2.5606.9295-2.9004 2.254H9.2503V15.484a.728.728 0 0 0-.2127-.5215.7322.7322 0 0 0-.5198-.2168H6.733v-5.492h1.785a.7332.7332 0 0 0 .7324-.7307V6.7357h5.4924V8.523a.733.733 0 0 0 .2175.5185.7326.7326 0 0 0 .5208.2121h5.0332a.7328.7328 0 0 0 .738-.7306V3.48a.7316.7316 0 0 0-.2173-.5182.7325.7325 0 0 0-.5207-.212H15.481a.7325.7325 0 0 0-.5208.212.7319.7319 0 0 0-.2175.5182v1.7874H9.2503V3.48a.7326.7326 0 0 0-.7325-.7303Zm.7383 1.4688h3.5727v3.572H4.215Zm11.9963 0h3.572v3.572h-3.572ZM4.2149 16.2144h3.5727v3.5721H4.215Z" paint-order="markers"/>
</g>
</svg>