<svg width="24" height="24" xmlns="http://www.w3.org/2000/svg" viewBox="0 0 24 24" fill="none"> <g fill="#fff">
<path d="M4.4795 8.8599c-.2507 0-.5317.0987-.843.2962-.4253.2962-.638.653-.638 1.0707 0 .2506.0611.5049.1825.763.1289.2582.281.5203.4555.786l1.9136 2.7793-1.9136 2.7564a7.0588 7.0588 0 0 0-.4555.7974c-.1216.2657-.1824.524-.1824.7745 0 .4176.2126.7746.638 1.0707.3112.1974.5922.2961.843.2961.3112 0 .5922-.1252.8427-.3758.2583-.2582.4859-.5505.6834-.877l1.4126-1.9137 1.3667 1.9136c.2353.319.4746.6074.7175.8656.2432.2582.5278.3873.8542.3873.2508 0 .5318-.0986.843-.2961.4253-.2886.638-.6455.638-1.0707 0-.2506-.0647-.5088-.1939-.7745-.1213-.2658-.2695-.5316-.444-.7974l-2.0276-2.7564 2.0276-2.7792a4.2935 4.2935 0 0 0 .4555-.786c.1214-.2733.1824-.5353.1824-.786 0-.41-.2127-.7593-.638-1.0478-.2885-.1975-.577-.2962-.8657-.2962-.3264 0-.6113.1253-.8542.376-.243.2506-.4746.5353-.6948.8542l-1.367 1.9136L6.0057 10.09c-.2051-.319-.4329-.6038-.6834-.8543-.2507-.2506-.5315-.376-.8428-.376ZM17.3604 4.2126c-.5156 0-.959.0596-1.33.1779-.3712.1187-.6856.2733-.9434.464-.263.2012-.472.415-.6265.6418-.1597.2372-.2837.4744-.3711.7115-.0876.2371-.147.4614-.178.6728-.0307.2062-.0461.379-.0461.518 0 .3043.1081.5543.3247.7502.2165.1908.5.2861.8506.2861.2732 0 .5337-.0927.781-.2784.2527-.1856.3789-.464.3789-.835 0-.3198.0747-.5931.2244-.82.1545-.2267.4665-.3401.9355-.3401.2012 0 .3945.0287.58.085.1908.0567.348.1677.4718.3326.1237.1649.1855.4073.1855.727 0 .1494-.0205.2964-.0615.4408-.0362.1443-.1214.286-.2554.4253-.1287.1443-.3169.2913-.5644.4408-.2422.1444-.5672.2965-.9744.4563-.83.3248-1.4846.7733-1.9641 1.3456a3.3158 3.3158 0 0 0-.5569.9512c-.134.3506-.201.7243-.201 1.1212v1.2373c0 .3608.098.6805.2938.959.196.2783.531.4176 1.0053.4176h3.8511c.3093 0 .6033-.0236.8816-.0699.2783-.0513.5051-.1546.6804-.3093.1756-.1598.2632-.3995.2632-.719 0-.3145-.0876-.5466-.2632-.6961-.1753-.1496-.402-.2475-.6804-.2939-.2732-.0515-.5671-.0772-.8816-.0772h-2.6911v-.4795c0-.428.152-.7733.4563-1.0363a3.6687 3.6687 0 0 1 1.0285-.6186 5.9225 5.9225 0 0 0 1.4617-.7733c.3916-.2887.732-.6521 1.0207-1.0904.2937-.4382.4407-.9511.4407-1.539 0-.964-.2964-1.7295-.8891-2.2967-.294-.2783-.6626-.4948-1.106-.6495-.4382-.1598-.9485-.2398-1.531-.2398Z" font-family="Dangrek"/>
</g>
</svg>