<svg width="24" height="24" xmlns="http://www.w3.org/2000/svg" viewBox="0 0 24 24" fill="none">
  <g fill="#ced4da">
    <path d="M10.1192 1.9586c-3.8616 0-7.0725 2.8007-7.1172 6.9824-.0125 1.1666.4265 2.4666 1.041 3.8457.6145 1.3792 1.4229 2.8175 2.2305 4.1348 1.6152 2.6345 3.2324 4.7832 3.2324 4.7832a.7498.7498 0 0 0 1.1523.0527s1.0193-1.1312 2.2344-2.8476c.8545.6815 1.9353 1.0898 3.1094 1.0898 2.7536 0 4.998-2.2445 4.998-4.998 0-2.4456-1.7705-4.494-4.0957-4.922.0547-.4058.0884-.8127.0938-1.2187v-.0078c.0254-3.392-2.9068-6.8945-6.879-6.8945Zm0 1.498c3.0613 0 5.3994 2.8946 5.3808 5.3809-.0053.3909-.0449.7933-.1093 1.1992-2.4666.3041-4.3868 2.4184-4.3868 4.9649 0 1.03.3142 1.9885.8516 2.7851-.8188 1.1779-1.376 1.786-1.7148 2.1758-.4222-.5731-1.301-1.7189-2.5918-3.8242-.786-1.2818-1.5677-2.6771-2.1407-3.963-.573-1.2857-.9162-2.4768-.9082-3.2187.0371-3.4521 2.4473-5.5 5.6192-5.5Zm5.7363 8.293c.4741 0 .8589.3654.8594.8164.0002.217-.0901.4252-.2515.5786-.1611.1536-.3799.2398-.6079.2398-.228 0-.4468-.0862-.608-.2398-.1613-.1534-.2516-.3617-.2514-.5786.0005-.451.3853-.8164.8594-.8164Zm-.0098 2.7774c.1936.0008.3792.075.5152.2063.136.1312.2112.3085.2094.4929v2.5742c-.0029.3793-.3259.6858-.7246.6875-.4018.0023-.7295-.3053-.7324-.6875v-2.5742c-.002-.1856.0745-.3642.2122-.4955.1377-.1315.3252-.2048.5202-.2037Z"/>
    <path d="M9.6333 5.2905c-1.6797 0-3.0559 1.3762-3.0559 3.056s1.3762 3.0562 3.056 3.0562c1.6799 0 3.056-1.3764 3.056-3.0562s-1.3761-3.056-3.056-3.056Zm0 1.4984c.8692 0 1.5577.6885 1.5577 1.5576 0 .8692-.6885 1.5577-1.5577 1.5577-.8691 0-1.5576-.6885-1.5576-1.5577 0-.8691.6885-1.5576 1.5576-1.5576Z"/>
  </g>
</svg>