<svg width="24" xmlns="http://www.w3.org/2000/svg" height="24" viewBox="0 0 24 24" fill="none">
<g>
<g>
<g>
<g>
<g fill="none">
<g>
<g>
<g>
<rect rx="4" ry="4" x="0" y="0" transform="matrix(1, 0, 0, 1, 0, 0)" width="24" height="24" style="fill: rgb(0, 0, 0); fill-opacity: 1;"/>
</g>
<g>
<g>
<path d="M21.005908966064453,7.4289703369140625C20.788867950439453,6.6108551025390625,20.148487091064453,5.9659576416015625,19.334766387939453,5.7473297119140625C17.860889434814453,5.3499908447265625,11.950732231140137,5.3499908447265625,11.950732231140137,5.3499908447265625C11.950732231140137,5.3499908447265625,6.040087699890137,5.3499908447265625,4.565966606140137,5.7473297119140625C3.752978563308716,5.9659576416015625,3.112597703933716,6.6108551025390625,2.894824266433716,7.4289703369140625C2.500048875808716,8.912857055664062,2.500048875808716,12.008071899414062,2.500048875808716,12.008071899414062C2.500048875808716,12.008071899414062,2.500048875808716,15.103408813476562,2.894824266433716,16.586807250976562C3.112597703933716,17.405410766601562,3.752978563308716,18.049819946289062,4.565966606140137,18.268814086914062C6.040087699890137,18.666275024414062,11.950732231140137,18.666275024414062,11.950732231140137,18.666275024414062C11.950732231140137,18.666275024414062,17.860889434814453,18.666275024414062,19.334766387939453,18.268814086914062C20.148487091064453,18.049819946289062,20.788867950439453,17.405410766601562,21.005908966064453,16.586807250976562C21.400928497314453,15.103408813476562,21.400928497314453,12.008071899414062,21.400928497314453,12.008071899414062C21.400928497314453,12.008071899414062,21.400928497314453,8.912857055664062,21.005908966064453,7.4289703369140625" style="fill-rule: nonzero; stroke: none; stroke-width: 0.133333; fill: rgb(255, 255, 255); fill-opacity: 1;"/>
</g>
<g>
<g>
<path d="M10.000048637390137,14.620864868164062L10.000048637390137,9.000015258789062L14.940234184265137,11.810440063476562Z" style="fill-rule: nonzero; stroke: none; stroke-width: 0.133333; fill: rgb(23, 23, 23); fill-opacity: 1;"/>
</g>
</svg>