<svg fill="none" viewBox="0 0 24 24"><g class="frame-container-wrapper"><g class="frame-container-blur"><g class="frame-container-shadows"><g class="fills"><rect width="24" height="24" class="frame-background" rx="0" ry="0"/></g><g class="frame-children"><path fill="#000" d="M12.0105 2.0671c-2.6985 0-4.9314 2.12-4.9314 4.7538v2.9007a.7287.7287 0 0 0 .0547.2652H5.7361a.734.734 0 0 0-.7312.7387v10.549a.7331.7331 0 0 0 .7312.73h12.5498a.736.736 0 0 0 .5215-.2123.7305.7305 0 0 0 .2168-.5178v-10.549a.73.73 0 0 0-.2141-.5234.735.735 0 0 0-.5242-.2152H8.501a.7411.7411 0 0 0 .0474-.2652V6.8209c0-1.8063 1.5234-3.2848 3.4621-3.2848 1.2241 0 2.2866.6012 2.9011 1.4903.2298.332.6863.415 1.0196.1855a.735.735 0 0 0 .3059-.4703.7304.7304 0 0 0-.1153-.5496c-.8886-1.286-2.4082-2.1249-4.1113-2.1249ZM6.4678 11.456h11.0857v9.0877H6.4678Z" class="fills"/></g></g></g></g></svg>