<svg width="24" height="24" xmlns="http://www.w3.org/2000/svg" viewBox="0 0 24 24" fill="none"> <g fill="#fff">
<path d="M3.56 7.8896a.7978.7978 0 0 0-.4428.2265.8024.8024 0 0 0-.2353.5671c0 .2132.085.417.2353.5674l3.2498 3.248-3.2498 3.25a.8023.8023 0 0 0 0 1.1312.8034.8034 0 0 0 1.1367 0l3.2464-3.2485 3.25 3.2485a.8013.8013 0 0 0 1.1303 0c.3108-.3133.3108-.8185 0-1.1313l-3.248-3.2498 3.248-3.248a.799.799 0 0 0 .2351-.5675.7991.7991 0 0 0-.235-.5671.8015.8015 0 0 0-1.1304 0l-3.25 3.25-3.2464-3.25a.8005.8005 0 0 0-.6938-.2265Z"/> <path fill="#000" d="M18.8665 7.5205v9.5115h-1.5686v-7.65l-2.3242.7882V8.8746l3.7045-1.354Z" font-family="roboto" font-size="13.3333" font-weight="500"/>
</g>
</svg>