<svg fill="none" viewBox="0 0 24 24"><g class="frame-container-wrapper"><g class="frame-container-blur"><g class="frame-container-shadows"><g class="fills"><rect width="24" height="24" class="frame-background" rx="0" ry="0"/></g><g fill="#000" class="frame-children"><path d="M0 16.4063c0 1.4216 1.1565 2.578 2.5782 2.578h18.8437c1.4217 0 2.5781-1.1564 2.5781-2.578v-.2344H0v.2343ZM21.422.7031h-8.7188v14.0625H24V3.2813C24 1.8596 22.8436.703 21.422.703ZM2.5782.7031C1.1565.7031 0 1.8596 0 3.2812v11.4844h11.297V.7031H2.5781ZM17.625 21.8906h-1.3647l-.489-1.5H8.2288l-.489 1.5H6.375a.703.703 0 0 0-.703.7032.703.703 0 0 0 .703.703h11.25a.703.703 0 0 0 .7032-.703.703.703 0 0 0-.7032-.7032Z" class="fills"/></g></g></g></g></svg>