<svg width="24" height="24" xmlns="http://www.w3.org/2000/svg" viewBox="0 0 24 24" fill="none"> <g fill="#ced4da">
<path d="M3.4981 3.135c-.476.0018-.8618.387-.8635.8632v16.004c.0017.4756.3874.8613.8635.8632h16.9998a.8664.8664 0 0 0 .6145-.2515.8665.8665 0 0 0 .2565-.6117.8609.8609 0 0 0-.2539-.6173.8669.8669 0 0 0-.6171-.2543h-.635v-1.6305a.8657.8657 0 0 0-.8626-.8631c-.4763.0018-.862.387-.8638.8631v1.5567c-.9328-.1735-1.469-.6552-1.9573-1.4025-.6208-.9523-1.0278-2.3857-1.468-3.8962-.4409-1.511-.9199-3.1088-1.9128-4.4085-.992-1.2997-2.5818-2.215-4.7981-2.215-1.5872 0-2.7922.8766-3.6311 1.8164V3.9982a.8657.8657 0 0 0-.8711-.8632Zm4.5022 5.7344c1.7827 0 2.6916.5785 3.4177 1.529.7263.9504 1.1904 2.3566 1.625 3.8459.4346 1.4892.8342 3.0575 1.6812 4.3553a5.366 5.366 0 0 0 .3987.531h-3.2537v-1.6305a.8657.8657 0 0 0-.871-.8632c-.4762.0019-.862.3871-.8636.8632v1.6305H4.3692v-1.7633h1.6306c.476-.0018.8618-.3876.8635-.8633a.8683.8683 0 0 0-.251-.6145.867.867 0 0 0-.6125-.2564H4.3692v-2.2677h1.6306c.476-.0019.8618-.3876.8635-.8632a.8686.8686 0 0 0-.251-.6146.868.868 0 0 0-.6125-.257h-1.375c.167-.3179.3977-.71.6958-1.1073.6663-.889 1.565-1.654 2.6797-1.654Z"/>
</g>
</svg>