<svg width="24" height="24" xmlns="http://www.w3.org/2000/svg" viewBox="0 0 24 24" fill="none"> <g fill="#fff">
<path d="M5.2608 2.079c-1.7502 0-3.1814 1.439-3.1814 3.1906v13.4685c0 1.7517 1.4312 3.183 3.1814 3.183H18.732c1.7512 0 3.19-1.4313 3.19-3.183V5.2696c0-1.7516-1.4388-3.1907-3.19-3.1907Zm0 1.4694h6.032a.7277.7277 0 0 0-.0452.2207v16.6902H5.2608c-.9631 0-1.72-.757-1.72-1.7212V5.2696c0-.964.7569-1.7212 1.72-1.7212Zm7.442 0h6.0292c.9634 0 1.721.7571 1.721 1.7212v13.4685c0 .9643-.7576 1.7212-1.721 1.7212h-5.9868V3.7691a.75.75 0 0 0-.0425-.2207Z"/>
</g>
</svg>