<svg width="24" height="24" xmlns="http://www.w3.org/2000/svg" viewBox="0 0 24 24" fill="none">
  <g fill="#000">
    <path d="M6.5115 3.1674c-1.8425 0-3.3513 1.5013-3.3513 3.344v10.9694c0 1.8433 1.5088 3.3515 3.3513 3.3515H17.496c1.8428 0 3.344-1.5082 3.344-3.3515V6.5114c0-1.8427-1.5012-3.344-3.344-3.344Zm0 1.4616H17.496c1.0557 0 1.8823.8268 1.8823 1.8824v10.9694c0 1.0557-.8266 1.8825-1.8823 1.8825H6.5115c-1.0554 0-1.8823-.8268-1.8823-1.8825V6.5114c0-1.0556.8269-1.8824 1.8823-1.8824Z"/>
    <path d="M7.7371 7.0073a.8704.8704 0 0 0-.478.2465.8667.8667 0 0 0-.2547.614c0 .2307.0914.4517.2547.6146L10.7764 12l-3.5173 3.5174a.868.868 0 0 0 0 1.2245.8662.8662 0 0 0 .6145.2547.8656.8656 0 0 0 .6135-.2547l3.5176-3.5176 3.5176 3.5176c.3393.3368.8867.3368 1.2253 0a.8685.8685 0 0 0 0-1.2245L13.2291 12l3.5185-3.5175a.8716.8716 0 0 0 .2546-.6146.8708.8708 0 0 0-.2546-.614c-.3386-.3368-.886-.3368-1.2253 0l-3.5176 3.5174L8.487 7.2538a.8682.8682 0 0 0-.75-.2465Z"/>
  </g>
</svg>