<svg fill="none" viewBox="0 0 24 24"><g class="frame-container-wrapper"><g class="frame-container-blur"><g class="frame-container-shadows"><g class="fills"><rect width="24" height="24" class="frame-background" rx="0" ry="0"/></g><g fill="#000" class="frame-children"><path d="M5.9988 5.0012c-.554 0-1 .446-1 1v12c0 .5541.446 1 1 1h3c.554 0 1-.4459 1-1v-12c0-.554-.446-1-1-1ZM14.9988 5.0012c-.554 0-1 .446-1 1v12c0 .5541.446 1 1 1h3c.554 0 1-.4459 1-1v-12c0-.554-.446-1-1-1Z" class="fills"/></g></g></g></g></svg>