<svg width="24" height="24" xmlns="http://www.w3.org/2000/svg" viewBox="0 0 24 24" fill="none"> <g fill="#ced4da">
<path d="M12.0033 2.98c-4.9715 0-9.0193 4.0483-9.0193 9.0189 0 4.971 4.0478 9.0132 9.0193 9.0132 4.9704 0 9.0127-4.0423 9.0127-9.0132 0-4.9706-4.0423-9.0188-9.0127-9.0188Zm-.731 1.504v2.5194a.7337.7337 0 0 0 .731.7303c.4023-.0018.729-.3275.7297-.7303V4.484c3.594.3428 6.4443 3.1911 6.7876 6.7845H16.005a.7326.7326 0 0 0-.5205.2122.7303.7303 0 0 0-.2176.5182.7305.7305 0 0 0 .2176.5185.7332.7332 0 0 0 .5205.2123h3.5156c-.3433 3.5933-3.1936 6.4435-6.7876 6.7867V16.997c-.0007-.4027-.3274-.729-.7297-.7308a.7342.7342 0 0 0-.731.7308v2.5194c-3.5937-.3432-6.4412-3.1934-6.7842-6.7867h3.5154c.4021-.002.7288-.3281.7297-.7308-.001-.4029-.3276-.7285-.7297-.7304H4.4881c.343-3.5934 3.1914-6.4417 6.7842-6.7845Z"/>
</g>
</svg>