<svg fill="none" viewBox="0 0 24 23.992"><g class="frame-container-wrapper"><g class="frame-container-blur"><g class="frame-container-shadows"><g class="fills"><rect width="24" height="23.9923" class="frame-background" rx="0" ry="0"/></g><g class="frame-children"><path fill="#000" d="M5.2605 2.079c-1.7504 0-3.1816 1.4385-3.1816 3.1892v13.4624c0 1.751 1.4312 3.1815 3.1816 3.1815h13.4776c1.7512 0 3.1814-1.4305 3.1814-3.1815V5.2682c0-1.7507-1.4302-3.1892-3.1814-3.1892Zm0 1.4689h3.0328a.7476.7476 0 0 0-.0442.2205V20.451H5.2605c-.9633 0-1.7126-.7565-1.7126-1.7204V5.2682c0-.9636.7493-1.7203 1.7126-1.7203Zm4.4437 0h4.5893a.7573.7573 0 0 0-.0432.2205V20.451H9.7466V3.7684a.7485.7485 0 0 0-.0424-.2205Zm6.001 0h3.0329c.9643 0 1.7134.7567 1.7134 1.7203v13.4624c0 .9639-.749 1.7204-1.7134 1.7204h-2.9895V3.7684a.7497.7497 0 0 0-.0435-.2205Z" class="fills"/></g></g></g></g></svg>