<svg fill="none" viewBox="0 0 24 24"><defs><clipPath id="a" class="frame-clip frame-clip-def"><rect width="24" height="24" rx="0" ry="0"/></clipPath></defs><g class="frame-container-wrapper"><g class="frame-container-blur"><g class="frame-container-shadows" clip-path="url(#a)"><g class="fills"><rect width="24" height="24" class="frame-background" rx="0" ry="0"/></g><g class="frame-children"><path fill="#000" d="M6 2.9999c-1.6567 0-3 1.3432-3 3v1.5a.75.75 0 0 0 1.5 0v-1.5c0-.8284.6719-1.5 1.5-1.5h1.5a.75.75 0 0 0 0-1.5H6ZM16.5 2.9999a.75.75 0 0 0 0 1.5H18c.8281 0 1.5.6716 1.5 1.5v1.5a.75.75 0 0 0 1.5 0v-1.5c0-1.6568-1.3433-3-3-3h-1.5ZM4.5 16.4999a.75.75 0 0 0-1.5 0v1.5c0 1.6567 1.3433 3 3 3h1.5a.75.75 0 0 0 0-1.5H6c-.8281 0-1.5-.6717-1.5-1.5v-1.5ZM21 16.4999a.75.75 0 0 0-1.5 0v1.5c0 .8283-.6719 1.5-1.5 1.5h-1.5a.75.75 0 0 0 0 1.5H18c1.6567 0 3-1.3433 3-3v-1.5Z" class="fills"/><rect width="2" height="10" x="11" y="7" fill="#000" class="fills" rx="1" ry="1"/><rect width="2" height="10" x="11" y="7" fill="#000" class="fills" rx="1" ry="1" transform="rotate(90 12 12)"/></g></g></g></g></svg>