<svg width="24" xmlns="http://www.w3.org/2000/svg" height="24" viewBox="0 0 24 24" fill="none">
<g>
<g>
<g>
<g>
<g fill="none">
<g>
<rect rx="0" ry="0" x="0" y="0" width="24" height="24.000000000000455" transform="matrix(1, 0, 0, 1, 0, 0)"/>
</g>
<g>
<g width="13.728" height="7.734" rx="0" ry="0" style="fill: rgb(0, 0, 0);">
<g style="opacity: 1;">
<g>
<path d="M5.883593559265137,8.0028076171875C5.649462699890137,8.0018310546875,5.425585746765137,8.0953369140625,5.259081840515137,8.262451171875C4.913378715515137,8.6121826171875,4.913378715515137,9.1795654296875,5.259081840515137,9.5299072265625L11.379199028015137,15.7376708984375C11.724413871765137,16.08740234375,12.283495903015137,16.08740234375,12.628710746765137,15.7376708984375L18.741504669189453,9.5299072265625C19.086719512939453,9.1795654296875,19.086719512939453,8.6121826171875,18.741504669189453,8.262451171875C18.396045684814453,7.91259765625,17.836963653564453,7.91259765625,17.491748809814453,8.262451171875L12.003954887390137,13.8363037109375L6.508593559265137,8.262451171875C6.342089653015137,8.0953369140625,6.117968559265137,8.0018310546875,5.883593559265137,8.0028076171875Z" style="display: inline; stroke-linecap: round; stroke-linejoin: round; fill: rgb(0, 0, 0); fill-opacity: 1;"/>
</g>
</svg>