<svg width="24" height="24" xmlns="http://www.w3.org/2000/svg" viewBox="0 0 24 24" fill="none">
  <g fill="#000">
    <path d="M5.2669 2.0839c-1.7505 0-3.1887 1.4307-3.1887 3.1817v13.4649c0 1.7507 1.4382 3.189 3.1887 3.189h13.4714c1.752 0 3.182-1.4383 3.182-3.189V5.2656c0-1.751-1.43-3.1817-3.182-3.1817Zm0 1.4619h13.4714c.9649 0 1.7207.7562 1.7207 1.7198v13.4649c0 .9632-.7558 1.7196-1.7207 1.7196H5.267c-.9639 0-1.7205-.7564-1.7205-1.7196V5.2656c0-.9636.7566-1.7198 1.7205-1.7198Z"/>
    <path d="M13.0027 5.2666a.7236.7236 0 0 0-.2805.0586.7296.7296 0 0 0-.178.1055.1936.1936 0 0 0-.021.0117l-6.9975 6.0018A.7333.7333 0 0 0 5.437 12.47l4.9978 6.002a.7339.7339 0 0 0 .5317.262.7369.7369 0 0 0 .5522-.2175l6.9983-6.998a.7297.7297 0 0 0 .214-.5783V5.9969c-.0008-.403-.3275-.7285-.7296-.7303Zm1.774 1.4685h2.4939v2.4961Zm-1.8164.2659 1.5 1.4978-5.8865 5.4397-1.5425-1.852Zm2.5385 2.5367 1.467 1.4647-5.912 5.9123-1.5389-1.8454 5.9825-5.5297c.0007-.0004.0014-.0011.0014-.0019Z"/>
  </g>
</svg>