<svg width="24" height="24" xmlns="http://www.w3.org/2000/svg" viewBox="0 0 24 24" fill="none">
  <g fill="#000">
    <path d="M5.2606 2.0793c-1.7512 0-3.1814 1.4376-3.1814 3.1889v13.464c0 1.7507 1.4302 3.1813 3.1814 3.1813h13.4722c1.7502 0 3.189-1.4306 3.189-3.1814V5.2681c0-1.7512-1.4388-3.1888-3.189-3.1888Zm0 1.469h13.4722c.963 0 1.72.7562 1.72 1.7199v13.464c0 .9632-.757 1.7198-1.72 1.7198H5.2606c-.9631 0-1.72-.7566-1.72-1.7199V5.2681c0-.9636.7569-1.7198 1.72-1.7198Z"/>
    <path d="M9.9915 6.935a.867.867 0 0 0-.8637.8655.8715.8715 0 0 0 .251.6146.8702.8702 0 0 0 .6127.2565h4.1053L7.179 15.5871a.865.865 0 0 0-.2546.6132c0 .2302.0913.4508.2546.6135a.866.866 0 0 0 .6136.2542.865.865 0 0 0 .6128-.2542l7.0588-7.0586-.0312 4.2385a.7862.7862 0 0 0 .2277.5632.7916.7916 0 0 0 .561.2335.7879.7879 0 0 0 .7908-.7833l.0435-6.2361a.7885.7885 0 0 0-.309-.6288l-.0057-.0037a.8662.8662 0 0 0-.549-.203Z"/>
  </g>
</svg>