<svg width="24" height="24" xmlns="http://www.w3.org/2000/svg" viewBox="0 0 24 24" fill="none">
<g fill="#ced4da">
<path d="M11.199 1.7117 4.0384 5.72c-.6684.3746-.668 1.4255 0 1.8011l7.1309 4.0085a1.635 1.635 0 0 0 1.602 0l7.1604-4.0085c.6685-.3745.668-1.4254 0-1.8011L12.801 1.7117a1.635 1.635 0 0 0-1.602 0Zm.7309 1.3065a.1426.1426 0 0 1 .1401 0l6.4002 3.6024-6.4297 3.6023a.142.142 0 0 1-.1402 0L5.493 6.6206Z"/>
<path d="M17.7763 10.1528a.7498.7498 0 0 0-.4429.3692.75.75 0 0 0 .3174 1.0113l.7752.406-6.356 3.5802a.1426.1426 0 0 1-.1401 0l-6.378-3.5728.7898-.4134a.751.751 0 0 0 .3724-.4382.751.751 0 0 0-.0477-.5731.7498.7498 0 0 0-1.0112-.3174l-1.5871.8193c-.6844.354-.7017 1.4173-.0296 1.7939l7.1607 4.0157c.498.279 1.104.2725 1.6018-.0076l7.1308-4.0084c.6707-.377.6592-1.4359-.0222-1.7937l-1.5576-.8194a.7502.7502 0 0 0-.576-.0517Z"/>
<path d="M17.7763 15.6528a.7498.7498 0 0 0-.4429.3692.75.75 0 0 0 .3174 1.0113l.7752.406-6.356 3.5802a.1426.1426 0 0 1-.1401 0l-6.378-3.5728.7898-.4134a.751.751 0 0 0 .3724-.4382.751.751 0 0 0-.0477-.5731.7498.7498 0 0 0-1.0112-.3174l-1.5871.8193c-.6844.354-.7017 1.4173-.0296 1.7939l7.1607 4.0157c.498.279 1.104.2725 1.6018-.0076l7.1308-4.0084c.6707-.377.6592-1.4359-.0222-1.7937l-1.5576-.8194a.7502.7502 0 0 0-.576-.0517Z"/>
</g>
</svg>