<svg width="24" height="24" xmlns="http://www.w3.org/2000/svg" viewBox="0 0 24 24" fill="none"> <g fill="#ced4da">
<path d="M5.9971 5.1336a.866.866 0 0 0-.6113.2578.8664.8664 0 0 0 0 1.2247l5.3887 5.3867-5.3887 5.3847a.8664.8664 0 0 0 0 1.2247.8667.8667 0 0 0 1.2246 0l5.3887-5.3848 5.3886 5.3848a.8668.8668 0 0 0 1.2266 0 .8669.8669 0 0 0 0-1.2247l-5.3887-5.3847 5.3887-5.3867a.8669.8669 0 0 0 0-1.2247.8664.8664 0 0 0-.6133-.2578.8656.8656 0 0 0-.6133.2578l-5.3886 5.3848-5.3887-5.3848a.8664.8664 0 0 0-.6133-.2578Z"/>
</g>
</svg>