<svg fill="none" viewBox="0 0 24 24"><g class="frame-container-wrapper"><g class="frame-container-blur"><g class="frame-container-shadows"><g class="fills"><rect width="24" height="24" class="frame-background" rx="0" ry="0"/></g><g class="frame-children"><path fill="#000" d="M7.3142 2.9697c-.2668.001-.512.1388-.6447.3618l-4.6773 7.818a.6968.6968 0 0 0 0 .7229l4.6773 7.8174c.1328.2227.3779.3607.6447.3618h9.363c.2696.0018.5189-.1365.6527-.3618l4.6772-7.8174a.6968.6968 0 0 0 0-.723l-4.6772-7.818c-.1338-.2251-.3831-.3632-.6526-.3617Zm.4348 1.4395h8.5015L20.5 11.5106l-4.2495 7.1018H7.749l-4.2502-7.1018Z" class="fills"/></g></g></g></g></svg>