<svg width="24" height="24" xmlns="http://www.w3.org/2000/svg" viewBox="0 0 24 24" fill="none"> <g fill="#fff">
<path d="M5.2613 2.2772c-1.7468 0-3.1748 1.4269-3.1748 3.1736V18.546c0 1.7466 1.428 3.1815 3.1748 3.1815h13.4775c1.7478 0 3.1743-1.4349 3.1743-3.1815V5.4508c0-1.7467-1.4265-3.1736-3.1743-3.1736Zm0 1.4472h13.4775c.9256 0 1.6509.6934 1.7136 1.5996l-8.4526 5.6343L3.5469 5.324c.0628-.9062.7898-1.5996 1.7144-1.5996ZM3.5403 7.4l7.9805 5.322a.8662.8662 0 0 0 .9585 0L20.4598 7.4v11.146c0 .9674-.753 1.7263-1.721 1.7263H5.2613c-.968 0-1.721-.7589-1.721-1.7263Z"/>
</g>
</svg>