<svg width="24" height="24" xmlns="http://www.w3.org/2000/svg" viewBox="0 0 24 24" fill="none">
  <g fill="#ced4da">
    <path d="M13.9334 2.0018c-4.4504 0-8.0684 3.645-8.0684 8.1192 0 2.1238.8157 4.0628 2.148 5.5139l-5.492 4.8143a.7337.7337 0 0 0-.075 1.033.7354.7354 0 0 0 .5067.2506.7338.7338 0 0 0 .5354-.184l5.6184-4.9196c1.3472 1.0168 3.0173 1.6207 4.8269 1.6207 4.4495 0 8.0674-3.6546 8.0674-8.129 0-4.4742-3.618-8.119-8.0674-8.119Zm0 1.5507c3.605 0 6.519 2.9265 6.519 6.5685 0 3.642-2.914 6.5782-6.519 6.5782-3.6062 0-6.5183-2.9361-6.5183-6.5782 0-3.642 2.9121-6.5685 6.5183-6.5685Z"/>
    <path d="M11.0027 9.1328a.8676.8676 0 0 0-.6172 1.481.864.864 0 0 0 .6172.2538h6.0015a.8658.8658 0 0 0 .6128-.2566.8693.8693 0 0 0 .251-.6145.8674.8674 0 0 0-.8638-.8637Z"/>
  </g>
</svg>