<svg width="24" height="24" xmlns="http://www.w3.org/2000/svg" viewBox="0 0 24 24" fill="none"> <g fill="#ced4da">
<path d="M8.8968 2.3261 8.879 2.33a.751.751 0 0 0-.168.0314L2.5977 4.3476a.7505.7505 0 0 0-.5234.709v15.8711c.003.508.4995.8663.9824.709l5.8867-1.9043 5.8868 1.9043a.638.638 0 0 0 .0527.0038.7653.7653 0 0 0 .1758.0136.7575.7575 0 0 0 .1758-.0136.7546.7546 0 0 0 .0527-.0038l6.121-1.9785a.7497.7497 0 0 0 .5157-.7168V3.078c.0022-.5103-.4949-.8735-.9805-.7168l-5.8847 1.9121-5.8828-1.9121a1.0797 1.0797 0 0 0-.0215-.002A.7555.7555 0 0 0 8.92 2.33a.3607.3607 0 0 0-.0234-.0038Zm-.7031 1.7774v14.293l-4.6133 1.498V5.6035Zm1.5 0 4.6133 1.5v14.291l-4.6133-1.498Zm10.7324 0v14.293l-4.6133 1.498V5.6035Z"/>
</g>
</svg>