<svg width="24" height="24" xmlns="http://www.w3.org/2000/svg" viewBox="0 0 24 24" fill="none"> <g fill="#ced4da">
<path d="M7.231 2.9983c-1.446 0-2.6807.9642-3.0903 2.281a.751.751 0 0 0-.1438-.0153h-.9966a.7327.7327 0 0 0-.5232.215.7365.7365 0 0 0-.215.5237.734.734 0 0 0 .7382.7303h.9966c.0127-.001.0256-.0023.0385-.0036.2059 1.3116 1.2088 2.3686 2.4925 2.656L6.5047 13.85c-1.4321.3322-2.5078 1.6227-2.5078 3.1506 0 1.7768 1.4568 3.2325 3.2341 3.2325 1.7771 0 3.2322-1.4557 3.2322-3.2325a3.212 3.212 0 0 0-.345-1.4472 1.3088 1.3088 0 0 0 .0425-.0304l4.586-4.4237a3.1993 3.1993 0 0 0 1.4828.3631c.0425 0 .0857-.0023.1282-.0036l.8655 3.4708c-1.004.5504-1.6875 1.6189-1.6875 2.8379 0 1.7767 1.455 3.2341 3.2322 3.2341 1.7773 0 3.2341-1.4574 3.2341-3.2341 0-1.7772-1.4568-3.2328-3.2341-3.2328-.0425 0-.0857.0023-.1282.0041l-.8655-3.471c1.003-.5507 1.6875-1.6193 1.6875-2.8377 0-1.7772-1.456-3.2324-3.2322-3.2324-1.7773 0-3.235 1.4552-3.235 3.2324 0 .7133.237 1.3753.6327 1.9119l-4.4428 4.2875a3.2268 3.2268 0 0 0-1.2117-.5763l.0242-4.4826c1.4109-.3465 2.4663-1.6273 2.4663-3.1406 0-1.7771-1.455-3.2341-3.2322-3.2341Zm0 1.4685c.9846 0 1.7715.7811 1.7715 1.7656A1.7637 1.7637 0 0 1 7.231 8.0042c-.9846 0-1.7651-.7872-1.7651-1.7718 0-.9845.7805-1.7656 1.7651-1.7656Zm8.9985 2.0018c.9837 0 1.7708.7793 1.7708 1.7638 0 .9846-.7871 1.764-1.7708 1.764-.9846 0-1.7644-.7794-1.7644-1.764 0-.9845.7798-1.7638 1.7644-1.7638ZM7.231 15.2305c.9846 0 1.7715.787 1.7715 1.7717 0 .984-.7869 1.7633-1.7715 1.7633s-1.7651-.7793-1.7651-1.7633c0-.9846.7805-1.7717 1.7651-1.7717Zm11.5369.7677c.9846 0 1.7644.787 1.7644 1.7712 0 .9846-.7798 1.7638-1.7644 1.7638-.9846 0-1.7718-.7792-1.7718-1.7638 0-.9841.7872-1.7712 1.7718-1.7712Z"/>
</g>
</svg>