<svg width="24" height="24" xmlns="http://www.w3.org/2000/svg" viewBox="0 0 24 24" fill="none"> <g fill="#ced4da">
<path d="M5.2667 2.0839c-1.7505 0-3.189 1.4306-3.189 3.1815v13.471c0 1.7509 1.4385 3.1817 3.189 3.1817h13.4729c1.7504 0 3.1816-1.4308 3.1816-3.1816V5.2654c0-1.7509-1.4312-3.1815-3.1816-3.1815Zm0 1.469h3.033a.7474.7474 0 0 0-.0423.2204V7.635H3.5457V5.2654c0-.9633.7576-1.7125 1.721-1.7125Zm4.4475 0h4.5778a.7535.7535 0 0 0-.0407.2204V7.635h-4.504V3.7733a.7512.7512 0 0 0-.0339-.2204Zm6.0014 0h3.024c.9633 0 1.719.7492 1.719 1.7125V7.635h-4.7098V3.7733a.7425.7425 0 0 0-.0332-.2204ZM3.5457 9.133h4.7117v5.0058H3.5457Zm6.2017 0h4.5039v5.0058h-4.504Zm6.0014 0h4.7097v5.0058h-4.7097ZM3.5457 15.629h4.7117v4.82H5.2667c-.9634 0-1.721-.7489-1.721-1.7126Zm6.2017 0h4.5039v4.82h-4.504Zm6.0014 0h4.7097v3.1074c0 .9637-.7556 1.7126-1.719 1.7126h-2.9907Z"/>
</g>
</svg>