<svg width="24" xmlns="http://www.w3.org/2000/svg" height="24" viewBox="0 0 24 24" fill="none">
<g>
<g>
<g>
<g>
<g fill="none">
<g>
<rect rx="0" ry="0" x="0" y="0" width="24" height="24.000000000000455" transform="matrix(1, 0, 0, 1, 0, 0)"/>
</g>
<g>
<g rx="0" ry="0">
<g style="opacity: 1;">
<g>
<ellipse cx="3.998740157479915" cy="4.501417322835323" rx="1.9993700787399575" ry="1.9993700787404123" transform="matrix(1, 0, 0, 1, 0, 0)" style="stroke-opacity: 1; stroke: none; paint-order: normal; stroke-width: 0.667346; stroke-linejoin: round; stroke-dasharray: none; display: inline; stroke-linecap: round; fill: rgb(0, 0, 0); fill-opacity: 1;"/>
</g>
<g style="opacity: 1;">
<g>
<ellipse cx="3.998740157479915" cy="12.001889763780355" rx="1.9993700787399575" ry="1.9993700787399575" transform="matrix(1, 0, 0, 1, 0, 0)" style="stroke-opacity: 1; stroke: none; paint-order: normal; stroke-width: 0.667346; stroke-linejoin: round; stroke-dasharray: none; display: inline; stroke-linecap: round; fill: rgb(0, 0, 0); fill-opacity: 1;"/>
</g>
<g style="opacity: 1;">
<g>
<ellipse cx="3.998740157479915" cy="19.502362204725387" rx="1.9993700787399575" ry="1.9993700787404123" transform="matrix(1, 0, 0, 1, 0, 0)" style="stroke-opacity: 1; stroke: none; paint-order: normal; stroke-width: 0.667346; stroke-linejoin: round; stroke-dasharray: none; display: inline; stroke-linecap: round; fill: rgb(0, 0, 0); fill-opacity: 1;"/>
</g>
<g style="opacity: 1;">
<g>
<rect rx="0" ry="0" x="8.999055118109027" y="3.000944881890291" transform="matrix(1, 0, 0, 1, 0, 0)" width="13.001574803151016" height="3.000944881890973" style="stroke-opacity: 1; stroke: none; paint-order: normal; stroke-width: 0.218608; stroke-linejoin: round; stroke-dasharray: none; display: inline; stroke-linecap: square; fill: rgb(0, 0, 0); fill-opacity: 1;"/>
</g>
<g style="opacity: 1;">
<g>
<rect rx="0" ry="0" x="8.999055118109027" y="10.501417322835778" transform="matrix(1, 0, 0, 1, 0, 0)" width="13.001574803151016" height="3.0009448818900637" style="stroke-opacity: 1; stroke: none; paint-order: normal; stroke-width: 0.218609; stroke-linejoin: round; stroke-dasharray: none; display: inline; stroke-linecap: square; fill: rgb(0, 0, 0); fill-opacity: 1;"/>
</g>
<g style="opacity: 1;">
<g>
<rect rx="0" ry="0" x="8.999055118109027" y="18.001889763780355" transform="matrix(1, 0, 0, 1, 0, 0)" width="13.001574803151016" height="3.0009448818900637" style="stroke-opacity: 1; stroke: none; paint-order: normal; stroke-width: 0.218609; stroke-linejoin: round; stroke-dasharray: none; display: inline; stroke-linecap: square; fill: rgb(0, 0, 0); fill-opacity: 1;"/>
</g>
</svg>