<svg width="24" height="24" xmlns="http://www.w3.org/2000/svg" viewBox="0 0 24 24" fill="none">
  <g fill="#fff">
    <path d="M11.0484 8.6996c0-.5267.426-.9539.9517-.9539.5256 0 .9516.4272.9516.9539v4.67c0 .5268-.426.9539-.9516.9539-.5257 0-.9517-.4271-.9517-.9539v-4.67M12 15.2772c-.5256 0-.9516.4272-.9516.9539 0 .5266.426.9537.9517.9537.5256 0 .9516-.427.9516-.9537s-.426-.9539-.9516-.9539Z"/>
    <path d="M9.521 2.4418c1.0962-1.9224 3.8619-1.9224 4.958 0l8.1407 14.2772C23.7073 18.6266 22.333 21 20.1407 21H3.8594c-2.1921 0-3.5666-2.3734-2.479-4.281L9.5211 2.4418Zm3.3055.9465c-.3655-.6408-1.2874-.6408-1.6529 0L3.033 17.6654c-.3625.6359.0957 1.427.8264 1.427h16.2813c.7307 0 1.189-.7911.8264-1.427l-8.1406-14.277Z"/>
  </g>
</svg>