<svg fill="none" viewBox="0 0 24 24"><g class="frame-container-wrapper"><g class="frame-container-blur"><g class="frame-container-shadows"><g class="fills"><rect width="24" height="24" class="frame-background" rx="0" ry="0"/></g><g class="frame-children"><rect width="24" height="24" fill="#000" class="fills" rx="4" ry="4"/><path fill="#fff" d="M6 16.0657c1.1424.7325 2.4993 1.1603 3.9568 1.1603 4.7935 0 7.5008-4.0484 7.338-7.6795A5.2298 5.2298 0 0 0 18.583 8.21a5.1673 5.1673 0 0 1-1.483.4063c.5328-.3187.9422-.8247 1.1348-1.428a5.1744 5.1744 0 0 1-1.6389.6268A2.5774 2.5774 0 0 0 14.7115 7c-1.6663 0-2.8907 1.555-2.515 3.1693-2.145-.107-4.0478-1.1352-5.3205-2.6973-.6762 1.1607-.3506 2.679.7993 3.4467a2.5618 2.5618 0 0 1-1.1701-.323c-.0276 1.1965.8296 2.3149 2.0708 2.5644a2.5843 2.5843 0 0 1-1.1656.0438c.3282 1.0262 1.2815 1.7717 2.4114 1.793-1.085.8507-2.4524 1.2306-3.8218 1.0687" class="fills"/></g></g></g></g></svg>