<svg width="24" height="24" xmlns="http://www.w3.org/2000/svg" viewBox="0 0 24 24" fill="none">
<g fill="#000">
<path d="M15.9961 10.1354a.8674.8674 0 0 0-.6128.251l-3.3808 3.3883-3.3882-3.3883a.8658.8658 0 0 0-1.2246 0 .866.866 0 0 0 0 1.2253l4 4.001c.3389.3382.8877.3382 1.2256 0l3.9934-4.001a.8655.8655 0 0 0 0-1.2253.8634.8634 0 0 0-.6126-.251Z"/>
<path d="M12.0689 3.248c-4.8582 0-8.8213 3.9627-8.8213 8.8213 0 4.8588 3.9631 8.8141 8.8213 8.8141 4.8591 0 8.814-3.9553 8.814-8.814 0-4.8587-3.9549-8.8214-8.814-8.8214Zm0 1.7348c3.9226 0 7.0793 3.165 7.0793 7.0865 0 3.9217-3.1567 7.0794-7.0793 7.0794-3.9216 0-7.0867-3.1577-7.0867-7.0794 0-3.9216 3.165-7.0865 7.0867-7.0865Z"/>
</g>
</svg>