<svg width="24" height="24" xmlns="http://www.w3.org/2000/svg" viewBox="0 0 24 24" fill="none"> <g fill="#ced4da">
<path d="M16.9968 21.167c2.2918 0 4.1707-1.8713 4.1707-4.1635 0-2.292-1.8789-4.1707-4.1707-4.1707-2.2922 0-4.1638 1.8786-4.1638 4.1707 0 2.2922 1.8716 4.1635 4.1638 4.1635Zm0-1.4688c-1.5 0-2.6945-1.195-2.6945-2.6947 0-1.4992 1.1945-2.7017 2.6945-2.7017a2.6923 2.6923 0 0 1 2.7015 2.7017c0 1.4997-1.202 2.6947-2.7015 2.6947ZM7.0015 21.167c2.2917 0 4.1633-1.8713 4.1633-4.1635 0-2.292-1.8716-4.1707-4.1633-4.1707-2.2925 0-4.1712 1.8786-4.1712 4.1707 0 2.2922 1.8787 4.1635 4.1712 4.1635Zm0-1.4688c-1.4993 0-2.702-1.195-2.702-2.6947a2.6928 2.6928 0 0 1 2.702-2.7017c1.4993 0 2.6946 1.2025 2.6946 2.7017 0 1.4997-1.1953 2.6947-2.6946 2.6947ZM12.0801 12.0135c2.806 0 5.0933-2.2883 5.0933-5.0936 0-2.8054-2.2874-5.1008-5.0933-5.1008-2.805 0-5.0933 2.2954-5.0933 5.1008 0 2.8053 2.2884 5.0936 5.0933 5.0936Zm0-1.469a3.611 3.611 0 0 1-3.6248-3.6246c0-2.013 1.6121-3.632 3.6248-3.632a3.6228 3.6228 0 0 1 3.632 3.632c0 2.0124-1.6186 3.6245-3.632 3.6245Z"/>
</g>
</svg>