<svg width="24" height="24" xmlns="http://www.w3.org/2000/svg" viewBox="0 0 24 24" fill="none"> <g fill="#fff">
<path fill="#fff" d="M21.006 7.429c-.2171-.8181-.8575-1.463-1.6712-1.6817-1.474-.3973-7.384-.3973-7.384-.3973s-5.9107 0-7.3848.3973c-.813.2187-1.4534.8636-1.6712 1.6817C2.5 8.9129 2.5 12.008 2.5 12.008s0 3.0954.3948 4.5788c.2178.8186.8582 1.463 1.6712 1.682 1.474.3975 7.3847.3975 7.3847.3975s5.9102 0 7.384-.3975c.8138-.219 1.4542-.8634 1.6712-1.682.395-1.4834.395-4.5787.395-4.5787s0-3.0952-.395-4.5791"/> <path fill="#171717" d="M10 14.6209V9l4.9402 2.8104Z"/>
</g>
</svg>