<svg fill="none" viewBox="0 0 24 24"><g class="frame-container-wrapper"><g class="frame-container-blur"><g class="frame-container-shadows"><g class="fills"><rect width="24" height="24" class="frame-background" rx="0" ry="0"/></g><g class="frame-children"><path fill="#000" d="M17.1038 6.9917a.867.867 0 0 0-.6348.1836.8683.8683 0 0 0-.324.5804.8708.8708 0 0 0 .1829.6383l2.1794 2.7382H5.625l2.0374-2.7224c.2842-.3838.2048-.9254-.178-1.211a.8647.8647 0 0 0-1.2087.1758l-3.0728 4.105a.8736.8736 0 0 0-.1523.383.8665.8665 0 0 0 .1606.746l3.248 4.074a.8645.8645 0 0 0 .5794.323.8672.8672 0 0 0 .6387-.1822c.3745-.2976.4382-.842.141-1.217l-2.186-2.74h12.8813l-2.029 2.7247a.8663.8663 0 0 0 .1753 1.2105.8661.8661 0 0 0 1.2107-.1696l3.0645-4.1111a.85.85 0 0 0 .1484-.3225.8647.8647 0 0 0-.1484-.8005L17.687 7.316a.8649.8649 0 0 0-.5833-.3243Z" class="fills"/></g></g></g></g></svg>