<svg width="24" xmlns="http://www.w3.org/2000/svg" height="24" viewBox="0 0 24 24" fill="none">
<g>
<g>
<g>
<g>
<g fill="none">
<g>
<rect rx="0" ry="0" x="0" y="0" width="24" height="23.999999999999545" transform="matrix(1, 0, 0, 1, 0, 0)"/>
</g>
<g>
<g rx="0" ry="0" style="fill: rgb(0, 0, 0);">
<g>
<g>
<path d="M6.268366813659668,5.002586841583252C6.046687126159668,5.012718677520752,5.827204704284668,5.078392505645752,5.630183219909668,5.200584888458252C5.236628532409668,5.442772388458252,5.001276969909668,5.866356372833252,5.001276969909668,6.329246997833252L5.001276969909668,17.674705505371094C5.001276969909668,18.136863708496094,5.236384391784668,18.558494567871094,5.630183219909668,18.801292419433594C5.844782829284668,18.933494567871094,6.084773063659668,19.001243591308594,6.326228141784668,19.001243591308594C6.528376579284668,19.001243591308594,6.730525016784668,18.955467224121094,6.920222282409668,18.860984802246094L18.268611907958984,13.187278747558594C18.721981048583984,12.961326599121094,19.002010345458984,12.506736755371094,19.001277923583984,12.000999450683594C19.001277923583984,11.494529724121094,18.721981048583984,11.040672302246094,18.268611907958984,10.814720153808594L6.920222282409668,5.142967700958252C6.712702751159668,5.039574146270752,6.490046501159668,4.992455005645752,6.268366813659668,5.002586841583252Z" style="stroke-width: 0.984435; fill: rgb(0, 0, 0); fill-opacity: 1;"/>
</g>
</svg>