<svg fill="none" viewBox="0 0 24 23.992"><g class="frame-container-wrapper"><g class="frame-container-blur"><g class="frame-container-shadows"><g class="fills"><rect width="24" height="23.9923" class="frame-background" rx="0" ry="0"/></g><g fill="#000" class="frame-children"><path d="M12.1996 2.0792c-1.16 0-2.1185.9579-2.1185 2.1178a.7279.7279 0 0 0 .2122.5201.7297.7297 0 0 0 .5183.2178.7341.7341 0 0 0 .7383-.738c0-.373.2769-.6493.6497-.6493h7.6027c.3728 0 .657.2762.657.6494v7.6002c0 .3724-.2842.6493-.657.6493h-.797a.7334.7334 0 0 0-.524.2145.7307.7307 0 0 0-.2141.5233c0 .1946.0783.3809.2168.5184a.7355.7355 0 0 0 .5212.212h.7971c1.16 0 2.1187-.9582 2.1187-2.1175V4.197c0-1.16-.9588-2.1178-2.1187-2.1178Z" class="fills"/><path d="M11.4161 5.9807c-2.9829 0-5.4126 2.4488-5.4126 5.4429 0 2.9945 2.4297 5.4469 5.4126 5.4469 1.0371 0 2.0078-.2975 2.8318-.8103l5.4043 4.7307a.8257.8257 0 0 0 1.1614-.0822.8261.8261 0 0 0 .204-.5985.8298.8298 0 0 0-.2797-.5668l-5.227-4.5683c.8195-.956 1.3168-2.1984 1.3168-3.5515 0-2.994-2.4284-5.443-5.4116-5.443Zm0 1.6516c2.0835 0 3.759 1.6832 3.759 3.7913 0 2.1079-1.6755 3.7955-3.759 3.7955-2.0832 0-3.7637-1.6876-3.7637-3.7955 0-2.108 1.6805-3.7913 3.7637-3.7913Z" class="fills"/><path d="M4.198 10.0779c-1.1598 0-2.1186.9578-2.1186 2.1176v7.6002c0 1.1593.9588 2.1177 2.1187 2.1177h7.6101c1.16 0 2.1186-.9584 2.1186-2.1177v-.8043a.7331.7331 0 0 0-.7383-.7306c-.403.0015-.7297.3275-.7306.7306v.8043c0 .3727-.2769.6493-.6497.6493H4.1981c-.3728 0-.6497-.2766-.6497-.6493v-7.6002c0-.373.2769-.6494.6497-.6494.402-.0013.7287-.3279.7307-.7303a.7364.7364 0 0 0-.2122-.5207.7347.7347 0 0 0-.5185-.2172Z" class="fills"/></g></g></g></g></svg>