<svg fill="none" viewBox="0 0 24 24"><g class="frame-container-wrapper"><g class="frame-container-blur"><g class="frame-container-shadows"><g class="fills"><rect width="24" height="24" class="frame-background" rx="0" ry="0"/></g><g class="frame-children"><path fill="#000" d="M20 18.5625v.6563c0 1.0874-.8955 1.9687-2 1.9687H2c-1.1044 0-2-.8813-2-1.9688v-10.5C0 7.6315.8956 6.75 2 6.75h.6668v8.5313c0 1.8093 1.4954 3.2812 3.3332 3.2812h14Zm4-3.2813v-10.5c0-1.0872-.8955-1.9687-2-1.9687H6c-1.1044 0-2 .8815-2 1.9688v10.5c0 1.0874.8956 1.9687 2 1.9687h16c1.1045 0 2-.8813 2-1.9688ZM10.6668 6.75c0 1.0873-.8955 1.9688-2 1.9688-1.1047 0-2-.8815-2-1.9688 0-1.0873.8953-1.9688 2-1.9688 1.1045 0 2 .8815 2 1.9688Zm-4 5.9063 2.313-2.277c.1953-.1923.512-.1923.7073 0L11.3333 12l5.6465-5.5582c.1953-.1923.512-.1923.7073 0l3.6462 3.5895v4.5937H6.6668v-1.9688Z" class="fills"/></g></g></g></g></svg>