<svg fill="none" viewBox="0 0 24 24"><g class="frame-container-wrapper"><g class="frame-container-blur"><g class="frame-container-shadows"><g class="fills"><rect width="24" height="24" class="frame-background" rx="0" ry="0"/></g><g class="frame-children"><path fill="#000" d="M2.9959 8.635a.8661.8661 0 0 0-.8628.8632v5.0035c.002.4762.3867.8618.8628.8637a.8668.8668 0 0 0 .871-.8637v-1.6383h16.2643v1.6383a.866.866 0 0 0 .2563.6123.8686.8686 0 0 0 .6147.2514c.4761-.0019.8609-.3875.8626-.8637V9.4982a.8657.8657 0 0 0-.8626-.8632.8657.8657 0 0 0-.871.8632v1.6383H3.867V9.4982a.8668.8668 0 0 0-.8711-.8632Z" class="fills"/></g></g></g></g></svg>