<svg width="24" height="24" xmlns="http://www.w3.org/2000/svg" viewBox="0 0 24 24" fill="none">
  <g fill="#ced4da">
    <path d="M3.4766 2.7317a.75.75 0 0 0-.746.754v5.0331a.75.75 0 0 0 .746.754h1.7715v5.4628H3.4766a.75.75 0 0 0-.746.7442v5.043a.7501.7501 0 0 0 .746.746h5.043a.7501.7501 0 0 0 .752-.746v-5.043a.7502.7502 0 0 0-.752-.7442H6.7462V9.2727h1.7734a.7502.7502 0 0 0 .752-.7539V6.7473h5.455v1.7715a.7504.7504 0 0 0 .754.754h5.041a.75.75 0 0 0 .746-.754V3.4856a.75.75 0 0 0-.746-.7539h-5.041a.7503.7503 0 0 0-.754.754v1.7636h-5.455V3.4856a.7502.7502 0 0 0-.752-.7539Zm.754 1.498h3.5429v3.545h-3.543Zm12.0019 0h3.537v3.545h-3.537Zm-12.002 12.004h3.543v3.5351h-3.543Z"/>
    <path d="m11.5276 12.497 3.687 8.8488a.2505.2505 0 0 0 .4785-.0552l.585-3.5096a1.2201 1.2201 0 0 1 1.003-1.003l3.5095-.5849a.2502.2502 0 0 0 .2077-.2184.2502.2502 0 0 0-.1525-.26l-8.849-3.6871a.3587.3587 0 0 0-.3915.0775.3587.3587 0 0 0-.0777.3919Z"/>
  </g>
</svg>