<svg fill="none" viewBox="0 0 24 24"><g class="frame-container-wrapper"><g class="frame-container-blur"><g class="frame-container-shadows"><g class="fills"><rect width="24" height="24" class="frame-background" rx="0" ry="0"/></g><g class="frame-children"><path fill="#000" d="M12.0147 2.0671c-2.6978 0-4.931 2.12-4.931 4.7538v3.1659H5.7325a.7375.7375 0 0 0-.519.2178.7373.7373 0 0 0-.2122.5209v10.549a.7331.7331 0 0 0 .7312.73h12.5564c.4021-.0013.729-.3274.7303-.73v-10.549a.7342.7342 0 0 0-.7303-.7387h-1.3437V6.821c0-2.6338-2.232-4.7538-4.9304-4.7538Zm0 1.469c1.939 0 3.4616 1.4785 3.4616 3.2848v3.166H8.5447v-3.166c0-1.8063 1.5312-3.2848 3.47-3.2848ZM6.47 11.456h11.0806v9.0877H6.47Z" class="fills"/></g></g></g></g></svg>