<svg width="24" height="24" xmlns="http://www.w3.org/2000/svg" viewBox="0 0 24 24" fill="none">
  <g fill="#fff">
    <path d="M11.999 2.9855c-4.9709 0-9.0207 4.0418-9.0207 9.0131 0 4.9713 4.0498 9.0209 9.0207 9.0209 4.9717 0 9.0132-4.0496 9.0132-9.0209 0-4.9713-4.0415-9.013-9.0132-9.013Zm0 1.4615c4.179 0 7.552 3.3731 7.552 7.5516 0 4.1788-3.373 7.5516-7.552 7.5516-4.1777 0-7.5515-3.3728-7.5515-7.5516 0-4.1785 3.3738-7.5516 7.5515-7.5516Z"/>
    <path d="M11.999 7.2679a.734.734 0 0 0-.7312.7302v3.27H7.999a.7323.7323 0 0 0-.7307.7301.7332.7332 0 0 0 .7307.7383h3.2688v3.2637a.7342.7342 0 0 0 .7312.7302.7317.7317 0 0 0 .73-.7302v-3.2637h3.2718a.7322.7322 0 0 0 .7302-.7383.7314.7314 0 0 0-.7302-.73H12.729v-3.27a.7315.7315 0 0 0-.73-.7303Z"/>
  </g>
</svg>