<svg width="24" height="24" xmlns="http://www.w3.org/2000/svg" viewBox="0 0 24 24" fill="none">
  <g fill="#ced4da">
    <path d="M3.5593 7.889a.8.8 0 0 0-.4436.2265.8013.8013 0 0 0 0 1.1345l3.2496 3.248-3.2496 3.2503a.8016.8016 0 1 0 1.1365 1.131l3.2464-3.2482 3.2497 3.2482a.8027.8027 0 0 0 1.1314 0 .802.802 0 0 0 0-1.131l-3.248-3.2503 3.248-3.248a.8027.8027 0 0 0 .2353-.5675.8024.8024 0 0 0-.2353-.567.8027.8027 0 0 0-1.1314 0l-3.2497 3.2499-3.2464-3.25a.8006.8006 0 0 0-.6929-.2265Z"/>
    <path d="M17.4983 7.4221c-.5732 0-1.0906.112-1.5503.3377-.4558.2214-.8157.5273-1.0803.9182-.2649.3907-.396.8382-.396 1.3417h1.574c0-.2779.0647-.5174.195-.7167.13-.2044.3062-.3603.5276-.4686.2251-.1132.478-.168.7559-.168.3293 0 .6016.0586.8147.1756.2168.1174.3755.283.4797.5.109.2124.1643.4699.1643.7693 0 .2866-.058.5403-.1753.7619-.1171.2213-.298.3935-.5417.5194-.2388.126-.5398.1896-.904.1896h-.9378V12.8068h.9377c.3606 0 .6724.0553.9373.1678.2649.1085.468.2777.6118.508.143.2303.2151.5296.2151.8983 0 .3258-.0657.6038-.1956.834-.1264.23-.3083.4044-.5473.5214-.2388.1172-.5232.1758-.8535.1758-.3118 0-.5887-.0618-.8323-.1836-.238-.1212-.4253-.2873-.56-.4996-.1302-.2174-.1956-.4683-.1956-.7503h-1.5679c0 .4425.084.8334.254 1.172.1732.3339.4076.614.7028.8396.2954.2216.6286.3894 1.0022.502.3728.1131.7641.1703 1.1719.1703.4558 0 .8776-.0624 1.2631-.1836.3914-.1218.731-.3004 1.0215-.5393a2.4002 2.4002 0 0 0 .67-.873c.1606-.3474.2429-.7427.2429-1.1857 0-.3252-.0594-.633-.1765-.9237-.1126-.2906-.2933-.55-.5408-.7756-.2354-.2181-.5369-.3889-.9043-.5177.2834-.1291.5261-.286.7283-.4704.247-.2299.4345-.484.561-.7617.1255-.2779.187-.5514.187-.8205 0-.59-.1262-1.085-.3828-1.4842-.2554-.3994-.6138-.699-1.074-.8982-.4558-.2045-.9892-.3068-1.6018-.3068Z"/>
  </g>
</svg>