<svg width="24" height="24" xmlns="http://www.w3.org/2000/svg" viewBox="0 0 24 24" fill="none"> <g fill="#fff">
<path d="M2.9979 2.2695a.734.734 0 0 0-.5176.2147.733.733 0 0 0 0 1.0329l8.4802 8.48-8.4802 8.478a.7332.7332 0 0 0 0 1.0407.7342.7342 0 0 0 1.041 0l8.478-8.478 8.478 8.478a.7342.7342 0 0 0 1.041 0 .7336.7336 0 0 0 .2169-.5203.7334.7334 0 0 0-.2168-.5204l-8.48-8.478 8.48-8.48a.733.733 0 0 0-.5205-1.2496.7338.7338 0 0 0-.5206.2167l-8.478 8.4761-8.478-8.476a.7331.7331 0 0 0-.5234-.2148Z"/>
</g>
</svg>