<svg width="24" height="24" xmlns="http://www.w3.org/2000/svg" viewBox="0 0 24 24" fill="none"> <g fill="#ced4da">
<path d="M5.8807 1.974c-1.5852 0-2.8789 1.2926-2.8789 2.8788v10.2903c0 1.5856 1.2937 2.8788 2.879 2.8788h5.277v2.6129H8.5233a.8686.8686 0 0 0-.6145.251.8687.8687 0 0 0-.0027 1.2296.8644.8644 0 0 0 .6172.2538h6.998a.8655.8655 0 0 0 .6118-.2566.8661.8661 0 0 0 .252-.6145c-.0017-.4757-.3875-.8615-.8638-.8633h-2.637v-2.6129h5.2799c1.5852 0 2.8789-1.2932 2.8789-2.8788V4.8528c0-1.5862-1.2937-2.8788-2.879-2.8788Zm0 1.3006h5.2771v11.7941H4.301V4.8528c0-.888.6921-1.5782 1.5798-1.5782Zm7.0037 0h5.2798c.8876 0 1.5798.6901 1.5798 1.5782v10.216h-6.8596V4.0048Z"/>
</g>
</svg>