<svg width="24" height="24" xmlns="http://www.w3.org/2000/svg" viewBox="0 0 24 24" fill="none">
  <g fill="#fff">
    <path d="M4.7354 8.051c-1.4966 0-2.7229 1.2263-2.7229 2.7226v8.49c0 1.4968 1.2263 2.7171 2.7229 2.7171h8.5059c1.4958 0 2.7146-1.2203 2.7146-2.717v-8.4901c0-1.4963-1.2188-2.7226-2.7146-2.7226Zm0 1.3943h8.5059c.7473 0 1.3205.5808 1.3205 1.3283v2.0157H3.4068v-2.0157c0-.7475.5813-1.3283 1.3286-1.3283Zm-1.3286 4.8125h11.155v5.0059c0 .7479-.5732 1.3204-1.3205 1.3204H4.7354c-.7473 0-1.3286-.5725-1.3286-1.3204Z"/>
    <path d="M9.5716 2.0192c-1.4173-.006-2.5838 1.1496-2.5838 2.5615v1.432h1.4248v-1.432c0-.6414.503-1.1397 1.1517-1.1369l9.84.0444c.656.0031 1.159.4954 1.159 1.1367v8.8214c0 .6413-.5012 1.1511-1.1443 1.1442l-.7087-.0074-.7161-.0074-.0147 1.4248.7161.0073.7087.0073c1.422.0144 2.5835-1.1566 2.5835-2.5688V4.6249c0-1.4118-1.1662-2.5624-2.5761-2.5689Z"/>
  </g>
</svg>