<svg width="24" height="24" xmlns="http://www.w3.org/2000/svg" viewBox="0 0 24 24" fill="none">
  <g fill="#fff">
    <path d="M5.2493 3.2885c-1.7312 0-3.1436 1.4209-3.1436 3.1518v11.4118c0 1.731 1.4124 3.1441 3.1436 3.1441H18.751c1.731 0 3.1445-1.4132 3.1445-3.1441V6.4403c0-1.731-1.4136-3.1518-3.1445-3.1518Zm0 1.3886H18.751c.988 0 1.7632.775 1.7632 1.7632v1.6913H3.4858V6.4403c0-.9882.7752-1.7632 1.7635-1.7632ZM3.4858 9.8663h17.0284v7.9858c0 .9882-.7752 1.7633-1.7632 1.7633H5.2493c-.9883 0-1.7635-.775-1.7635-1.7633Z"/>
    <path d="M11.9983 11.0001c-1.174 0-2.2307.4668-3.112.9656-.8912.5049-1.6612 1.1024-2.188 1.5459a1.9385 1.9385 0 0 0 0 2.9801c.5268.4435 1.2968 1.0413 2.188 1.5463.8803.4986 1.938.9622 3.112.9622 1.1755 0 2.2351-.4636 3.1162-.9622.8901-.504 1.6572-1.0996 2.185-1.543a1.941 1.941 0 0 0 .003-2.9834l-.003-.0034c-.5278-.443-1.2949-1.0386-2.185-1.5425-.8811-.4991-1.9407-.9656-3.1162-.9656Zm0 1.6843c.6257 0 1.4485.3027 2.1821.7187.7442.421 1.4448.9585 1.919 1.3563.1884.1582.1884.3262 0 .4845-.4742.3982-1.1748.9352-1.919 1.3562-.7336.4164-1.5564.7189-2.1821.7189-.6243 0-1.4439-.3025-2.1787-.7189-.7442-.421-1.4444-.958-1.9185-1.3562-.188-.1578-.188-.3263 0-.4845.4741-.3978 1.1743-.9353 1.9185-1.3563.7348-.416 1.5544-.7187 2.1787-.7187Z"/>
  </g>
</svg>