<svg fill="none" viewBox="0 0 24 24"><g class="frame-container-wrapper"><g class="frame-container-blur"><g class="frame-container-shadows"><g class="fills"><rect width="24" height="24" class="frame-background" rx="0" ry="0"/></g><g class="frame-children"><path fill="#000" fill-rule="evenodd" d="M6.314 6.8686C8.0495 5.8546 10.0673 5 11.9997 5c1.9331 0 3.9512.8546 5.6865 1.8686 1.7569 1.0258 3.3345 2.28 4.41 3.2122 1.2053 1.0432 1.2053 2.795 0 3.8384-1.0755.9323-2.6531 2.1865-4.41 3.2121C15.9508 18.1453 13.9327 19 11.9996 19c-1.9324 0-3.9502-.8546-5.6855-1.8687-1.7571-1.0256-3.3348-2.2798-4.41-3.2121-1.2053-1.0433-1.2053-2.795 0-3.8384 1.0755-.9324 2.6531-2.1865 4.41-3.2122ZM9.525 12c0-1.2882 1.1084-2.3334 2.4746-2.3334S14.4742 10.7118 14.4742 12c0 1.2882-1.1084 2.3333-2.4746 2.3333S9.525 13.2882 9.525 12Zm2.4746-3.889c-2.2778 0-4.1245 1.7414-4.1245 3.889 0 2.1477 1.8467 3.8889 4.1245 3.8889 2.2776 0 4.1243-1.7412 4.1243-3.889 0-2.1475-1.8467-3.8888-4.1243-3.8888Z" class="fills"/></g></g></g></g></svg>