<svg width="24" height="24" xmlns="http://www.w3.org/2000/svg" viewBox="0 0 24 24" fill="none"> <g fill="#fff">
<path d="M3.5603 7.889a.798.798 0 0 0-.4428.2265.7983.7983 0 0 0-.2354.567c0 .2131.084.4171.2354.5675l3.2497 3.248-3.2497 3.2503a.802.802 0 0 0 0 1.131.8012.8012 0 0 0 1.136 0l3.246-3.2482 3.25 3.2482a.8024.8024 0 0 0 1.1311 0 .8025.8025 0 0 0 0-1.131L8.6328 12.498l3.2478-3.248a.8027.8027 0 0 0 .2354-.5675.8024.8024 0 0 0-.2354-.567.8024.8024 0 0 0-1.131 0l-3.25 3.2499-3.2462-3.25a.8008.8008 0 0 0-.693-.2265Z"/> <path fill="#000" d="m16.2295 12.624-1.2493-.3059.514-4.7659h5.111v1.3283H16.796l-.26 2.3243c.1477-.0868.3513-.1716.6116-.2542.2602-.0867.5583-.1302.8926-.1302.4465 0 .8462.0739 1.1975.2216.3562.143.658.3539.905.6316.2476.273.4358.6075.5657 1.0025.1313.3903.196.831.196 1.3213 0 .4384-.0647.8485-.196 1.2306-.1253.382-.3164.7183-.572 1.0094-.2566.2907-.5794.5186-.9708.6833-.3854.1606-.8442.241-1.373.241-.3948 0-.7749-.0564-1.1396-.1695-.3606-.1172-.6834-.2883-.9695-.514-.2871-.2302-.5169-.512-.6902-.8465-.1736-.3387-.2742-.7272-.3-1.1655h1.5363c.0396.3082.1238.5707.2537.788.1347.2127.3127.3756.5344.4882.2214.113.477.1692.7686.1692.2639 0 .4919-.0456.6828-.1365a1.2897 1.2897 0 0 0 .4751-.4036c.1314-.1781.2263-.3863.2871-.6252.0647-.2385.0977-.5033.0977-.794 0-.2782-.0366-.532-.1106-.7617-.0691-.2303-.1763-.43-.3194-.5994-.1384-.1693-.3144-.2995-.5268-.3904-.2131-.0955-.4585-.1434-.7363-.1434-.3728 0-.6597.0544-.859.163-.1957.1083-.3774.2431-.5473.4036Z" font-family="roboto" font-size="13.3333" font-weight="500"/>
</g>
</svg>