<svg width="24" height="24" xmlns="http://www.w3.org/2000/svg" viewBox="0 0 24 24" fill="none"> <g fill="#ced4da">
<path d="M12.0034 2.9852c-4.9712 0-9.0214 4.0407-9.0214 9.0117 0 4.9713 4.0502 9.0212 9.0214 9.0212 4.9715 0 9.0125-4.0499 9.0125-9.0212 0-4.971-4.041-9.0117-9.0125-9.0117Zm0 1.4613c.188 0 .3728.0102.5574.023.775.7525 1.437 1.7028 1.935 2.7948a13.3888 13.3888 0 0 0-2.4924-.2343h-.0017a13.4429 13.4429 0 0 0-2.502.2343c.4991-1.092 1.162-2.0423 1.9383-2.7948.186-.0136.3757-.023.5654-.023Zm2.9297.5876a7.5456 7.5456 0 0 1 4.0298 4.035c-.8108-.5476-1.7175-.9984-2.6953-1.336-.3372-.9785-.7876-1.8875-1.3345-2.699Zm-5.8684.0018c-.5454.8116-.9953 1.7209-1.3305 2.6994-.9771.337-1.8853.7859-2.6956 1.332C5.8013 7.2526 7.2515 5.8 9.0647 5.036Zm2.937 3.463c1.084 0 2.1221.1483 3.0882.412a11.7 11.7 0 0 1 .4116 3.086c0 1.0843-.1475 2.123-.4116 3.09-.9661.263-2.0017.4104-3.0865.4104-1.0861 0-2.127-.1467-3.096-.4103a11.7481 11.7481 0 0 1-.411-3.0901c0-1.0825.1482-2.118.411-3.0842a11.7358 11.7358 0 0 1 3.0943-.4139ZM7.267 9.5048a13.554 13.554 0 0 0 0 4.99c-1.0916-.4974-2.0398-1.158-2.792-1.9337-.014-.1865-.0242-.3746-.0242-.5643 0-.1875.0103-.372.0242-.5567.7522-.7756 1.7004-1.4366 2.792-1.9354Zm9.4707.0019c1.0886.4979 2.0346 1.1593 2.7863 1.9334.013.1846.0228.3685.0228.5567 0 .1908-.0098.3794-.0228.5661-.7522.775-1.6987 1.4356-2.7878 1.9318a13.3843 13.3843 0 0 0 .2346-2.498c0-.8561-.0813-1.6889-.2331-2.49Zm-4.7378.492c-1.1045 0-1.9998.8955-1.9998 2 0 .5306.2105 1.0392.5852 1.4142.3758.375.884.586 1.4146.586 1.1042 0 2.0007-.8955 2.0007-2.0003 0-1.1044-.8965-1.9999-2.0007-1.9999ZM5.04 14.9366c.8108.544 1.7177.9924 2.694 1.3281.3353.9778.7852 1.8842 1.3306 2.6952-1.811-.7634-3.2615-2.2125-4.0246-4.0233Zm13.9191 0a7.5536 7.5536 0 0 1-4.026 4.0253c.5463-.8101.9958-1.7183 1.332-2.6954.9763-.3358 1.884-.7846 2.694-1.33Zm-9.457 1.7969a13.499 13.499 0 0 0 2.5012.2321c.8584 0 1.6905-.0813 2.4925-.2321-.498 1.0909-1.1602 2.0406-1.935 2.7927-.1847.0133-.3695.0235-.5575.0235a7.5973 7.5973 0 0 1-.5654-.0235c-.7749-.752-1.438-1.7018-1.9358-2.7927Z"/>
</g>
</svg>