<svg width="24" height="24" xmlns="http://www.w3.org/2000/svg" viewBox="0 0 24 24" fill="none"> <g fill="#fff">
<path fill-rule="evenodd" d="M11.9971 5.8638c-1.0879 0-2.0669.4627-2.8835.9574-.8257.5005-1.539 1.0929-2.0271 1.5326-.8628.7767-.8628 2.1783 0 2.9547.488.4397 1.2014 1.0324 2.027 1.533.8157.4946 1.7957.9542 2.8836.9542 1.0889 0 2.0708-.4596 2.8872-.9541.8247-.4997 1.5354-1.0901 2.0244-1.5298.8645-.776.8655-2.1808.0027-2.958l-.0027-.0033c-.489-.4392-1.1997-1.0298-2.0244-1.5293-.8164-.495-1.7983-.9574-2.8872-.9574Zm0 1.67c.5796 0 1.3418.3 2.0217.7124.6895.4175 1.3387.9503 1.7779 1.3447.1745.1569.1745.3235 0 .4804-.4392.3949-1.0884.9272-1.7779 1.3447-.6799.413-1.442.7128-2.0217.7128-.5784 0-1.3379-.2998-2.0188-.7128-.6894-.4175-1.3381-.9498-1.7773-1.3447-.1743-.1564-.1743-.3235 0-.4804.4392-.3944 1.0879-.9272 1.7773-1.3447.681-.4125 1.4404-.7124 2.0188-.7124Z"/> <path fill="#000" d="M12.9983 9.8245c0 .268-.1062.525-.2951.714a1.011 1.011 0 0 1-.7144.2957 1.007 1.007 0 0 1-.714-.2957 1.0055 1.0055 0 0 1-.2962-.714c0-.5579.4521-1.01 1.0102-1.01.5574 0 1.0095.4521 1.0095 1.01Z"/> <path fill="#000" d="M7.0025 2.0947c-1.6958 0-3.0855 1.3896-3.0855 3.0854-.002 4.5498 0 9.0907 0 13.64 0 .0239.0027.0465.0037.07-.001.0236-.0037.0467-.0037.0706a.4717.4717 0 0 0 .011.0508c.0999 1.6078 1.4441 2.8944 3.0762 2.8944h12.3489a.7339.7339 0 0 0 .7307-.7309V2.825a.7331.7331 0 0 0-.7307-.7303Zm-.002 1.4606H18.6195l-.0037 12.3273H7.0025c-.5952 0-1.1514.1744-1.6248.4687 0-3.7243-.001-7.4454 0-11.1712 0-.9087.7141-1.6248 1.6228-1.6248Zm.002 13.7885h11.6133l-.002 3.101H7.0005c-.8855 0-1.583-.6795-1.6191-1.5547.0378-.8742.7363-1.5464 1.621-1.5464Z"/>
</g>
</svg>