<svg width="24" height="24" xmlns="http://www.w3.org/2000/svg" viewBox="0 0 24 24" fill="none">
  <g fill="#ced4da">
    <path d="M12.9444 7.9798c-2.1064 0-3.8235 1.7356-3.8235 3.8495 0 .8932.3072 1.7177.8204 2.3732L6.543 17.1749a.733.733 0 0 0-.0684 1.033.7325.7325 0 0 0 1.0322.0706l3.5535-3.1053a3.7706 3.7706 0 0 0 1.884.5038c2.1074 0 3.8282-1.7334 3.8282-3.8477 0-2.1139-1.7208-3.8495-3.8282-3.8495Zm0 1.4667c1.3084 0 2.3594 1.0555 2.3594 2.3828 0 1.3274-1.051 2.3847-2.3594 2.3847-1.308 0-2.3591-1.0573-2.3591-2.3847 0-1.3273 1.051-2.3828 2.3591-2.3828Z"/>
    <path d="M5.2603 2.0792C3.51 2.0792 2.079 3.5168 2.079 5.268V18.732c0 1.7509 1.431 3.1815 3.1814 3.1815H18.739c1.7514 0 3.1814-1.4306 3.1814-3.1815V5.268c0-1.7512-1.43-3.1888-3.1814-3.1888Zm0 1.469H18.739c.9643 0 1.7126.756 1.7126 1.7198V18.732c0 .9634-.7483 1.72-1.7126 1.72H5.2603c-.9633 0-1.7126-.7566-1.7126-1.72V5.268c0-.9637.7493-1.7198 1.7126-1.7198Z"/>
    <path d="M11.9996 2.4115a.7437.7437 0 0 0-.5286.2214.748.748 0 0 0-.2168.5315V6.235a.7483.7483 0 0 0 .2168.531.7452.7452 0 0 0 .5286.222.749.749 0 0 0 .5295-.222.7435.7435 0 0 0 .2161-.531V3.1644a.7433.7433 0 0 0-.216-.5315.7455.7455 0 0 0-.5296-.2214ZM11.9996 17.0195a.7437.7437 0 0 0-.5286.2214.748.748 0 0 0-.2168.5315v3.2256c.001.4111.335.7443.7454.7456.4114-.0013.7446-.3345.7456-.7456v-3.2256a.7433.7433 0 0 0-.216-.5315.7455.7455 0 0 0-.5296-.2214Z"/>
  </g>
</svg>