<svg width="24" height="24" xmlns="http://www.w3.org/2000/svg" viewBox="0 0 24 24" fill="none">
  <g fill="#fff">
    <path d="M2.9925 3.2825c-.1412-.0065-.2806.0157-.4041.0664-.3293.1347-.5979.4928-.5979.8928v15.4138c0 1.3075 1.0776 2.3848 2.3855 2.3848h13.7007c.659 0 1.2097-.4304 1.4321-.961.2224-.5301.1348-1.2194-.3267-1.6895L6.6467 6.6205v-.0018a.7183.7183 0 0 0-.1171-.1468.7564.7564 0 0 0-.1282-.1015L3.645 3.5616c-.1753-.178-.4162-.2685-.6525-.2791Zm.4968 2.258 1.4411 1.4684-.4594.4591a.7501.7501 0 0 0 0 1.0625c.2924.2888.7632.2888 1.0547 0l.4558-.4512L7.7678 9.9 5.999 11.6674a.7481.7481 0 0 0-.2214.532c0 .1996.0794.3917.2214.5324a.75.75 0 0 0 1.064 0l1.7578-1.7598 2.3733 2.4158-3.4004 3.373a.7469.7469 0 0 0-.225.5307.7454.7454 0 0 0 .2177.5337.7471.7471 0 0 0 .5295.2239.7487.7487 0 0 0 .5325-.2174l3.3984-3.3713 2.0953 2.1366-.8728.873a.75.75 0 0 0 0 1.0626.7518.7518 0 0 0 .5315.2205.7518.7518 0 0 0 .5314-.2205l.8609-.867 2.7197 2.7714c.0396.0402.0256.0402.0147.0684-.011.028.0073.0295-.0508.0295H4.376c-.4973 0-.8867-.382-.8867-.8789Z"/>
    <path d="M9.8643 2.0206a1.9984 1.9984 0 0 0-1.2715.5805c-.7815.7806-.7815 2.047 0 2.8276.6284.629 1.5974.7664 2.377.3383l7.0756 6.7696a2.0008 2.0008 0 0 0 .5242 1.8925c.7805.7806 2.0466.7806 2.8281 0 .7805-.781.7805-2.047 0-2.8281a2.0001 2.0001 0 0 0-2.4905-.2658l-7-6.7014a2.0003 2.0003 0 0 0-.486-2.0327 2.0014 2.0014 0 0 0-1.557-.5805Z"/>
  </g>
</svg>