<svg width="24" height="24" xmlns="http://www.w3.org/2000/svg" viewBox="0 0 24 24" fill="none"> <g fill="#ced4da">
<path d="M2.9959 2.3339a.666.666 0 0 0-.6636.6644V5a.6659.6659 0 0 0 .6636.664.6685.6685 0 0 0 .4741-.1924A.662.662 0 0 0 3.6675 5v-.334h10.6687v.334c.001.3659.2981.6625.6636.664A.6673.6673 0 0 0 15.6641 5V2.9983c-.002-.3663-.298-.663-.6643-.6644a.6666.6666 0 0 0-.6636.6644v.3321H3.6675v-.3321a.6631.6631 0 0 0-.1975-.472.6685.6685 0 0 0-.4741-.1924Zm16.0056 6.2677a.6662.6662 0 0 0-.6653.6639c.001.3672.2991.664.6653.6643h.3323v10.6679h-.3323a.6663.6663 0 0 0-.6653.6718.6663.6663 0 0 0 .6653.6642h2.0005a.6658.6658 0 0 0 .6636-.6643.666.666 0 0 0-.192-.4739.6682.6682 0 0 0-.4716-.1978h-.332V9.9298h.332a.6658.6658 0 0 0 .6636-.6643.6658.6658 0 0 0-.6636-.664ZM2.9083 8.912a.7347.7347 0 0 0-.731.7307v11.4416a.7358.7358 0 0 0 .2124.5203.7353.7353 0 0 0 .5186.2178h11.4492a.7358.7358 0 0 0 .5185-.2178.7366.7366 0 0 0 .2122-.5203V9.6428a.7343.7343 0 0 0-.7307-.7307Zm.738 1.469h9.9729v9.9724h-9.973Z"/>
</g>
</svg>