<svg width="24" height="24" xmlns="http://www.w3.org/2000/svg" viewBox="0 0 24 24" fill="none"> <g fill="#fff">
<path d="M8.941 2.3261a.3242.3242 0 0 0-.0223.0038.7631.7631 0 0 0-.2095.0332L2.5965 4.3472a.751.751 0 0 0-.5157.7093v15.8623a.7518.7518 0 0 0 .307.6085.7518.7518 0 0 0 .6735.1085l5.0693-1.6486-.0637.1348a.7332.7332 0 0 0 .6563 1.0565l12.5927-.0078a.7335.7335 0 0 0 .7225-.6233.7421.7421 0 0 0 .0305-.211L21.934 3.0723a.7497.7497 0 0 0-.3081-.5989.7496.7496 0 0 0-.6646-.1102l-5.902 1.908-5.886-1.908a.206.206 0 0 0-.0193-.0018.734.734 0 0 0-.1975-.0334c-.0057-.0008-.012-.0013-.0186-.0022Zm-.7503 1.779v14.2906l-4.6126 1.498V5.603Zm1.4985 0 4.6209 1.498v1.7014l-4.6209 9.4857Zm10.755 0 .1012 13.0856-4.7378-9.7068V5.6031Zm-5.4256 5.0997L20.1414 19.71H9.8958Z"/> <path fill="none" d="M13.0098 20.354Z"/> <path fill="#000" stroke="#000" stroke-width=".3881" d="M13.0098 20.354h0Z"/> <path fill="#000" d="M14.5408 17.1985c.011-.1374.0266-.2856.0505-.3925.0388-.1837.1053-.3507.1975-.4998.0943-.1494.2198-.3072.3748-.4737.1208-.1265.2297-.246.3274-.3576a1.5981 1.5981 0 0 0 .2327-.362c.058-.1293.0866-.2774.0866-.4439 0-.1809-.0266-.3345-.083-.461-.0554-.1263-.1365-.2223-.2446-.2887-.105-.066-.237-.0988-.3948-.0988a.8241.8241 0 0 0-.3701.0858c-.1162.055-.2095.1408-.2805.259-.07.1148-.109.267-.1143.4566h-.9504c.0036-.3622.084-.6666.236-.9135.1524-.2468.3572-.4323.6155-.5559.2576-.1233.5455-.185.8638-.185.3526 0 .6543.0659.903.1978.25.1293.4412.3189.5721.569.1348.2468.2012.5458.2012.8959 0 .253-.0462.4827-.1384.6892a2.5213 2.5213 0 0 1-.359.573 9.576 9.576 0 0 1-.4767.526c-.1477.1462-.2474.3059-.2998.4779-.0306.0933-.0508.1938-.0638.3018Z" font-family="roboto" font-size="8" font-weight="500"/> <path fill="none" d="M14.5408 17.1985c.011-.1374.0266-.2856.0505-.3925.0388-.1837.1053-.3507.1975-.4998.0943-.1494.2198-.3072.3748-.4737.1208-.1265.2297-.246.3274-.3576a1.5981 1.5981 0 0 0 .2327-.362c.058-.1293.0866-.2774.0866-.4439 0-.1809-.0266-.3345-.083-.461-.0554-.1263-.1365-.2223-.2446-.2887-.105-.066-.237-.0988-.3948-.0988a.8241.8241 0 0 0-.3701.0858c-.1162.055-.2095.1408-.2805.259-.07.1148-.109.267-.1143.4566h-.9504c.0036-.3622.084-.6666.236-.9135.1524-.2468.3572-.4323.6155-.5559.2576-.1233.5455-.185.8638-.185.3526 0 .6543.0659.903.1978.25.1293.4412.3189.5721.569.1348.2468.2012.5458.2012.8959 0 .253-.0462.4827-.1384.6892a2.5213 2.5213 0 0 1-.359.573 9.576 9.576 0 0 1-.4767.526c-.1477.1462-.2474.3059-.2998.4779-.0306.0933-.0508.1938-.0638.3018Z"/>
</g>
</svg>