<svg width="24" height="24" xmlns="http://www.w3.org/2000/svg" viewBox="0 0 24 24" fill="none"> <g fill="#fff">
<path d="M11.0291 6.4043c.8694 0 1.5566.6892 1.5566 1.5585 0 .8691-.6872 1.5566-1.5566 1.5566-.8691 0-1.5583-.6875-1.5583-1.5566 0-.8693.6892-1.5585 1.5583-1.5585Zm0-1.506c-1.6792 0-3.056 1.3847-3.056 3.0645 0 1.6798 1.3768 3.0547 3.056 3.0547 1.6804 0 3.0552-1.375 3.0552-3.0547 0-1.6798-1.3748-3.0645-3.0552-3.0645Z"/> <path fill="#000" d="m14.245 12.8583.5231.9693a.162.162 0 0 0 .2852 0l.5222-.9693a.5039.5039 0 0 1 .4429-.2638h.4106a.1721.1721 0 0 1 .1497.0862.173.173 0 0 1-.001.1726l-.9431 1.6106a.5081.5081 0 0 0 .001.5167l.9733 1.647a.1709.1709 0 0 1 .002.1722.1719.1719 0 0 1-.1494.0863h-.42a.5044.5044 0 0 1-.4428-.2634l-.5445-.9999a.1635.1635 0 0 0-.2871 0l-.5444.9999a.5048.5048 0 0 1-.4438.2634h-.4253a.1706.1706 0 0 1-.1467-.258l.979-1.6475a.5098.5098 0 0 0 .001-.5167l-.9486-1.6111a.1709.1709 0 0 1-.001-.1721.1702.1702 0 0 1 .1485-.0862h.4172a.5024.5024 0 0 1 .442.2638Zm4.1254.1412.6101 1.332a.1573.1573 0 0 0 .2859 0l.6101-1.332a.5348.5348 0 0 1 .487-.3124h.276c.073 0 .1403.0379.179.1001a.2087.2087 0 0 1 .0065.2054l-1.0952 2.1181a1.411 1.411 0 0 0-.1587.6497v.8742a.344.344 0 0 1-.3433.3442h-.2087a.344.344 0 0 1-.344-.3442v-.8742a1.416 1.416 0 0 0-.158-.6492l-1.0979-2.1186a.2087.2087 0 0 1 .0064-.2054.2097.2097 0 0 1 .179-.1h.2788a.5359.5359 0 0 1 .487.3123ZM10.7737 1.9603c-3.6015.1564-6.5561 2.7637-6.761 6.6322-.0102.1892-.0129.4973-.002.687.0601.9859.409 2.0605.8934 3.1908.0747.1735.1992.4535.2795.6261.5464 1.1806 1.2227 2.3982 1.9092 3.5336.098.1628.2593.4254.359.5864 1.2096 1.9466 2.3871 3.5807 2.8485 4.2077.1116.1527.2962.4096.4642.4946a.7543.7543 0 0 0 .6108.0309c.1753-.0674.3838-.3068.5073-.4508.3389-.395 1.0244-1.2189 1.8142-2.3137.1109-.1536.3194-.1818.4754-.0739a4.9982 4.9982 0 0 0 2.4839.8757c.1901.0138.4982.0143.6875.0014 2.4875-.1688 4.476-2.1569 4.645-4.6445.013-.1897.013-.4983 0-.6875-.1487-2.1657-1.685-3.9917-3.7925-4.5094-.1846-.0457-.3184-.2238-.3027-.413.4514-5.533-4.2049-7.5687-6.4334-7.7648-.189-.0166-.3433-.0161-.3433-.0161Zm.6873 1.5032c2.7527.1965 4.8462 2.7239 5.0254 5.0303.0136.1905.01.5001-.002.6897a8.4794 8.4794 0 0 1-.0488.519c-.0242.1884-.2022.358-.3884.394-2.2202.4296-3.8794 2.3041-4.0352 4.5597-.013.1897-.013.4979.0007.6875a4.9949 4.9949 0 0 0 .659 2.1481c.095.1643.0942.418-.0156.5727-.5594.7843-.9847 1.2885-1.292 1.642-.1236.143-.3164.1347-.43-.0185-.4455-.6022-1.1884-1.6185-2.2053-3.2555a98.49 98.49 0 0 1-.3589-.586c-.6606-1.0947-1.3086-2.2579-1.8188-3.3559a23.4968 23.4968 0 0 1-.2796-.6288c-.4143-.9846-.6845-1.899-.7539-2.5694-.0193-.1878-.0166-.4955-.0053-.6851.1806-3.1216 2.365-5.01 5.2605-5.148l.345-.0083Z" font-family="roboto" font-size="13.3333" font-weight="700"/>
</g>
</svg>