<svg width="24" xmlns="http://www.w3.org/2000/svg" height="24" viewBox="0 0 24 24" fill="none">
<g>
<g>
<g>
<g>
<g fill="none">
<g>
<g rx="0" ry="0" style="fill: rgb(0, 0, 0);">
<g>
<g>
<path d="M5.998782634735107,5.001236438751221C5.444827556610107,5.001236438751221,4.998782634735107,5.447281360626221,4.998782634735107,6.001236438751221L4.998782634735107,18.001235961914062C4.998782634735107,18.555313110351562,5.444827556610107,19.001235961914062,5.998782634735107,19.001235961914062L8.998783111572266,19.001235961914062C9.552738189697266,19.001235961914062,9.998783111572266,18.555313110351562,9.998783111572266,18.001235961914062L9.998783111572266,6.001236438751221C9.998783111572266,5.447281360626221,9.552738189697266,5.001236438751221,8.998783111572266,5.001236438751221Z" style="stroke-width: 0.404206; stroke-linecap: round; stroke-linejoin: round; fill: rgb(0, 0, 0); fill-opacity: 1;"/>
</g>
<g>
<g>
<path d="M14.998783111572266,5.001236438751221C14.444828033447266,5.001236438751221,13.998783111572266,5.447281360626221,13.998783111572266,6.001236438751221L13.998783111572266,18.001235961914062C13.998783111572266,18.555313110351562,14.444828033447266,19.001235961914062,14.998783111572266,19.001235961914062L17.998783111572266,19.001235961914062C18.552738189697266,19.001235961914062,18.998783111572266,18.555313110351562,18.998783111572266,18.001235961914062L18.998783111572266,6.001236438751221C18.998783111572266,5.447281360626221,18.552738189697266,5.001236438751221,17.998783111572266,5.001236438751221Z" style="stroke-width: 0.404206; stroke-linecap: round; stroke-linejoin: round; fill: rgb(0, 0, 0); fill-opacity: 1;"/>
</g>
</svg>