<svg width="24" height="24" xmlns="http://www.w3.org/2000/svg" viewBox="0 0 24 24" fill="none">
  <g fill="#000">
    <path d="M5.991 11.982s.8405-1.1554 2.6562-3.5784c.284-.3819.2046-.9214-.1775-1.2058a.867.867 0 0 0-.6392-.1619.8678.8678 0 0 0-.567.337l-3.0653 4.0893a.862.862 0 0 0-.1518.3814.8562.8562 0 0 0 .1591.7432l3.2413 4.0586c.2973.3746.8422.4371 1.2163.1401a.8635.8635 0 0 0 .1408-1.2124c-.9548-1.1848-1.9135-2.3646-2.813-3.591"/>
    <circle cx="12.02" cy="12.0272" r="1"/>
    <path d="M17.9997 12.0183s-.8396 1.1554-2.6565 3.578a.863.863 0 0 0 .1778 1.2063.865.865 0 0 0 .6389.1614.8678.8678 0 0 0 .5674-.3365l3.0659-4.0894a.8704.8704 0 0 0 .152-.3815c.0645-.2592.0074-.5335-.1603-.7431l-3.2407-4.0586c-.2967-.3742-.8418-.4372-1.2166-.1403a.8623.8623 0 0 0-.1401 1.2124c.954 1.1848 1.9136 2.3646 2.8122 3.5913Z"/>
  </g>
</svg>