<svg fill="none" viewBox="0 0 24 24"><g class="frame-container-wrapper"><g class="frame-container-blur"><g class="frame-container-shadows"><g class="fills"><rect width="24" height="24" class="frame-background" rx="0" ry="0"/></g><g class="frame-children"><path fill="#000" d="M14.6482 1c.7205 0 1.2571.2146 1.6104.644.3672.4291.5508.93.5508 1.5024 0 .7297-.2825 1.3736-.8474 1.9316-.551.5581-1.2359.837-2.0552.837-.678 0-1.2075-.193-1.5889-.5794-.3816-.4006-.5652-.9373-.551-1.6097 0-.5724.2402-1.1662.7205-1.7815C12.9676 1.3148 13.6878 1 14.6482 1ZM10.178 23c-.579 0-1.0241-.2575-1.335-.7727-.3105-.5008-.2612-1.5454.1485-3.1336l1.3137-5.5805c.1128-.4436.1695-.7584.1695-.9445.0144-.2003-.0425-.3004-.1695-.3004-.1696 0-.5578.1287-1.1653.3864-.5932.2576-1.116.5294-1.5678.8155L7 12.5044c.7063-.601 1.4265-1.1376 2.161-1.6097.7203-.458 1.4124-.8515 2.0763-1.1806.6638-.329 1.2712-.5794 1.822-.7512.5368-.1717.9817-.2576 1.3347-.2576.5652 0 .904.3291 1.017.9873.1131.644.021 1.5025-.2753 2.5757l-1.4832 5.8595c-.1272.5294-.1765.9015-.1484 1.1161.0425.2005.1272.3004.2544.3004.1694 0 .5012-.1073.9956-.3219.5086-.2288 1.038-.5724 1.5891-1.0302l.6568.9015c-.678.7154-1.363 1.3164-2.0552 1.803-.6922.5007-1.3489.9014-1.9702 1.2018-.6075.3149-1.1512.5437-1.6314.687-.4944.143-.8828.2145-1.1653.2145Z" class="fills" font-family="locator" font-size="40" style="line-height:1.25;white-space:pre"/></g></g></g></g></svg>