<svg fill="none" viewBox="0 0 24 24"><g class="frame-container-wrapper"><g class="frame-container-blur"><g class="frame-container-shadows"><g class="fills"><rect width="24" height="24" class="frame-background" rx="0" ry="0"/></g><g class="frame-children"><path fill="#000" d="M14.9988 1.9955c-3.8615 0-7.0058 3.1671-7.0058 7.0488 0 1.8969.7522 3.623 1.9707 4.8926l-7.4473 6.5137a.7333.7333 0 0 0-.0664 1.0332.7336.7336 0 0 0 1.0332.0664l7.6074-6.6602c1.1175.76 2.4617 1.205 3.9082 1.205 3.8616 0 7.0059-3.169 7.0059-7.0507s-3.1443-7.0488-7.0059-7.0488Zm0 1.4687c3.0628 0 5.5371 2.485 5.5371 5.5801 0 3.095-2.4743 5.5899-5.537 5.5899-3.063 0-5.5352-2.495-5.5352-5.5899 0-3.095 2.4721-5.58 5.5351-5.58Zm0 1.8301c-2.0561 0-3.7343 1.6873-3.7343 3.75a.7327.7327 0 0 0 .2146.5234.7342.7342 0 0 0 .5236.2149.7333.7333 0 0 0 .5183-.2177.7329.7329 0 0 0 .2122-.5206c0-1.276 1.008-2.2871 2.2656-2.2871.6226 0 1.1773.2487 1.588.6563a.7333.7333 0 1 0 1.0329-1.041 3.7145 3.7145 0 0 0-2.6211-1.0782Z" class="fills"/></g></g></g></g></svg>