<svg fill="none" viewBox="0 0 24 24"><g class="frame-container-wrapper"><g class="frame-container-blur"><g class="frame-container-shadows"><g class="fills"><rect width="24" height="24" class="frame-background" rx="0" ry="0"/></g><g class="frame-children"><path fill="#000" d="M5.263 1.9955c-1.7973 0-3.2715 1.472-3.2715 3.2695v13.4726c0 1.7974 1.4742 3.2696 3.2715 3.2696h13.4785c1.7974 0 3.2715-1.4722 3.2715-3.2696V5.265c0-1.7975-1.474-3.2695-3.2715-3.2695Zm0 1.6386h10.3301c.393.2141.6621.6426.6621 1.166v14.4024c0 .5233-.269.9518-.662 1.166H5.263c-.9172 0-1.6308-.7136-1.6308-1.6309v-.7011h3.4707c.2214.58.7776.9636 1.3984.9648.8284 0 1.5-.6716 1.5-1.5 0-.8285-.6716-1.5-1.5-1.5a1.4998 1.4998 0 0 0-1.3984.9649H3.6322v-4.4297h3.4707c.2214.58.7776.9636 1.3984.9648.8284 0 1.5-.6716 1.5-1.5 0-.8285-.6716-1.5-1.5-1.5a1.4998 1.4998 0 0 0-1.3984.9649H3.6322V7.0365h3.4707c.2214.58.7776.9636 1.3984.9648.8284 0 1.5-.6716 1.5-1.5 0-.8285-.6716-1.5-1.5-1.5a1.4998 1.4998 0 0 0-1.3984.9649H3.6322V5.265c0-.9174.7136-1.6309 1.6308-1.6309Zm12.2207 0h1.2578c.9173 0 1.625.7135 1.625 1.6309v13.4726c0 .9173-.7077 1.6309-1.625 1.6309h-1.2578c.1619-.357.254-.7516.254-1.166V4.8c0-.4145-.0921-.809-.254-1.166Z" class="fills"/></g></g></g></g></svg>