<svg width="24" height="24" xmlns="http://www.w3.org/2000/svg" viewBox="0 0 24 24" fill="none">
  <g fill="#000">
    <path d="M3.5593 7.8907a.7977.7977 0 0 0-.4409.2248.8004.8004 0 0 0 0 1.1307l3.25 3.2518-3.25 3.2503a.8007.8007 0 0 0 0 1.131c.3118.3117.8184.3117 1.1302 0l3.2526-3.2522 3.25 3.2522c.3118.3117.8186.3117 1.1304 0a.799.799 0 0 0 0-1.131L8.63 12.498l3.2517-3.2518a.7986.7986 0 0 0 0-1.1307.799.799 0 0 0-1.1304 0l-3.25 3.2499-3.2526-3.25a.798.798 0 0 0-.6893-.2247Z"/>
    <path d="M16.0044 12.0444v.9298c0 .4451-.0442.8254-.1328 1.1405-.086.3128-.2104.5665-.3748.7616-.1643.1956-.3608.3387-.5896.4301-.227.091-.4807.1366-.7622.1366-.224 0-.4318-.0287-.6247-.086a1.5266 1.5266 0 0 1-.5159-.2692c-.1538-.1228-.2849-.2802-.3948-.473-.1062-.1952-.1899-.4282-.25-.699-.057-.2708-.0859-.585-.0859-.9416v-.9298c0-.4478.0442-.8253.1328-1.1325.0889-.31.2151-.5614.3794-.754.1643-.1955.3589-.3372.586-.4258.2287-.0885.4843-.1329.7658-.1329.2258 0 .4346.0287.6245.0859.1929.0549.3648.142.5159.2617.153.1199.2834.2762.3904.4686.1098.1906.1928.4208.25.6915.0571.2682.086.581.086.9375Zm-.9411 1.0627v-1.2034c0-.2265-.0132-.4257-.0398-.5974-.026-.1745-.0645-.3216-.1172-.4416-.0489-.1221-.1116-.2214-.1873-.2966-.0757-.0785-.1614-.1341-.2573-.1678-.097-.0365-.205-.055-.324-.055-.1467 0-.2768.0286-.3913.0857-.1143.055-.2102.1436-.2889.2659-.0783.1222-.1384.2837-.1796.4845-.0389.1978-.0584.4387-.0584.7223v1.2034c0 .2292.013.4309.0388.6053.0259.1744.0657.3242.1172.4493.0518.1222.1145.2238.1875.3045a.6926.6926 0 0 0 .2583.1721c.0986.0365.2066.0544.3237.0544.1487 0 .2796-.0285.395-.0858.1146-.0572.2105-.1485.2889-.2732.0783-.1278.1365-.2928.175-.4964.0398-.2029.0594-.4464.0594-.7302Zm2.7182 1.3513-.0036.6722c0 .2653-.0665.539-.1993.8202-.133.281-.3083.5132-.5268.6954l-.5049-.293c.073-.1171.1394-.2356.1995-.3558a2.0839 2.0839 0 0 0 .1447-.3824c.036-.1356.0545-.2852.0545-.4494v-.7072Zm1.8401-1.738-.7505-.1835.3093-2.8597h3.0664v.7968H19.961l-.1558 1.3947c.0884-.0522.2114-.1028.3672-.1521.156-.0523.335-.078.5351-.078.2686 0 .5076.0438.7188.1323.2131.0864.395.2123.5427.3792.1485.1639.262.3645.3403.6017.0777.2344.1172.4983.1172.7926 0 .263-.0395.5094-.1172.7382-.0756.2292-.1899.4314-.344.6058-.1533.1745-.3478.311-.5822.4102-.2317.0964-.5066.1444-.824.1444-.237 0-.465-.0337-.6838-.1016-.2159-.0702-.41-.173-.5813-.3086-.1726-.138-.31-.3073-.4143-.508-.1045-.203-.1643-.436-.18-.699h.9219c.024.185.0747.3424.1521.4724.0813.128.1873.2257.3203.2931.1328.0679.2869.1014.4612.1014.159 0 .2954-.0272.41-.0815a.7747.7747 0 0 0 .285-.2423c.0784-.107.1356-.232.1724-.375.0388-.1437.0581-.3024.0581-.4768 0-.1665-.0222-.3186-.0661-.4572-.0418-.1379-.1055-.2574-.1912-.3592-.083-.1016-.189-.1797-.3166-.2345-.1272-.0573-.2747-.0857-.441-.0857-.2243 0-.3957.0326-.5158.0978a1.6064 1.6064 0 0 0-.3284.242Z"/>
  </g>
</svg>