<svg fill="none" viewBox="0 0 24 24"><g class="frame-container-wrapper"><g class="frame-container-blur"><g class="frame-container-shadows"><g class="fills"><rect width="24" height="24" class="frame-background" rx="0" ry="0"/></g><g fill="#000" class="frame-children"><path d="M8.941 2.3261c-.0056.0005-.0122.0015-.0176.0019a.7535.7535 0 0 0-.215.0333L2.5954 4.3479a.7506.7506 0 0 0-.5156.7087v15.871a.7513.7513 0 0 0 .3108.603.7493.7493 0 0 0 .67.1062l5.0637-1.6388-.0601.1232a.7313.7313 0 0 0 .0332.7137.7324.7324 0 0 0 .6248.347l12.5908-.0083a.7325.7325 0 0 0 .7243-.6248v-.0018a.7317.7317 0 0 0 .0315-.209l-.1347-17.2676a.7476.7476 0 0 0-.3081-.5989.748.748 0 0 0-.6643-.1102l-5.9017 1.91-5.8867-1.91c-.0083-.0015-.0156-.0028-.023-.0038a.7562.7562 0 0 0-.1994-.0295.0959.0959 0 0 0-.01-.0019Zm-.7502 1.7773v14.2932l-4.6126 1.498V5.6032Zm12.2534 0 .1015 13.0881-4.738-9.7053v-1.883Zm-10.7549.0018 4.6208 1.498v1.7034l-4.6208 9.4807Zm5.3313 5.1036 5.1191 10.5022-10.2419.0019Zm-.0527 3.1194a.7309.7309 0 0 0-.5193.2168.7338.7338 0 0 0-.2132.5214v2.3534c.0008.4041.3284.7321.7325.7326a.7345.7345 0 0 0 .731-.7326v-2.3534a.7345.7345 0 0 0-.2122-.5209.7343.7343 0 0 0-.5188-.2173Z" class="fills"/><path fill="none" d="M13.0099 20.355Z" class="fills"/><circle cx="14.9863" cy="17.76" r=".7219" class="fills"/></g></g></g></g></svg>