<svg width="24" xmlns="http://www.w3.org/2000/svg" height="23.992" viewBox="0 0 24 23.992" fill="none">
<g>
<g>
<g>
<g>
<g fill="none">
<g>
<rect rx="0" ry="0" x="0" y="0" width="24" height="23.992269617594275" transform="matrix(1, 0, 0, 1, 0, 0)"/>
</g>
<g>
<g width="24" height="24" rx="0" ry="0" style="fill: rgb(0, 0, 0);">
<g style="opacity: 1;">
<g>
<path d="M5.260100364685059,2.0793159008026123C3.5096120834350586,2.0793159008026123,2.0784597396850586,3.5173041820526123,2.0784597396850586,5.268036365509033L2.0784597396850586,18.731903076171875C2.0784597396850586,20.482757568359375,3.5096120834350586,21.913421630859375,5.260100364685059,21.913421630859375L18.738615036010742,21.913421630859375C20.490079879760742,21.913421630859375,21.920011520385742,20.482757568359375,21.920011520385742,18.731903076171875L21.920011520385742,5.268036365509033C21.920011520385742,3.5173041820526123,20.490079879760742,2.0793159008026123,18.738615036010742,2.0793159008026123ZM5.260100364685059,3.5481879711151123L18.738615036010742,3.5481879711151123C19.702970504760742,3.5481879711151123,20.451261520385742,4.304413318634033,20.451261520385742,5.268036365509033L20.451261520385742,18.731903076171875C20.451261520385742,19.695648193359375,19.702970504760742,20.451873779296875,18.738615036010742,20.451873779296875L5.260100364685059,20.451873779296875C4.296721458435059,20.451873779296875,3.5474538803100586,19.695648193359375,3.5474538803100586,18.731903076171875L3.5474538803100586,5.268036365509033C3.5474538803100586,4.304413318634033,4.296721458435059,3.5481879711151123,5.260100364685059,3.5481879711151123Z" style="display: inline; stroke-linecap: round; stroke-linejoin: round; fill: rgb(0, 0, 0); fill-opacity: 1;"/>
</g>
</svg>