<svg width="24" height="24" xmlns="http://www.w3.org/2000/svg" viewBox="0 0 24 24" fill="none">
  <g fill="#fff">
    <path d="M11.4417 6.9995c-1.8794 0-3.4174 1.545-3.4174 3.425v8.1492c0 1.88 1.538 3.425 3.4174 3.425h7.16c1.8796 0 3.4177-1.545 3.4177-3.425v-8.1491c0-1.88-1.5381-3.425-3.4177-3.425H17.074v1.8896H18.6016c.8648 0 1.5281.6712 1.5281 1.5354v8.1491c0 .8642-.6633 1.5354-1.528 1.5354h-7.16c-.8635 0-1.528-.6712-1.528-1.5354v-8.1491c0-.8642.6645-1.5354 1.528-1.5354h1.5281V6.9995h-.9448Z"/>
    <path d="M5.4483 2.0097c-1.8796 0-3.4253 1.5382-3.4253 3.4176v8.1491c0 1.8802 1.5457 3.425 3.4253 3.425h1.4983v-1.8969H5.4483c-.8647 0-1.5356-.6634-1.5356-1.528V5.4272c0-.8642.6709-1.528 1.5356-1.528h7.1524c.8647 0 1.5278.6638 1.5278 1.528v8.1491c0 .8647-.663 1.5281-1.5278 1.5281h-1.4985v1.897h1.4985c1.8794 0 3.4177-1.545 3.4177-3.425V5.4272c0-1.8794-1.5383-3.4176-3.4177-3.4176Z"/>
  </g>
</svg>