<svg width="24" height="24" xmlns="http://www.w3.org/2000/svg" viewBox="0 0 24 24" fill="none"> <g fill="#fff">
<path d="M13.9297 2.0018c-4.4504 0-8.0683 3.645-8.0683 8.1192 0 2.1246.8164 4.0647 2.1499 5.5157l-5.494 4.8125a.734.734 0 0 0-.0666 1.033.7336.7336 0 0 0 1.0335.0665l5.6233-4.9177c1.3462 1.0154 3.0146 1.6189 4.8222 1.6189 4.4502 0 8.0684-3.6546 8.0684-8.129 0-4.4742-3.6182-8.119-8.0684-8.119Zm0 1.5507c3.605 0 6.5174 2.9265 6.5174 6.5685 0 3.642-2.9124 6.5782-6.5174 6.5782-3.6052 0-6.5173-2.9361-6.5173-6.5782 0-3.642 2.9121-6.5685 6.5173-6.5685Zm-2.664 2.4513c-.9458 0-1.7283.7806-1.7283 1.727v4.5389c0 .9458.7825 1.7282 1.7283 1.7282h5.4607c.946 0 1.7285-.7824 1.7285-1.7282v-4.539c0-.9463-.7825-1.727-1.7285-1.727Zm0 1.469h5.4607c.1543 0 .252.1034.252.258v1.5718h-5.973V7.7307c0-.1545.1062-.258.2603-.258Zm-.2603 3.2909h5.973v1.506c0 .1545-.0977.2597-.252.2597h-5.4607c-.154 0-.2603-.1052-.2603-.2597Z"/>
</g>
</svg>