<svg width="24" height="24" xmlns="http://www.w3.org/2000/svg" viewBox="0 0 24 24" fill="none">
  <g fill="#fff">
    <path d="M2.2988 9.0022a.7963.7963 0 0 0-.5637.2334.7958.7958 0 0 0-.2334.5638.7959.7959 0 0 0 .2334.564.7957.7957 0 0 0 .5637.2333c2.572 0 4.6137 1.9806 4.6137 4.407 0 2.4265-2.0417 4.407-4.6137 4.407a.7963.7963 0 0 0-.5637.2334.7958.7958 0 0 0-.2334.5638.7965.7965 0 0 0 .797.79c3.4007 0 6.2083-2.673 6.2083-5.9942 0-3.321-2.8076-6.0015-6.2082-6.0015ZM6.6237 2.0051a.7726.7726 0 0 0-.7734.7676.7721.7721 0 0 0 .7734.7735h9.5899c2.5718 0 4.7168 2.3358 4.7168 5.33 0 2.9943-2.145 5.3301-4.7168 5.3301H13.362l1.67-1.6758a.7504.7504 0 0 0 0-1.0625.75.75 0 0 0-1.0548 0l-3.0039 3.004a.7504.7504 0 0 0 0 1.0624l3.004 2.998a.75.75 0 0 0 1.0546 0 .7504.7504 0 0 0 0-1.0624l-1.7187-1.7207h2.9004c3.499 0 6.2676-3.1267 6.2676-6.873 0-3.7464-2.7686-6.8712-6.2676-6.8712ZM10.5297 19.4697a.7498.7498 0 0 0-1.063.0076.7498.7498 0 0 0 .0076 1.0557l2.0225 2.0002a.7499.7499 0 0 0 1.063-.0076.7501.7501 0 0 0-.0076-1.0555Z"/>
    <path d="M12.0356 7.4152 9.5332 9.4157a.75.75 0 0 0-.1182 1.0555.75.75 0 0 0 1.0557.1182l2.5024-2.0005a.75.75 0 0 0 .1182-1.0557.7498.7498 0 0 0-1.0557-.118ZM2.5056 2.2478a.75.75 0 0 0-.753.753v2.997a.7504.7504 0 0 0 .753.753.75.75 0 0 0 .7456-.753v-2.997a.75.75 0 0 0-.7456-.753Z"/>
  </g>
</svg>