<svg width="24" height="24" xmlns="http://www.w3.org/2000/svg" viewBox="0 0 24 24" fill="none"> <g fill="#fff">
<path d="M13.933398246765137,2.0018310546875C9.482958793640137,2.0018310546875,5.865038871765137,5.646728515625,5.865038871765137,10.1209716796875C5.865038871765137,12.2447509765625,6.680712699890137,14.183837890625,8.012988090515137,15.6348876953125L2.521044969558716,20.44921875C2.215625047683716,20.7144775390625,2.182421922683716,21.1763916015625,2.446093797683716,21.482177734375C2.575488328933716,21.63037109375,2.758105516433716,21.7203369140625,2.952685594558716,21.7327880859375C3.148486375808716,21.74560546875,3.341357469558716,21.67919921875,3.488085985183716,21.5487060546875L9.106493949890137,16.629150390625C10.453661918640137,17.64599609375,12.123827934265137,18.2498779296875,13.933398246765137,18.2498779296875C18.382862091064453,18.2498779296875,22.000782012939453,14.5953369140625,22.000782012939453,10.1209716796875C22.000782012939453,5.646728515625,18.382862091064453,2.0018310546875,13.933398246765137,2.0018310546875ZM13.933398246765137,3.552490234375C17.538379669189453,3.552490234375,20.452442169189453,6.47900390625,20.452442169189453,10.1209716796875C20.452442169189453,13.7630615234375,17.538379669189453,16.69921875,13.933398246765137,16.69921875C10.327197074890137,16.69921875,7.415087699890137,13.7630615234375,7.415087699890137,10.1209716796875C7.415087699890137,6.47900390625,10.327197074890137,3.552490234375,13.933398246765137,3.552490234375Z"/> <path fill="#000" d="M11.002734184265137,9.1328125C10.772997856140137,9.1318359375,10.551562309265137,9.2222900390625,10.388232231140137,9.38427734375C10.224902153015137,9.546142578125,10.132616996765137,9.7667236328125,10.131640434265137,9.9964599609375C10.130663871765137,10.22802734375,10.222216606140137,10.449951171875,10.385546684265137,10.61376953125C10.548876762390137,10.777587890625,10.771044731140137,10.868896484375,11.002734184265137,10.8675537109375L17.004199981689453,10.8675537109375C17.233936309814453,10.8670654296875,17.454639434814453,10.7747802734375,17.616992950439453,10.6109619140625C17.778369903564453,10.4476318359375,17.868946075439453,10.2266845703125,17.867969512939453,9.9964599609375C17.866016387939453,9.5203857421875,17.480274200439453,9.1346435546875,17.004199981689453,9.1328125Z"/>
</g>
</svg>