<svg width="24" height="24" xmlns="http://www.w3.org/2000/svg" viewBox="0 0 24 24" fill="none">
  <g fill="#000">
    <path d="M13.9297 2.0018c-4.4504 0-8.0683 3.645-8.0683 8.1192 0 2.1246.8174 4.0647 2.1509 5.5157l-5.495 4.8125a.734.734 0 0 0-.0666 1.033.7336.7336 0 0 0 1.0335.0665l5.6233-4.9177c1.3462 1.0154 3.0146 1.6189 4.8222 1.6189 4.4502 0 8.0684-3.6546 8.0684-8.129 0-4.4742-3.6182-8.119-8.0684-8.119Zm0 1.5507c3.605 0 6.5174 2.9265 6.5174 6.5685 0 3.642-2.9124 6.5782-6.5174 6.5782-3.6052 0-6.5173-2.9361-6.5173-6.5782 0-3.642 2.9121-6.5685 6.5173-6.5685Z"/>
    <path d="M14.0044 6.1366a.8665.8665 0 0 0-.6145.2511.8645.8645 0 0 0-.2575.6122v2.133H10.998c-.476.0017-.8618.3875-.8635.863a.8686.8686 0 0 0 .251.6147.8692.8692 0 0 0 .6125.2565h2.1343v2.1347a.8636.8636 0 0 0 .2575.6122.8639.8639 0 0 0 .6145.251c.4751-.0018.8609-.387.8628-.8632v-2.1347h2.1324a.868.868 0 0 0 .6128-.2565.8696.8696 0 0 0 .251-.6146c-.002-.4756-.3878-.8614-.8638-.8632h-2.1324v-2.133c-.002-.4756-.3877-.8613-.8628-.8632Z"/>
  </g>
</svg>