<svg width="24" height="24" xmlns="http://www.w3.org/2000/svg" viewBox="0 0 24 24" fill="none"> <g fill="#ced4da">
<path d="M12.0208 1.2834a.7333.7333 0 0 0-.7304.7324v1.0704c-4.3455.376-7.8147 3.8483-8.1934 8.1933H2.0267a.7331.7331 0 0 0-.7383.7383.7332.7332 0 0 0 .7383.7305h1.0625c.3296 4.3952 3.8196 7.9183 8.2012 8.2968v.9668a.7333.7333 0 0 0 .7304.7383.7336.7336 0 0 0 .7383-.7383v-.959c4.4273-.3348 7.972-3.8773 8.3047-8.3046h.961a.7336.7336 0 0 0 .7304-.7305.7334.7334 0 0 0-.7305-.7383h-.9687c-.3823-4.377-3.9063-7.8685-8.2969-8.2012V2.0158a.7333.7333 0 0 0-.7383-.7324Zm.7383 3.2676c3.595.322 6.4544 3.1476 6.8242 6.7285h-2.8945c-.335-1.909-1.9455-3.3967-3.9297-3.6406Zm-1.4687.008v3.1288c-1.836.356-3.2947 1.7863-3.6114 3.5918H4.5697c.3657-3.5487 3.1718-6.3569 6.7207-6.7207Zm.8926 4.5136c1.7397 0 3.1093 1.3297 3.1093 2.9453s-1.3696 2.9375-3.1093 2.9375c-1.7398 0-3.0997-1.3219-3.0997-2.9375s1.36-2.9453 3.0997-2.9453ZM4.56 12.7484h3.117c.314 1.8078 1.7748 3.2345 3.6134 3.5898v3.2422c-3.5852-.3675-6.4119-3.232-6.7305-6.832Zm12.1308 0h2.9023c-.3225 3.6326-3.2024 6.5145-6.834 6.8398V16.389c1.9868-.2434 3.5994-1.7292 3.9317-3.6406Z"/>
</g>
</svg>