<svg fill="none" viewBox="0 0 24 24"><g class="frame-container-wrapper"><g class="frame-container-blur"><g class="frame-container-shadows"><g class="fills"><rect width="24" height="24" class="frame-background" rx="0" ry="0"/></g><g class="frame-children"><path fill="#000" d="M12.6106 2.9001a.8661.8661 0 0 0-.6147-.25.8662.8662 0 0 0-.8657.8659l.0012 7.6193-7.618-.0026a.8666.8666 0 0 0-.8659.8658.8668.8668 0 0 0 .866.866l7.6179.0028.003 7.6179a.8666.8666 0 0 0 .8671.8673.8669.8669 0 0 0 .866-.866l-.0027-7.6179 7.6191.0014c.478-.0005.8658-.388.866-.8659a.8662.8662 0 0 0-.2512-.616.8653.8653 0 0 0-.616-.2513l-7.618-.0028-.0028-7.618a.8661.8661 0 0 0-.2513-.6159Z" class="fills"/></g></g></g></g></svg>