<svg width="24" height="24" xmlns="http://www.w3.org/2000/svg" viewBox="0 0 24 24" fill="none"> <g fill="#ced4da">
<path d="M5.2605 2.079c-1.7502 0-3.1813 1.4385-3.1813 3.1892v13.4624c0 1.751 1.4311 3.1815 3.1813 3.1815h13.4712c1.7513 0 3.19-1.4305 3.19-3.1815V5.2682c0-1.7507-1.4387-3.1892-3.19-3.1892Zm0 1.4689h6.0477a.7403.7403 0 0 0-.0608.2205v7.8687H3.5406V5.268c0-.9635.7568-1.7202 1.72-1.7202Zm7.4246 0h6.0466c.9642 0 1.721.7567 1.721 1.7203v6.3689h-7.7078V3.7684a.7386.7386 0 0 0-.0598-.2205Zm-9.1445 9.5816h7.7068v7.3215H5.2605c-.963 0-1.72-.7565-1.72-1.7204Zm9.2043 0h7.7078v5.601c0 .964-.7568 1.7205-1.721 1.7205H12.745Z"/>
</g>
</svg>