<svg width="24" height="24" xmlns="http://www.w3.org/2000/svg" viewBox="0 0 24 24" fill="none">
<g fill="#ced4da">
<path d="M5.7652 2.0193c-1.5547 0-2.8125 1.3025-2.8125 2.8632v8.2533c0 1.5609 1.2578 2.8636 2.8125 2.8636h2.2156a.8269.8269 0 0 0 .5832-.239.8238.8238 0 0 0 .2427-.5813.8233.8233 0 0 0-.241-.5853.8232.8232 0 0 0-.585-.2409H5.7653c-.6487 0-1.1653-.5177-1.1653-1.2171V8.1012h14.7554v5.0346c0 .6994-.5166 1.2171-1.1663 1.2171h-2.2515a.8214.8214 0 0 0-.5813.2432.8212.8212 0 0 0-.239.583.824.824 0 0 0 .8203.8203h2.2515c1.5557 0 2.8125-1.3027 2.8125-2.8636V4.8825c0-1.5607-1.2568-2.8632-2.8125-2.8632Zm0 1.6447H18.19c.6487 0 1.1653.5195 1.1653 1.2185v1.4979H4.5999v-1.498c0-.699.5166-1.2184 1.1653-1.2184Z"/>
<path d="M12.0096 10.9214a.901.901 0 0 0-.6367.2634.8957.8957 0 0 0-.263.6368v7.453l-2.569-1.9982a.8994.8994 0 0 0-1.2613.1545.8965.8965 0 0 0-.1836.6685.8982.8982 0 0 0 .346.6007l4.0148 3.1228c.0064.0041.013.0078.0193.012a.8448.8448 0 0 0 .0545.0351.9045.9045 0 0 0 .1975.0955.8073.8073 0 0 0 .0342.012.8978.8978 0 0 0 .2692.0368.9074.9074 0 0 0 .2696-.0507c.0073-.0028.0156-.005.023-.0079a.8978.8978 0 0 0 .287-.17L16.5853 18.7a.9015.9015 0 0 0 .3422-.6025.9021.9021 0 0 0-.1872-.6672c-.3064-.39-.8711-.4593-1.2622-.154l-2.5698 2v-7.4548a.9001.9001 0 0 0-.9006-.9001Z"/>
</g>
</svg>