<svg width="24" height="24" xmlns="http://www.w3.org/2000/svg" viewBox="0 0 24 24" fill="none"> <g fill="#fff">
<path d="M12.0027 2.9987c-4.9607 0-8.9985 4.0374-8.9985 8.9985 0 4.9612 4.0378 8.9985 8.9985 8.9985 4.9615 0 8.9986-4.0373 8.9986-8.9985 0-4.961-4.0371-8.9985-8.9986-8.9985Zm0 1.469c4.169 0 7.5296 3.361 7.5296 7.5295 0 4.1684-3.3606 7.537-7.5296 7.537-4.168 0-7.537-3.3686-7.537-7.537 0-4.1685 3.369-7.5294 7.537-7.5294Z"/> <path d="M10.9988 6.5938c-2.425 0-4.407 1.9815-4.407 4.407 0 2.4253 1.982 4.407 4.407 4.407 2.4258 0 4.407-1.9817 4.407-4.407 0-2.4255-1.9812-4.407-4.407-4.407Zm0 1.469c1.633 0 2.938 1.3051 2.938 2.938 0 1.6326-1.305 2.938-2.938 2.938-1.6323 0-2.938-1.3054-2.938-2.938 0-1.6329 1.3057-2.938 2.938-2.938Z"/>
</g>
</svg>