<svg width="24" height="24" xmlns="http://www.w3.org/2000/svg" viewBox="0 0 24 24" fill="none"> <g fill="#ced4da">
<path d="M10.125 0h3.75C14.4986 0 15 .5016 15 1.125V9h4.1109c.8345 0 1.2517 1.0078.6611 1.5984l-7.1299 7.1344c-.3515.3516-.928.3516-1.2795 0l-7.1392-7.1344C3.633 10.0078 4.0501 9 4.8844 9H9V1.125C9 .5016 9.5015 0 10.125 0ZM24 17.625v5.25c0 .6234-.5014 1.125-1.125 1.125H1.125A1.1223 1.1223 0 0 1 0 22.875v-5.25c0-.6234.5015-1.125 1.125-1.125h6.8765l2.2969 2.2969c.9424.9421 2.461.9421 3.4033 0L15.9986 16.5h6.8764c.6236 0 1.125.5016 1.125 1.125Zm-5.8125 4.125c0-.5156-.4218-.9375-.9375-.9375-.5156 0-.9375.4219-.9375.9375 0 .5156.422.9375.9375.9375.5157 0 .9375-.4219.9375-.9375Zm3 0c0-.5156-.4218-.9375-.9375-.9375-.5156 0-.9375.4219-.9375.9375 0 .5156.422.9375.9375.9375.5157 0 .9375-.4219.9375-.9375Z"/>
</g>
</svg>