<svg fill="none" viewBox="0 0 24 24"><g class="frame-container-wrapper"><g class="frame-container-blur"><g class="frame-container-shadows"><g class="fills"><rect width="24" height="24" class="frame-background" rx="0" ry="0"/></g><g class="frame-children"><path fill="#000" d="M13.9588 2.0022a.6412.6412 0 0 0-.4937.2145L3.1666 13.5623a.6417.6417 0 0 0 0 .8631l6.437 7.094a.6422.6422 0 0 0 .476.2113.6427.6427 0 0 0 .477-.2113l10.297-11.346a.6452.6452 0 0 0 .1696-.4507l-.1696-6.9085a.6425.6425 0 0 0-.6265-.621l-1.7754-.0549a.6607.6607 0 0 0-.0869-.0111.617.617 0 0 0-.1226.0073Zm.2585 1.2987 3.8514.1172 1.5502 1.6992.1136 4.3807-2.69-2.9648a.6357.6357 0 0 0-.093-.1092c-.0046-.0029-.0093-.0052-.0139-.0075l-2.772-3.057Zm-.9165 1.0077 2.3494 2.59-6.8633 7.566-2.351-2.5896Zm3.2168 3.545 2.3557 2.5957-6.8652 7.5646-2.3538-2.5919ZM5.5757 12.8221l2.3504 2.592-1.065 1.1738-2.351-2.5897Zm3.2195 3.5489 2.351 2.592-1.062 1.17-2.354-2.5902Z" class="fills"/></g></g></g></g></svg>