<svg fill="none" viewBox="0 0 24 24"><g class="frame-container-wrapper"><g class="frame-container-blur"><g class="frame-container-shadows"><g class="fills"><rect width="24" height="24" class="frame-background" rx="0" ry="0"/></g><g class="frame-children"><rect width="24" height="24" fill="#000" class="fills" rx="4" ry="4"/><path fill="#fff" d="M7.8235 13.0951c.2036.0756.3863.003.446-.2008.0409-.1406.1383-.497.1817-.6457.0598-.2018.0364-.2719-.1284-.4478-.3582-.3818-.5874-.877-.5874-1.5774 0-2.032 1.6833-3.8514 4.3838-3.8514 2.3911 0 3.7046 1.3198 3.7046 3.082 0 2.3184-1.1365 4.2754-2.8228 4.2754-.9319 0-1.6289-.6954-1.4057-1.5484.268-1.019.7861-2.1186.7861-2.8542 0-.6582-.3909-1.207-1.201-1.207-.9523 0-1.7172.8897-1.7172 2.0813 0 .759.2844 1.2725.2844 1.2725s-.9744 3.7292-1.1453 4.3819c-.3405 1.3005-.051 2.8951-.0268 3.0561.0151.0955.1504.1178.2117.0463.0878-.104 1.2224-1.3687 1.6074-2.6322.1094-.3574.6264-2.21.6264-2.21.3091.5329 1.2137 1.0021 2.1746 1.0021 2.8628 0 4.8044-2.3567 4.8044-5.5112C18 7.2215 15.764 5 12.3636 5 8.133 5 6 7.739 6 10.0232c0 1.3833.5799 2.6141 1.8235 3.072" class="fills"/></g></g></g></g></svg>