<svg width="24" xmlns="http://www.w3.org/2000/svg" height="24" id="screenshot-915d2400-ada3-801c-8006-87df760dbb85" viewBox="0 0 24 24" xmlns:xlink="http://www.w3.org/1999/xlink" fill="none" version="1.1"><g id="shape-915d2400-ada3-801c-8006-87df760dbb85"><g class="frame-container-wrapper"><g class="frame-container-blur"><g class="frame-container-shadows"><g fill="none"><g class="fills" id="fills-915d2400-ada3-801c-8006-87df760dbb85"><rect rx="0" ry="0" x="0" y="0" width="24" height="24.000000000000455" transform="matrix(1, 0, 0, 1, 0, 0)" class="frame-background"/></g><g class="frame-children"><g id="shape-915d2400-ada3-801c-8006-87df60a82caf" width="24" height="24" version="1.1" rx="0" ry="0" style="fill: rgb(0, 0, 0);"><g id="shape-915d2400-ada3-801c-8006-87df60abb494" style="opacity: 1;"><g class="fills" id="fills-915d2400-ada3-801c-8006-87df60abb494"><path d="M5.248869895935059,3.1163485050201416C3.4246511459350586,3.1163485050201416,1.926848292350769,4.6140289306640625,1.926848292350769,6.4387359619140625L1.926848292350769,15.210220336914062L1.926848292350769,17.851089477539062L1.926848292350769,19.962295532226562C1.926848292350769,20.634048461914062,2.4685964584350586,21.173477172851562,3.1394948959350586,21.173477172851562L5.248869895935059,21.173477172851562L9.807951927185059,21.173477172851562L18.751310348510742,21.173477172851562C20.576261520385742,21.173477172851562,22.073087692260742,19.675796508789062,22.073087692260742,17.851089477539062L22.073087692260742,6.4387359619140625C22.073087692260742,4.6140289306640625,20.576261520385742,3.1163485050201416,18.751310348510742,3.1163485050201416ZM5.248869895935059,4.8512115478515625L18.751310348510742,4.8512115478515625C19.646329879760742,4.8512115478515625,20.339200973510742,5.5440826416015625,20.339200973510742,6.4387359619140625L20.339200973510742,17.851089477539062C20.339200973510742,18.745742797851562,19.646329879760742,19.438735961914062,18.751310348510742,19.438735961914062L11.020598411560059,19.438735961914062L11.020598411560059,15.224136352539062L15.489348411560059,10.755264282226562L15.457854270935059,14.993423461914062C15.456145286560059,15.427993774414062,15.806731224060059,15.781875610351562,16.241300582885742,15.784683227539062C16.450773239135742,15.787002563476562,16.652921676635742,15.705337524414062,16.802335739135742,15.558609008789062C16.951749801635742,15.411392211914062,17.036710739135742,15.211196899414062,17.038663864135742,15.001235961914062L17.082853317260742,8.770889282226562C17.083829879760742,8.518081665039062,16.962980270385742,8.281021118164062,16.759122848510742,8.132461547851562C16.606779098510742,8.007827758789062,16.416593551635742,7.9391021728515625,16.220060348510742,7.9367828369140625L10.018401145935059,7.9367828369140625C9.542326927185059,7.9386138916015625,9.157561302185059,8.324356079101562,9.155608177185059,8.799942016601562C9.153899192810059,9.030166625976562,9.244231224060059,9.251235961914062,9.406584739685059,9.414566040039062C9.568205833435059,9.577896118164062,9.788664817810059,9.670181274414062,10.018401145935059,9.671035766601562L14.121916770935059,9.671035766601562L9.797942161560059,13.997329711914062L3.6636648178100586,13.997329711914062L3.6636648178100586,6.4387359619140625C3.6636648178100586,5.5440826416015625,4.354582786560059,4.8512115478515625,5.248869895935059,4.8512115478515625Z" style="display: inline; stroke-linecap: round; stroke-linejoin: round; fill: rgb(0, 0, 0); fill-opacity: 1;"/></g></g></g></g></g></g></g></g></g></svg>