<svg width="24" xmlns="http://www.w3.org/2000/svg" height="24" id="screenshot-05423abe-7920-80cf-8006-8f9b820dfea5" viewBox="0 0 24 24" xmlns:xlink="http://www.w3.org/1999/xlink" fill="none" version="1.1"><g id="shape-05423abe-7920-80cf-8006-8f9b820dfea5"><g class="frame-container-wrapper"><g class="frame-container-blur"><g class="frame-container-shadows"><g fill="none"><g class="fills" id="fills-05423abe-7920-80cf-8006-8f9b820dfea5"><rect rx="0" ry="0" x="0" y="0" width="24" height="24.000000000000455" transform="matrix(1, 0, 0, 1, 0, 0)" class="frame-background"/></g><g class="frame-children"><g id="shape-05423abe-7920-80cf-8006-8f9b8e7401fe" rx="0" ry="0"><g id="shape-05423abe-7920-80cf-8006-8f9b5b618dfd" style="opacity: 1;"><g class="fills" id="fills-05423abe-7920-80cf-8006-8f9b5b618dfd"><path d="M12.014669418334961,2.067138671875C9.316915512084961,2.067138671875,7.083761215209961,4.1871337890625,7.083761215209961,6.8209228515625L7.083761215209961,9.7215576171875L7.083761215209961,9.98681640625L5.732442855834961,9.98681640625C5.537618637084961,9.98779296875,5.350851058959961,10.0662841796875,5.213399887084961,10.20458984375C5.076681137084961,10.343017578125,5.000509262084961,10.530517578125,5.001241683959961,10.7254638671875L5.001241683959961,21.2744140625C5.003194808959961,21.6771240234375,5.328634262084961,22.003173828125,5.732442855834961,22.0045166015625L18.28883934020996,22.0045166015625C18.69093894958496,22.003173828125,19.01784324645996,21.6771240234375,19.01906394958496,21.2744140625L19.01906394958496,10.7254638671875C19.02052879333496,10.530517578125,18.94362449645996,10.343017578125,18.80690574645996,10.20458984375C18.66945457458496,10.0662841796875,18.48341941833496,9.98779296875,18.28883934020996,9.98681640625L16.94508934020996,9.98681640625L16.94508934020996,6.8209228515625C16.94508934020996,4.1871337890625,14.713155746459961,2.067138671875,12.014669418334961,2.067138671875ZM12.014669418334961,3.5361328125C13.953634262084961,3.5361328125,15.476339340209961,5.0146484375,15.476339340209961,6.8209228515625L15.476339340209961,9.98681640625L8.544698715209961,9.98681640625L8.544698715209961,9.7215576171875L8.544698715209961,6.8209228515625C8.544698715209961,5.0146484375,10.075948715209961,3.5361328125,12.014669418334961,3.5361328125ZM6.469991683959961,11.4559326171875L17.55055809020996,11.4559326171875L17.55055809020996,20.5435791015625L6.469991683959961,20.5435791015625Z" style="display: inline; stroke-linecap: square; stroke-linejoin: round; fill: rgb(0, 0, 0); fill-opacity: 1;"/></g></g></g></g></g></g></g></g></g></svg>