<svg width="24" xmlns="http://www.w3.org/2000/svg" height="24" id="screenshot-7d3c7f0b-2e55-809a-8006-a15c80855746" viewBox="0 0 24 24" xmlns:xlink="http://www.w3.org/1999/xlink" fill="none" version="1.1"><g id="shape-7d3c7f0b-2e55-809a-8006-a15c80855746"><g class="frame-container-wrapper"><g class="frame-container-blur"><g class="frame-container-shadows"><g fill="none"><g class="fills" id="fills-7d3c7f0b-2e55-809a-8006-a15c80855746"><rect rx="0" ry="0" x="0" y="0" width="24" height="24.000000000000455" transform="matrix(1, 0, 0, 1, 0, 0)" class="frame-background"/></g><g class="frame-children"><g id="shape-a692a29b-b9de-80cb-8006-a15bf9ee8eed" rx="0" ry="0"><g id="shape-a692a29b-b9de-80cb-8006-a15ba35dfaf6" style="opacity: 1;"><g class="fills" id="fills-a692a29b-b9de-80cb-8006-a15ba35dfaf6"><path d="M3.498095750808716,3.135009765625C3.022021532058716,3.1368408203125,2.636279344558716,3.5220947265625,2.634570360183716,3.9981689453125L2.634570360183716,20.002197265625C2.636279344558716,20.477783203125,3.022021532058716,20.863525390625,3.498095750808716,20.8653564453125L20.497852325439453,20.8653564453125C20.728565216064453,20.8663330078125,20.949024200439453,20.77587890625,21.112354278564453,20.6138916015625C21.275684356689453,20.4520263671875,21.367969512939453,20.23193359375,21.368946075439453,20.002197265625C21.370655059814453,19.7705078125,21.279346466064453,19.5482177734375,21.115039825439453,19.3848876953125C20.951709747314453,19.2210693359375,20.729297637939453,19.1297607421875,20.497852325439453,19.130615234375L19.862842559814453,19.130615234375L19.862842559814453,17.5001220703125C19.861133575439453,17.0240478515625,19.476367950439453,16.6387939453125,19.000293731689453,16.636962890625C18.523975372314453,16.6387939453125,18.138233184814453,17.0240478515625,18.136524200439453,17.5001220703125L18.136524200439453,19.0567626953125C17.203662872314453,18.88330078125,16.667530059814453,18.401611328125,16.179248809814453,17.654296875C15.558398246765137,16.7020263671875,15.151415824890137,15.2685546875,14.711230278015137,13.758056640625C14.270312309265137,12.2470703125,13.791308403015137,10.6492919921875,12.798388481140137,9.349609375C11.806445121765137,8.0499267578125,10.216601371765137,7.1346435546875,8.000292778015137,7.1346435546875C6.413134574890137,7.1346435546875,5.208056449890137,8.01123046875,4.369189262390137,8.9510498046875L4.369189262390137,3.9981689453125C4.368456840515137,3.7679443359375,4.276171684265137,3.5479736328125,4.112841606140137,3.385986328125C3.949511766433716,3.2239990234375,3.728076219558716,3.1336669921875,3.498095750808716,3.135009765625ZM8.000292778015137,8.869384765625C9.783007621765137,8.869384765625,10.691943168640137,9.4478759765625,11.418017387390137,10.3983154296875C12.144335746765137,11.3487548828125,12.608447074890137,12.7550048828125,13.043017387390137,14.2442626953125C13.477587699890137,15.7335205078125,13.877245903015137,17.3017578125,14.724169731140137,18.599609375C14.845019340515137,18.78369140625,14.978808403015137,18.9613037109375,15.122851371765137,19.130615234375L11.869189262390137,19.130615234375L11.869189262390137,17.5001220703125C11.868456840515137,17.2698974609375,11.776171684265137,17.0498046875,11.612841606140137,16.887939453125C11.449511528015137,16.7259521484375,11.228075981140137,16.635498046875,10.998095512390137,16.636962890625C10.522021293640137,16.6387939453125,10.136279106140137,17.0240478515625,10.134570121765137,17.5001220703125L10.134570121765137,19.130615234375L4.369189262390137,19.130615234375L4.369189262390137,17.3673095703125L5.999804496765137,17.3673095703125C6.475878715515137,17.365478515625,6.861620903015137,16.979736328125,6.863329887390137,16.5040283203125C6.864306449890137,16.2738037109375,6.773974418640137,16.0528564453125,6.612353324890137,15.8895263671875C6.449999809265137,15.7261962890625,6.230517387390137,15.6339111328125,5.999804496765137,15.633056640625L4.369189262390137,15.633056640625L4.369189262390137,13.3653564453125L5.999804496765137,13.3653564453125C6.475878715515137,13.363525390625,6.861620903015137,12.977783203125,6.863329887390137,12.502197265625C6.864306449890137,12.27197265625,6.773974418640137,12.0509033203125,6.612353324890137,11.8875732421875C6.449999809265137,11.7242431640625,6.230517387390137,11.631591796875,5.999804496765137,11.630615234375L4.624804496765137,11.630615234375C4.791796684265137,11.312744140625,5.022509574890137,10.9205322265625,5.320605278015137,10.5233154296875C5.986865043640137,9.63427734375,6.885546684265137,8.869384765625,8.000292778015137,8.869384765625Z" style="display: inline; stroke-linecap: round; stroke-linejoin: round; fill: rgb(0, 0, 0); fill-opacity: 1;"/></g></g></g></g></g></g></g></g></g></svg>