<svg width="24" xmlns="http://www.w3.org/2000/svg" height="24" id="screenshot-6aeeeffc-7e40-80be-8006-9868b48ddfa4" viewBox="0 0 24 24" xmlns:xlink="http://www.w3.org/1999/xlink" fill="none" version="1.1"><g id="shape-6aeeeffc-7e40-80be-8006-9868b48ddfa4"><g class="frame-container-wrapper"><g class="frame-container-blur"><g class="frame-container-shadows"><g fill="none"><g class="fills" id="fills-6aeeeffc-7e40-80be-8006-9868b48ddfa4"><rect rx="0" ry="0" x="0" y="0" width="24" height="24.000000000000455" transform="matrix(1, 0, 0, 1, 0, 0)" class="frame-background"/></g><g class="frame-children"><g id="shape-6aeeeffc-7e40-80be-8006-9864952cc125" rx="0" ry="0"><g id="shape-563718e9-8906-8058-8006-98644be2da2f" style="opacity: 1;"><g class="fills" id="fills-563718e9-8906-8058-8006-98644be2da2f"><path d="M11.604052543640137,3.0001220703125C8.344042778015137,3.0001220703125,5.463183403015137,4.634765625,3.734912157058716,7.1307373046875L3.734912157058716,6.1092529296875C3.735888719558716,5.8780517578125,3.644580125808716,5.65576171875,3.480273485183716,5.491943359375C3.316943407058716,5.32861328125,3.094531297683716,5.2373046875,2.863085985183716,5.2381591796875C2.633349657058716,5.2391357421875,2.413623094558716,5.3314208984375,2.251269578933716,5.4947509765625C2.089648485183716,5.658447265625,1.9993164539337158,5.8795166015625,2.000293016433716,6.1092529296875L2.000293016433716,10.1014404296875C1.9993164539337158,10.3316650390625,2.089648485183716,10.552734375,2.251269578933716,10.716064453125C2.413623094558716,10.87939453125,2.633349657058716,10.9715576171875,2.863085985183716,10.9725341796875L6.865771293640137,10.9725341796875C7.096484184265137,10.973876953125,7.318896293640137,10.882568359375,7.482226371765137,10.71875C7.646533012390137,10.555419921875,7.737841606140137,10.3331298828125,7.736865043640137,10.1014404296875C7.735888481140137,9.8717041015625,7.643603324890137,9.651123046875,7.479540824890137,9.4892578125C7.316210746765137,9.3272705078125,7.095507621765137,9.2373046875,6.865771293640137,9.23828125L4.519335746765137,9.23828125C5.771533012390137,6.579345703125,8.461230278015137,4.7283935546875,11.604052543640137,4.7283935546875C15.941943168640137,4.7283935546875,19.443653106689453,8.2301025390625,19.443653106689453,12.568359375C19.443653106689453,16.9066162109375,15.941943168640137,20.4061279296875,11.604052543640137,20.4061279296875C9.622851371765137,20.4061279296875,7.824511528015137,19.6729736328125,6.445116996765137,18.4647216796875C6.085986137390137,18.15283203125,5.541796684265137,18.189208984375,5.227099418640137,18.5467529296875C5.074755668640137,18.7198486328125,4.998095512390137,18.9464111328125,5.013964653015137,19.1761474609375C5.028613090515137,19.4058837890625,5.134814262390137,19.6199951171875,5.309130668640137,19.771240234375C6.991259574890137,21.244873046875,9.194872856140137,22.1348876953125,11.604052543640137,22.1348876953125C16.878467559814453,22.1348876953125,21.180225372314453,17.84326171875,21.180225372314453,12.568359375C21.180225372314453,7.2935791015625,16.878467559814453,3.0001220703125,11.604052543640137,3.0001220703125ZM10.867724418640137,7.2381591796875C10.637011528015137,7.2386474609375,10.416552543640137,7.3309326171875,10.254199028015137,7.4942626953125C10.091601371765137,7.6575927734375,10.001269340515137,7.8790283203125,10.002245903015137,8.1092529296875L10.002245903015137,14.1033935546875C10.001269340515137,14.3341064453125,10.091601371765137,14.5550537109375,10.254199028015137,14.7188720703125C10.416552543640137,14.8822021484375,10.637011528015137,14.9744873046875,10.867724418640137,14.9744873046875L16.867237091064453,14.9744873046875C17.097217559814453,14.9735107421875,17.317676544189453,14.8812255859375,17.479053497314453,14.7178955078125C17.641651153564453,14.5545654296875,17.731983184814453,14.3336181640625,17.731006622314453,14.1033935546875C17.729297637939453,13.627685546875,17.343555450439453,13.241943359375,16.867237091064453,13.2401123046875L11.736132621765137,13.2401123046875L11.736132621765137,8.1092529296875C11.737841606140137,7.878173828125,11.646533012390137,7.65625,11.483202934265137,7.492919921875C11.319872856140137,7.3291015625,11.098437309265137,7.23779296875,10.867724418640137,7.2381591796875Z" style="display: inline; stroke-linecap: round; stroke-linejoin: round; fill: rgb(0, 0, 0); fill-opacity: 1;"/></g></g></g></g></g></g></g></g></g></svg>