<svg width="24" xmlns="http://www.w3.org/2000/svg" height="24" id="screenshot-31fe8dfc-fa8e-809b-8006-9325a98a2229" viewBox="0 0 24 24" xmlns:xlink="http://www.w3.org/1999/xlink" fill="none" version="1.1"><g id="shape-31fe8dfc-fa8e-809b-8006-9325a98a2229"><g class="frame-container-wrapper"><g class="frame-container-blur"><g class="frame-container-shadows"><g fill="none"><g class="fills" id="fills-31fe8dfc-fa8e-809b-8006-9325a98a2229"><rect rx="0" ry="0" x="0" y="0" width="24" height="24.000000000000455" transform="matrix(1, 0, 0, 1, 0, 0)" class="frame-background"/></g><g class="frame-children"><g id="shape-31fe8dfc-fa8e-809b-8006-9325a98d078e" rx="0" ry="0"><g id="shape-31fe8dfc-fa8e-809b-8006-9325a98d078f" style="opacity: 1;"><g class="fills" id="fills-31fe8dfc-fa8e-809b-8006-9325a98d078f"><path d="M12.003438949584961,2.985168218612671C7.032247543334961,2.985168218612671,2.98195481300354,7.025939464569092,2.98195481300354,11.99688720703125C2.98195481300354,16.96820068359375,7.032247543334961,21.01812744140625,12.003438949584961,21.01812744140625C16.97487449645996,21.01812744140625,21.01589012145996,16.96820068359375,21.01589012145996,11.99688720703125C21.01589012145996,7.025939464569092,16.97487449645996,2.985168218612671,12.003438949584961,2.985168218612671L12.003438949584961,2.985168218612671M12.003438949584961,4.446471691131592C12.191427230834961,4.446471691131592,12.376241683959961,4.456725597381592,12.560811996459961,4.469542980194092C13.335714340209961,5.221984386444092,13.997823715209961,6.172301769256592,14.495870590209961,7.264342784881592C13.694601058959961,7.112365245819092,12.861104965209961,7.030211925506592,12.003438949584961,7.029967784881592L12.001729965209961,7.029967784881592C11.142843246459961,7.030211925506592,10.303976058959961,7.111632823944092,9.499776840209961,7.264342784881592C9.998800277709961,6.172301769256592,10.661642074584961,5.221984386444092,11.438009262084961,4.469542980194092C11.624044418334961,4.455871105194092,11.813741683959961,4.446471691131592,12.003438949584961,4.446471691131592L12.003438949584961,4.446471691131592M14.933126449584961,5.034118175506592C16.75002098083496,5.797667980194092,18.20192527770996,7.251525402069092,18.96291160583496,9.06903076171875C18.15212059020996,8.52154541015625,17.24538230895996,8.07073974609375,16.26759910583496,7.733092784881592C15.930440902709961,6.754577159881592,15.480001449584961,5.845641613006592,14.933126449584961,5.034118175506592L14.933126449584961,5.034118175506592M9.064718246459961,5.035949230194092C8.519308090209961,5.847472667694092,8.069356918334961,6.756774425506592,7.734151840209961,7.735290050506592C6.757101058959961,8.07232666015625,5.848897933959961,8.52117919921875,5.038595199584961,9.06732177734375C5.801290512084961,7.252624034881592,7.251485824584961,5.799865245819092,9.064718246459961,5.035949230194092L9.064718246459961,5.035949230194092M12.001729965209961,8.49884033203125C13.085714340209961,8.49884033203125,14.123800277709961,8.64715576171875,15.089864730834961,8.91082763671875C15.354024887084961,9.87762451171875,15.501485824584961,10.91326904296875,15.501485824584961,11.99688720703125C15.501485824584961,13.08123779296875,15.354024887084961,14.11993408203125,15.089864730834961,15.08697509765625C14.123800277709961,15.34991455078125,13.088155746459961,15.49725341796875,12.003438949584961,15.49725341796875C10.917257308959961,15.49725341796875,9.876485824584961,15.35064697265625,8.907491683959961,15.08697509765625C8.643819808959961,14.11993408203125,8.496358871459961,13.08123779296875,8.496358871459961,11.99688720703125C8.496358871459961,10.91436767578125,8.644552230834961,9.87884521484375,8.907491683959961,8.91265869140625C9.876485824584961,8.64788818359375,10.915792465209961,8.49884033203125,12.001729965209961,8.49884033203125L12.001729965209961,8.49884033203125M7.266866683959961,9.50482177734375C7.116720199584961,10.30645751953125,7.035177230834961,11.14215087890625,7.035177230834961,11.99871826171875C7.035177230834961,12.85711669921875,7.115743637084961,13.69207763671875,7.266866683959961,14.49481201171875C6.175313949584961,13.99749755859375,5.227071762084961,13.33685302734375,4.474874496459961,12.56121826171875C4.460958480834961,12.37469482421875,4.450704574584961,12.18658447265625,4.450704574584961,11.99688720703125C4.450704574584961,11.80938720703125,4.460958480834961,11.62481689453125,4.474874496459961,11.44024658203125C5.227071762084961,10.66461181640625,6.175313949584961,10.00360107421875,7.266866683959961,9.50482177734375L7.266866683959961,9.50482177734375M16.73756980895996,9.50677490234375C17.82619285583496,10.00469970703125,18.77223777770996,10.66607666015625,19.52394676208496,11.44024658203125C19.53688621520996,11.62481689453125,19.54665184020996,11.80865478515625,19.54665184020996,11.99688720703125C19.54665184020996,12.18768310546875,19.53688621520996,12.37628173828125,19.52394676208496,12.56304931640625C18.77174949645996,13.33795166015625,17.82521629333496,13.99859619140625,16.73610496520996,14.49481201171875C16.88869285583496,13.69171142578125,16.97072410583496,12.85528564453125,16.97072410583496,11.99688720703125C16.97072410583496,11.14068603515625,16.88942527770996,10.30792236328125,16.73756980895996,9.50677490234375L16.73756980895996,9.50677490234375M5.040060043334961,14.93658447265625C5.850851058959961,15.48065185546875,6.757833480834961,15.92901611328125,7.734151840209961,16.26470947265625C8.069356918334961,17.24249267578125,8.519308090209961,18.14886474609375,9.064718246459961,18.95989990234375C7.253683090209961,18.19647216796875,5.803243637084961,16.74737548828125,5.040060043334961,14.93658447265625L5.040060043334961,14.93658447265625M18.95924949645996,14.93658447265625C18.19606590270996,16.74957275390625,16.74635887145996,18.19903564453125,14.933126449584961,18.96185302734375C15.479513168334961,18.15179443359375,15.928976058959961,17.24359130859375,16.26515769958496,16.26654052734375C17.24147605895996,15.93072509765625,18.14919090270996,15.48187255859375,18.95924949645996,14.93658447265625L18.95924949645996,14.93658447265625M9.502218246459961,16.73345947265625C10.305440902709961,16.88507080078125,11.144308090209961,16.96563720703125,12.003438949584961,16.96563720703125C12.861837387084961,16.96563720703125,13.693868637084961,16.88433837890625,14.495870590209961,16.73345947265625C13.997823715209961,17.82440185546875,13.335714340209961,18.77410888671875,12.560811996459961,19.52618408203125C12.376241683959961,19.53948974609375,12.191427230834961,19.54974365234375,12.003438949584961,19.54974365234375C11.813741683959961,19.54974365234375,11.624044418334961,19.54010009765625,11.438009262084961,19.52618408203125C10.663106918334961,18.77410888671875,10.000020980834961,17.82440185546875,9.502218246459961,16.73345947265625L9.502218246459961,16.73345947265625" style="display: inline; stroke-linecap: square; stroke-linejoin: round; fill: rgb(0, 0, 0); fill-opacity: 1;"/></g></g></g></g></g></g></g></g></g></svg>