<svg width="24" xmlns="http://www.w3.org/2000/svg" height="24" id="screenshot-63a85700-5cdb-80b5-8006-90bf63bd7a0b" viewBox="0 0 24 24" xmlns:xlink="http://www.w3.org/1999/xlink" fill="none" version="1.1"><g id="shape-63a85700-5cdb-80b5-8006-90bf63bd7a0b"><g class="frame-container-wrapper"><g class="frame-container-blur"><g class="frame-container-shadows"><g fill="none"><g class="fills" id="fills-63a85700-5cdb-80b5-8006-90bf63bd7a0b"><rect rx="0" ry="0" x="0" y="0" width="24" height="24.000000000000455" transform="matrix(1, 0, 0, 1, 0, 0)" class="frame-background"/></g><g class="frame-children"><g id="shape-63a85700-5cdb-80b5-8006-90bec2b19775" rx="0" ry="0"><g id="shape-63a85700-5cdb-80b5-8006-90be5eafc1f5" style="opacity: 1;"><g class="fills" id="fills-63a85700-5cdb-80b5-8006-90be5eafc1f5"><path d="M11.999044418334961,2.985534429550171C7.028097152709961,2.985534429550171,2.97829270362854,7.027282238006592,2.97829270362854,11.99859619140625C2.97829270362854,16.96990966796875,7.028097152709961,21.01947021484375,11.999044418334961,21.01947021484375C16.97072410583496,21.01947021484375,21.01222801208496,16.96990966796875,21.01222801208496,11.99859619140625C21.01222801208496,7.027282238006592,16.97072410583496,2.985534429550171,11.999044418334961,2.985534429550171ZM11.999044418334961,4.446959972381592C16.17799949645996,4.446959972381592,19.55104637145996,7.820128917694092,19.55104637145996,11.99859619140625C19.55104637145996,16.17742919921875,16.17799949645996,19.55023193359375,11.999044418334961,19.55023193359375C7.821310043334961,19.55023193359375,4.447530746459961,16.17742919921875,4.447530746459961,11.99859619140625C4.447530746459961,7.820128917694092,7.821310043334961,4.446959972381592,11.999044418334961,4.446959972381592Z" style="display: inline; stroke-linecap: square; stroke-linejoin: round; fill: rgb(0, 0, 0); fill-opacity: 1;"/></g></g><g id="shape-63a85700-5cdb-80b5-8006-90be5eb0033e" style="opacity: 1;"><g class="fills" id="fills-63a85700-5cdb-80b5-8006-90be5eb0033e"><path d="M11.999044418334961,7.267882823944092C11.596212387084961,7.269347667694092,11.270284652709961,7.594909191131592,11.267843246459961,7.998107433319092L11.267843246459961,11.26812744140625L7.999044418334961,11.26812744140625C7.595479965209961,11.26910400390625,7.270284652709961,11.59503173828125,7.268331527709961,11.99822998046875C7.265401840209961,12.40435791015625,7.593282699584961,12.73504638671875,7.999044418334961,12.73651123046875L11.267843246459961,12.73651123046875L11.267843246459961,16.00018310546875C11.270284652709961,16.40301513671875,11.596212387084961,16.72894287109375,11.999044418334961,16.73040771484375C12.402364730834961,16.72894287109375,12.728292465209961,16.40301513671875,12.729024887084961,16.00018310546875L12.729024887084961,12.73651123046875L16.00075340270996,12.73651123046875C16.40749168395996,12.73504638671875,16.73390769958496,12.40435791015625,16.73097801208496,11.99822998046875C16.72951316833496,11.59503173828125,16.40456199645996,11.26910400390625,16.00075340270996,11.26812744140625L12.729024887084961,11.26812744140625L12.729024887084961,7.998107433319092C12.728292465209961,7.594909191131592,12.402364730834961,7.269347667694092,11.999044418334961,7.267882823944092Z" style="display: inline; stroke-linecap: round; stroke-linejoin: round; fill: rgb(0, 0, 0); fill-opacity: 1;"/></g></g></g></g></g></g></g></g></g></svg>