<svg width="24" xmlns="http://www.w3.org/2000/svg" height="24" id="screenshot-93942d31-fa14-8032-8006-997f078f5873" viewBox="0 0 24 24" xmlns:xlink="http://www.w3.org/1999/xlink" fill="none" version="1.1"><g id="shape-93942d31-fa14-8032-8006-997f078f5873"><g class="frame-container-wrapper"><g class="frame-container-blur"><g class="frame-container-shadows"><g fill="none"><g class="fills" id="fills-93942d31-fa14-8032-8006-997f078f5873"><rect rx="0" ry="0" x="0" y="0" width="24" height="24.000000000000455" transform="matrix(1, 0, 0, 1, 0, 0)" class="frame-background"/></g><g class="frame-children"><g id="shape-93942d31-fa14-8032-8006-997f14dda3ca" width="24" height="24" version="1.1" rx="0" ry="0" style="fill: rgb(0, 0, 0);"><g id="shape-93942d31-fa14-8032-8006-997f14e3650b" style="opacity: 1;"><g class="fills" id="fills-93942d31-fa14-8032-8006-997f14e3650b"><path d="M18.573780059814453,4.005615234375C18.571094512939453,4.0069580078125,18.570117950439453,4.00048828125,18.567432403564453,4.00146484375L17.715625762939453,4.3087158203125L5.726611137390137,8.592529296875C5.422900199890137,8.6907958984375,5.149950981140137,8.9381103515625,5.014208793640137,9.279541015625C4.772509574890137,9.8912353515625,5.044726371765137,10.616943359375,5.606493949890137,10.878173828125L8.647021293640137,12.274658203125L4.483691215515137,16.4288330078125C4.031542778015137,16.878662109375,4.008349418640137,17.66259765625,4.424609184265137,18.1488037109375L5.737597465515137,19.6934814453125L5.744189262390137,19.6981201171875C6.159228324890137,20.1829833984375,6.880908012390137,20.218994140625,7.334033012390137,19.7691650390625L11.494677543640137,15.6038818359375L12.518847465515137,18.9659423828125L12.520556449890137,18.947509765625C12.612109184265137,19.272705078125,12.834277153015137,19.5625,13.149950981140137,19.7110595703125C13.714648246765137,19.975341796875,14.390185356140137,19.6962890625,14.633837699890137,19.0831298828125L14.638232231140137,19.076171875L19.960742950439453,5.6397705078125L19.967090606689453,5.6444091796875C20.072315216064453,5.3836669921875,20.094532012939453,5.06494140625,20.002246856689453,4.7681884765625C19.663623809814453,4.0001220703125,19.000049591064453,3.8529052734375,18.573780059814453,4.005615234375ZM18.361621856689453,5.708984375L13.637988090515137,17.6478271484375L12.819628715515137,14.9842529296875C12.519824028015137,14.00390625,11.319140434265137,13.665771484375,10.616991996765137,14.366943359375L6.586474418640137,18.386962890625L5.687792778015137,17.3409423828125L10.044970512390137,12.9967041015625C10.596728324890137,12.4454345703125,10.422411918640137,11.396240234375,9.730273246765137,11.0797119140625L6.940966606140137,9.7957763671875Z" style="display: inline; fill-rule: evenodd; fill: rgb(0, 0, 0); fill-opacity: 1;"/></g></g></g></g></g></g></g></g></g></svg>