<svg width="24" xmlns="http://www.w3.org/2000/svg" height="24" id="screenshot-0ef66420-1100-8022-8006-9da3e69da709" viewBox="0 0 24 24" xmlns:xlink="http://www.w3.org/1999/xlink" fill="none" version="1.1"><g id="shape-0ef66420-1100-8022-8006-9da3e69da709"><g class="frame-container-wrapper"><g class="frame-container-blur"><g class="frame-container-shadows"><g fill="none"><g class="fills" id="fills-0ef66420-1100-8022-8006-9da3e69da709"><rect rx="0" ry="0" x="0" y="0" width="24" height="24.000000000000455" transform="matrix(1, 0, 0, 1, 0, 0)" class="frame-background"/></g><g class="frame-children"><g id="shape-0ef66420-1100-8022-8006-9da19f89ba74" rx="0" ry="0"><g id="shape-0ef66420-1100-8022-8006-9da0ce7d0b1e" style="opacity: 1;"><g class="fills" id="fills-0ef66420-1100-8022-8006-9da0ce7d0b1e"><path d="M7.231005668640137,2.998291015625C5.784960746765137,2.998291015625,4.550341606140137,3.9625244140625,4.140673637390137,5.279296875C4.093554496765137,5.26953125,4.044726371765137,5.2645263671875,3.996875047683716,5.2640380859375L3.000293016433716,5.2640380859375C2.804492235183716,5.2626953125,2.615527391433716,5.3402099609375,2.477099657058716,5.47900390625C2.338671922683716,5.617919921875,2.261035203933716,5.80615234375,2.262011766433716,6.002685546875C2.262988328933716,6.1973876953125,2.341357469558716,6.3837890625,2.479785203933716,6.520751953125C2.618212938308716,6.6578369140625,2.805468797683716,6.734375,3.000293016433716,6.7330322265625L3.996875047683716,6.7330322265625C4.009570121765137,6.7320556640625,4.022509574890137,6.730712890625,4.035449028015137,6.7293701171875C4.241259574890137,8.041015625,5.244189262390137,9.0980224609375,6.527880668640137,9.3853759765625L6.504687309265137,13.85009765625C5.072558403015137,14.1822509765625,3.996875047683716,15.4727783203125,3.996875047683716,17.000732421875C3.996875047683716,18.7774658203125,5.453661918640137,20.233154296875,7.231005668640137,20.233154296875C9.008105278015137,20.233154296875,10.463183403015137,18.7774658203125,10.463183403015137,17.000732421875C10.463183403015137,16.4813232421875,10.337695121765137,15.989501953125,10.118212699890137,15.553466796875C10.132128715515137,15.5438232421875,10.146777153015137,15.5335693359375,10.160693168640137,15.5230712890625L14.746630668640137,11.099365234375C15.191454887390137,11.3310546875,15.695116996765137,11.4625244140625,16.229541778564453,11.4625244140625C16.272022247314453,11.4625244140625,16.315235137939453,11.460205078125,16.357715606689453,11.4588623046875L17.223194122314453,14.9296875C16.219287872314453,15.4801025390625,15.535693168640137,16.548583984375,15.535693168640137,17.767578125C15.535693168640137,19.5443115234375,16.990772247314453,21.001708984375,18.767871856689453,21.001708984375C20.545215606689453,21.001708984375,22.002002716064453,19.5443115234375,22.002002716064453,17.767578125C22.002002716064453,15.9903564453125,20.545215606689453,14.5347900390625,18.767871856689453,14.5347900390625C18.725391387939453,14.5347900390625,18.682178497314453,14.537109375,18.639698028564453,14.5389404296875L17.774219512939453,11.0679931640625C18.777149200439453,10.5172119140625,19.461719512939453,9.4486083984375,19.461719512939453,8.230224609375C19.461719512939453,6.4530029296875,18.005664825439453,4.997802734375,16.229541778564453,4.997802734375C14.452197074890137,4.997802734375,12.994433403015137,6.4530029296875,12.994433403015137,8.230224609375C12.994433403015137,8.9434814453125,13.231493949890137,9.60546875,13.627245903015137,10.14208984375L9.184374809265137,14.4295654296875C8.830126762390137,14.1591796875,8.419482231140137,13.95947265625,7.972704887390137,13.853271484375L7.996874809265137,9.3707275390625C9.407763481140137,9.024169921875,10.463183403015137,7.743408203125,10.463183403015137,6.2301025390625C10.463183403015137,4.4530029296875,9.008105278015137,2.9959716796875,7.231005668640137,2.9959716796875ZM7.231005668640137,4.466796875C8.215624809265137,4.466796875,9.002490043640137,5.2479248046875,9.002490043640137,6.232421875C9.002490043640137,7.217041015625,8.215624809265137,8.004150390625,7.231005668640137,8.004150390625C6.246386528015137,8.004150390625,5.465868949890137,7.217041015625,5.465868949890137,6.232421875C5.465868949890137,5.2479248046875,6.246386528015137,4.466796875,7.231005668640137,4.466796875ZM16.229541778564453,6.4686279296875C17.213184356689453,6.4686279296875,18.000293731689453,7.2479248046875,18.000293731689453,8.232421875C18.000293731689453,9.217041015625,17.213184356689453,9.996337890625,16.229541778564453,9.996337890625C15.244921684265137,9.996337890625,14.465136528015137,9.217041015625,14.465136528015137,8.232421875C14.465136528015137,7.2479248046875,15.244921684265137,6.4686279296875,16.229541778564453,6.4686279296875ZM7.231005668640137,15.23046875C8.215624809265137,15.23046875,9.002490043640137,16.017578125,9.002490043640137,17.002197265625C9.002490043640137,17.9862060546875,8.215624809265137,18.7655029296875,7.231005668640137,18.7655029296875C6.246386528015137,18.7655029296875,5.465868949890137,17.9862060546875,5.465868949890137,17.002197265625C5.465868949890137,16.017578125,6.246386528015137,15.23046875,7.231005668640137,15.23046875ZM18.767871856689453,15.9981689453125C19.752490997314453,15.9981689453125,20.532276153564453,16.7852783203125,20.532276153564453,17.7694091796875C20.532276153564453,18.7540283203125,19.752490997314453,19.533203125,18.767871856689453,19.533203125C17.783252716064453,19.533203125,16.996143341064453,18.7540283203125,16.996143341064453,17.7694091796875C16.996143341064453,16.7852783203125,17.783252716064453,15.9981689453125,18.767871856689453,15.9981689453125Z" style="display: inline; stroke-linecap: round; stroke-linejoin: round; fill: rgb(0, 0, 0); fill-opacity: 1;"/></g></g></g></g></g></g></g></g></g></svg>