<svg width="24" xmlns="http://www.w3.org/2000/svg" height="24" id="screenshot-fb6cc112-2b27-8045-8006-5aad5180a51b" viewBox="0 0 24 24" xmlns:xlink="http://www.w3.org/1999/xlink" fill="none" version="1.1"><g id="shape-fb6cc112-2b27-8045-8006-5aad5180a51b"><g class="frame-container-wrapper"><g class="frame-container-blur"><g class="frame-container-shadows"><g fill="none"><g class="fills" id="fills-fb6cc112-2b27-8045-8006-5aad5180a51b"><rect rx="0" ry="0" x="0" y="0" width="24" height="24.000000000000455" transform="matrix(1, 0, 0, 1, 0, 0)" class="frame-background"/></g><g class="frame-children"><g id="shape-fb6cc112-2b27-8045-8006-5aad45a383a3" width="24" height="24" version="1.1" rx="0" ry="0" style="fill: rgb(0, 0, 0);"><g id="shape-fb6cc112-2b27-8045-8006-5aad45a86505" style="opacity: 1;"><g class="fills" id="fills-fb6cc112-2b27-8045-8006-5aad45a86505"><path d="M8.938998222351074,2.267561197280884C8.558627128601074,2.298567056655884,8.265414237976074,2.616316080093384,8.265170097351074,2.998029947280884L8.265170097351074,12.333967208862305C7.336947917938232,12.561750411987305,6.487582683563232,12.873640060424805,5.747836589813232,13.259748458862305C4.098178386688232,14.120710372924805,2.8982269763946533,15.416486740112305,2.8982269763946533,17.001935958862305C2.8982269763946533,18.587385177612305,4.098178386688232,19.875349044799805,5.747836589813232,20.736310958862305C7.397250652313232,21.597272872924805,9.585726737976074,22.103498458862305,11.999300956726074,22.103498458862305C14.413119316101074,22.103498458862305,16.60330581665039,21.597272872924805,18.25296401977539,20.736310958862305C19.90262222290039,19.875349044799805,21.10037612915039,18.587385177612305,21.10037612915039,17.001935958862305C21.10037612915039,15.416486740112305,19.90262222290039,14.120710372924805,18.25296401977539,13.259748458862305C16.60330581665039,12.398786544799805,14.413119316101074,11.900373458862305,11.999300956726074,11.900373458862305C11.216830253601074,11.900373458862305,10.458529472351074,11.954694747924805,9.733920097351074,12.054670333862305L9.733920097351074,9.546857833862305L19.21194839477539,6.705060958862305C19.52664566040039,6.614973068237305,19.74344253540039,6.327253341674805,19.74344253540039,5.999982833862305C19.74344253540039,5.672712326049805,19.52664566040039,5.384992599487305,19.21194839477539,5.294904708862305L9.210482597351074,2.296858072280884C9.122591972351074,2.270124673843384,9.030550956726074,2.260114908218384,8.938998222351074,2.267439126968384ZM9.733920097351074,3.980451822280884L16.44437026977539,6.003889083862305L9.733920097351074,8.017560958862305ZM11.999300956726074,13.369123458862305C14.206088066101074,13.369123458862305,16.19510269165039,13.847028732299805,17.57327651977539,14.566389083862305C18.95169448852539,15.285749435424805,19.63187026977539,16.175886154174805,19.63187026977539,17.001935958862305C19.63187026977539,17.827985763549805,18.95169448852539,18.718122482299805,17.57327651977539,19.437482833862305C16.19510269165039,20.156843185424805,14.206088066101074,20.634748458862305,11.999300956726074,20.634748458862305C9.792513847351074,20.634748458862305,7.797885417938232,20.156843185424805,6.419711589813232,19.437482833862305C5.041293621063232,18.718122482299805,4.366977214813232,17.827985763549805,4.366977214813232,17.001935958862305C4.366977214813232,16.175886154174805,5.041293621063232,15.285749435424805,6.419711589813232,14.566389083862305C6.950473308563232,14.289289474487305,7.574252605438232,14.049055099487305,8.265170097351074,13.857404708862305L8.265170097351074,17.001935958862305C8.265902519226074,17.196760177612305,8.344271659851074,17.383405685424805,8.482699394226074,17.520368576049805C8.621371269226074,17.657453536987305,8.808627128601074,17.733747482299805,9.003451347351074,17.732404708862305C9.406283378601074,17.730817794799805,9.732211112976074,17.404767990112305,9.733920097351074,17.001935958862305L9.733920097351074,13.542951583862305C10.450228691101074,13.431867599487305,11.210482597351074,13.369123458862305,11.999300956726074,13.369123458862305Z" style="display: inline; stroke-linecap: round; stroke-linejoin: round; fill: rgb(0, 0, 0); fill-opacity: 1;"/></g></g></g></g></g></g></g></g></g></svg>