<svg width="24" xmlns="http://www.w3.org/2000/svg" height="24" id="screenshot-63a85700-5cdb-80b5-8006-90bf7c40a05c" viewBox="0 0 24 24" xmlns:xlink="http://www.w3.org/1999/xlink" fill="none" version="1.1"><g id="shape-63a85700-5cdb-80b5-8006-90bf7c40a05c"><g class="frame-container-wrapper"><g class="frame-container-blur"><g class="frame-container-shadows"><g fill="none"><g class="fills" id="fills-63a85700-5cdb-80b5-8006-90bf7c40a05c"><rect rx="0" ry="0" x="0" y="0" width="24" height="24.000000000000455" transform="matrix(1, 0, 0, 1, 0, 0)" class="frame-background"/></g><g class="frame-children"><g id="shape-63a85700-5cdb-80b5-8006-90bec4b23aff" rx="0" ry="0"><g id="shape-63a85700-5cdb-80b5-8006-90be5eb2080e" style="opacity: 1;"><g class="fills" id="fills-63a85700-5cdb-80b5-8006-90be5eb2080e"><path d="M12.014913558959961,2.918517827987671C7.789083480834961,2.922912359237671,4.273214340209961,6.025451183319092,4.278341293334961,9.93072509765625L4.278341293334961,10.55767822265625C4.278341293334961,13.13946533203125,3.69313645362854,14.50360107421875,3.25905442237854,15.17266845703125C2.64162278175354,16.11968994140625,3.03420090675354,17.41754150390625,4.033956527709961,17.94049072265625C4.358907699584961,18.11187744140625,4.718770980834961,18.19244384765625,5.083517074584961,18.19244384765625L8.107442855834961,18.19244384765625C8.531026840209961,19.87628173828125,10.134054183959961,21.11407470703125,11.999044418334961,21.11407470703125C13.863546371459961,21.11407470703125,15.467550277709961,19.87628173828125,15.889425277709961,18.19244384765625L18.94655418395996,18.19244384765625C20.07692527770996,18.19244384765625,21.07887840270996,17.34197998046875,21.07887840270996,16.20611572265625C21.07887840270996,15.86846923828125,20.98000144958496,15.53887939453125,20.81276512145996,15.25286865234375C20.81276512145996,15.25286865234375,19.75099754333496,13.04571533203125,19.75099754333496,10.55767822265625L19.75099754333496,9.99700927734375C19.75099754333496,6.084044933319092,16.26369285583496,2.946716070175171,12.072774887084961,2.918517827987671ZM12.014913558959961,4.387755870819092L12.065694808959961,4.387755870819092C15.534200668334961,4.410827159881592,18.28224754333496,6.961120128631592,18.28224754333496,9.99700927734375L18.28224754333496,10.55767822265625C18.28224754333496,13.45916748046875,19.49880027770996,15.89520263671875,19.49880027770996,15.89520263671875L19.51491355895996,15.93255615234375L19.54445457458496,15.96954345703125C19.59767723083496,16.05230712890625,19.60964012145996,16.12957763671875,19.60964012145996,16.20574951171875C19.60964012145996,16.45513916015625,19.36549949645996,16.72930908203125,18.94655418395996,16.72930908203125L12.014913558959961,16.72930908203125L5.083517074584961,16.72930908203125C4.949239730834961,16.72930908203125,4.822774887084961,16.69464111328125,4.721700668334961,16.64117431640625L4.713644027709961,16.64117431640625C4.373800277709961,16.46356201171875,4.321065902709961,16.22882080078125,4.484884262084961,15.97723388671875L4.484884262084961,15.96954345703125C5.092306137084961,15.03570556640625,5.746847152709961,13.36651611328125,5.746847152709961,10.55877685546875L5.746847152709961,9.92987060546875C5.743185043334961,6.911315441131592,8.497823715209961,4.391051769256592,12.014913558959961,4.387389659881592ZM9.647237777709961,18.19244384765625L12.014913558959961,18.19244384765625L14.352071762084961,18.19244384765625C13.979269027709961,19.03656005859375,13.083517074584961,19.64532470703125,11.999044418334961,19.64532470703125C10.914083480834961,19.64532470703125,10.019796371459961,19.03656005859375,9.647237777709961,18.19244384765625Z" style="display: inline; fill: rgb(0, 0, 0); fill-opacity: 1;"/></g></g></g></g></g></g></g></g></g></svg>