<svg width="24" xmlns="http://www.w3.org/2000/svg" height="24" id="screenshot-7f4951e7-eba4-8056-8006-51ce4adbdba3" viewBox="0 0 24 24" xmlns:xlink="http://www.w3.org/1999/xlink" fill="none" version="1.1"><g id="shape-7f4951e7-eba4-8056-8006-51ce4adbdba3"><g class="frame-container-wrapper"><g class="frame-container-blur"><g class="frame-container-shadows"><g fill="none"><g class="fills" id="fills-7f4951e7-eba4-8056-8006-51ce4adbdba3"><rect rx="0" ry="0" x="0" y="0" width="24" height="24.000000000000455" transform="matrix(1, 0, 0, 1, 0, 0)" class="frame-background"/></g><g class="frame-children"><g id="shape-7f4951e7-eba4-8056-8006-51ce76a26464" rx="0" ry="0"><g id="shape-7f4951e7-eba4-8056-8006-51ce299ffd3d" style="opacity: 1;"><g class="fills" id="fills-7f4951e7-eba4-8056-8006-51ce299ffd3d"><path d="M14.998827934265137,1.9954833984375C11.137255668640137,1.9954833984375,7.992968559265137,5.16259765625,7.992968559265137,9.0443115234375C7.992968559265137,10.941162109375,8.745165824890137,12.667236328125,9.963671684265137,13.9368896484375L2.516406297683716,20.4505615234375C2.213427782058716,20.7178955078125,2.183642625808716,21.1798095703125,2.450000047683716,21.4837646484375C2.717334032058716,21.78662109375,3.179248094558716,21.8162841796875,3.483203172683716,21.5501708984375L11.090624809265137,14.8900146484375C12.208056449890137,15.6500244140625,13.552294731140137,16.0950927734375,14.998827934265137,16.0950927734375C18.860401153564453,16.0950927734375,22.004688262939453,12.926025390625,22.004688262939453,9.0443115234375C22.004688262939453,5.16259765625,18.860401153564453,1.9954833984375,14.998827934265137,1.9954833984375ZM14.998827934265137,3.4642333984375C18.061573028564453,3.4642333984375,20.535938262939453,5.94921875,20.535938262939453,9.0443115234375C20.535938262939453,12.1392822265625,18.061573028564453,14.6341552734375,14.998827934265137,14.6341552734375C11.935839653015137,14.6341552734375,9.463671684265137,12.1392822265625,9.463671684265137,9.0443115234375C9.463671684265137,5.94921875,11.935839653015137,3.4642333984375,14.998827934265137,3.4642333984375ZM14.998827934265137,5.2943115234375C12.942675590515137,5.2943115234375,11.264452934265137,6.9815673828125,11.264452934265137,9.0443115234375C11.262988090515137,9.240478515625,11.340380668640137,9.4290771484375,11.479052543640137,9.5677490234375C11.617968559265137,9.70654296875,11.806445121765137,9.7838134765625,12.002734184265137,9.7825927734375C12.197558403015137,9.78173828125,12.384081840515137,9.7034912109375,12.521044731140137,9.56494140625C12.658251762390137,9.426513671875,12.734423637390137,9.2391357421875,12.733202934265137,9.0443115234375C12.733202934265137,7.768310546875,13.741259574890137,6.7572021484375,14.998827934265137,6.7572021484375C15.621386528015137,6.7572021484375,16.176074981689453,7.005859375,16.586719512939453,7.4134521484375C16.724414825439453,7.5521240234375,16.911670684814453,7.630126953125,17.107227325439453,7.630126953125C17.302539825439453,7.630126953125,17.490039825439453,7.5521240234375,17.627735137939453,7.4134521484375C17.765430450439453,7.274658203125,17.841846466064453,7.086669921875,17.840381622314453,6.8912353515625C17.838916778564453,6.69580078125,17.759571075439453,6.509033203125,17.619678497314453,6.3724365234375C16.947071075439453,5.7047119140625,16.016651153564453,5.2943115234375,14.998583793640137,5.2943115234375Z" style="display: inline; stroke-linecap: round; stroke-linejoin: bevel; fill: rgb(0, 0, 0); fill-opacity: 1;"/></g></g></g></g></g></g></g></g></g></svg>