<svg width="24" xmlns="http://www.w3.org/2000/svg" height="24" id="screenshot-7d3c7f0b-2e55-809a-8006-a15c94584d39" viewBox="0 0 24 24" xmlns:xlink="http://www.w3.org/1999/xlink" fill="none" version="1.1"><g id="shape-7d3c7f0b-2e55-809a-8006-a15c94584d39"><g class="frame-container-wrapper"><g class="frame-container-blur"><g class="frame-container-shadows"><g fill="none"><g class="fills" id="fills-7d3c7f0b-2e55-809a-8006-a15c94584d39"><rect rx="0" ry="0" x="0" y="0" width="24" height="24.000000000000455" transform="matrix(1, 0, 0, 1, 0, 0)" class="frame-background"/></g><g class="frame-children"><g id="shape-a692a29b-b9de-80cb-8006-a15bfbb07d8a" rx="0" ry="0"><g id="shape-a692a29b-b9de-80cb-8006-a15ba35b11f7" style="opacity: 1;"><g class="fills" id="fills-a692a29b-b9de-80cb-8006-a15ba35b11f7"><path d="M14.731493949890137,10.6483154296875L14.483447074890137,11.341796875C14.664111137390137,11.4068603515625,14.804491996765137,11.505615234375,14.906054496765137,11.638427734375C15.006640434265137,11.7718505859375,15.074023246765137,11.9295654296875,15.112597465515137,12.1131591796875C15.154101371765137,12.29638671875,15.175341606140137,12.49658203125,15.175341606140137,12.7125244140625L15.175341606140137,13.619140625C15.175341606140137,13.9180908203125,15.241015434265137,14.18896484375,15.374804496765137,14.431640625C15.506640434265137,14.669677734375,15.714404106140137,14.85693359375,15.995654106140137,14.995849609375C15.714404106140137,15.1351318359375,15.506640434265137,15.3243408203125,15.374804496765137,15.5623779296875C15.241015434265137,15.8018798828125,15.175341606140137,16.07177734375,15.175341606140137,16.3707275390625L15.175341606140137,17.27734375C15.175341606140137,17.4932861328125,15.154101371765137,17.6934814453125,15.112597465515137,17.8765869140625C15.074023246765137,18.060302734375,15.006640434265137,18.218017578125,14.906054496765137,18.351318359375C14.804491996765137,18.4847412109375,14.664111137390137,18.5830078125,14.483447074890137,18.6480712890625L14.731493949890137,19.34521484375C15.140429496765137,19.2298583984375,15.459521293640137,19.0701904296875,15.690234184265137,18.863037109375C15.921923637390137,18.65869140625,16.084278106689453,18.4205322265625,16.179248809814453,18.14794921875C16.276172637939453,17.87841796875,16.325244903564453,17.5877685546875,16.325244903564453,17.27685546875L16.325244903564453,16.3707275390625C16.325244903564453,16.0897216796875,16.387012481689453,15.865478515625,16.510547637939453,15.6971435546875C16.635303497314453,15.52783203125,16.838184356689453,15.44287109375,17.116748809814453,15.44287109375L17.116748809814453,15.20849609375L17.116748809814453,14.7808837890625L17.116748809814453,14.5501708984375C16.930469512939453,14.5501708984375,16.776416778564453,14.5123291015625,16.657276153564453,14.434814453125C16.542041778564453,14.3577880859375,16.459033966064453,14.249755859375,16.405323028564453,14.1109619140625C16.351856231689453,13.9715576171875,16.325244903564453,13.807861328125,16.325244903564453,13.61865234375L16.325244903564453,12.7125244140625C16.325244903564453,12.401611328125,16.276172637939453,12.1104736328125,16.179248809814453,11.841064453125C16.084278106689453,11.5692138671875,15.921923637390137,11.3306884765625,15.690234184265137,11.1263427734375C15.459521293640137,10.919189453125,15.140429496765137,10.760009765625,14.731493949890137,10.64794921875Z" style="font-family: roboto; stroke-width: 0.234573; stroke-linejoin: round; font-weight: bold; white-space: pre; display: inline; font-size: 13.3333px; fill: rgb(0, 0, 0); fill-opacity: 1;"/></g></g><g id="shape-a692a29b-b9de-80cb-8006-a15ba35b4b6b" style="opacity: 1;"><g class="fills" id="fills-a692a29b-b9de-80cb-8006-a15ba35b4b6b"><path d="M11.316454887390137,13.458984375C11.316454887390137,13.2694091796875,11.381152153015137,13.1112060546875,11.511279106140137,12.9837646484375C11.645068168640137,12.8564453125,11.821337699890137,12.7928466796875,12.039843559265137,12.7928466796875C12.258593559265137,12.7928466796875,12.433886528015137,12.8564453125,12.564013481140137,12.9837646484375C12.697070121765137,13.1112060546875,12.763476371765137,13.2694091796875,12.763476371765137,13.458984375C12.763476371765137,13.648193359375,12.697070121765137,13.806884765625,12.564013481140137,13.933837890625C12.433886528015137,14.0611572265625,12.258593559265137,14.124755859375,12.039843559265137,14.124755859375C11.821337699890137,14.124755859375,11.645068168640137,14.0611572265625,11.511279106140137,13.933837890625C11.381152153015137,13.806884765625,11.316454887390137,13.648193359375,11.316454887390137,13.458984375Z" style="font-family: roboto; stroke-width: 0.234573; stroke-linejoin: round; font-weight: bold; white-space: pre; display: inline; font-size: 13.3333px; fill: rgb(0, 0, 0); fill-opacity: 1;"/></g></g><g id="shape-a692a29b-b9de-80cb-8006-a15ba35ba382" style="opacity: 1;"><g class="fills" id="fills-a692a29b-b9de-80cb-8006-a15ba35ba382"><path d="M11.316454887390137,17.121826171875C11.316454887390137,16.9322509765625,11.381152153015137,16.77392578125,11.511279106140137,16.6466064453125C11.645068168640137,16.519287109375,11.821337699890137,16.4560546875,12.039843559265137,16.4560546875C12.258593559265137,16.4560546875,12.433886528015137,16.519287109375,12.564013481140137,16.6466064453125C12.697070121765137,16.77392578125,12.763476371765137,16.9322509765625,12.763476371765137,17.121826171875C12.763476371765137,17.3114013671875,12.697070121765137,17.4697265625,12.564013481140137,17.5970458984375C12.433886528015137,17.724365234375,12.258593559265137,17.78759765625,12.039843559265137,17.78759765625C11.821337699890137,17.78759765625,11.645068168640137,17.724365234375,11.511279106140137,17.5970458984375C11.381152153015137,17.4697265625,11.316454887390137,17.3114013671875,11.316454887390137,17.121826171875Z" style="font-family: roboto; stroke-width: 0.234573; stroke-linejoin: round; font-weight: bold; white-space: pre; display: inline; font-size: 13.3333px; fill: rgb(0, 0, 0); fill-opacity: 1;"/></g></g><g id="shape-a692a29b-b9de-80cb-8006-a15ba35bd7c8" style="opacity: 1;"><g class="fills" id="fills-a692a29b-b9de-80cb-8006-a15ba35bd7c8"><path d="M9.370409965515137,10.6483154296875C8.964404106140137,10.760986328125,8.645312309265137,10.919677734375,8.411669731140137,11.1268310546875C8.180224418640137,11.3311767578125,8.016894340515137,11.5692138671875,7.918993949890137,11.8419189453125C7.824999809265137,12.111328125,7.776904106140137,12.4019775390625,7.776904106140137,12.7130126953125L7.776904106140137,13.619140625C7.776904106140137,13.9033203125,7.713183403015137,14.1298828125,7.589648246765137,14.2987060546875C7.467822074890137,14.467529296875,7.266650199890137,14.5511474609375,6.986132621765137,14.5511474609375L6.986132621765137,14.7637939453125L6.986132621765137,15.2265625L6.986132621765137,15.443359375C7.172411918640137,15.443359375,7.323046684265137,15.481689453125,7.439257621765137,15.5587158203125C7.554491996765137,15.633056640625,7.639452934265137,15.739990234375,7.692919731140137,15.87890625C7.749316215515137,16.0181884765625,7.776904106140137,16.1815185546875,7.776904106140137,16.3712158203125L7.776904106140137,17.27734375C7.776904106140137,17.5882568359375,7.824999809265137,17.87890625,7.918993949890137,18.1483154296875C8.016894340515137,18.4205322265625,8.180224418640137,18.6590576171875,8.411669731140137,18.863525390625C8.645312309265137,19.0706787109375,8.964404106140137,19.230224609375,9.370409965515137,19.3455810546875L9.618700981140137,18.6485595703125C9.437792778015137,18.58349609375,9.297656059265137,18.4847412109375,9.197070121765137,18.351806640625C9.099169731140137,18.218505859375,9.028124809265137,18.0606689453125,8.983935356140137,17.8770751953125C8.942431449890137,17.6939697265625,8.921191215515137,17.49365234375,8.921191215515137,17.27734375L8.921191215515137,16.3712158203125C8.921191215515137,16.072265625,8.855517387390137,15.8013916015625,8.721728324890137,15.5587158203125C8.596240043640137,15.3248291015625,8.398730278015137,15.138916015625,8.130419731140137,14.9981689453125C8.398730278015137,14.8551025390625,8.596240043640137,14.666015625,8.721728324890137,14.431640625C8.855517387390137,14.1893310546875,8.921191215515137,13.9180908203125,8.921191215515137,13.619140625L8.921191215515137,12.7130126953125C8.921191215515137,12.3905029296875,8.970019340515137,12.107177734375,9.067919731140137,11.861328125C9.165575981140137,11.6126708984375,9.349169731140137,11.4395751953125,9.618700981140137,11.341796875Z" style="font-family: roboto; stroke-width: 0.234573; stroke-linejoin: round; font-weight: bold; white-space: pre; display: inline; font-size: 13.3333px; fill: rgb(0, 0, 0); fill-opacity: 1;"/></g></g><g id="shape-a692a29b-b9de-80cb-8006-a15ba35e154f" style="opacity: 1;"><g class="fills" id="fills-a692a29b-b9de-80cb-8006-a15ba35e154f"><path d="M6.003466606140137,2.1231689453125C4.394091606140137,2.1231689453125,3.081103563308716,3.443603515625,3.081103563308716,5.0528564453125L3.081103563308716,19.072021484375C3.081103563308716,20.6812744140625,4.394091606140137,22.001708984375,6.003466606140137,22.001708984375L18.073780059814453,22.001708984375C19.682910919189453,22.001708984375,21.003467559814453,20.6812744140625,21.003467559814453,19.072021484375L21.003467559814453,9.0626220703125C21.001514434814453,8.8675537109375,20.922168731689453,8.68115234375,20.783008575439453,8.5450439453125L14.559863090515137,2.3377685546875C14.422411918640137,2.20068359375,14.236132621765137,2.1236572265625,14.042284965515137,2.1231689453125L13.776659965515137,2.1231689453125L12.307665824890137,2.1231689453125ZM6.003466606140137,3.591796875L12.307665824890137,3.591796875L12.307665824890137,9.0626220703125C12.309374809265137,9.4654541015625,12.636034965515137,9.7911376953125,13.038378715515137,9.79296875L19.040821075439453,9.79296875L19.534473419189453,9.79296875L19.534473419189453,19.072021484375C19.534473419189453,19.8941650390625,18.895801544189453,20.533203125,18.073780059814453,20.533203125L6.003466606140137,20.533203125C5.181200981140137,20.533203125,4.542773246765137,19.8941650390625,4.542773246765137,19.072021484375L4.542773246765137,5.0528564453125C4.542773246765137,4.230712890625,5.181200981140137,3.591796875,6.003466606140137,3.591796875ZM13.776659965515137,3.629638671875L18.497364044189453,8.332763671875L13.776659965515137,8.332763671875Z" style="display: inline; stroke-linecap: round; stroke-linejoin: round; fill: rgb(0, 0, 0); fill-opacity: 1;"/></g></g></g></g></g></g></g></g></g></svg>