<svg width="24" xmlns="http://www.w3.org/2000/svg" height="24" id="screenshot-c771b8a1-be82-8080-8006-984750443e7f" viewBox="0 0 24 24" xmlns:xlink="http://www.w3.org/1999/xlink" fill="none" version="1.1"><g id="shape-c771b8a1-be82-8080-8006-984750443e7f"><g class="frame-container-wrapper"><g class="frame-container-blur"><g class="frame-container-shadows"><g fill="none"><g class="fills" id="fills-c771b8a1-be82-8080-8006-984750443e7f"><rect rx="0" ry="0" x="0" y="0" width="24" height="24.000000000000455" transform="matrix(1, 0, 0, 1, 0, 0)" class="frame-background"/></g><g class="frame-children"><g id="shape-c771b8a1-be82-8080-8006-984750473a87" rx="0" ry="0"><g id="shape-c771b8a1-be82-8080-8006-984750473a88" style="opacity: 1;"><g class="fills" id="fills-c771b8a1-be82-8080-8006-984750473a88"><path d="M5.966845512390137,2.061767578125C4.357714653015137,2.061767578125,3.037158250808716,3.38232421875,3.037158250808716,4.991455078125L3.037158250808716,19.010986328125C3.037158250808716,20.6201171875,4.357714653015137,21.940673828125,5.966845512390137,21.940673828125L18.037158966064453,21.940673828125C19.646289825439453,21.940673828125,20.960987091064453,20.6201171875,20.960987091064453,19.010986328125L20.960987091064453,9.001220703125C20.960742950439453,8.80712890625,20.883594512939453,8.6209716796875,20.746143341064453,8.483642578125L14.515673637390137,2.276611328125C14.378954887390137,2.1397705078125,14.193652153015137,2.0626220703125,14.000048637390137,2.061767578125L5.966845512390137,2.061767578125M5.966845512390137,3.530517578125L12.263720512390137,3.530517578125L12.263720512390137,9.001220703125C12.264452934265137,9.1961669921875,12.342822074890137,9.3826904296875,12.481249809265137,9.5196533203125C12.619677543640137,9.65673828125,12.807177543640137,9.7330322265625,13.002001762390137,9.731689453125L18.996143341064453,9.731689453125L19.490283966064453,9.731689453125L19.490283966064453,19.010986328125C19.490283966064453,19.8330078125,18.859180450439453,20.471923828125,18.037158966064453,20.471923828125L5.966845512390137,20.471923828125C5.144824028015137,20.471923828125,4.505908012390137,19.8330078125,4.505908012390137,19.010986328125L4.505908012390137,4.991455078125C4.505908012390137,4.1695556640625,5.144824028015137,3.530517578125,5.966845512390137,3.530517578125L5.966845512390137,3.530517578125M13.732470512390137,3.565673828125L18.453174591064453,8.270751953125L13.732470512390137,8.270751953125L13.732470512390137,3.565673828125" style="display: inline; stroke-linecap: round; stroke-linejoin: round; fill: rgb(0, 0, 0); fill-opacity: 1;"/></g></g><g id="shape-c771b8a1-be82-8080-8006-984839b8d9de" style="opacity: 1;"><g class="fills" id="fills-c771b8a1-be82-8080-8006-984839b8d9de"><path d="M10.464648246765137,18.5328369140625C10.484911918640137,18.5323486328125,10.505175590515137,18.5311279296875,10.525195121765137,18.5289306640625C10.528857231140137,18.5296630859375,10.532763481140137,18.5303955078125,10.536425590515137,18.5308837890625C10.551562309265137,18.5301513671875,10.566454887390137,18.5289306640625,10.581347465515137,18.5272216796875C10.639208793640137,18.5233154296875,10.696337699890137,18.5128173828125,10.751513481140137,18.4957275390625C10.784716606140137,18.4864501953125,10.817431449890137,18.4747314453125,10.849169731140137,18.4605712890625C10.870898246765137,18.4505615234375,10.892382621765137,18.4395751953125,10.913378715515137,18.4273681640625C10.966601371765137,18.3970947265625,11.015917778015137,18.3604736328125,11.059863090515137,18.3179931640625L14.057909965515137,15.3199462890625C14.196825981140137,15.1822509765625,14.274706840515137,14.9949951171875,14.274706840515137,14.7994384765625C14.274706840515137,14.6038818359375,14.196825981140137,14.4166259765625,14.057909965515137,14.2789306640625C13.920214653015137,14.1402587890625,13.732958793640137,14.0621337890625,13.537402153015137,14.0621337890625C13.342089653015137,14.0621337890625,13.154589653015137,14.1402587890625,13.016894340515137,14.2789306640625L11.274706840515137,16.0289306640625L11.274706840515137,10.8023681640625C11.276171684265137,10.6060791015625,11.198779106140137,10.4176025390625,11.060107231140137,10.2789306640625C10.921191215515137,10.1400146484375,10.732714653015137,10.0628662109375,10.536425590515137,10.0640869140625C10.341601371765137,10.0648193359375,10.155077934265137,10.1431884765625,10.018115043640137,10.2816162109375C9.880908012390137,10.4200439453125,9.804736137390137,10.6075439453125,9.805956840515137,10.8023681640625L9.805956840515137,16.0289306640625L8.055956840515137,14.2789306640625C7.770068168640137,13.9949951171875,7.308886528015137,13.9949951171875,7.022753715515137,14.2789306640625C6.884081840515137,14.4166259765625,6.806200981140137,14.6038818359375,6.806200981140137,14.7994384765625C6.806200981140137,14.9949951171875,6.884081840515137,15.1822509765625,7.022753715515137,15.3199462890625L9.993456840515137,18.2926025390625C10.002245903015137,18.3011474609375,10.011034965515137,18.3096923828125,10.020068168640137,18.3179931640625C10.087450981140137,18.3868408203125,10.167529106140137,18.4420166015625,10.256152153015137,18.4801025390625C10.281298637390137,18.4879150390625,10.306689262390137,18.4945068359375,10.332568168640137,18.4996337890625C10.345019340515137,18.5025634765625,10.357714653015137,18.5052490234375,10.370409965515137,18.5076904296875C10.402148246765137,18.5181884765625,10.434863090515137,18.5267333984375,10.467822074890137,18.5328369140625L10.464648246765137,18.5328369140625" style="display: inline; stroke-linecap: round; stroke-linejoin: round; fill: rgb(0, 0, 0); fill-opacity: 1;"/></g></g></g></g></g></g></g></g></g></svg>