<svg width="24" xmlns="http://www.w3.org/2000/svg" height="24" id="screenshot-63a85700-5cdb-80b5-8006-90bede7b6924" viewBox="0 0 24 24" xmlns:xlink="http://www.w3.org/1999/xlink" fill="none" version="1.1"><g id="shape-63a85700-5cdb-80b5-8006-90bede7b6924"><g class="frame-container-wrapper"><g class="frame-container-blur"><g class="frame-container-shadows"><g fill="none"><g class="fills" id="fills-63a85700-5cdb-80b5-8006-90bede7b6924"><rect rx="0" ry="0" x="0" y="0" width="24" height="24.000000000000455" transform="matrix(1, 0, 0, 1, 0, 0)" class="frame-background"/></g><g class="frame-children"><g id="shape-63a85700-5cdb-80b5-8006-90bebc972757" rx="0" ry="0"><g id="shape-63a85700-5cdb-80b5-8006-90be5ead1f5a" style="opacity: 1;"><g class="fills" id="fills-63a85700-5cdb-80b5-8006-90be5ead1f5a"><path d="M16.99684715270996,21.1669921875C19.28859519958496,21.1669921875,21.16750144958496,19.295654296875,21.16750144958496,17.0035400390625C21.16750144958496,14.71142578125,19.28859519958496,12.832763671875,16.99684715270996,12.832763671875C14.704610824584961,12.832763671875,12.833028793334961,14.71142578125,12.833028793334961,17.0035400390625C12.833028793334961,19.295654296875,14.704610824584961,21.1669921875,16.99684715270996,21.1669921875ZM16.99684715270996,19.6982421875C15.496847152709961,19.6982421875,14.302267074584961,18.503173828125,14.302267074584961,17.0035400390625C14.302267074584961,15.5042724609375,15.496847152709961,14.3017578125,16.99684715270996,14.3017578125C18.49635887145996,14.3017578125,19.69826316833496,15.5042724609375,19.69826316833496,17.0035400390625C19.69826316833496,18.503173828125,18.49635887145996,19.6982421875,16.99684715270996,19.6982421875Z" style="display: inline; stroke-linecap: round; stroke-linejoin: round; fill: rgb(0, 0, 0); fill-opacity: 1;"/></g></g><g id="shape-63a85700-5cdb-80b5-8006-90be5ead4f21" style="opacity: 1;"><g class="fills" id="fills-63a85700-5cdb-80b5-8006-90be5ead4f21"><path d="M7.001485824584961,21.1669921875C9.293233871459961,21.1669921875,11.164815902709961,19.295654296875,11.164815902709961,17.0035400390625C11.164815902709961,14.71142578125,9.293233871459961,12.832763671875,7.001485824584961,12.832763671875C4.709005355834961,12.832763671875,2.83034348487854,14.71142578125,2.83034348487854,17.0035400390625C2.83034348487854,19.295654296875,4.709005355834961,21.1669921875,7.001485824584961,21.1669921875ZM7.001485824584961,19.6982421875C5.502218246459961,19.6982421875,4.299581527709961,18.503173828125,4.299581527709961,17.0035400390625C4.299581527709961,15.5042724609375,5.502218246459961,14.3017578125,7.001485824584961,14.3017578125C8.500753402709961,14.3017578125,9.696065902709961,15.5042724609375,9.696065902709961,17.0035400390625C9.696065902709961,18.503173828125,8.500753402709961,19.6982421875,7.001485824584961,19.6982421875Z" style="display: inline; stroke-linecap: round; stroke-linejoin: round; fill: rgb(0, 0, 0); fill-opacity: 1;"/></g></g><g id="shape-63a85700-5cdb-80b5-8006-90be5eada7f2" style="opacity: 1;"><g class="fills" id="fills-63a85700-5cdb-80b5-8006-90be5eada7f2"><path d="M12.080099105834961,12.0135498046875C14.886007308959961,12.0135498046875,17.17336082458496,9.7252197265625,17.17336082458496,6.919921875C17.17336082458496,4.114501953125,14.886007308959961,1.819091796875,12.080099105834961,1.819091796875C9.275167465209961,1.819091796875,6.986837387084961,4.114501953125,6.986837387084961,6.919921875C6.986837387084961,9.7252197265625,9.275167465209961,12.0135498046875,12.080099105834961,12.0135498046875ZM12.080099105834961,10.54443359375C10.067403793334961,10.54443359375,8.455343246459961,8.9322509765625,8.455343246459961,6.919921875C8.455343246459961,4.9068603515625,10.067403793334961,3.287841796875,12.080099105834961,3.287841796875C14.093526840209961,3.287841796875,15.712179183959961,4.9068603515625,15.712179183959961,6.919921875C15.712179183959961,8.9322509765625,14.093526840209961,10.54443359375,12.080099105834961,10.54443359375Z" style="display: inline; stroke-linecap: round; stroke-linejoin: round; fill: rgb(0, 0, 0); fill-opacity: 1;"/></g></g></g></g></g></g></g></g></g></svg>