<svg width="24" xmlns="http://www.w3.org/2000/svg" height="24" id="screenshot-0ef66420-1100-8022-8006-9da4cc5b327c" viewBox="0 0 24 24" xmlns:xlink="http://www.w3.org/1999/xlink" fill="none" version="1.1"><g id="shape-0ef66420-1100-8022-8006-9da4cc5b327c"><g class="frame-container-wrapper"><g class="frame-container-blur"><g class="frame-container-shadows"><g fill="none"><g class="fills" id="fills-0ef66420-1100-8022-8006-9da4cc5b327c"><rect rx="0" ry="0" x="0" y="0" width="24" height="24.000000000000455" transform="matrix(1, 0, 0, 1, 0, 0)" class="frame-background"/></g><g class="frame-children"><g id="shape-0ef66420-1100-8022-8006-9da1ab45352b" rx="0" ry="0"><g id="shape-0ef66420-1100-8022-8006-9da0ce81daca" style="opacity: 1;"><g class="fills" id="fills-0ef66420-1100-8022-8006-9da0ce81daca"><path d="M5.266650199890137,2.0838623046875C3.516162157058716,2.0838623046875,2.077685594558716,3.5145263671875,2.077685594558716,5.265380859375L2.077685594558716,18.7364501953125C2.077685594558716,20.4873046875,3.516162157058716,21.9180908203125,5.266650199890137,21.9180908203125L18.739551544189453,21.9180908203125C20.490039825439453,21.9180908203125,21.921192169189453,20.4873046875,21.921192169189453,18.7364501953125L21.921192169189453,5.265380859375C21.921192169189453,3.5145263671875,20.490039825439453,2.0838623046875,18.739551544189453,2.0838623046875ZM5.266650199890137,3.5528564453125L8.299609184265137,3.5528564453125C8.274706840515137,3.6239013671875,8.260058403015137,3.6981201171875,8.257372856140137,3.7733154296875L8.257372856140137,7.635009765625L3.545703172683716,7.635009765625L3.545703172683716,5.265380859375C3.545703172683716,4.3021240234375,4.303271293640137,3.5528564453125,5.266650199890137,3.5528564453125ZM9.714159965515137,3.5528564453125L14.292040824890137,3.5528564453125C14.267138481140137,3.6239013671875,14.254199028015137,3.6981201171875,14.251269340515137,3.7733154296875L14.251269340515137,7.635009765625L9.747363090515137,7.635009765625L9.747363090515137,3.7733154296875C9.747363090515137,3.6986083984375,9.735400199890137,3.6243896484375,9.713427543640137,3.5528564453125ZM15.715624809265137,3.5528564453125L18.739551544189453,3.5528564453125C19.702930450439453,3.5528564453125,20.458545684814453,4.3021240234375,20.458545684814453,5.265380859375L20.458545684814453,7.635009765625L15.748827934265137,7.635009765625L15.748827934265137,3.7733154296875C15.748827934265137,3.6986083984375,15.737841606140137,3.6243896484375,15.715624809265137,3.5528564453125ZM3.545703172683716,9.133056640625L8.257372856140137,9.133056640625L8.257372856140137,14.138916015625L3.545703172683716,14.138916015625ZM9.747363090515137,9.133056640625L14.251269340515137,9.133056640625L14.251269340515137,14.138916015625L9.747363090515137,14.138916015625ZM15.748827934265137,9.133056640625L20.458545684814453,9.133056640625L20.458545684814453,14.138916015625L15.748827934265137,14.138916015625ZM3.545703172683716,15.629150390625L8.257372856140137,15.629150390625L8.257372856140137,20.4490966796875L5.266650199890137,20.4490966796875C4.303271293640137,20.4490966796875,3.545703172683716,19.7001953125,3.545703172683716,18.7364501953125ZM9.747363090515137,15.629150390625L14.251269340515137,15.629150390625L14.251269340515137,20.4490966796875L9.747363090515137,20.4490966796875ZM15.748827934265137,15.629150390625L20.458545684814453,15.629150390625L20.458545684814453,18.7364501953125C20.458545684814453,19.7001953125,19.702930450439453,20.4490966796875,18.739551544189453,20.4490966796875L15.748827934265137,20.4490966796875Z" style="display: inline; stroke-linecap: round; stroke-linejoin: round; fill: rgb(0, 0, 0); fill-opacity: 1;"/></g></g></g></g></g></g></g></g></g></svg>