<svg width="24" xmlns="http://www.w3.org/2000/svg" height="23.992" id="screenshot-701359cf-58fd-8059-8006-76e853ee1f6e" viewBox="0 0 24 23.992" xmlns:xlink="http://www.w3.org/1999/xlink" fill="none" version="1.1"><g id="shape-701359cf-58fd-8059-8006-76e853ee1f6e"><g class="frame-container-wrapper"><g class="frame-container-blur"><g class="frame-container-shadows"><g fill="none"><g class="fills" id="fills-701359cf-58fd-8059-8006-76e853ee1f6e"><rect rx="0" ry="0" x="0" y="0" width="24" height="23.992269617594275" transform="matrix(1, 0, 0, 1, 0, 0)" class="frame-background"/></g><g class="frame-children"><g id="shape-701359cf-58fd-8059-8006-76e83dd70bb2" width="24" height="24" version="1.1" rx="0" ry="0" style="fill: rgb(0, 0, 0);"><g id="shape-701359cf-58fd-8059-8006-76e83dda544c" style="opacity: 1;"><g class="fills" id="fills-701359cf-58fd-8059-8006-76e83dda544c"><path d="M12.944426536560059,7.979828357696533C10.837981224060059,7.979828357696533,9.120940208435059,9.715424537658691,9.120940208435059,11.829316139221191C9.120940208435059,12.722504615783691,9.428069114685059,13.546967506408691,9.941252708435059,14.202485084533691L6.543059349060059,17.174896240234375C6.239348411560059,17.441619873046875,6.208830833435059,17.903411865234375,6.474699974060059,18.207977294921875C6.740324974060059,18.511932373046875,7.202483177185059,18.543670654296875,7.506926536560059,18.278533935546875L11.060393333435059,15.173188209533691C11.616789817810059,15.492890357971191,12.259856224060059,15.676972389221191,12.944426536560059,15.676972389221191C15.051848411560059,15.676972389221191,16.772550582885742,13.943573951721191,16.772550582885742,11.829316139221191C16.772550582885742,9.715424537658691,15.051848411560059,7.979828357696533,12.944426536560059,7.979828357696533ZM12.944426536560059,9.446503639221191C14.252776145935059,9.446503639221191,15.303801536560059,10.502045631408691,15.303801536560059,11.829316139221191C15.303801536560059,13.156708717346191,14.252776145935059,14.213959693908691,12.944426536560059,14.213959693908691C11.636321067810059,14.213959693908691,10.585295677185059,13.156708717346191,10.585295677185059,11.829316139221191C10.585295677185059,10.502045631408691,11.636321067810059,9.446503639221191,12.944426536560059,9.446503639221191Z" style="display: inline; stroke-width: 0.786641; stroke-linecap: round; stroke-linejoin: bevel; fill: rgb(0, 0, 0); fill-opacity: 1;"/></g></g><g id="shape-701359cf-58fd-8059-8006-76e83dd9c2a3" style="opacity: 1;"><g class="fills" id="fills-701359cf-58fd-8059-8006-76e83dd9c2a3"><path d="M5.260344505310059,2.0791938304901123C3.5098562240600586,2.0791938304901123,2.0789480209350586,3.5168159008026123,2.0789480209350586,5.268036365509033L2.0789480209350586,18.731903076171875C2.0789480209350586,20.482757568359375,3.5098562240600586,21.913421630859375,5.260344505310059,21.913421630859375L18.738859176635742,21.913421630859375C20.490324020385742,21.913421630859375,21.920255661010742,20.482757568359375,21.920255661010742,18.731903076171875L21.920255661010742,5.268036365509033C21.920255661010742,3.5168159008026123,20.490324020385742,2.0791938304901123,18.738859176635742,2.0791938304901123ZM5.260344505310059,3.5481879711151123L18.738859176635742,3.5481879711151123C19.703214645385742,3.5481879711151123,20.451505661010742,4.304291248321533,20.451505661010742,5.268036365509033L20.451505661010742,18.731903076171875C20.451505661010742,19.695281982421875,19.703214645385742,20.451873779296875,18.738859176635742,20.451873779296875L5.260344505310059,20.451873779296875C4.296965599060059,20.451873779296875,3.5476980209350586,19.695281982421875,3.5476980209350586,18.731903076171875L3.5476980209350586,5.268036365509033C3.5476980209350586,4.304291248321533,4.296965599060059,3.5481879711151123,5.260344505310059,3.5481879711151123Z" style="display: inline; stroke-linecap: round; stroke-linejoin: round; fill: rgb(0, 0, 0); fill-opacity: 1;"/></g></g><g id="shape-701359cf-58fd-8059-8006-76e83ddaf570" style="opacity: 1;"><g class="fills" id="fills-701359cf-58fd-8059-8006-76e83ddaf570"><path d="M11.999602317810059,2.4114692211151123C11.801360130310059,2.4118354320526123,11.610442161560059,2.4911811351776123,11.471037864685059,2.6329047679901123C11.330901145935059,2.7740180492401123,11.253264427185059,2.9650580883026123,11.254240989685059,3.1643989086151123L11.254240989685059,6.234955310821533C11.253264427185059,6.433807849884033,11.330901145935059,6.624847888946533,11.471037864685059,6.766083240509033C11.610442161560059,6.907684803009033,11.801360130310059,6.987518787384033,11.999602317810059,6.988007068634033C12.198821067810059,6.987030506134033,12.389006614685059,6.907684803009033,12.529143333435059,6.766083240509033C12.669524192810059,6.624847888946533,12.746916770935059,6.433807849884033,12.745207786560059,6.234955310821533L12.745207786560059,3.1643989086151123C12.746916770935059,2.9650580883026123,12.669524192810059,2.7740180492401123,12.529143333435059,2.6329047679901123C12.389006614685059,2.4911811351776123,12.198821067810059,2.4118354320526123,11.999602317810059,2.4114692211151123Z" style="display: inline; stroke-linecap: round; stroke-linejoin: round; fill: rgb(0, 0, 0); fill-opacity: 1;"/></g></g><g id="shape-701359cf-58fd-8059-8006-76e83ddb2809" style="opacity: 1;"><g class="fills" id="fills-701359cf-58fd-8059-8006-76e83ddb2809"><path d="M11.999602317810059,17.019500732421875C11.801360130310059,17.019866943359375,11.610442161560059,17.099212646484375,11.471037864685059,17.240936279296875C11.330901145935059,17.382049560546875,11.253264427185059,17.573089599609375,11.254240989685059,17.772430419921875L11.254240989685059,20.998016357421875C11.255217552185059,21.409149169921875,11.589201927185059,21.742279052734375,11.999602317810059,21.743621826171875C12.410979270935059,21.742279052734375,12.744231224060059,21.409149169921875,12.745207786560059,20.998016357421875L12.745207786560059,17.772430419921875C12.746916770935059,17.573089599609375,12.669524192810059,17.382049560546875,12.529143333435059,17.240936279296875C12.389006614685059,17.099212646484375,12.198821067810059,17.019866943359375,11.999602317810059,17.019500732421875Z" style="display: inline; stroke-linecap: round; stroke-linejoin: round; fill: rgb(0, 0, 0); fill-opacity: 1;"/></g></g></g></g></g></g></g></g></g></svg>