<svg width="24" xmlns="http://www.w3.org/2000/svg" height="24" id="screenshot-915d2400-ada3-801c-8006-87d7fc67e6c0" viewBox="0 0 24 24" xmlns:xlink="http://www.w3.org/1999/xlink" fill="none" version="1.1"><g id="shape-915d2400-ada3-801c-8006-87d7fc67e6c0"><g class="frame-container-wrapper"><g class="frame-container-blur"><g class="frame-container-shadows"><g fill="none"><g class="fills" id="fills-915d2400-ada3-801c-8006-87d7fc67e6c0"><rect rx="0" ry="0" x="0" y="0" width="24" height="24.000000000000455" transform="matrix(1, 0, 0, 1, 0, 0)" class="frame-background"/></g><g class="frame-children"><g id="shape-915d2400-ada3-801c-8006-87d80549f80a" width="24" height="24" version="1.1" rx="0" ry="0" style="fill: rgb(0, 0, 0);"><g id="shape-915d2400-ada3-801c-8006-87d8054d058f" style="opacity: 1;"><g class="fills" id="fills-915d2400-ada3-801c-8006-87d8054d058f"><path d="M12.069426536560059,1.2696688175201416C6.115080833435059,1.2696688175201416,1.269865870475769,6.1150054931640625,1.269865870475769,12.069351196289062C1.269865870475769,18.023818969726562,6.115080833435059,22.869155883789062,12.069426536560059,22.869155883789062C18.024015426635742,22.869155883789062,22.869230270385742,18.023818969726562,22.869230270385742,12.069351196289062C22.869230270385742,6.1150054931640625,18.024015426635742,1.2696688175201416,12.069426536560059,1.2696688175201416ZM12.069426536560059,2.9970858097076416C17.087247848510742,2.9970858097076416,21.134366989135742,7.0515289306640625,21.134366989135742,12.069351196289062C21.134366989135742,17.087295532226562,17.087247848510742,21.134414672851562,12.069426536560059,21.134414672851562C7.051604270935059,21.134414672851562,2.9971609115600586,17.087295532226562,2.9971609115600586,12.069351196289062C2.9971609115600586,7.0515289306640625,7.051604270935059,2.9970858097076416,12.069426536560059,2.9970858097076416Z" style="display: inline; stroke-linecap: round; stroke-linejoin: round; fill: rgb(0, 0, 0); fill-opacity: 1;"/></g></g><g id="shape-915d2400-ada3-801c-8006-87d8054d7b40" style="opacity: 1;"><g class="fills" id="fills-915d2400-ada3-801c-8006-87d8054d7b40"><path d="M12.003020286560059,5.1303863525390625C11.771330833435059,5.1290435791015625,11.549162864685059,5.2208404541015625,11.385832786560059,5.3841705322265625C11.222502708435059,5.5479888916015625,11.130949974060059,5.7699127197265625,11.131926536560059,6.0014801025390625L11.131926536560059,12.002944946289062C11.132903099060059,12.233169555664062,11.225188255310059,12.453262329101562,11.388518333435059,12.615249633789062C11.551848411560059,12.777603149414062,11.773283958435059,12.867568969726562,12.003020286560059,12.866592407226562L17.997159957885742,12.866592407226562C18.226896286010742,12.868057250976562,18.448331832885742,12.777603149414062,18.611661911010742,12.615249633789062C18.774991989135742,12.453262329101562,18.867277145385742,12.233169555664062,18.868253707885742,12.002944946289062C18.869230270385742,11.771377563476562,18.777677536010742,11.549453735351562,18.614347457885742,11.385635375976562C18.451017379760742,11.222305297851562,18.228849411010742,11.130508422851562,17.997159957885742,11.131851196289062L12.866789817810059,11.131851196289062L12.866789817810059,6.0014801025390625C12.867766380310059,5.7712554931640625,12.777190208435059,5.5503082275390625,12.615813255310059,5.3869781494140625C12.453459739685059,5.2236480712890625,12.232756614685059,5.1313629150390625,12.003020286560059,5.1303863525390625Z" style="display: inline; stroke-linecap: round; stroke-linejoin: round; fill: rgb(0, 0, 0); fill-opacity: 1;"/></g></g></g></g></g></g></g></g></g></svg>