<svg width="24" xmlns="http://www.w3.org/2000/svg" height="23.992" id="screenshot-701359cf-58fd-8059-8006-76ef356bd612" viewBox="0 0 24 23.992" xmlns:xlink="http://www.w3.org/1999/xlink" fill="none" version="1.1"><g id="shape-701359cf-58fd-8059-8006-76ef356bd612"><g class="frame-container-wrapper"><g class="frame-container-blur"><g class="frame-container-shadows"><g fill="none"><g class="fills" id="fills-701359cf-58fd-8059-8006-76ef356bd612"><rect rx="0" ry="0" x="0" y="0" width="24" height="23.992269617594275" transform="matrix(1, 0, 0, 1, 0, 0)" class="frame-background"/></g><g class="frame-children"><g id="shape-e4f319ee-d8cb-80c4-8006-fcc9ce701cf0" rx="0" ry="0"><g id="shape-701359cf-58fd-8059-8006-76ece7daf4d1" style="opacity: 1;"><g class="fills" id="fills-701359cf-58fd-8059-8006-76ece7daf4d1"><path d="M12.003264427185059,2.9800727367401123C7.031828880310059,2.9800727367401123,2.9839773178100586,7.028290271759033,2.9839773178100586,11.998871803283691C2.9839773178100586,16.969818115234375,7.031828880310059,21.012054443359375,12.003264427185059,21.012054443359375C16.973722457885742,21.012054443359375,21.015958786010742,16.969818115234375,21.015958786010742,11.998871803283691C21.015958786010742,7.028290271759033,16.973722457885742,2.9800727367401123,12.003264427185059,2.9800727367401123ZM11.272307395935059,4.483978748321533L11.272307395935059,7.003387928009033C11.274260520935059,7.406219959259033,11.599944114685059,7.731903553009033,12.003264427185059,7.733734607696533C12.405608177185059,7.731903553009033,12.732268333435059,7.406219959259033,12.733000755310059,7.003387928009033L12.733000755310059,4.483978748321533C16.326993942260742,4.826752185821533,19.177335739135742,7.675140857696533,19.520597457885742,11.268525123596191L16.004972457885742,11.268525123596191C15.810149192810059,11.267060279846191,15.622893333435059,11.343720436096191,15.484465599060059,11.480683326721191C15.345061302185059,11.617768287658691,15.267912864685059,11.804169654846191,15.266936302185059,11.998871803283691C15.267912864685059,12.193940162658691,15.345061302185059,12.380341529846191,15.484465599060059,12.517426490783691C15.622893333435059,12.654389381408691,15.810149192810059,12.731049537658691,16.004972457885742,12.729706764221191L19.520597457885742,12.729706764221191C19.177335739135742,16.322967529296875,16.326993942260742,19.173187255859375,12.733000755310059,19.516448974609375L12.733000755310059,16.997039794921875C12.732268333435059,16.594329833984375,12.405608177185059,16.268035888671875,12.003264427185059,16.266204833984375C11.599944114685059,16.268035888671875,11.274260520935059,16.594329833984375,11.272307395935059,16.997039794921875L11.272307395935059,19.516448974609375C7.678557395935059,19.173187255859375,4.831145286560059,16.322967529296875,4.488127708435059,12.729706764221191L8.003508567810059,12.729706764221191C8.405608177185059,12.727753639221191,8.732268333435059,12.401581764221191,8.733244895935059,11.998871803283691C8.732268333435059,11.596039772033691,8.405608177185059,11.270356178283691,8.003508567810059,11.268525123596191L4.488127708435059,11.268525123596191C4.831145286560059,7.675140857696533,7.679533958435059,4.826752185821533,11.272307395935059,4.483978748321533Z" style="display: inline; stroke-linecap: square; stroke-linejoin: round; fill: rgb(0, 0, 0); fill-opacity: 1;"/></g></g></g></g></g></g></g></g></g></svg>