<svg width="24" xmlns="http://www.w3.org/2000/svg" height="24" id="screenshot-71d7d632-e409-808c-8006-517ce5561200" viewBox="0 0 24 24" xmlns:xlink="http://www.w3.org/1999/xlink" fill="none" version="1.1"><g id="shape-71d7d632-e409-808c-8006-517ce5561200"><g class="frame-container-wrapper"><g class="frame-container-blur"><g class="frame-container-shadows"><g fill="none"><g class="fills" id="fills-71d7d632-e409-808c-8006-517ce5561200"><rect rx="0" ry="0" x="0" y="0" width="24" height="24.000000000000455" transform="matrix(1, 0, 0, 1, 0, 0)" class="frame-background"/></g><g class="frame-children"><g id="shape-71d7d632-e409-808c-8006-517ce5599505" rx="0" ry="0" style="fill: rgb(0, 0, 0);"><g id="shape-0f62615a-fc4a-803b-8006-517dc1380f13" style="opacity: 1;"><g class="fills" id="fills-0f62615a-fc4a-803b-8006-517dc1380f13"><path d="M6.314055442810059,6.868622303009033C8.049407005310059,5.854584217071533,10.067229270935059,4.999969959259033,11.999602317810059,4.999969959259033C13.932707786560059,4.999969959259033,15.950774192810059,5.854584217071533,17.686124801635742,6.868622303009033C19.442960739135742,7.894379138946533,21.020597457885742,9.148530006408691,22.096036911010742,10.080780982971191C23.301359176635742,11.123993873596191,23.301359176635742,12.875824928283691,22.096036911010742,13.919159889221191C21.020597457885742,14.851532936096191,19.442960739135742,16.105682373046875,17.686124801635742,17.131317138671875C15.950774192810059,18.145355224609375,13.932707786560059,18.999969482421875,11.999602317810059,18.999969482421875C10.067229270935059,18.999969482421875,8.049407005310059,18.145355224609375,6.314055442810059,17.131317138671875C4.556975364685059,16.105682373046875,2.9793386459350586,14.851532936096191,1.904143214225769,13.919159889221191C0.698820948600769,12.875946998596191,0.698820948600769,11.124115943908691,1.904143214225769,10.080780982971191C2.9795827865600586,9.148407936096191,4.557219505310059,7.894257068634033,6.314055442810059,6.868622303009033ZM9.524992942810059,11.999970436096191C9.524992942810059,10.711762428283691,10.633391380310059,9.666596412658691,11.999602317810059,9.666596412658691C13.365813255310059,9.666596412658691,14.474211692810059,10.711762428283691,14.474211692810059,11.999970436096191C14.474211692810059,13.288178443908691,13.365813255310059,14.333344459533691,11.999602317810059,14.333344459533691C10.633391380310059,14.333344459533691,9.524992942810059,13.288178443908691,9.524992942810059,11.999970436096191ZM11.999602317810059,8.111054420471191C9.721770286560059,8.111054420471191,7.875090599060059,9.852387428283691,7.875090599060059,11.999970436096191C7.875090599060059,14.147675514221191,9.721770286560059,15.888886451721191,11.999602317810059,15.888886451721191C14.277190208435059,15.888886451721191,16.123868942260742,14.147675514221191,16.123868942260742,11.999970436096191C16.123868942260742,9.852387428283691,14.277190208435059,8.111054420471191,11.999602317810059,8.111054420471191Z" fill-rule="evenodd" style="display: inline; stroke-width: 0.0701968; fill: rgb(0, 0, 0); fill-opacity: 1;"/></g></g></g></g></g></g></g></g></g></svg>