<svg width="24" xmlns="http://www.w3.org/2000/svg" height="24" id="screenshot-62f3a77a-6931-802e-8006-9c1ca6d742d2" viewBox="0 0 24 24" xmlns:xlink="http://www.w3.org/1999/xlink" fill="none" version="1.1"><g id="shape-62f3a77a-6931-802e-8006-9c1ca6d742d2"><g class="frame-container-wrapper"><g class="frame-container-blur"><g class="frame-container-shadows"><g fill="none"><g class="fills" id="fills-62f3a77a-6931-802e-8006-9c1ca6d742d2"><rect rx="0" ry="0" x="0" y="0" width="24" height="24.000000000000455" transform="matrix(1, 0, 0, 1, 0, 0)" class="frame-background"/></g><g class="frame-children"><g id="shape-62f3a77a-6931-802e-8006-9c1b5789aad1" width="512" height="512" rx="0" ry="0" style="fill: rgb(0, 0, 0);"><g id="shape-62f3a77a-6931-802e-8006-9c1b578d670a"><g class="fills" id="fills-62f3a77a-6931-802e-8006-9c1b578d670a"><path d="M0.00004882812572759576,16.40625C0.00004882812572759576,17.827880859375,1.1565430164337158,18.984375,2.578173875808716,18.984375L21.421924591064453,18.984375C22.843555450439453,18.984375,24.000049591064453,17.827880859375,24.000049591064453,16.40625L24.000049591064453,16.171875L0.00004882812572759576,16.171875L0.00004882812572759576,16.40625Z" style="fill: rgb(0, 0, 0); fill-opacity: 1;"/></g></g><g id="shape-62f3a77a-6931-802e-8006-9c1b578d8281"><g class="fills" id="fills-62f3a77a-6931-802e-8006-9c1b578d8281"><path d="M17.625049591064453,21.890625L16.260303497314453,21.890625L15.771288871765137,20.390625L8.228808403015137,20.390625L7.739794731140137,21.890625L6.375048637390137,21.890625C5.986620903015137,21.890625,5.671923637390137,22.2054443359375,5.671923637390137,22.59375C5.671923637390137,22.9820556640625,5.986620903015137,23.296875,6.375048637390137,23.296875L17.625049591064453,23.296875C18.013477325439453,23.296875,18.328174591064453,22.9820556640625,18.328174591064453,22.59375C18.328174591064453,22.2054443359375,18.013477325439453,21.890625,17.625049591064453,21.890625Z" style="fill: rgb(0, 0, 0); fill-opacity: 1;"/></g></g><g id="shape-62f3a77a-6931-802e-8006-9c1b578e597c"><g class="fills" id="fills-62f3a77a-6931-802e-8006-9c1b578e597c"><path d="M21.421924591064453,0.703125L13.171923637390137,0.703125L12.703173637390137,0.703125L2.578173875808716,0.703125C1.1565430164337158,0.703125,0.00004882812572759576,1.859619140625,0.00004882812572759576,3.28125L0.00004882812572759576,14.765625L12.703173637390137,14.765625L13.171923637390137,14.765625L24.000049591064453,14.765625L24.000049591064453,3.28125C24.000049591064453,1.859619140625,22.843555450439453,0.703125,21.421924591064453,0.703125ZM6.878222465515137,12.717529296875C5.651171684265137,12.717529296875,4.658495903015137,12.3812255859375,4.139208793640137,12.0673828125L3.828173875808716,11.8800048828125L4.483691215515137,9.44873046875L5.023974418640137,9.74853515625C5.306933403015137,9.9071044921875,6.028857231140137,10.20458984375,6.736620903015137,10.20458984375C6.983202934265137,10.20458984375,7.788622856140137,10.1593017578125,7.788622856140137,9.577880859375C7.788622856140137,8.8685302734375,6.705126762390137,8.847412109375,6.581591606140137,8.847412109375L5.299120903015137,8.847412109375L5.299120903015137,6.4766845703125L6.554736137390137,6.4766845703125C6.941699028015137,6.4766845703125,7.555468559265137,6.3450927734375,7.555468559265137,5.99169921875C7.555468559265137,5.6484375,7.082568168640137,5.5966796875,6.800097465515137,5.5966796875C6.222460746765137,5.5966796875,5.593554496765137,5.8551025390625,5.311327934265137,6.028564453125L4.767626762390137,6.3631591796875L4.097704887390137,3.9852294921875L4.399218559265137,3.7921142578125C4.908740043640137,3.4658203125,5.961230278015137,3.0841064453125,7.252001762390137,3.0841064453125C9.488818168640137,3.0841064453125,10.507861137390137,4.4171142578125,10.507861137390137,5.6563720703125C10.507861137390137,6.427978515625,10.190234184265137,7.0821533203125,9.610400199890137,7.54638671875C10.343798637390137,8.0045166015625,10.792284965515137,8.7774658203125,10.792284965515137,9.6806640625C10.792284965515137,11.4970703125,9.219286918640137,12.717529296875,6.878222465515137,12.717529296875ZM18.478565216064453,11.4267578125C17.500293731689453,12.2384033203125,16.002490997314453,12.66552734375,14.139697074890137,12.66552734375C13.056933403015137,12.66552734375,12.293017387390137,12.5926513671875,11.843066215515137,12.53173828125L11.425097465515137,12.4757080078125L11.425097465515137,3.1165771484375L11.831591606140137,3.0511474609375C12.631396293640137,2.9229736328125,13.598681449890137,2.8515625,14.552538871765137,2.8515625C16.278614044189453,2.8515625,17.470020294189453,3.1678466796875,18.415332794189453,3.876953125C19.503223419189453,4.685302734375,20.078907012939453,5.9512939453125,20.078174591064453,7.5390625C20.078174591064453,9.6153564453125,19.208301544189453,10.79931640625,18.478565216064453,11.4267578125Z" style="fill: rgb(0, 0, 0); fill-opacity: 1;"/></g></g><g id="shape-62f3a77a-6931-802e-8006-9c1b578eb2db"><g class="fills" id="fills-62f3a77a-6931-802e-8006-9c1b578eb2db"><path d="M16.379932403564453,9.555419921875C15.969042778015137,9.959716796875,15.366259574890137,10.1651611328125,14.553271293640137,10.1651611328125L14.552538871765137,10.1651611328125C14.492724418640137,10.1651611328125,14.422656059265137,10.1651611328125,14.351855278015137,10.1644287109375L14.351855278015137,5.3404541015625C14.462695121765137,5.3321533203125,14.597704887390137,5.326171875,14.759081840515137,5.326171875C16.249317169189453,5.326171875,17.036670684814453,6.1138916015625,17.036670684814453,7.603515625C17.036426544189453,8.469970703125,16.815235137939453,9.126953125,16.379932403564453,9.555419921875Z" style="fill: rgb(0, 0, 0); fill-opacity: 1;"/></g></g></g></g></g></g></g></g></g></svg>