<svg width="24" xmlns="http://www.w3.org/2000/svg" height="24" id="screenshot-cc05fdba-17c3-8077-8006-5bee4ce0a5bb" viewBox="0 0 24 24" xmlns:xlink="http://www.w3.org/1999/xlink" fill="none" version="1.1"><g id="shape-cc05fdba-17c3-8077-8006-5bee4ce0a5bb"><g class="frame-container-wrapper"><g class="frame-container-blur"><g class="frame-container-shadows"><g fill="none"><g class="fills" id="fills-cc05fdba-17c3-8077-8006-5bee4ce0a5bb"><rect rx="0" ry="0" x="0" y="0" width="24" height="24.000000000000455" transform="matrix(1, 0, 0, 1, 0, 0)" class="frame-background"/></g><g class="frame-children"><g id="shape-cc05fdba-17c3-8077-8006-5bee3b2cfdc0" width="24" height="24" version="1.1" rx="0" ry="0" style="fill: rgb(0, 0, 0);"><g id="shape-cc05fdba-17c3-8077-8006-5bee3b2fb39f" style="opacity: 1;"><g class="fills" id="fills-cc05fdba-17c3-8077-8006-5bee3b2fb39f"><path d="M11.999846458435059,4.947357654571533C9.961028099060059,4.947357654571533,7.968596458435059,5.849701404571533,6.279143333435059,6.873993396759033C4.568938255310059,7.910004138946533,3.0596609115600586,9.156586647033691,2.0274343490600586,10.085053443908691C0.593352198600769,11.373261451721191,0.597014307975769,13.622406959533691,2.0274343490600586,14.912812232971191C3.0596609115600586,15.841279029846191,4.568694114685059,17.095306396484375,6.279143333435059,18.131317138671875C7.968596458435059,19.155731201171875,9.961028099060059,20.058074951171875,11.999846458435059,20.058074951171875C14.039641380310059,20.058074951171875,16.031095504760742,19.155731201171875,17.720548629760742,18.131317138671875C19.430997848510742,17.095306396484375,20.940275192260742,15.841401100158691,21.972257614135742,14.912812232971191C23.402677536010742,13.622284889221191,23.406583786010742,11.373017311096191,21.972257614135742,10.085053443908691C20.940275192260742,9.156708717346191,19.430997848510742,7.910126209259033,17.720548629760742,6.873993396759033C16.031095504760742,5.849579334259033,14.039885520935059,4.947357654571533,11.999846458435059,4.947357654571533ZM11.999846458435059,6.408905506134033C13.591887474060059,6.408905506134033,15.389983177185059,7.169403553009033,16.960294723510742,8.121552467346191L16.960294723510742,8.129120826721191C18.550382614135742,9.092255592346191,20.002531051635742,10.289032936096191,20.990568161010742,11.177826881408691C21.818937301635742,11.921601295471191,21.818937301635742,13.083954811096191,20.990568161010742,13.827851295471191C20.002531051635742,14.716767311096191,18.550138473510742,15.913544654846191,16.960294723510742,16.876678466796875C15.389983177185059,17.828826904296875,13.591643333435059,18.589202880859375,11.999846458435059,18.589202880859375C10.409026145935059,18.589202880859375,8.609953880310059,17.828826904296875,7.039641380310059,16.876678466796875C5.449553489685059,15.913422584533691,3.9974050521850586,14.716767311096191,3.0093679428100586,13.827851295471191C2.1809988021850586,13.084076881408691,2.1809988021850586,11.921723365783691,3.0093679428100586,11.177826881408691C3.9974050521850586,10.288910865783691,5.449553489685059,9.092255592346191,7.039641380310059,8.129120826721191L7.039641380310059,8.121552467346191C8.609953880310059,7.169281482696533,10.409270286560059,6.408905506134033,11.999846458435059,6.408905506134033Z" style="display: inline; fill-rule: evenodd; stroke-linejoin: bevel; fill: rgb(0, 0, 0); fill-opacity: 1;"/></g></g><g id="shape-cc05fdba-17c3-8077-8006-5bee3b2fc769" style="opacity: 1;"><g class="fills" id="fills-cc05fdba-17c3-8077-8006-5bee3b2fc769"><ellipse cx="12.00063303747038" cy="12.498873252402177" rx="2.4981359251128197" ry="2.49826653625189" transform="matrix(1, 0, 0, 1, 0, 0)" style="display: inline; stroke: none; stroke-width: 0.422809; stroke-linecap: round; stroke-linejoin: round; fill: rgb(0, 0, 0); fill-opacity: 1;"/></g></g></g></g></g></g></g></g></g></svg>