<svg width="24" xmlns="http://www.w3.org/2000/svg" height="24" id="screenshot-915d2400-ada3-801c-8006-87e2bbdda097" viewBox="0 0 24 24" xmlns:xlink="http://www.w3.org/1999/xlink" fill="none" version="1.1"><g id="shape-915d2400-ada3-801c-8006-87e2bbdda097"><g class="frame-container-wrapper"><g class="frame-container-blur"><g class="frame-container-shadows"><g fill="none"><g class="fills" id="fills-915d2400-ada3-801c-8006-87e2bbdda097"><rect rx="0" ry="0" x="0" y="0" width="24" height="24.000000000000455" transform="matrix(1, 0, 0, 1, 0, 0)" class="frame-background"/></g><g class="frame-children"><g id="shape-915d2400-ada3-801c-8006-87e2b237e9cd" width="24" height="24" version="1.1" rx="0" ry="0" style="fill: rgb(0, 0, 0);"><g id="shape-915d2400-ada3-801c-8006-87e2b23ce295" style="opacity: 1;"><g class="fills" id="fills-915d2400-ada3-801c-8006-87e2b23ce295"><path d="M18.021085739135742,2.9995272159576416C17.225675582885742,2.9995272159576416,16.462736129760742,3.3155672550201416,15.899748802185059,3.8784334659576416C15.337737083435059,4.4409332275390625,15.021330833435059,5.2039947509765625,15.021330833435059,5.9997711181640625C15.024016380310059,6.1926422119140625,15.044280052185059,6.3850250244140625,15.084074974060059,6.5736236572265625L8.224455833435059,9.964126586914062C7.657073020935059,9.349624633789062,6.857756614685059,8.999893188476562,6.020842552185059,8.999404907226562C5.225432395935059,8.999404907226562,4.462492942810059,9.315444946289062,3.9004812240600586,9.878311157226562C3.3377370834350586,10.440567016601562,3.0210866928100586,11.203750610351562,3.0210866928100586,11.999649047851562C3.0210866928100586,12.794815063476562,3.3377370834350586,13.557998657226562,3.9004812240600586,14.120376586914062C4.462492942810059,14.683242797851562,5.225432395935059,14.999160766601562,6.020842552185059,14.999160766601562C6.846770286560059,14.996841430664062,7.633879661560059,14.655044555664062,8.199553489685059,14.053970336914062L15.070158958435059,17.491348266601562C15.039885520935059,17.658828735351562,15.023039817810059,17.828628540039062,15.021330833435059,17.998794555664062C15.021330833435059,18.794692993164062,15.337737083435059,19.557876586914062,15.899748802185059,20.120132446289062C16.462736129760742,20.682998657226562,17.225675582885742,20.999038696289062,18.021085739135742,20.999038696289062C18.817472457885742,20.999038696289062,19.580656051635742,20.682998657226562,20.142423629760742,20.120132446289062C20.705411911010742,19.557876586914062,21.020841598510742,18.794692993164062,21.020841598510742,17.998794555664062C21.020841598510742,17.203506469726562,20.705411911010742,16.440444946289062,20.142423629760742,15.877578735351562C19.580656051635742,15.315200805664062,18.817472457885742,14.999160766601562,18.021085739135742,14.999160766601562C17.197111129760742,15.001480102539062,16.410978317260742,15.342422485351562,15.845305442810059,15.942642211914062L8.974699974060059,12.503311157226562C9.004240989685059,12.336807250976562,9.019865989685059,12.168472290039062,9.021574974060059,11.999649047851562C9.020842552185059,11.784561157226562,8.997649192810059,11.570571899414062,8.951506614685059,11.360610961914062L15.776946067810059,7.9876861572265625C16.346281051635742,8.630386352539062,17.162931442260742,8.998916625976562,18.021085739135742,8.999404907226562C18.817472457885742,8.999404907226562,19.580656051635742,8.683364868164062,20.142423629760742,8.120986938476562C20.705411911010742,7.5582427978515625,21.020841598510742,6.7951812744140625,21.020841598510742,5.9997711181640625C21.020841598510742,5.2039947509765625,20.705411911010742,4.4409332275390625,20.142423629760742,3.8784334659576416C19.580656051635742,3.3155672550201416,18.817472457885742,2.9995272159576416,18.021085739135742,2.9995272159576416Z" style="stroke: none; stroke-width: 0.45861; stroke-linejoin: round; stroke-dasharray: none; display: inline; stroke-linecap: square; fill: rgb(0, 0, 0); fill-opacity: 1;"/></g></g></g></g></g></g></g></g></g></svg>