<svg width="24" xmlns="http://www.w3.org/2000/svg" height="24" id="screenshot-bfd96ead-884f-806b-8006-9b0374655b47" viewBox="0 0 24 24" xmlns:xlink="http://www.w3.org/1999/xlink" fill="none" version="1.1"><g id="shape-bfd96ead-884f-806b-8006-9b0374655b47"><g class="frame-container-wrapper"><g class="frame-container-blur"><g class="frame-container-shadows"><g fill="none"><g class="fills" id="fills-bfd96ead-884f-806b-8006-9b0374655b47"><rect rx="0" ry="0" x="0" y="0" width="24" height="24" transform="matrix(1, 0, 0, 1, 0, 0)" class="frame-background"/></g><g class="frame-children"><g id="shape-bfd96ead-884f-806b-8006-9b02036fcb12"><g class="fills" id="fills-bfd96ead-884f-806b-8006-9b02036fcb12"><rect rx="4" ry="4" x="0" y="0" transform="matrix(1, 0, 0, 1, 0, 0)" width="24" height="24" style="fill: rgb(0, 0, 0); fill-opacity: 1;"/></g></g><g id="shape-bfd96ead-884f-806b-8006-9b020ea3fe33" rx="0" ry="0"><g id="shape-bfd96ead-884f-806b-8006-9affaff860f1"><g class="fills" id="fills-bfd96ead-884f-806b-8006-9affaff860f1"><path d="M12.000048637390137,4.0000152587890625C9.827197074890137,4.0000152587890625,9.554980278015137,4.0092926025390625,8.701952934265137,4.0476226806640625C7.850634574890137,4.0865631103515625,7.268847465515137,4.2223052978515625,6.759325981140137,4.4198150634765625C6.233691215515137,4.6246490478515625,5.787646293640137,4.8979644775390625,5.342822074890137,5.3424224853515625C4.897997856140137,5.7873687744140625,4.624316215515137,6.2337799072265625,4.420702934265137,6.7596588134765625C4.222460746765137,7.2688140869140625,4.086718559265137,7.8498687744140625,4.047900199890137,8.701431274414062C4.008837699890137,9.554946899414062,4.000048637390137,9.827651977539062,4.000048637390137,12.000137329101562C4.000048637390137,14.172500610351562,4.008837699890137,14.445327758789062,4.047900199890137,15.298599243164062C4.086718559265137,16.150283813476562,4.222460746765137,16.731826782226562,4.420702934265137,17.240371704101562C4.624316215515137,17.766372680664062,4.897997856140137,18.212783813476562,5.342822074890137,18.657608032226562C5.787646293640137,19.102188110351562,6.233691215515137,19.375381469726562,6.759325981140137,19.580459594726562C7.268847465515137,19.777847290039062,7.850634574890137,19.913467407226562,8.701952934265137,19.951797485351562C9.554980278015137,19.990737915039062,9.827197074890137,20.000137329101562,12.000048637390137,20.000137329101562C14.172411918640137,20.000137329101562,14.445116996765137,19.990737915039062,15.298144340515137,19.951797485351562C16.149707794189453,19.913467407226562,16.731250762939453,19.777847290039062,17.240772247314453,19.580459594726562C17.766651153564453,19.375381469726562,18.212207794189453,19.102188110351562,18.657032012939453,18.657608032226562C19.102100372314453,18.212783813476562,19.375782012939453,17.766372680664062,19.579639434814453,17.240371704101562C19.777881622314453,16.731826782226562,19.913623809814453,16.150283813476562,19.952198028564453,15.298599243164062C19.991260528564453,14.445327758789062,20.000049591064453,14.172500610351562,20.000049591064453,12.000137329101562C20.000049591064453,9.827651977539062,19.991260528564453,9.554946899414062,19.952198028564453,8.701431274414062C19.913379669189453,7.8498687744140625,19.777881622314453,7.2688140869140625,19.579639434814453,6.7596588134765625C19.375782012939453,6.2337799072265625,19.102100372314453,5.7873687744140625,18.657032012939453,5.3424224853515625C18.212207794189453,4.8979644775390625,17.766651153564453,4.6246490478515625,17.240772247314453,4.4198150634765625C16.731250762939453,4.2223052978515625,16.149707794189453,4.0865631103515625,15.298144340515137,4.0476226806640625C14.445116996765137,4.0092926025390625,14.172411918640137,4.0000152587890625,12.000048637390137,4.0000152587890625M12.000048637390137,5.4411773681640625C14.136279106140137,5.4411773681640625,14.389208793640137,5.4496002197265625,15.232958793640137,5.4879302978515625C16.012500762939453,5.5234527587890625,16.436573028564453,5.6539459228515625,16.718311309814453,5.7634429931640625C17.092334747314453,5.9085845947265625,17.358448028564453,6.0821685791015625,17.637744903564453,6.3619537353515625C17.918262481689453,6.6421051025390625,18.091114044189453,6.9084625244140625,18.235889434814453,7.2818756103515625C18.346485137939453,7.5638580322265625,18.476367950439453,7.9875640869140625,18.511768341064453,8.767349243164062C18.550586700439453,9.610977172851562,18.558887481689453,9.863662719726562,18.558887481689453,12.000137329101562C18.558887481689453,14.136489868164062,18.550586700439453,14.389053344726562,18.511768341064453,15.232803344726562C18.476367950439453,16.013076782226562,18.346485137939453,16.436172485351562,18.235889434814453,16.718154907226562C18.091114044189453,17.091567993164062,17.918262481689453,17.357803344726562,17.637744903564453,17.638198852539062C17.358448028564453,17.917984008789062,17.092334747314453,18.091445922851562,16.718311309814453,18.236587524414062C16.436573028564453,18.346084594726562,16.012500762939453,18.476699829101562,15.232958793640137,18.512222290039062C14.389208793640137,18.550552368164062,14.136523246765137,18.558486938476562,12.000048637390137,18.558486938476562C9.863574028015137,18.558486938476562,9.610644340515137,18.550552368164062,8.767138481140137,18.512222290039062C7.987353324890137,18.476699829101562,7.563525199890137,18.346084594726562,7.281786918640137,18.236587524414062C6.907763481140137,18.091445922851562,6.641650199890137,17.917984008789062,6.362109184265137,17.638198852539062C6.082079887390137,17.357803344726562,5.908984184265137,17.091567993164062,5.764208793640137,16.718154907226562C5.654833793640137,16.436172485351562,5.523486137390137,16.013076782226562,5.488085746765137,15.232803344726562C5.449511528015137,14.389053344726562,5.441454887390137,14.136489868164062,5.441454887390137,12.000137329101562C5.441454887390137,9.863662719726562,5.449511528015137,9.610977172851562,5.488085746765137,8.767349243164062C5.523486137390137,7.9875640869140625,5.654833793640137,7.5638580322265625,5.764208793640137,7.2818756103515625C5.908984184265137,6.9084625244140625,6.082079887390137,6.6421051025390625,6.362109184265137,6.3619537353515625C6.641650199890137,6.0821685791015625,6.907763481140137,5.9085845947265625,7.281786918640137,5.7634429931640625C7.563525199890137,5.6539459228515625,7.987353324890137,5.5235748291015625,8.767138481140137,5.4879302978515625C9.610644340515137,5.4496002197265625,9.863818168640137,5.4411773681640625,12.000048637390137,5.4411773681640625" style="fill-rule: nonzero; stroke: none; stroke-width: 0.133333; fill: rgb(255, 255, 255); fill-opacity: 1;"/></g></g><g id="shape-bfd96ead-884f-806b-8006-9affaff88001"><g class="fills" id="fills-bfd96ead-884f-806b-8006-9affaff88001"><path d="M11.815478324890137,14.482070922851562C10.342577934265137,14.482070922851562,9.148486137390137,13.287612915039062,9.148486137390137,11.815689086914062C9.148486137390137,10.342178344726562,10.342577934265137,9.148574829101562,11.815478324890137,9.148574829101562C13.288134574890137,9.148574829101562,14.481738090515137,10.342178344726562,14.481738090515137,11.815689086914062C14.481738090515137,13.287612915039062,13.288134574890137,14.482070922851562,11.815478324890137,14.482070922851562M11.815478324890137,7.7069244384765625C9.546679496765137,7.7069244384765625,7.707079887390137,9.546157836914062,7.707079887390137,11.815689086914062C7.707079887390137,14.084365844726562,9.546679496765137,15.923721313476562,11.815478324890137,15.923721313476562C14.084521293640137,15.923721313476562,15.923144340515137,14.084365844726562,15.923144340515137,11.815689086914062C15.923144340515137,9.546157836914062,14.084521293640137,7.7069244384765625,11.815478324890137,7.7069244384765625" style="fill-rule: nonzero; stroke: none; stroke-width: 0.133333; fill: rgb(255, 255, 255); fill-opacity: 1;"/></g></g><g id="shape-bfd96ead-884f-806b-8006-9affaff88002"><g class="fills" id="fills-bfd96ead-884f-806b-8006-9affaff88002"><path d="M17.040576934814453,8.666519165039062C17.040576934814453,9.197158813476562,16.610645294189453,9.627212524414062,16.081104278564453,9.627212524414062C15.550585746765137,9.627212524414062,15.120898246765137,9.197158813476562,15.120898246765137,8.666519165039062C15.120898246765137,8.136856079101562,15.550585746765137,7.7069244384765625,16.081104278564453,7.7069244384765625C16.610645294189453,7.7069244384765625,17.040576934814453,8.136856079101562,17.040576934814453,8.666519165039062" style="fill-rule: nonzero; stroke: none; stroke-width: 0.133333; fill: rgb(255, 255, 255); fill-opacity: 1;"/></g></g></g></g></g></g></g></g></g></svg>