<svg width="24" xmlns="http://www.w3.org/2000/svg" height="24" id="screenshot-701359cf-58fd-8059-8006-76ef39703316" viewBox="0 0 24 24" xmlns:xlink="http://www.w3.org/1999/xlink" fill="none" version="1.1"><g id="shape-701359cf-58fd-8059-8006-76ef39703316"><g class="frame-container-wrapper"><g class="frame-container-blur"><g class="frame-container-shadows"><g fill="none"><g class="fills" id="fills-701359cf-58fd-8059-8006-76ef39703316"><rect rx="0" ry="0" x="0" y="0" width="24" height="24" transform="matrix(1, 0, 0, 1, 0, 0)" class="frame-background"/></g><g class="frame-children"><g id="shape-701359cf-58fd-8059-8006-76ed208abaac" width="24" height="24" version="1.1" rx="0" ry="0" style="fill: rgb(0, 0, 0);"><g id="shape-701359cf-58fd-8059-8006-76ed208d2950" style="opacity: 1;"><g class="fills" id="fills-701359cf-58fd-8059-8006-76ed208d2950"><path d="M5.260832786560059,2.0789496898651123C3.5105886459350586,2.0789496898651123,2.0794363021850586,3.5180366039276123,2.0794363021850586,5.269623279571533L2.0794363021850586,18.738128662109375C2.0794363021850586,20.489837646484375,3.5105886459350586,21.921112060546875,5.260832786560059,21.921112060546875L18.732023239135742,21.921112060546875C20.483243942260742,21.921112060546875,21.921964645385742,20.489837646484375,21.921964645385742,18.738128662109375L21.921964645385742,5.269623279571533C21.921964645385742,3.5180366039276123,20.483243942260742,2.0789496898651123,18.732023239135742,2.0789496898651123ZM5.260832786560059,3.5484321117401123L11.292815208435059,3.5484321117401123C11.266203880310059,3.6191108226776123,11.251311302185059,3.6939399242401123,11.247649192810059,3.7691352367401123L11.247649192810059,20.459320068359375L5.260832786560059,20.459320068359375C4.297698020935059,20.459320068359375,3.5408620834350586,19.702362060546875,3.5408620834350586,18.738128662109375L3.5408620834350586,5.269623279571533C3.5408620834350586,4.305511951446533,4.297698020935059,3.5484321117401123,5.260832786560059,3.5484321117401123ZM12.702727317810059,3.5484321117401123L18.732023239135742,3.5484321117401123C19.695402145385742,3.5484321117401123,20.452970504760742,4.305511951446533,20.452970504760742,5.269623279571533L20.452970504760742,18.738128662109375C20.452970504760742,19.702362060546875,19.695402145385742,20.459320068359375,18.732023239135742,20.459320068359375L12.745207786560059,20.459320068359375L12.745207786560059,3.7691352367401123C12.742522239685059,3.6939399242401123,12.727629661560059,3.6195991039276123,12.702727317810059,3.5484321117401123Z" style="display: inline; stroke-linecap: round; stroke-linejoin: round; fill: rgb(0, 0, 0); fill-opacity: 1;"/></g></g></g></g></g></g></g></g></g></svg>