<svg width="24" xmlns="http://www.w3.org/2000/svg" height="23.992" id="screenshot-701359cf-58fd-8059-8006-76ef3ce77248" viewBox="0 0 24 23.992" xmlns:xlink="http://www.w3.org/1999/xlink" fill="none" version="1.1"><g id="shape-701359cf-58fd-8059-8006-76ef3ce77248"><g class="frame-container-wrapper"><g class="frame-container-blur"><g class="frame-container-shadows"><g fill="none"><g class="fills" id="fills-701359cf-58fd-8059-8006-76ef3ce77248"><rect rx="0" ry="0" x="0" y="0" width="24" height="23.992269617594275" transform="matrix(1, 0, 0, 1, 0, 0)" class="frame-background"/></g><g class="frame-children"><g id="shape-701359cf-58fd-8059-8006-76ed3cdf8446" width="24" height="24" version="1.1" rx="0" ry="0" style="fill: rgb(0, 0, 0);"><g id="shape-701359cf-58fd-8059-8006-76ed3ce19d0c" style="opacity: 1;"><g class="fills" id="fills-701359cf-58fd-8059-8006-76ed3ce19d0c"><path d="M5.260546684265137,2.0789794921875C3.510058641433716,2.0789794921875,2.078906297683716,3.5174560546875,2.078906297683716,5.2681884765625L2.078906297683716,18.7305908203125C2.078906297683716,20.4815673828125,3.510058641433716,21.912109375,5.260546684265137,21.912109375L18.738086700439453,21.912109375C20.489307403564453,21.912109375,21.919483184814453,20.4815673828125,21.919483184814453,18.7305908203125L21.919483184814453,5.2681884765625C21.919483184814453,3.5174560546875,20.489307403564453,2.0789794921875,18.738086700439453,2.0789794921875ZM5.260546684265137,3.5478515625L8.293261528015137,3.5478515625C8.267382621765137,3.618408203125,8.252734184265137,3.6932373046875,8.249072074890137,3.7684326171875L8.249072074890137,20.4510498046875L5.260546684265137,20.4510498046875C4.297167778015137,20.4510498046875,3.547900438308716,19.6944580078125,3.547900438308716,18.7305908203125L3.547900438308716,5.2681884765625C3.547900438308716,4.3045654296875,4.297167778015137,3.5478515625,5.260546684265137,3.5478515625ZM9.704150199890137,3.5478515625L14.293505668640137,3.5478515625C14.267870903015137,3.618896484375,14.253954887390137,3.6932373046875,14.250292778015137,3.7684326171875L14.250292778015137,20.4510498046875L9.746630668640137,20.4510498046875L9.746630668640137,3.7684326171875C9.743945121765137,3.6932373046875,9.729052543640137,3.618896484375,9.704150199890137,3.5478515625ZM15.705126762390137,3.5478515625L18.738086700439453,3.5478515625C19.702442169189453,3.5478515625,20.451465606689453,4.3045654296875,20.451465606689453,5.2681884765625L20.451465606689453,18.7305908203125C20.451465606689453,19.6944580078125,19.702442169189453,20.4510498046875,18.738086700439453,20.4510498046875L15.748583793640137,20.4510498046875L15.748583793640137,3.7684326171875C15.744921684265137,3.6932373046875,15.731005668640137,3.618896484375,15.705126762390137,3.5478515625Z" style="display: inline; stroke-linecap: round; stroke-linejoin: round;"/></g></g></g></g></g></g></g></g></g></svg>