<svg width="24.618" xmlns="http://www.w3.org/2000/svg" height="24" id="screenshot-fd9419e2-e0bc-8060-8006-87a28b52062b" viewBox="-0.309 0 24.618 24" xmlns:xlink="http://www.w3.org/1999/xlink" fill="none" version="1.1"><g id="shape-fd9419e2-e0bc-8060-8006-87a28b52062b"><g class="frame-container-wrapper"><g class="frame-container-blur"><g class="frame-container-shadows"><g fill="none"><g class="fills" id="fills-fd9419e2-e0bc-8060-8006-87a28b52062b"><rect rx="0" ry="0" x="0" y="0" width="24" height="24.000000000000455" transform="matrix(1, 0, 0, 1, 0, 0)" class="frame-background"/></g><g class="frame-children"><g id="shape-fd9419e2-e0bc-8060-8006-87a4fa75e113" width="24" height="24" version="1.1" rx="0" ry="0" style="fill: rgb(0, 0, 0);"><g id="shape-fd9419e2-e0bc-8060-8006-87a4fa796792" style="opacity: 1;"><g class="fills" id="fills-fd9419e2-e0bc-8060-8006-87a4fa796792"><path d="M6.339821815490723,11.984024047851562C6.330300331115723,15.102066040039062,8.863503456115723,17.659439086914062,11.978005409240723,17.662490844726562C15.093239784240723,17.665786743164062,17.65207862854004,15.114517211914062,17.66135597229004,11.996353149414062C17.67087745666504,8.878555297851562,15.127663612365723,6.3213043212890625,12.012185096740723,6.3178863525390625C8.897683143615723,6.3149566650390625,6.348855018615723,8.866104125976562,6.339821815490723,11.984024047851562ZM8.649880409240723,11.986465454101562C8.655495643615723,10.122573852539062,10.143532752990723,8.638687133789062,12.005349159240723,8.641250610351562C13.866921424865723,8.643814086914062,15.346657752990723,10.130264282226562,15.340798377990723,11.993545532226562C15.334939002990723,13.857925415039062,13.846901893615723,15.341567993164062,11.985085487365723,15.339004516601562C10.123513221740723,15.336441040039062,8.644265174865723,13.850845336914062,8.649880409240723,11.986465454101562Z" style="display: inline; stroke-linecap: round; stroke-linejoin: round; fill: rgb(0, 0, 0); fill-opacity: 1;"/></g></g><g id="shape-fd9419e2-e0bc-8060-8006-87a4fa79c55d" style="opacity: 1;"><g class="fills" id="fills-fd9419e2-e0bc-8060-8006-87a4fa79c55d"><path d="M-0.04567616432905197,11.708267211914062C-0.35426992177963257,12.075210571289062,-0.34010976552963257,12.614273071289062,-0.013205462135374546,12.964492797851562L11.644509315490723,25.400894165039062C11.829567909240723,25.598159790039062,12.090065956115723,25.706436157226562,12.360817909240723,25.697769165039062C12.631569862365723,25.688735961914062,12.885720252990723,25.565689086914062,13.058327674865723,25.357192993164062L24.05149269104004,12.281021118164062C24.36008644104004,11.913955688476562,24.34690284729004,11.374160766601562,24.01877784729004,11.024917602539062L12.347146034240723,-1.4070889949798584C12.163064002990723,-1.6005704402923584,11.905983924865723,-1.7057950496673584,11.638894081115723,-1.6985929012298584C11.372048377990723,-1.6912686824798584,11.121315956115723,-1.5710294246673584,10.947243690490723,-1.3675382137298584L-0.04567616432905197,11.708267211914062M1.9369899034500122,12.282119750976562L11.701882362365723,0.6611483097076416L22.05466651916504,11.711685180664062L12.303689002990723,23.328506469726562L1.9369899034500122,12.282119750976562" style="display: inline; stroke-linecap: round; stroke-linejoin: round; fill: rgb(0, 0, 0); fill-opacity: 1;"/></g></g></g></g></g></g></g></g></g></svg>