<svg width="24" xmlns="http://www.w3.org/2000/svg" height="23.992" id="screenshot-701359cf-58fd-8059-8006-76ef3d5e06fb" viewBox="0 0 24 23.992" xmlns:xlink="http://www.w3.org/1999/xlink" fill="none" version="1.1"><g id="shape-701359cf-58fd-8059-8006-76ef3d5e06fb"><g class="frame-container-wrapper"><g class="frame-container-blur"><g class="frame-container-shadows"><g fill="none"><g class="fills" id="fills-701359cf-58fd-8059-8006-76ef3d5e06fb"><rect rx="0" ry="0" x="0" y="0" width="24" height="23.992269617594275" transform="matrix(1, 0, 0, 1, 0, 0)" class="frame-background"/></g><g class="frame-children"><g id="shape-701359cf-58fd-8059-8006-76ed4a5f0bac" width="24" height="24" version="1.1" rx="0" ry="0" style="fill: rgb(0, 0, 0);"><g id="shape-701359cf-58fd-8059-8006-76ed4a62d83d" style="opacity: 1;"><g class="fills" id="fills-701359cf-58fd-8059-8006-76ed4a62d83d"><path d="M5.260546684265137,2.0789794921875C3.510302782058716,2.0789794921875,2.079150438308716,3.5174560546875,2.079150438308716,5.2681884765625L2.079150438308716,18.7305908203125C2.079150438308716,20.4815673828125,3.510302782058716,21.912109375,5.260546684265137,21.912109375L18.731739044189453,21.912109375C20.482959747314453,21.912109375,21.921680450439453,20.4815673828125,21.921680450439453,18.7305908203125L21.921680450439453,5.2681884765625C21.921680450439453,3.5174560546875,20.482959747314453,2.0789794921875,18.731739044189453,2.0789794921875ZM5.260546684265137,3.5478515625L11.308154106140137,3.5478515625C11.276904106140137,3.6180419921875,11.255663871765137,3.6922607421875,11.247363090515137,3.7684326171875L11.247363090515137,11.6370849609375L3.540576219558716,11.6370849609375L3.540576219558716,5.2681884765625C3.540576219558716,4.3045654296875,4.297411918640137,3.5478515625,5.260546684265137,3.5478515625ZM12.685107231140137,3.5478515625L18.731739044189453,3.5478515625C19.695850372314453,3.5478515625,20.452686309814453,4.3045654296875,20.452686309814453,5.2681884765625L20.452686309814453,11.6370849609375L12.744921684265137,11.6370849609375L12.744921684265137,3.7684326171875C12.736620903015137,3.6922607421875,12.716357231140137,3.6180419921875,12.685107231140137,3.5478515625ZM3.540576219558716,13.1295166015625L11.247363090515137,13.1295166015625L11.247363090515137,20.4510498046875L5.260546684265137,20.4510498046875C4.297411918640137,20.4510498046875,3.540576219558716,19.6944580078125,3.540576219558716,18.7305908203125ZM12.744921684265137,13.1295166015625L20.452686309814453,13.1295166015625L20.452686309814453,18.7305908203125C20.452686309814453,19.6944580078125,19.695850372314453,20.4510498046875,18.731739044189453,20.4510498046875L12.744921684265137,20.4510498046875Z" style="display: inline; stroke-linecap: round; stroke-linejoin: round;"/></g></g></g></g></g></g></g></g></g></svg>