<svg width="24" xmlns="http://www.w3.org/2000/svg" height="24" id="screenshot-701359cf-58fd-8059-8006-76fe3ecdbee0" viewBox="0 0 24 24" xmlns:xlink="http://www.w3.org/1999/xlink" fill="none" version="1.1"><g id="shape-701359cf-58fd-8059-8006-76fe3ecdbee0"><g class="frame-container-wrapper"><g class="frame-container-blur"><g class="frame-container-shadows"><g fill="none"><g class="fills" id="fills-701359cf-58fd-8059-8006-76fe3ecdbee0"><rect rx="0" ry="0" x="0" y="0" width="24" height="24.000000000000455" transform="matrix(1, 0, 0, 1, 0, 0)" class="frame-background"/></g><g class="frame-children"><g id="shape-39defeb7-7fd6-80d5-8006-9842c1dc072f" rx="0" ry="0" style="fill: rgb(0, 0, 0);"><g id="shape-39defeb7-7fd6-80d5-8006-9842c1dc0733" style="opacity: 1;"><g class="fills" id="fills-39defeb7-7fd6-80d5-8006-9842c1dc0733"><path d="M11.997118949890137,5.86376953125C10.909228324890137,5.86376953125,9.930224418640137,6.3265380859375,9.113574028015137,6.8211669921875C8.287890434265137,7.3216552734375,7.574511528015137,7.9140625,7.086474418640137,8.353759765625C6.223681449890137,9.1304931640625,6.223681449890137,10.5321044921875,7.086474418640137,11.3084716796875C7.574511528015137,11.7481689453125,8.287890434265137,12.3409423828125,9.113574028015137,12.841552734375C9.929247856140137,13.3360595703125,10.909228324890137,13.795654296875,11.997118949890137,13.795654296875C13.085986137390137,13.795654296875,14.067919731140137,13.3360595703125,14.884325981140137,12.841552734375C15.709033012390137,12.3419189453125,16.419727325439453,11.75146484375,16.908740997314453,11.311767578125C17.773242950439453,10.5357666015625,17.774219512939453,9.1309814453125,16.911426544189453,8.353759765625L16.908740997314453,8.3504638671875C16.419727325439453,7.9112548828125,15.709033012390137,7.3206787109375,14.884325981140137,6.8211669921875C14.067919731140137,6.326171875,13.085986137390137,5.86376953125,11.997118949890137,5.86376953125ZM11.997118949890137,7.5338134765625C12.576708793640137,7.5338134765625,13.338915824890137,7.833740234375,14.018847465515137,8.2462158203125C14.708300590515137,8.6636962890625,15.357470512390137,9.196533203125,15.796679496765137,9.5909423828125C15.971240043640137,9.747802734375,15.971240043640137,9.9144287109375,15.796679496765137,10.0712890625C15.357470512390137,10.4661865234375,14.708300590515137,10.99853515625,14.018847465515137,11.416015625C13.338915824890137,11.8289794921875,12.576708793640137,12.1287841796875,11.997118949890137,12.1287841796875C11.418749809265137,12.1287841796875,10.659228324890137,11.8289794921875,9.978320121765137,11.416015625C9.288866996765137,10.99853515625,8.640185356140137,10.4661865234375,8.200976371765137,10.0712890625C8.026659965515137,9.9149169921875,8.026659965515137,9.747802734375,8.200976371765137,9.5909423828125C8.640185356140137,9.196533203125,9.288866996765137,8.6636962890625,9.978320121765137,8.2462158203125C10.659228324890137,7.833740234375,11.418749809265137,7.5338134765625,11.997118949890137,7.5338134765625Z" style="display: inline; fill-rule: evenodd; stroke-linejoin: bevel; fill: rgb(0, 0, 0); fill-opacity: 1;"/></g></g><g id="shape-39defeb7-7fd6-80d5-8006-9842c1dc0734" style="opacity: 1;"><g class="fills" id="fills-39defeb7-7fd6-80d5-8006-9842c1dc0734"><path d="M12.998339653015137,9.824462890625C12.998339653015137,10.092529296875,12.892138481140137,10.3494873046875,12.703173637390137,10.5384521484375C12.512988090515137,10.7281494140625,12.256396293640137,10.834228515625,11.988818168640137,10.834228515625C11.720263481140137,10.834228515625,11.463915824890137,10.7281494140625,11.274706840515137,10.5384521484375C11.084521293640137,10.3494873046875,10.978564262390137,10.092529296875,10.978564262390137,9.824462890625C10.978564262390137,9.2666015625,11.430712699890137,8.814453125,11.988818168640137,8.814453125C12.546191215515137,8.814453125,12.998339653015137,9.2666015625,12.998339653015137,9.824462890625Z" style="display: inline; stroke-width: 0.422809; stroke-linecap: round; stroke-linejoin: round; fill: rgb(0, 0, 0); fill-opacity: 1;"/></g></g><g id="shape-39defeb7-7fd6-80d5-8006-9842c1dc0732" style="opacity: 1;"><g class="fills" id="fills-39defeb7-7fd6-80d5-8006-9842c1dc0732"><path d="M7.002490043640137,2.0947265625C5.306689262390137,2.0947265625,3.917041063308716,3.4842529296875,3.917041063308716,5.1800537109375C3.915087938308716,9.7298583984375,3.917041063308716,14.270751953125,3.917041063308716,18.820068359375C3.917041063308716,18.843994140625,3.919726610183716,18.8665771484375,3.920703172683716,18.89013671875C3.919726610183716,18.9136962890625,3.917041063308716,18.936767578125,3.917041063308716,18.960693359375C3.919726610183716,18.977783203125,3.923388719558716,18.994384765625,3.928027391433716,19.011474609375C4.027880668640137,20.6192626953125,5.372118949890137,21.9058837890625,7.004199028015137,21.9058837890625L19.353076934814453,21.9058837890625C19.756153106689453,21.904052734375,20.082080841064453,21.577880859375,20.083789825439453,21.175048828125L20.083789825439453,16.6129150390625L20.083789825439453,2.8250732421875C20.082080841064453,2.4222412109375,19.756153106689453,2.0960693359375,19.353076934814453,2.0947265625ZM7.000536918640137,3.5552978515625L7.002490043640137,3.5552978515625L18.619434356689453,3.5552978515625L18.615772247314453,15.882568359375L7.002490043640137,15.882568359375C6.407275199890137,15.882568359375,5.851122856140137,16.0570068359375,5.377734184265137,16.351318359375C5.377734184265137,12.626953125,5.376757621765137,8.9058837890625,5.377734184265137,5.1800537109375C5.377734184265137,4.2713623046875,6.091845512390137,3.5552978515625,7.000536918640137,3.5552978515625ZM7.002490043640137,17.34375L18.615772247314453,17.34375L18.613819122314453,20.44482421875L7.000536918640137,20.44482421875C6.115038871765137,20.44482421875,5.417529106140137,19.7652587890625,5.381396293640137,18.89013671875C5.419238090515137,18.015869140625,6.117724418640137,17.34375,7.002490043640137,17.34375Z" style="display: inline; stroke-linecap: round; stroke-linejoin: round; fill: rgb(0, 0, 0); fill-opacity: 1;"/></g></g></g></g></g></g></g></g></g></svg>