<svg width="24" xmlns="http://www.w3.org/2000/svg" height="24" id="screenshot-ddb6f8a0-d5bf-8015-8006-c546835e3725" viewBox="0 0 24 24" xmlns:xlink="http://www.w3.org/1999/xlink" fill="none" version="1.1"><g id="shape-ddb6f8a0-d5bf-8015-8006-c546835e3725"><g class="frame-container-wrapper"><g class="frame-container-blur"><g class="frame-container-shadows"><g fill="none"><g class="fills" id="fills-ddb6f8a0-d5bf-8015-8006-c546835e3725"><rect rx="0" ry="0" x="0" y="0" width="24" height="24.000000000000455" transform="matrix(1, 0, 0, 1, 0, 0)" class="frame-background"/></g><g class="frame-children"><g id="shape-ddb6f8a0-d5bf-8015-8006-c54679f11664" width="24" height="24" version="1.1" rx="0" ry="0" style="fill: rgb(0, 0, 0);"><g id="shape-ddb6f8a0-d5bf-8015-8006-c54679f76248" style="opacity: 1;"><g class="fills" id="fills-ddb6f8a0-d5bf-8015-8006-c54679f76248"><path d="M5.765185356140137,2.0193092823028564C4.210497856140137,2.0193092823028564,2.952685594558716,3.3217995166778564,2.952685594558716,4.8824687004089355L2.952685594558716,13.135764122009277C2.952685594558716,14.696677207946777,4.210497856140137,15.999411582946777,5.765185356140137,15.999411582946777L7.980761528015137,15.999411582946777C8.198534965515137,15.999899864196777,8.408984184265137,15.914084434509277,8.564013481140137,15.760397911071777C8.719042778015137,15.606345176696777,8.805712699890137,15.397360801696777,8.806689262390137,15.179099082946777C8.807665824890137,14.959494590759277,8.720751762390137,14.749167442321777,8.565722465515137,14.593771934509277C8.410693168640137,14.438742637634277,8.199511528015137,14.351950645446777,7.980761528015137,14.352927207946777L5.765185356140137,14.352927207946777C5.116503715515137,14.352927207946777,4.599902153015137,13.835227012634277,4.599902153015137,13.135764122009277L4.599902153015137,8.101218223571777L4.916308403015137,8.101218223571777L19.355274200439453,8.101218223571777L19.355274200439453,13.135764122009277C19.355274200439453,13.835227012634277,18.838672637939453,14.352927207946777,18.189014434814453,14.352927207946777L15.937548637390137,14.352927207946777C15.718798637390137,14.353415489196777,15.510302543640137,14.441061973571777,15.356249809265137,14.596091270446777C15.202197074890137,14.751120567321777,15.116259574890137,14.960471153259277,15.117236137390137,15.179099082946777C15.119189262390137,15.631247520446777,15.485400199890137,15.997580528259277,15.937548637390137,15.999411582946777L18.189014434814453,15.999411582946777C19.744678497314453,15.999411582946777,21.001514434814453,14.696677207946777,21.001514434814453,13.135764122009277L21.001514434814453,4.8824687004089355C21.001514434814453,3.3217995166778564,19.744678497314453,2.0193092823028564,18.189014434814453,2.0193092823028564ZM5.765185356140137,3.6639626026153564L18.189990997314453,3.6639626026153564C18.838672637939453,3.6639626026153564,19.355274200439453,4.1834940910339355,19.355274200439453,4.8824687004089355L19.355274200439453,6.3803935050964355L4.916308403015137,6.3803935050964355L4.599902153015137,6.3803935050964355L4.599902153015137,4.8824687004089355C4.599902153015137,4.1834940910339355,5.116503715515137,3.6639626026153564,5.765185356140137,3.6639626026153564Z" style="display: inline; stroke-linecap: square; stroke-linejoin: round; fill: rgb(0, 0, 0); fill-opacity: 1;"/></g></g><g id="shape-ddb6f8a0-d5bf-8015-8006-c54679f7d1d8" style="opacity: 1;"><g class="fills" id="fills-ddb6f8a0-d5bf-8015-8006-c54679f7d1d8"><path d="M12.009570121765137,10.921408653259277C11.771288871765137,10.921408653259277,11.541552543640137,11.016013145446777,11.372851371765137,11.184836387634277C11.203906059265137,11.353659629821777,11.108935356140137,11.583029747009277,11.109911918640137,11.821555137634277L11.109911918640137,19.274559020996094L8.540820121765137,17.276390075683594C8.149706840515137,16.971458435058594,7.585741996765137,17.040306091308594,7.279589653015137,17.430931091308594C7.130908012390137,17.620018005371094,7.065478324890137,17.860862731933594,7.095995903015137,18.099388122558594C7.126269340515137,18.337913513183594,7.251025199890137,18.554344177246094,7.441943168640137,18.700096130371094L11.456835746765137,21.822898864746094C11.463183403015137,21.827049255371094,11.469775199890137,21.830711364746094,11.476122856140137,21.834861755371094C11.493700981140137,21.847312927246094,11.512011528015137,21.858909606933594,11.530566215515137,21.870018005371094C11.592333793640137,21.909690856933594,11.658740043640137,21.941917419433594,11.728075981140137,21.965476989746094C11.739062309265137,21.969627380371094,11.751025199890137,21.973777770996094,11.762255668640137,21.977439880371094C11.849902153015137,22.003318786621094,11.940234184265137,22.015769958496094,12.031542778015137,22.014305114746094C12.123827934265137,22.011131286621094,12.214404106140137,21.994041442871094,12.301074028015137,21.963645935058594C12.308398246765137,21.960838317871094,12.316699028015137,21.958518981933594,12.324023246765137,21.955711364746094C12.429247856140137,21.917503356933594,12.527148246765137,21.859764099121094,12.611132621765137,21.785667419433594L16.585254669189453,18.700096130371094C16.775440216064453,18.553001403808594,16.897998809814453,18.335716247558594,16.927539825439453,18.097557067871094C16.956348419189453,17.859031677246094,16.888965606689453,17.618675231933594,16.740283966064453,17.430442810058594C16.433887481689453,17.040306091308594,15.869189262390137,16.971092224121094,15.478075981140137,17.276390075683594L12.908251762390137,19.276390075683594L12.908251762390137,11.821555137634277C12.908251762390137,11.583029747009277,12.813281059265137,11.353659629821777,12.644335746765137,11.184836387634277C12.475390434265137,11.016013145446777,12.246630668640137,10.921408653259277,12.007616996765137,10.921408653259277Z" style="display: inline; stroke-linecap: round; stroke-linejoin: round; fill: rgb(0, 0, 0); fill-opacity: 1;"/></g></g></g></g></g></g></g></g></g></svg>