<svg width="24" xmlns="http://www.w3.org/2000/svg" height="24" id="screenshot-701359cf-58fd-8059-8006-76ef39d754cb" viewBox="0 0 24 24" xmlns:xlink="http://www.w3.org/1999/xlink" fill="none" version="1.1"><g id="shape-701359cf-58fd-8059-8006-76ef39d754cb"><g class="frame-container-wrapper"><g class="frame-container-blur"><g class="frame-container-shadows"><g fill="none"><g class="fills" id="fills-701359cf-58fd-8059-8006-76ef39d754cb"><rect rx="0" ry="0" x="0" y="0" width="24" height="24" transform="matrix(1, 0, 0, 1, 0, 0)" class="frame-background"/></g><g class="frame-children"><g id="shape-701359cf-58fd-8059-8006-76ed2ef1c74b" width="24" height="24" version="1.1" rx="0" ry="0" style="fill: rgb(0, 0, 0);"><g id="shape-701359cf-58fd-8059-8006-76ed2ef455ea" style="opacity: 1;"><g class="fills" id="fills-701359cf-58fd-8059-8006-76ed2ef455ea"><path d="M5.262541770935059,2.0789496898651123C3.5105886459350586,2.0789496898651123,2.0789480209350586,3.5096137523651123,2.0789480209350586,5.260468006134033L2.0789480209350586,18.739471435546875C2.0789480209350586,20.490447998046875,3.5105886459350586,21.920989990234375,5.262541770935059,21.920989990234375L18.731290817260742,21.920989990234375C20.481779098510742,21.920989990234375,21.920988082885742,20.490447998046875,21.920988082885742,18.739471435546875L21.920988082885742,5.260468006134033C21.920988082885742,3.5096137523651123,20.481779098510742,2.0789496898651123,18.731290817260742,2.0789496898651123ZM5.262541770935059,3.5479438304901123L18.731290817260742,3.5479438304901123C19.694669723510742,3.5479438304901123,20.452238082885742,4.297211170196533,20.452238082885742,5.260468006134033L20.452238082885742,11.255097389221191L3.5411062240600586,11.255097389221191L3.5411062240600586,5.260468006134033C3.5411062240600586,4.297211170196533,4.297942161560059,3.5479438304901123,5.262541770935059,3.5479438304901123ZM3.5411062240600586,12.745331764221191L20.452238082885742,12.745331764221191L20.452238082885742,18.739471435546875C20.452238082885742,19.703216552734375,19.694669723510742,20.452117919921875,18.731290817260742,20.452117919921875L5.262541770935059,20.452117919921875C4.297942161560059,20.452117919921875,3.5411062240600586,19.703216552734375,3.5411062240600586,18.739471435546875Z" style="display: inline; stroke-linecap: round; stroke-linejoin: round; fill: rgb(0, 0, 0); fill-opacity: 1;"/></g></g></g></g></g></g></g></g></g></svg>