<svg width="24" xmlns="http://www.w3.org/2000/svg" height="24" id="screenshot-63a85700-5cdb-80b5-8006-90bf4f093636" viewBox="0 0 24 24" xmlns:xlink="http://www.w3.org/1999/xlink" fill="none" version="1.1"><g id="shape-63a85700-5cdb-80b5-8006-90bf4f093636"><g class="frame-container-wrapper"><g class="frame-container-blur"><g class="frame-container-shadows"><g fill="none"><g class="fills" id="fills-63a85700-5cdb-80b5-8006-90bf4f093636"><rect rx="0" ry="0" x="0" y="0" width="24" height="24.000000000000455" transform="matrix(1, 0, 0, 1, 0, 0)" class="frame-background"/></g><g class="frame-children"><g id="shape-63a85700-5cdb-80b5-8006-90bec0ca1611" rx="0" ry="0"><g id="shape-63a85700-5cdb-80b5-8006-90be5eaf9ef5" style="opacity: 1;"><g class="fills" id="fills-63a85700-5cdb-80b5-8006-90be5eaf9ef5"><path d="M7.314229965209961,2.969665288925171C7.047384262084961,2.970763921737671,6.802267074584961,3.108459234237671,6.669454574584961,3.331481695175171L1.9922086000442505,11.14947509765625C1.8574429750442505,11.37274169921875,1.8574429750442505,11.64849853515625,1.9922086000442505,11.87237548828125L6.669454574584961,19.68975830078125C6.802267074584961,19.91253662109375,7.047384262084961,20.05047607421875,7.314229965209961,20.05157470703125L16.67726707458496,20.05157470703125C16.94679832458496,20.05340576171875,17.19606590270996,19.91510009765625,17.32985496520996,19.68975830078125L22.00710105895996,11.87237548828125C22.14186668395996,11.64849853515625,22.14186668395996,11.37274169921875,22.00710105895996,11.14947509765625L17.32985496520996,3.331481695175171C17.19606590270996,3.106261968612671,16.94679832458496,2.968200445175171,16.67726707458496,2.969665288925171ZM7.749044418334961,4.409240245819092L16.25050926208496,4.409240245819092L20.50002098083496,11.51055908203125L16.25050926208496,18.61236572265625L7.749044418334961,18.61236572265625L3.49880051612854,11.51055908203125Z" style="display: inline; stroke-linecap: round; stroke-linejoin: round; fill: rgb(0, 0, 0); fill-opacity: 1;"/></g></g></g></g></g></g></g></g></g></svg>