<svg width="24" xmlns="http://www.w3.org/2000/svg" height="24" id="screenshot-a685e3d8-c171-8090-8006-8f7873aac7f8" viewBox="0 0 24 24" xmlns:xlink="http://www.w3.org/1999/xlink" fill="none" version="1.1"><g id="shape-a685e3d8-c171-8090-8006-8f7873aac7f8"><g class="frame-container-wrapper"><g class="frame-container-blur"><g class="frame-container-shadows"><g fill="none"><g class="fills" id="fills-a685e3d8-c171-8090-8006-8f7873aac7f8"><rect rx="0" ry="0" x="0" y="0" width="24" height="24.000000000000455" transform="matrix(1, 0, 0, 1, 0, 0)" class="frame-background"/></g><g class="frame-children"><g id="shape-a685e3d8-c171-8090-8006-8f78612261d6" rx="0" ry="0"><g id="shape-a685e3d8-c171-8090-8006-8f78206cef79" style="opacity: 1;"><g class="fills" id="fills-a685e3d8-c171-8090-8006-8f78206cef79"><path d="M4.735400199890137,8.051025390625C3.238818407058716,8.051025390625,2.012500047683716,9.27734375,2.012500047683716,10.7735595703125L2.012500047683716,19.263671875C2.012500047683716,20.7603759765625,3.238818407058716,21.980712890625,4.735400199890137,21.980712890625L13.241259574890137,21.980712890625C14.737109184265137,21.980712890625,15.955859184265137,20.7603759765625,15.955859184265137,19.263671875L15.955859184265137,10.7735595703125C15.955859184265137,9.27734375,14.737109184265137,8.051025390625,13.241259574890137,8.051025390625ZM4.735400199890137,9.4453125L13.241259574890137,9.4453125C13.988574028015137,9.4453125,14.561816215515137,10.026123046875,14.561816215515137,10.7735595703125L14.561816215515137,12.789306640625L3.701953172683716,12.789306640625L3.406787157058716,12.789306640625L3.406787157058716,10.7735595703125C3.406787157058716,10.026123046875,3.988085985183716,9.4453125,4.735400199890137,9.4453125ZM3.406787157058716,14.2578125L3.701953172683716,14.2578125L14.561816215515137,14.2578125L14.561816215515137,19.263671875C14.561816215515137,20.0115966796875,13.988574028015137,20.5841064453125,13.241259574890137,20.5841064453125L4.735400199890137,20.5841064453125C3.988085985183716,20.5841064453125,3.406787157058716,20.0115966796875,3.406787157058716,19.263671875Z" style="display: inline; stroke-linecap: round; stroke-linejoin: round; fill: rgb(0, 0, 0); fill-opacity: 1;"/></g></g><g id="shape-a685e3d8-c171-8090-8006-8f78206d29f3" style="opacity: 1;"><g class="fills" id="fills-a685e3d8-c171-8090-8006-8f78206d29f3"><path d="M9.571581840515137,2.0191650390625C8.154345512390137,2.01318359375,6.987841606140137,3.1688232421875,6.987841606140137,4.5806884765625L6.987841606140137,5.3040771484375L6.987841606140137,6.0126953125L8.412646293640137,6.0126953125L8.412646293640137,5.3040771484375L8.412646293640137,4.5806884765625C8.412646293640137,3.9393310546875,8.915575981140137,3.4410400390625,9.564257621765137,3.44384765625L19.404346466064453,3.4881591796875C20.060352325439453,3.4913330078125,20.563282012939453,3.983642578125,20.563282012939453,4.6248779296875L20.563282012939453,13.4462890625C20.563282012939453,14.087646484375,20.062061309814453,14.597412109375,19.418994903564453,14.5904541015625L18.710254669189453,14.5831298828125L17.994190216064453,14.57568359375L17.979541778564453,16.00048828125L18.695606231689453,16.0078125L19.404346466064453,16.01513671875C20.826221466064453,16.029541015625,21.987842559814453,14.8585205078125,21.987842559814453,13.4462890625L21.987842559814453,4.6248779296875C21.987842559814453,3.213134765625,20.821582794189453,2.0625,19.411670684814453,2.0560302734375Z" style="display: inline; stroke-linecap: square; stroke-linejoin: round; fill: rgb(0, 0, 0); fill-opacity: 1;"/></g></g></g></g></g></g></g></g></g></svg>