<svg width="24" xmlns="http://www.w3.org/2000/svg" height="24" id="screenshot-31fe8dfc-fa8e-809b-8006-931d86106e2c" viewBox="0 0 24 24" xmlns:xlink="http://www.w3.org/1999/xlink" fill="none" version="1.1"><g id="shape-31fe8dfc-fa8e-809b-8006-931d86106e2c"><g class="frame-container-wrapper"><g class="frame-container-blur"><g class="frame-container-shadows"><g fill="none"><g class="fills" id="fills-31fe8dfc-fa8e-809b-8006-931d86106e2c"><rect rx="0" ry="0" x="0" y="0" width="24" height="24.000000000000455" transform="matrix(1, 0, 0, 1, 0, 0)" class="frame-background"/></g><g class="frame-children"><g id="shape-31fe8dfc-fa8e-809b-8006-931d61195a2c" rx="0" ry="0"><g id="shape-31fe8dfc-fa8e-809b-8006-931d2c030d0d" style="opacity: 1;"><g class="fills" id="fills-31fe8dfc-fa8e-809b-8006-931d2c030d0d"><path d="M2.99245285987854,3.282470703125C2.85133957862854,3.2760009765625,2.71193528175354,3.2982177734375,2.58840012550354,3.348876953125C2.25905442237854,3.483642578125,1.9904996156692505,3.8416748046875,1.9904996156692505,4.24169921875L1.9904996156692505,19.655517578125C1.9904996156692505,20.9630126953125,3.06813645362854,22.040283203125,4.375997543334961,22.040283203125L18.07668113708496,22.040283203125C18.73561668395996,22.040283203125,19.28639793395996,21.60986328125,19.50881004333496,21.0792236328125C19.73122215270996,20.5491943359375,19.64357566833496,19.85986328125,19.18214988708496,19.3897705078125L6.646749496459961,6.6204833984375C6.646749496459961,6.6195068359375,6.646749496459961,6.619140625,6.646749496459961,6.61865234375C6.614522933959961,6.564697265625,6.574728012084961,6.5157470703125,6.529561996459961,6.471923828125C6.490743637084961,6.43359375,6.447530746459961,6.3994140625,6.401388168334961,6.370361328125L3.64504075050354,3.5616455078125C3.46974778175354,3.383544921875,3.22878098487854,3.2930908203125,2.99245285987854,3.282470703125ZM3.48927903175354,5.5404052734375L4.930440902709961,7.0089111328125L4.470968246459961,7.468017578125C4.329854965209961,7.6087646484375,4.250509262084961,7.7996826171875,4.250509262084961,7.99951171875C4.250509262084961,8.1988525390625,4.329854965209961,8.3897705078125,4.470968246459961,8.530517578125C4.763448715209961,8.8193359375,5.234151840209961,8.8193359375,5.525655746459961,8.530517578125L5.981466293334961,8.079345703125L7.767843246459961,9.89990234375L5.999044418334961,11.6673583984375C5.856954574584961,11.80810546875,5.777608871459961,11.99951171875,5.777608871459961,12.1993408203125C5.777608871459961,12.3990478515625,5.856954574584961,12.591064453125,5.999044418334961,12.7318115234375C6.139181137084961,12.8734130859375,6.331319808959961,12.9532470703125,6.530538558959961,12.9532470703125C6.730733871459961,12.9532470703125,6.922628402709961,12.8734130859375,7.063009262084961,12.7318115234375L8.820821762084961,10.9720458984375L11.194112777709961,13.3878173828125L7.793722152709961,16.7608642578125C7.650655746459961,16.900634765625,7.569601058959961,17.0916748046875,7.568624496459961,17.29150390625C7.566671371459961,17.49169921875,7.645284652709961,17.68359375,7.786397933959961,17.8251953125C7.925802230834961,17.9674072265625,8.116720199584961,18.048095703125,8.315938949584961,18.049072265625C8.515401840209961,18.0504150390625,8.707296371459961,17.971923828125,8.848409652709961,17.8316650390625L12.246847152709961,14.46044921875L14.342061996459961,16.5970458984375L13.469259262084961,17.469970703125C13.328145980834961,17.6107177734375,13.248800277709961,17.80224609375,13.248800277709961,18.00146484375C13.248800277709961,18.2008056640625,13.328145980834961,18.391845703125,13.469259262084961,18.5325927734375C13.610372543334961,18.6737060546875,13.801534652709961,18.7530517578125,14.000753402709961,18.7530517578125C14.199972152709961,18.7530517578125,14.391134262084961,18.6737060546875,14.532247543334961,18.5325927734375L15.393087387084961,17.6656494140625L18.11281394958496,20.43701171875C18.15236473083496,20.4771728515625,18.13844871520996,20.4771728515625,18.12746238708496,20.50537109375C18.11647605895996,20.533447265625,18.13478660583496,20.534912109375,18.07668113708496,20.534912109375L4.375997543334961,20.534912109375C3.87868332862854,20.534912109375,3.48927903175354,20.15283203125,3.48927903175354,19.656005859375Z" style="display: inline; stroke-linecap: round; stroke-linejoin: round; fill: rgb(0, 0, 0); fill-opacity: 1;"/></g></g><g id="shape-31fe8dfc-fa8e-809b-8006-931d2c03543c" style="opacity: 1;"><g class="fills" id="fills-31fe8dfc-fa8e-809b-8006-931d2c03543c"><path d="M9.864278793334961,2.0206298828125C9.384542465209961,2.0548095703125,8.932394027709961,2.260986328125,8.592794418334961,2.60107421875C7.811300277709961,3.3817138671875,7.811300277709961,4.6480712890625,8.592794418334961,5.4287109375C9.221212387084961,6.0576171875,10.190206527709961,6.195068359375,10.969747543334961,5.7669677734375L18.04543113708496,12.53662109375C17.87746238708496,13.2152099609375,18.07570457458496,13.93310546875,18.56960105895996,14.4290771484375C19.35011863708496,15.209716796875,20.61623191833496,15.209716796875,21.39772605895996,14.4290771484375C22.17824363708496,13.6480712890625,22.17824363708496,12.382080078125,21.39772605895996,11.6009521484375C20.73244285583496,10.9393310546875,19.69704246520996,10.82861328125,18.90724754333496,11.335205078125L11.907247543334961,4.6337890625C12.139913558959961,3.918701171875,11.952657699584961,3.1329345703125,11.421163558959961,2.60107421875C11.010519027709961,2.19091796875,10.441915512084961,1.9791259765625,9.864278793334961,2.0206298828125Z" style="display: inline; stroke-linecap: round; paint-order: markers; fill: rgb(0, 0, 0); fill-opacity: 1;"/></g></g></g></g></g></g></g></g></g></svg>