<svg width="24" xmlns="http://www.w3.org/2000/svg" height="24" id="screenshot-0ef66420-1100-8022-8006-9da46f159854" viewBox="0 0 24 24" xmlns:xlink="http://www.w3.org/1999/xlink" fill="none" version="1.1"><g id="shape-0ef66420-1100-8022-8006-9da46f159854"><g class="frame-container-wrapper"><g class="frame-container-blur"><g class="frame-container-shadows"><g fill="none"><g class="fills" id="fills-0ef66420-1100-8022-8006-9da46f159854"><rect rx="0" ry="0" x="0" y="0" width="24" height="24.000000000000455" transform="matrix(1, 0, 0, 1, 0, 0)" class="frame-background"/></g><g class="frame-children"><g id="shape-0ef66420-1100-8022-8006-9da1a734fd30" rx="0" ry="0"><g id="shape-0ef66420-1100-8022-8006-9da0ce7f8de5" style="opacity: 1;"><g class="fills" id="fills-0ef66420-1100-8022-8006-9da0ce7f8de5"><path d="M13.098681449890137,3.1971435546875C8.802294731140137,3.1971435546875,5.203661918640137,6.262451171875,4.375048637390137,10.318359375L3.635058641433716,8.6759033203125C3.549121141433716,8.4820556640625,3.389697313308716,8.330322265625,3.192187547683716,8.253662109375C2.993701219558716,8.177978515625,2.774218797683716,8.18310546875,2.580371141433716,8.2689208984375C2.385546922683716,8.3560791015625,2.234423875808716,8.517578125,2.159472703933716,8.7169189453125C2.084033250808716,8.916259765625,2.091357469558716,9.1376953125,2.179980516433716,9.3314208984375L3.826953172683716,12.9781494140625C4.008837699890137,13.3790283203125,4.481249809265137,13.55712890625,4.883593559265137,13.376220703125L8.530077934265137,11.73193359375C8.724902153015137,11.644287109375,8.876269340515137,11.4827880859375,8.950976371765137,11.2825927734375C9.025683403015137,11.082763671875,9.017382621765137,10.861328125,8.927783012390137,10.6676025390625C8.746142387390137,10.2662353515625,8.273730278015137,10.088134765625,7.871386528015137,10.2689208984375L5.857958793640137,11.1810302734375C6.308154106140137,7.576416015625,9.368945121765137,4.7984619140625,13.098681449890137,4.7984619140625C14.884081840515137,4.7984619140625,16.511768341064453,5.4361572265625,17.779590606689453,6.4976806640625C17.942188262939453,6.634765625,18.152393341064453,6.7021484375,18.363819122314453,6.68408203125C18.575977325439453,6.6661376953125,18.771533966064453,6.5645751953125,18.908985137939453,6.4017333984375C19.045703887939453,6.2384033203125,19.112110137939453,6.027099609375,19.092823028564453,5.81494140625C19.073291778564453,5.6026611328125,18.970020294189453,5.4071044921875,18.804737091064453,5.27099609375C17.261035919189453,3.9786376953125,15.266161918640137,3.1966552734375,13.097704887390137,3.1966552734375ZM18.787403106689453,9.7850341796875C18.575000762939453,9.7850341796875,18.371143341064453,9.869384765625,18.221729278564453,10.0194091796875L15.387011528015137,12.845703125C15.235644340515137,12.99609375,15.149950981140137,13.200439453125,15.149950981140137,13.4140625C15.149950981140137,13.627685546875,15.235644340515137,13.8321533203125,15.387011528015137,13.9825439453125C15.537402153015137,14.13427734375,15.742236137390137,14.21923828125,15.955370903015137,14.21923828125C16.169483184814453,14.21923828125,16.373340606689453,14.13427734375,16.523731231689453,13.9825439453125L18.398731231689453,12.1033935546875C18.397022247314453,16.142578125,15.137988090515137,19.400390625,11.098193168640137,19.400390625C8.366747856140137,19.400390625,5.996386528015137,17.9083251953125,4.742236137390137,15.695068359375C4.637988090515137,15.5101318359375,4.464648246765137,15.3740234375,4.259814262390137,15.3172607421875C4.054980278015137,15.260498046875,3.836230516433716,15.2877197265625,3.650683641433716,15.3924560546875C3.268603563308716,15.6097412109375,3.134082078933716,16.0946044921875,3.348193407058716,16.478515625C4.877001762390137,19.177001953125,7.781786918640137,21.001708984375,11.098193168640137,21.001708984375C15.734911918640137,21.001708984375,19.557666778564453,17.4302978515625,19.963672637939453,12.896484375L21.048877716064453,13.9825439453125C21.361621856689453,14.29296875,21.866504669189453,14.29296875,22.178272247314453,13.9825439453125C22.329639434814453,13.8321533203125,22.415576934814453,13.627685546875,22.415576934814453,13.4140625C22.415576934814453,13.200439453125,22.329639434814453,12.99609375,22.178272247314453,12.845703125L19.352100372314453,10.0194091796875C19.202442169189453,9.869873046875,18.999561309814453,9.785400390625,18.787403106689453,9.7850341796875Z" style="display: inline; stroke-linecap: round; stroke-linejoin: round; fill: rgb(0, 0, 0); fill-opacity: 1;"/></g></g></g></g></g></g></g></g></g></svg>