<svg width="24" xmlns="http://www.w3.org/2000/svg" height="24" id="screenshot-e4f319ee-d8cb-80c4-8006-fcc30fc0225d" viewBox="0 0 24 24" xmlns:xlink="http://www.w3.org/1999/xlink" fill="none" version="1.1"><g id="shape-e4f319ee-d8cb-80c4-8006-fcc30fc0225d"><g class="frame-container-wrapper"><g class="frame-container-blur"><g class="frame-container-shadows"><g fill="none"><g class="fills" id="fills-e4f319ee-d8cb-80c4-8006-fcc30fc0225d"><rect rx="0" ry="0" x="0" y="0" width="24" height="24.000000000000455" transform="matrix(1, 0, 0, 1, 0, 0)" class="frame-background"/></g><g class="frame-children"><g id="shape-e4f319ee-d8cb-80c4-8006-fcc30fc51b0a" width="24" height="24" version="1.1" rx="0" ry="0" style="fill: rgb(0, 0, 0);"><g id="shape-e4f319ee-d8cb-80c4-8006-fcc30fc54d49" style="opacity: 1;"><g class="fills" id="fills-e4f319ee-d8cb-80c4-8006-fcc30fc54d49"><path d="M5.249267578125,3.2884521484375C3.51806640625,3.2884521484375,2.105712890625,4.7093505859375,2.105712890625,6.4403076171875L2.105712890625,17.85205078125C2.105712890625,19.5830078125,3.51806640625,20.9962158203125,5.249267578125,20.9962158203125L18.7509765625,20.9962158203125C20.48193359375,20.9962158203125,21.8955078125,19.5830078125,21.8955078125,17.85205078125L21.8955078125,6.4403076171875C21.8955078125,4.7093505859375,20.48193359375,3.2884521484375,18.7509765625,3.2884521484375ZM5.249267578125,4.6771240234375L18.7509765625,4.6771240234375C19.739013671875,4.6771240234375,20.51416015625,5.4521484375,20.51416015625,6.4403076171875L20.51416015625,8.131591796875L3.48583984375,8.131591796875L3.48583984375,6.4403076171875C3.48583984375,5.4521484375,4.260986328125,4.6771240234375,5.249267578125,4.6771240234375ZM3.48583984375,9.8663330078125L20.51416015625,9.8663330078125L20.51416015625,17.85205078125C20.51416015625,18.84033203125,19.739013671875,19.6153564453125,18.7509765625,19.6153564453125L5.249267578125,19.6153564453125C4.260986328125,19.6153564453125,3.48583984375,18.84033203125,3.48583984375,17.85205078125Z" style="display: inline; stroke-linecap: round; stroke-linejoin: round; fill: rgb(0, 0, 0); fill-opacity: 1;"/></g></g><g id="shape-e4f319ee-d8cb-80c4-8006-fcc35f731b4d" style="opacity: 1;"><g class="fills" id="fills-e4f319ee-d8cb-80c4-8006-fcc35f731b4d"><path d="M11.998291015625,11.0001220703125C10.82421875,11.0001220703125,9.767578125,11.4669189453125,8.88623046875,11.9656982421875C7.9951171875,12.4705810546875,7.22509765625,13.068115234375,6.6982421875,13.5115966796875C5.766845703125,14.294921875,5.766845703125,15.7086181640625,6.6982421875,16.49169921875C7.22509765625,16.9351806640625,7.9951171875,17.532958984375,8.88623046875,18.0379638671875C9.7666015625,18.53662109375,10.82421875,19.000244140625,11.998291015625,19.000244140625C13.173828125,19.000244140625,14.2333984375,18.53662109375,15.114501953125,18.0379638671875C16.004638671875,17.533935546875,16.771728515625,16.9383544921875,17.299560546875,16.4949951171875C18.232666015625,15.7122802734375,18.233642578125,14.29541015625,17.302490234375,13.5115966796875L17.299560546875,13.5081787109375C16.771728515625,13.065185546875,16.004638671875,12.4696044921875,15.114501953125,11.9656982421875C14.2333984375,11.466552734375,13.173828125,11.0001220703125,11.998291015625,11.0001220703125ZM11.998291015625,12.6844482421875C12.6240234375,12.6844482421875,13.44677734375,12.987060546875,14.180419921875,13.403076171875C14.924560546875,13.8240966796875,15.625244140625,14.361572265625,16.099365234375,14.7593994140625C16.287841796875,14.9176025390625,16.287841796875,15.0855712890625,16.099365234375,15.243896484375C15.625244140625,15.64208984375,14.924560546875,16.1790771484375,14.180419921875,16.60009765625C13.44677734375,17.0164794921875,12.6240234375,17.3189697265625,11.998291015625,17.3189697265625C11.3740234375,17.3189697265625,10.554443359375,17.0164794921875,9.819580078125,16.60009765625C9.075439453125,16.1790771484375,8.375244140625,15.64208984375,7.901123046875,15.243896484375C7.713134765625,15.0860595703125,7.713134765625,14.9176025390625,7.901123046875,14.7593994140625C8.375244140625,14.361572265625,9.075439453125,13.8240966796875,9.819580078125,13.403076171875C10.554443359375,12.987060546875,11.3740234375,12.6844482421875,11.998291015625,12.6844482421875Z" style="display: inline; fill-rule: evenodd; stroke-linejoin: bevel; fill: rgb(0, 0, 0); fill-opacity: 1;"/></g></g><g id="shape-e4f319ee-d8cb-80c4-8006-fcc38b51b2b3"><g class="fills" id="fills-e4f319ee-d8cb-80c4-8006-fcc38b51b2b3"><ellipse cx="12" cy="15" rx="1" ry="1" transform="matrix(1, 0, 0, 1, 0, 0)" style="fill: rgb(0, 0, 0); fill-opacity: 1;"/></g></g></g></g></g></g></g></g></g></svg>