<svg width="24" xmlns="http://www.w3.org/2000/svg" height="24" id="screenshot-fb6cc112-2b27-8045-8006-5aab63cce847" viewBox="0 0 24 24" xmlns:xlink="http://www.w3.org/1999/xlink" fill="none" version="1.1"><g id="shape-fb6cc112-2b27-8045-8006-5aab63cce847"><g class="frame-container-wrapper"><g class="frame-container-blur"><g class="frame-container-shadows"><g fill="none"><g class="fills" id="fills-fb6cc112-2b27-8045-8006-5aab63cce847"><rect rx="0" ry="0" x="0" y="0" width="24" height="24.000000000000455" transform="matrix(1, 0, 0, 1, 0, 0)" class="frame-background"/></g><g class="frame-children"><g id="shape-fb6cc112-2b27-8045-8006-5aab4f0a79d9" width="24" height="24" version="1.1" rx="0" ry="0" style="fill: rgb(0, 0, 0);"><g id="shape-fb6cc112-2b27-8045-8006-5aab4f0def4d" style="opacity: 1;"><g class="fills" id="fills-fb6cc112-2b27-8045-8006-5aab4f0def4d"><path d="M13.932177543640137,2.001953125C9.482226371765137,2.001953125,5.858447074890137,5.646728515625,5.858447074890137,10.12109375C5.858447074890137,12.244873046875,6.676806449890137,14.1839599609375,8.010790824890137,15.634765625L2.514941453933716,20.44921875C2.211962938308716,20.716552734375,2.182421922683716,21.178466796875,2.448535203933716,21.482421875C2.715869188308716,21.7852783203125,3.177783250808716,21.8150634765625,3.481738328933716,21.548828125L9.106249809265137,16.630859375C10.454150199890137,17.6468505859375,12.124560356140137,18.25,13.932177543640137,18.25C18.382373809814453,18.25,22.002246856689453,14.595458984375,22.002246856689453,10.12109375C22.002246856689453,5.646728515625,18.382373809814453,2.001953125,13.932177543640137,2.001953125ZM13.932177543640137,3.552734375C17.537403106689453,3.552734375,20.443653106689453,6.4791259765625,20.443653106689453,10.12109375C20.443653106689453,13.7630615234375,17.537403106689453,16.69921875,13.932177543640137,16.69921875C10.327197074890137,16.69921875,7.415087699890137,13.7630615234375,7.415087699890137,10.12109375C7.415087699890137,6.4791259765625,10.327197074890137,3.552734375,13.932177543640137,3.552734375Z" style="display: inline; stroke-linecap: round; stroke-linejoin: bevel; fill: rgb(0, 0, 0); fill-opacity: 1;"/></g></g><g id="shape-fb6cc112-2b27-8045-8006-5aab4f0e5a1f" style="opacity: 1;"><g class="fills" id="fills-fb6cc112-2b27-8045-8006-5aab4f0e5a1f"><path d="M13.848193168640137,5.03125C13.696093559265137,5.0550537109375,13.555468559265137,5.1260986328125,13.446093559265137,5.234375L9.446093559265137,9.236328125C8.981982231140137,9.697265625,9.307665824890137,10.4892578125,9.961718559265137,10.490234375L11.231249809265137,10.490234375L11.231249809265137,13.75390625C11.232958793640137,14.1566162109375,11.558886528015137,14.4827880859375,11.961718559265137,14.484375L15.963427543640137,14.484375C16.366260528564453,14.4827880859375,16.692188262939453,14.1566162109375,16.693897247314453,13.75390625L16.693897247314453,10.490234375L17.963428497314453,10.490234375C18.618457794189453,10.4910888671875,18.945850372314453,9.6978759765625,18.481006622314453,9.236328125L14.479052543640137,5.234375C14.313281059265137,5.070068359375,14.078906059265137,4.9947509765625,13.848193168640137,5.03125ZM13.963427543640137,6.79296875L16.148975372314453,8.970703125L11.776171684265137,8.970703125ZM12.694140434265137,10.439453125L15.232958793640137,10.439453125L15.232958793640137,13.0234375L12.694140434265137,13.0234375Z" style="display: inline; stroke-linecap: round; stroke-linejoin: round; fill: rgb(0, 0, 0); fill-opacity: 1;"/></g></g></g></g></g></g></g></g></g></svg>