<svg width="24" xmlns="http://www.w3.org/2000/svg" height="24" id="screenshot-62f3a77a-6931-802e-8006-9c1cc814ffd9" viewBox="0 0 24 24" xmlns:xlink="http://www.w3.org/1999/xlink" fill="none" version="1.1"><g id="shape-62f3a77a-6931-802e-8006-9c1cc814ffd9"><g class="frame-container-wrapper"><g class="frame-container-blur"><g class="frame-container-shadows"><g fill="none"><g class="fills" id="fills-62f3a77a-6931-802e-8006-9c1cc814ffd9"><rect rx="0" ry="0" x="0" y="0" width="24" height="24.000000000000455" transform="matrix(1, 0, 0, 1, 0, 0)" class="frame-background"/></g><g class="frame-children"><g id="shape-62f3a77a-6931-802e-8006-9c1b575bbda2" rx="0" ry="0" style="fill: rgb(0, 0, 0);"><g id="shape-62f3a77a-6931-802e-8006-9c1b575fa23a"><g class="fills" id="fills-62f3a77a-6931-802e-8006-9c1b575fa23a"><path d="M20.000049591064453,18.5625L20.000049591064453,19.21875C20.000049591064453,20.30615234375,19.104541778564453,21.1875,18.000049591064453,21.1875L2.000048875808716,21.1875C0.895556628704071,21.1875,0.00004882812572759576,20.30615234375,0.00004882812572759576,19.21875L0.00004882812572759576,8.71875C0.00004882812572759576,7.6314697265625,0.895556628704071,6.75,2.000048875808716,6.75L2.666796922683716,6.75L2.666796922683716,15.28125C2.666796922683716,17.090576171875,4.162158012390137,18.5625,6.000048637390137,18.5625L20.000049591064453,18.5625ZM24.000049591064453,15.28125L24.000049591064453,4.78125C24.000049591064453,3.6939697265625,23.104541778564453,2.8125,22.000049591064453,2.8125L6.000048637390137,2.8125C4.895556449890137,2.8125,4.000048637390137,3.6939697265625,4.000048637390137,4.78125L4.000048637390137,15.28125C4.000048637390137,16.36865234375,4.895556449890137,17.25,6.000048637390137,17.25L22.000049591064453,17.25C23.104541778564453,17.25,24.000049591064453,16.36865234375,24.000049591064453,15.28125ZM10.666796684265137,6.75C10.666796684265137,7.8372802734375,9.771288871765137,8.71875,8.666796684265137,8.71875C7.562060356140137,8.71875,6.666796684265137,7.8372802734375,6.666796684265137,6.75C6.666796684265137,5.6627197265625,7.562060356140137,4.78125,8.666796684265137,4.78125C9.771288871765137,4.78125,10.666796684265137,5.6627197265625,10.666796684265137,6.75ZM6.666796684265137,12.65625L8.979784965515137,10.3792724609375C9.175097465515137,10.18701171875,9.491747856140137,10.18701171875,9.687060356140137,10.3792724609375L11.333300590515137,12L16.979785919189453,6.4417724609375C17.175098419189453,6.24951171875,17.491748809814453,6.24951171875,17.687061309814453,6.4417724609375L21.333301544189453,10.03125L21.333301544189453,14.625L6.666796684265137,14.625L6.666796684265137,12.65625Z" style="fill: rgb(0, 0, 0); fill-opacity: 1;"/></g></g></g></g></g></g></g></g></g></svg>