<svg width="24" xmlns="http://www.w3.org/2000/svg" height="24" id="screenshot-a692a29b-b9de-80cb-8006-a15c3c140211" viewBox="0 0 24 24" xmlns:xlink="http://www.w3.org/1999/xlink" fill="none" version="1.1"><g id="shape-a692a29b-b9de-80cb-8006-a15c3c140211"><g class="frame-container-wrapper"><g class="frame-container-blur"><g class="frame-container-shadows"><g fill="none"><g class="fills" id="fills-a692a29b-b9de-80cb-8006-a15c3c140211"><rect rx="0" ry="0" x="0" y="0" width="24" height="24.000000000000455" transform="matrix(1, 0, 0, 1, 0, 0)" class="frame-background"/></g><g class="frame-children"><g id="shape-a692a29b-b9de-80cb-8006-a15bf46f037c" rx="0" ry="0"><g id="shape-a692a29b-b9de-80cb-8006-a15ba35a7227" style="opacity: 1;"><g class="fills" id="fills-a692a29b-b9de-80cb-8006-a15ba35a7227"><ellipse cx="11.935748031495677" cy="11.97732283464461" rx="3.998740157479915" ry="3.99874015748037" transform="matrix(1, 0, 0, 1, 0, 0)" style="stroke-linejoin: round; stroke-dasharray: none; display: inline; fill: rgb(0, 0, 0); fill-opacity: 1;"/></g><g id="strokes-381e6b6b-1aa0-80bd-8007-29caddc2eca7-a692a29b-b9de-80cb-8006-a15ba35a7227" class="strokes" style="stroke-linejoin: round; stroke-dasharray: none; display: inline;"><g class="inner-stroke-shape" transform="matrix(1, 0, 0, 1, 0, 0)"><defs><clipPath id="inner-stroke-render-17-a692a29b-b9de-80cb-8006-a15ba35a7227-0"><use href="#stroke-shape-render-17-a692a29b-b9de-80cb-8006-a15ba35a7227-0"/></clipPath><ellipse cx="11.935748031495677" cy="11.97732283464461" rx="3.998740157479915" ry="3.99874015748037" id="stroke-shape-render-17-a692a29b-b9de-80cb-8006-a15ba35a7227-0" style="fill: none; stroke-width: 0.30574; stroke: rgb(0, 0, 0); stroke-opacity: 1;"/></defs><use href="#stroke-shape-render-17-a692a29b-b9de-80cb-8006-a15ba35a7227-0" clip-path="url('#inner-stroke-render-17-a692a29b-b9de-80cb-8006-a15ba35a7227-0')"/></g></g></g><g id="shape-a692a29b-b9de-80cb-8006-a15ba35e44e3" style="opacity: 1;"><g class="fills" id="fills-a692a29b-b9de-80cb-8006-a15ba35e44e3"><path d="M11.936572074890137,5.327880859375C15.615283012390137,5.327880859375,18.578418731689453,8.299072265625,18.578418731689453,11.97802734375C18.578418731689453,15.656982421875,15.615283012390137,18.6226806640625,11.936572074890137,18.6226806640625C8.257616996765137,18.6226806640625,5.283495903015137,15.656982421875,5.283495903015137,11.97802734375C5.283495903015137,8.299072265625,8.257616996765137,5.327880859375,11.936572074890137,5.327880859375ZM11.936572074890137,4.0291748046875C7.554491996765137,4.0291748046875,3.985156297683716,7.596923828125,3.985156297683716,11.97802734375C3.985156297683716,16.359619140625,7.554491996765137,19.92138671875,11.936572074890137,19.92138671875C16.317676544189453,19.92138671875,19.879444122314453,16.359619140625,19.879444122314453,11.97802734375C19.879444122314453,7.596923828125,16.317676544189453,4.0291748046875,11.936572074890137,4.0291748046875Z" style="display: inline; stroke-linecap: round; stroke-linejoin: round; fill: rgb(0, 0, 0); fill-opacity: 1;"/></g></g></g></g></g></g></g></g></g></svg>