<svg width="24" xmlns="http://www.w3.org/2000/svg" height="24" id="screenshot-07e9d773-d858-80af-8006-8f46439447e7" viewBox="0 0 24 24" xmlns:xlink="http://www.w3.org/1999/xlink" fill="none" version="1.1"><g id="shape-07e9d773-d858-80af-8006-8f46439447e7"><g class="frame-container-wrapper"><g class="frame-container-blur"><g class="frame-container-shadows"><g fill="none"><g class="fills" id="fills-07e9d773-d858-80af-8006-8f46439447e7"><rect rx="0" ry="0" x="0" y="0" width="24" height="24.000000000000455" transform="matrix(1, 0, 0, 1, 0, 0)" class="frame-background"/></g><g class="frame-children"><g id="shape-07e9d773-d858-80af-8006-8f460ee43de2" rx="0" ry="0"><g id="shape-07e9d773-d858-80af-8006-8f45be793a77" style="opacity: 1;"><g class="fills" id="fills-07e9d773-d858-80af-8006-8f45be793a77"><path d="M3.55934739112854,7.8907470703125C3.39235520362854,7.9169921875,3.23830246925354,7.9954833984375,3.11842942237854,8.115478515625C2.80666184425354,8.4278564453125,2.80666184425354,8.9339599609375,3.11842942237854,9.2462158203125L6.368429183959961,12.498046875L3.11842942237854,15.748291015625C2.80666184425354,16.060791015625,2.80666184425354,16.5667724609375,3.11842942237854,16.8792724609375C3.43019700050354,17.1910400390625,3.93678879737854,17.1910400390625,4.248556137084961,16.8792724609375L7.501241683959961,13.6270751953125L10.751241683959961,16.8792724609375C11.063009262084961,17.1910400390625,11.569845199584961,17.1910400390625,11.881612777709961,16.8792724609375C12.194356918334961,16.5667724609375,12.194356918334961,16.060791015625,11.881612777709961,15.748291015625L8.629903793334961,12.498046875L11.881612777709961,9.2462158203125C12.194356918334961,8.9339599609375,12.194356918334961,8.4278564453125,11.881612777709961,8.115478515625C11.569845199584961,7.80322265625,11.063009262084961,7.80322265625,10.751241683959961,8.115478515625L7.501241683959961,11.3653564453125L4.248556137084961,8.115478515625C4.068868637084961,7.9346923828125,3.81227707862854,7.8511962890625,3.55934739112854,7.8907470703125Z" style="display: inline; stroke-width: 0.423334; stroke-linecap: round; stroke-linejoin: bevel; fill: rgb(0, 0, 0); fill-opacity: 1;"/></g></g><g id="shape-07e9d773-d858-80af-8006-8f45be7a1263" style="opacity: 1;"><g class="fills" id="fills-07e9d773-d858-80af-8006-8f45be7a1263"><path d="M16.00441551208496,12.04443359375L16.00441551208496,12.9742431640625C16.00441551208496,13.4193115234375,15.960226058959961,13.799560546875,15.871603012084961,14.11474609375C15.785665512084961,14.427490234375,15.661153793334961,14.68115234375,15.496847152709961,14.8763427734375C15.332540512084961,15.0718994140625,15.136007308959961,15.2149658203125,14.907247543334961,15.306396484375C14.680196762084961,15.3973388671875,14.426534652709961,15.4429931640625,14.145040512084961,15.4429931640625C13.920919418334961,15.4429931640625,13.713155746459961,15.414306640625,13.520284652709961,15.3570556640625C13.330343246459961,15.2999267578125,13.157735824584961,15.2099609375,13.004415512084961,15.0877685546875C12.850606918334961,14.9649658203125,12.719503402709961,14.8076171875,12.609640121459961,14.61474609375C12.503438949584961,14.4195556640625,12.419698715209961,14.1866455078125,12.359640121459961,13.915771484375C12.302511215209961,13.64501953125,12.273702621459961,13.330810546875,12.273702621459961,12.9742431640625L12.273702621459961,12.04443359375C12.273702621459961,11.5965576171875,12.317892074584961,11.2191162109375,12.406515121459961,10.911865234375C12.495382308959961,10.601806640625,12.621603012084961,10.3504638671875,12.785909652709961,10.157958984375C12.950216293334961,9.96240234375,13.144796371459961,9.8206787109375,13.371847152709961,9.7320556640625C13.600606918334961,9.6435546875,13.856222152709961,9.5992431640625,14.137716293334961,9.5992431640625C14.363546371459961,9.5992431640625,14.572286605834961,9.6279296875,14.762228012084961,9.68505859375C14.955099105834961,9.739990234375,15.126974105834961,9.8271484375,15.278097152709961,9.94677734375C15.431173324584961,10.066650390625,15.561544418334961,10.2230224609375,15.668478012084961,10.4154052734375C15.778341293334961,10.60595703125,15.861349105834961,10.836181640625,15.918478012084961,11.10693359375C15.975606918334961,11.3751220703125,16.00441551208496,11.6878662109375,16.00441551208496,12.04443359375ZM15.063253402709961,13.1070556640625L15.063253402709961,11.9036865234375C15.063253402709961,11.67724609375,15.050069808959961,11.47802734375,15.023458480834961,11.3062744140625C14.997579574584961,11.1318359375,14.959005355834961,10.9847412109375,14.906270980834961,10.86474609375C14.857442855834961,10.7425537109375,14.794698715209961,10.643310546875,14.719015121459961,10.568115234375C14.643331527709961,10.4896240234375,14.557638168334961,10.4339599609375,14.461690902709961,10.4002685546875C14.364767074584961,10.36376953125,14.256612777709961,10.3453369140625,14.137716293334961,10.3453369140625C13.990987777709961,10.3453369140625,13.860860824584961,10.3739013671875,13.746358871459961,10.4310302734375C13.632101058959961,10.4859619140625,13.536153793334961,10.5745849609375,13.457540512084961,10.6968994140625C13.379171371459961,10.819091796875,13.319112777709961,10.9805908203125,13.277853012084961,11.181396484375C13.239034652709961,11.379150390625,13.219503402709961,11.6201171875,13.219503402709961,11.9036865234375L13.219503402709961,13.1070556640625C13.219503402709961,13.3363037109375,13.232442855834961,13.5379638671875,13.258321762084961,13.71240234375C13.284200668334961,13.8868408203125,13.323995590209961,14.03662109375,13.375509262084961,14.1617431640625C13.427267074584961,14.283935546875,13.490011215209961,14.385498046875,13.563009262084961,14.4661865234375C13.638448715209961,14.544677734375,13.724386215209961,14.6019287109375,13.821310043334961,14.6383056640625C13.919942855834961,14.6748046875,14.027853012084961,14.6927490234375,14.145040512084961,14.6927490234375C14.293722152709961,14.6927490234375,14.424581527709961,14.6641845703125,14.540060043334961,14.60693359375C14.654561996459961,14.5496826171875,14.750509262084961,14.4583740234375,14.828878402709961,14.333740234375C14.907247543334961,14.2059326171875,14.965353012084961,14.0408935546875,15.003927230834961,13.8372802734375C15.043722152709961,13.6343994140625,15.063253402709961,13.390869140625,15.063253402709961,13.1070556640625ZM17.78151512145996,14.4583740234375L17.77785301208496,15.130615234375C17.77785301208496,15.3958740234375,17.71144676208496,15.6695556640625,17.57863426208496,15.9508056640625C17.44557762145996,16.2318115234375,17.27028465270996,16.4639892578125,17.05177879333496,16.646240234375L16.54689598083496,16.3531494140625C16.61989402770996,16.236083984375,16.68630027770996,16.1175537109375,16.74635887145996,15.9974365234375C16.80617332458496,15.8779296875,16.85402488708496,15.750244140625,16.89113426208496,15.614990234375C16.92702293395996,15.4793701171875,16.94557762145996,15.329833984375,16.94557762145996,15.1656494140625L16.94557762145996,14.4583740234375ZM19.62160301208496,12.7203369140625L18.87111473083496,12.536865234375L19.18044090270996,9.67724609375L22.24684715270996,9.67724609375L22.24684715270996,10.4739990234375L19.96095848083496,10.4739990234375L19.80519676208496,11.86865234375C19.89357566833496,11.8165283203125,20.01662254333496,11.765869140625,20.17238426208496,11.716552734375C20.32839012145996,11.664306640625,20.50734519958496,11.6385498046875,20.70754051208496,11.6385498046875C20.97609519958496,11.6385498046875,21.21510887145996,11.682373046875,21.42629051208496,11.7708740234375C21.63942527770996,11.8572998046875,21.82131004333496,11.983154296875,21.96901512145996,12.150146484375C22.11745262145996,12.31396484375,22.23097801208496,12.5146484375,22.30934715270996,12.7518310546875C22.38698387145996,12.9862060546875,22.42653465270996,13.2501220703125,22.42653465270996,13.54443359375C22.42653465270996,13.807373046875,22.38698387145996,14.0538330078125,22.30934715270996,14.2825927734375C22.23366355895996,14.5118408203125,22.11940574645996,14.7139892578125,21.96535301208496,14.888427734375C21.81203269958496,15.0628662109375,21.61745262145996,15.1993408203125,21.38307762145996,15.298583984375C21.15138816833496,15.39501953125,20.87648582458496,15.4429931640625,20.55910301208496,15.4429931640625C20.32204246520996,15.4429931640625,20.09401512145996,15.4093017578125,19.87526512145996,15.3414306640625C19.65944480895996,15.271240234375,19.46535301208496,15.16845703125,19.29396629333496,15.0328369140625C19.12135887145996,14.894775390625,18.98390769958496,14.7254638671875,18.87965965270996,14.5247802734375C18.77516746520996,14.32177734375,18.71535301208496,14.0888671875,18.69972801208496,13.8258056640625L19.62160301208496,13.8258056640625C19.64552879333496,14.0108642578125,19.69631004333496,14.168212890625,19.77370262145996,14.2982177734375C19.85500144958496,14.4261474609375,19.96095848083496,14.52392578125,20.09401512145996,14.59130859375C20.22682762145996,14.6591796875,20.38088035583496,14.6927490234375,20.55519676208496,14.6927490234375C20.71413230895996,14.6927490234375,20.85060691833496,14.66552734375,20.96510887145996,14.6112060546875C21.08034324645996,14.553466796875,21.17531394958496,14.47265625,21.25026512145996,14.368896484375C21.32863426208496,14.2618408203125,21.38576316833496,14.1368408203125,21.42262840270996,13.993896484375C21.46144676208496,13.8502197265625,21.48073387145996,13.6915283203125,21.48073387145996,13.51708984375C21.48073387145996,13.3505859375,21.45851707458496,13.198486328125,21.41457176208496,13.0599365234375C21.37282371520996,12.9219970703125,21.30910301208496,12.802490234375,21.22340965270996,12.70068359375C21.14040184020996,12.59912109375,21.03444480895996,12.52099609375,20.90675926208496,12.4661865234375C20.77956199645996,12.408935546875,20.63210105895996,12.3804931640625,20.46584129333496,12.3804931640625C20.24147605895996,12.3804931640625,20.07008934020996,12.4130859375,19.94997215270996,12.478271484375C19.83278465270996,12.543212890625,19.72292137145996,12.6240234375,19.62160301208496,12.7203369140625Z" style="font-family: roboto; stroke-width: 1.73333; stroke-linejoin: round; font-weight: 500; white-space: pre; display: inline; font-size: 8px; stroke-linecap: square; fill: rgb(0, 0, 0); fill-opacity: 1;"/></g></g></g></g></g></g></g></g></g></svg>