<svg width="24" xmlns="http://www.w3.org/2000/svg" height="24" id="screenshot-cc05fdba-17c3-8077-8006-5bbd49cb9bbb" viewBox="0 0 24 24" xmlns:xlink="http://www.w3.org/1999/xlink" fill="none" version="1.1"><g id="shape-cc05fdba-17c3-8077-8006-5bbd49cb9bbb"><g class="frame-container-wrapper"><g class="frame-container-blur"><g class="frame-container-shadows"><g fill="none"><g class="fills" id="fills-cc05fdba-17c3-8077-8006-5bbd49cb9bbb"><rect rx="0" ry="0" x="0" y="0" width="24" height="24.000000000000455" transform="matrix(1, 0, 0, 1, 0, 0)" class="frame-background"/></g><g class="frame-children"><g id="shape-cc05fdba-17c3-8077-8006-5bc09f3e5ef0" width="24" height="24" version="1.1" rx="0" ry="0" style="fill: rgb(0, 0, 0);"><g id="shape-cc05fdba-17c3-8077-8006-5bc09f3e5ef5" style="opacity: 1;"><g class="fills" id="fills-cc05fdba-17c3-8077-8006-5bc09f3e5ef5"><path d="M5.997118949890137,5.133636951446533C5.767138481140137,5.135101795196533,5.547167778015137,5.227753162384033,5.385790824890137,5.391449451446533C5.047900199890137,5.729706287384033,5.047900199890137,6.277679920196533,5.385790824890137,6.616058826446533L10.774462699890137,12.002778053283691L5.385790824890137,17.387542724609375C5.047900199890137,17.725799560546875,5.047900199890137,18.273773193359375,5.385790824890137,18.612152099609375C5.724169731140137,18.949920654296875,6.272021293640137,18.949920654296875,6.610400199890137,18.612152099609375L11.999072074890137,13.227387428283691L17.387744903564453,18.612152099609375C17.550342559814453,18.774871826171875,17.770801544189453,18.866424560546875,18.001026153564453,18.866424560546875C18.231006622314453,18.866424560546875,18.451709747314453,18.774871826171875,18.614307403564453,18.612152099609375C18.951953887939453,18.273773193359375,18.951953887939453,17.725799560546875,18.614307403564453,17.387542724609375L13.225634574890137,12.002778053283691L18.614307403564453,6.616058826446533C18.951953887939453,6.277679920196533,18.951953887939453,5.729706287384033,18.614307403564453,5.391449451446533C18.452198028564453,5.227264881134033,18.231494903564453,5.134491443634033,18.001026153564453,5.133636951446533C17.770313262939453,5.134491443634033,17.549610137939453,5.227264881134033,17.387744903564453,5.391449451446533L11.999072074890137,10.776215553283691L6.610400199890137,5.391449451446533C6.448290824890137,5.227264881134033,6.227587699890137,5.134491443634033,5.997118949890137,5.133636951446533Z" style="display: inline; stroke-linecap: round; stroke-linejoin: bevel; fill: rgb(0, 0, 0); fill-opacity: 1;"/></g></g></g></g></g></g></g></g></g></svg>