<svg width="24" xmlns="http://www.w3.org/2000/svg" height="24" id="screenshot-915d2400-ada3-801c-8006-87de3ecf0e81" viewBox="0 0 24 24" xmlns:xlink="http://www.w3.org/1999/xlink" fill="none" version="1.1"><g id="shape-915d2400-ada3-801c-8006-87de3ecf0e81"><g class="frame-container-wrapper"><g class="frame-container-blur"><g class="frame-container-shadows"><g fill="none"><g class="fills" id="fills-915d2400-ada3-801c-8006-87de3ecf0e81"><rect rx="0" ry="0" x="0" y="0" width="24" height="24.000000000000455" transform="matrix(1, 0, 0, 1, 0, 0)" class="frame-background"/></g><g class="frame-children"><g id="shape-915d2400-ada3-801c-8006-87de2a29d884" width="24" height="24" version="1.1" rx="0" ry="0" style="fill: rgb(0, 0, 0);"><g id="shape-915d2400-ada3-801c-8006-87de2a2d4628" style="opacity: 1;"><g class="fills" id="fills-915d2400-ada3-801c-8006-87de2a2d4628"><path d="M5.249114036560059,3.1165926456451416C3.4248952865600586,3.1165926456451416,1.927580714225769,4.6142730712890625,1.927580714225769,6.4388580322265625L1.927580714225769,11.251113891601562L1.927580714225769,15.075088500976562L1.927580714225769,17.850601196289062L1.927580714225769,18.705947875976562L1.927580714225769,20.094619750976562C1.927580714225769,20.692031860351562,2.4100027084350586,21.172744750976562,3.0079030990600586,21.172744750976562L4.393889427185059,21.172744750976562L8.942717552185059,21.172744750976562L13.206389427185059,21.172744750976562L18.750822067260742,21.172744750976562C20.576017379760742,21.172744750976562,22.072599411010742,19.675186157226562,22.072599411010742,17.850601196289062L22.072599411010742,6.4388580322265625C22.072599411010742,4.6142730712890625,20.576017379760742,3.1165926456451416,18.750822067260742,3.1165926456451416ZM5.249114036560059,4.8513336181640625L18.750822067260742,4.8513336181640625C19.645841598510742,4.8513336181640625,20.338956832885742,5.5442047119140625,20.338956832885742,6.4388580322265625L20.338956832885742,17.850601196289062C20.338956832885742,18.745254516601562,19.645841598510742,19.438003540039062,18.750822067260742,19.438003540039062L15.567717552185059,19.438003540039062C15.640471458435059,19.206558227539062,15.681242942810059,18.960220336914062,15.681242942810059,18.705947875976562L15.681242942810059,11.251113891601562C15.681242942810059,9.898330688476562,14.559172630310059,8.786636352539062,13.206389427185059,8.786636352539062L4.393889427185059,8.786636352539062C4.139983177185059,8.786636352539062,3.8946218490600586,8.825332641601562,3.6639089584350586,8.897842407226562L3.6639089584350586,6.4388580322265625C3.6639089584350586,5.5442047119140625,4.355071067810059,4.8513336181640625,5.249114036560059,4.8513336181640625ZM4.393889427185059,10.520767211914062L13.206389427185059,10.520767211914062C13.628996849060059,10.520767211914062,13.944670677185059,10.828994750976562,13.944670677185059,11.251113891601562L13.944670677185059,18.705947875976562C13.944670677185059,19.128189086914062,13.628020286560059,19.438003540039062,13.206389427185059,19.438003540039062L10.020354270935059,19.438003540039062L10.020354270935059,15.075088500976562C10.020354270935059,14.477310180664062,9.540617942810059,13.997085571289062,8.942717552185059,13.997085571289062L3.6639089584350586,13.997085571289062L3.6639089584350586,11.251113891601562C3.6639089584350586,10.828994750976562,3.9722585678100586,10.520767211914062,4.393889427185059,10.520767211914062Z" style="display: inline; stroke-linecap: round; stroke-linejoin: round; fill: rgb(0, 0, 0); fill-opacity: 1;"/></g></g></g></g></g></g></g></g></g></svg>