<svg width="24" xmlns="http://www.w3.org/2000/svg" height="24" id="screenshot-16e88088-c6f7-80f1-8006-986ff88c799e" viewBox="0 0 24 24" xmlns:xlink="http://www.w3.org/1999/xlink" fill="none" version="1.1"><g id="shape-16e88088-c6f7-80f1-8006-986ff88c799e"><g class="frame-container-wrapper"><g class="frame-container-blur"><g class="frame-container-shadows"><g fill="none"><g class="fills" id="fills-16e88088-c6f7-80f1-8006-986ff88c799e"><rect rx="0" ry="0" x="0" y="0" width="24" height="24.000000000000455" transform="matrix(1, 0, 0, 1, 0, 0)" class="frame-background"/></g><g class="frame-children"><g id="shape-16e88088-c6f7-80f1-8006-986ff5592b35" rx="0" ry="0"><g id="shape-16e88088-c6f7-80f1-8006-986fa716d4ba" style="opacity: 1;"><g class="fills" id="fills-16e88088-c6f7-80f1-8006-986fa716d4ba"><path d="M13.929736137390137,2.0018310546875C9.479296684265137,2.0018310546875,5.861376762390137,5.646728515625,5.861376762390137,10.1209716796875C5.861376762390137,12.24560546875,6.678759574890137,14.1856689453125,8.012255668640137,15.63671875L2.517382860183716,20.44921875C2.214648485183716,20.716796875,2.185107469558716,21.1785888671875,2.450732469558716,21.482177734375C2.718310594558716,21.785400390625,3.180712938308716,21.8148193359375,3.484179735183716,21.5487060546875L9.107470512390137,16.6309814453125C10.453661918640137,17.6463623046875,12.122118949890137,18.2498779296875,13.929736137390137,18.2498779296875C18.379932403564453,18.2498779296875,21.998096466064453,14.5953369140625,21.998096466064453,10.1209716796875C21.998096466064453,5.646728515625,18.379932403564453,2.0018310546875,13.929736137390137,2.0018310546875ZM13.929736137390137,3.552490234375C17.534717559814453,3.552490234375,20.447071075439453,6.47900390625,20.447071075439453,10.1209716796875C20.447071075439453,13.7630615234375,17.534717559814453,16.69921875,13.929736137390137,16.69921875C10.324511528015137,16.69921875,7.412402153015137,13.7630615234375,7.412402153015137,10.1209716796875C7.412402153015137,6.47900390625,10.324511528015137,3.552490234375,13.929736137390137,3.552490234375Z" style="display: inline; stroke-linecap: round; stroke-linejoin: bevel; fill: rgb(0, 0, 0); fill-opacity: 1;"/></g></g><g id="shape-16e88088-c6f7-80f1-8006-986fa71732f2" style="opacity: 1;"><g class="fills" id="fills-16e88088-c6f7-80f1-8006-986fa71732f2"><path d="M14.004443168640137,6.1365966796875C13.773730278015137,6.1357421875,13.553271293640137,6.2257080078125,13.389941215515137,6.3876953125C13.225634574890137,6.549560546875,13.133349418640137,6.7701416015625,13.132372856140137,6.9998779296875L13.132372856140137,9.1328125L10.998095512390137,9.1328125C10.522021293640137,9.1346435546875,10.136279106140137,9.5203857421875,10.134570121765137,9.9959716796875C10.133593559265137,10.2261962890625,10.223925590515137,10.447265625,10.385546684265137,10.610595703125C10.547900199890137,10.77392578125,10.768359184265137,10.8660888671875,10.998095512390137,10.8670654296875L13.132372856140137,10.8670654296875L13.132372856140137,13.0018310546875C13.133349418640137,13.2320556640625,13.225634574890137,13.4521484375,13.389941215515137,13.614013671875C13.553271293640137,13.7760009765625,13.773730278015137,13.866455078125,14.004443168640137,13.864990234375C14.479540824890137,13.8631591796875,14.865283012390137,13.4779052734375,14.867236137390137,13.0018310546875L14.867236137390137,10.8670654296875L16.999561309814453,10.8670654296875C17.230274200439453,10.8660888671875,17.450000762939453,10.77392578125,17.612354278564453,10.610595703125C17.773731231689453,10.447265625,17.864307403564453,10.2261962890625,17.863330841064453,9.9959716796875C17.861377716064453,9.5203857421875,17.475635528564453,9.1346435546875,16.999561309814453,9.1328125L14.867236137390137,9.1328125L14.867236137390137,6.9998779296875C14.865283012390137,6.524169921875,14.479540824890137,6.1385498046875,14.004443168640137,6.1365966796875Z" style="display: inline; stroke-linecap: round; stroke-linejoin: round; fill: rgb(0, 0, 0); fill-opacity: 1;"/></g></g></g></g></g></g></g></g></g></svg>