<svg width="24" xmlns="http://www.w3.org/2000/svg" height="24" id="screenshot-a692a29b-b9de-80cb-8006-a15c266b1420" viewBox="0 0 24 24" xmlns:xlink="http://www.w3.org/1999/xlink" fill="none" version="1.1"><g id="shape-a692a29b-b9de-80cb-8006-a15c266b1420"><g class="frame-container-wrapper"><g class="frame-container-blur"><g class="frame-container-shadows"><g fill="none"><g class="fills" id="fills-a692a29b-b9de-80cb-8006-a15c266b1420"><rect rx="0" ry="0" x="0" y="0" width="24" height="24.000000000000455" transform="matrix(1, 0, 0, 1, 0, 0)" class="frame-background"/></g><g class="frame-children"><g id="shape-a692a29b-b9de-80cb-8006-a15bf1fea35d" rx="0" ry="0"><g id="shape-a692a29b-b9de-80cb-8006-a15ba35c6331" style="opacity: 1;"><g class="fills" id="fills-a692a29b-b9de-80cb-8006-a15ba35c6331"><path d="M11.029101371765137,6.404296875C11.898486137390137,6.404296875,12.585741996765137,7.093505859375,12.585741996765137,7.9627685546875C12.585741996765137,8.8319091796875,11.898486137390137,9.5194091796875,11.029101371765137,9.5194091796875C10.159960746765137,9.5194091796875,9.470751762390137,8.8319091796875,9.470751762390137,7.9627685546875C9.470751762390137,7.093505859375,10.159960746765137,6.404296875,11.029101371765137,6.404296875ZM11.029101371765137,4.8983154296875C9.349902153015137,4.8983154296875,7.973193168640137,6.282958984375,7.973193168640137,7.9627685546875C7.973193168640137,9.642578125,9.349902153015137,11.0174560546875,11.029101371765137,11.0174560546875C12.709521293640137,11.0174560546875,14.084277153015137,9.642578125,14.084277153015137,7.9627685546875C14.084277153015137,6.282958984375,12.709521293640137,4.8983154296875,11.029101371765137,4.8983154296875Z" style="display: inline; stroke-linecap: round; stroke-linejoin: round; fill: rgb(0, 0, 0); fill-opacity: 1;"/></g></g><g id="shape-a692a29b-b9de-80cb-8006-a15ba35d710e" style="opacity: 1;"><g class="fills" id="fills-a692a29b-b9de-80cb-8006-a15ba35d710e"><path d="M14.244921684265137,12.8582763671875L14.768115043640137,13.82763671875C14.796679496765137,13.8802490234375,14.851122856140137,13.91259765625,14.910204887390137,13.91259765625C14.970263481140137,13.91259765625,15.024706840515137,13.8802490234375,15.053271293640137,13.82763671875L15.575488090515137,12.8582763671875C15.663134574890137,12.6959228515625,15.833788871765137,12.594482421875,16.018360137939453,12.594482421875L16.429004669189453,12.594482421875C16.490772247314453,12.594482421875,16.548145294189453,12.627197265625,16.578662872314453,12.6806640625C16.608936309814453,12.7342529296875,16.608936309814453,12.8001708984375,16.577686309814453,12.853271484375L15.634570121765137,14.4638671875C15.540575981140137,14.62353515625,15.541308403015137,14.8214111328125,15.635546684265137,14.9805908203125L16.608936309814453,16.627685546875C16.640430450439453,16.6807861328125,16.641407012939453,16.746337890625,16.610889434814453,16.7998046875C16.580371856689453,16.853271484375,16.523242950439453,16.8861083984375,16.461475372314453,16.8861083984375L16.041553497314453,16.8861083984375C15.856982231140137,16.8861083984375,15.687060356140137,16.7850341796875,15.598681449890137,16.6226806640625L15.054247856140137,15.622802734375C15.025683403015137,15.5701904296875,14.970263481140137,15.5374755859375,14.910204887390137,15.5374755859375C14.851122856140137,15.5374755859375,14.795702934265137,15.5701904296875,14.767138481140137,15.622802734375L14.222704887390137,16.6226806640625C14.134325981140137,16.7850341796875,13.964404106140137,16.8861083984375,13.778857231140137,16.8861083984375L13.353564262390137,16.8861083984375C13.291796684265137,16.8861083984375,13.235400199890137,16.853271484375,13.205126762390137,16.7998046875C13.174609184265137,16.746337890625,13.175585746765137,16.6807861328125,13.206835746765137,16.628173828125L14.185839653015137,14.9805908203125C14.280077934265137,14.8214111328125,14.280077934265137,14.62353515625,14.186816215515137,14.4638671875L13.238329887390137,12.852783203125C13.206835746765137,12.7996826171875,13.206835746765137,12.7342529296875,13.237353324890137,12.6806640625C13.267870903015137,12.627197265625,13.324023246765137,12.594482421875,13.385790824890137,12.594482421875L13.803027153015137,12.594482421875C13.987597465515137,12.594482421875,14.157275199890137,12.6959228515625,14.244921684265137,12.8582763671875ZM18.370410919189453,12.99951171875L18.980518341064453,14.3314208984375C19.005420684814453,14.3873291015625,19.061573028564453,14.42333984375,19.123340606689453,14.42333984375C19.185352325439453,14.42333984375,19.240528106689453,14.3873291015625,19.266407012939453,14.3314208984375L19.876514434814453,12.99951171875C19.963184356689453,12.8089599609375,20.154102325439453,12.6871337890625,20.363574981689453,12.6871337890625L20.639453887939453,12.6871337890625C20.712451934814453,12.6871337890625,20.779834747314453,12.7249755859375,20.818408966064453,12.7872314453125C20.856250762939453,12.8499755859375,20.859180450439453,12.927490234375,20.825000762939453,12.9925537109375L19.729785919189453,15.1107177734375C19.625537872314453,15.3118896484375,19.571094512939453,15.5343017578125,19.571094512939453,15.7603759765625L19.571094512939453,16.6346435546875C19.571094512939453,16.82470703125,19.416797637939453,16.978759765625,19.227832794189453,16.978759765625L19.019092559814453,16.978759765625C18.829151153564453,16.978759765625,18.675098419189453,16.82470703125,18.675098419189453,16.6346435546875L18.675098419189453,15.7603759765625C18.675098419189453,15.5343017578125,18.620655059814453,15.3118896484375,18.517139434814453,15.1112060546875L17.419239044189453,12.9925537109375C17.385059356689453,12.927490234375,17.387744903564453,12.8499755859375,17.425586700439453,12.7872314453125C17.463428497314453,12.7249755859375,17.531787872314453,12.6871337890625,17.604541778564453,12.6871337890625L17.883350372314453,12.6871337890625C18.092823028564453,12.6871337890625,18.282764434814453,12.8089599609375,18.370410919189453,12.99951171875ZM10.773730278015137,1.9603271484375C7.172167778015137,2.11669921875,4.217577934265137,4.7239990234375,4.012743949890137,8.592529296875C4.002490043640137,8.78173828125,3.999804735183716,9.08984375,4.010790824890137,9.279541015625C4.070849418640137,10.265380859375,4.419726371765137,11.3399658203125,4.904101371765137,12.4703369140625C4.978808403015137,12.643798828125,5.103320121765137,12.923828125,5.183642387390137,13.096435546875C5.730029106140137,14.2769775390625,6.406298637390137,15.49462890625,7.092822074890137,16.6300048828125C7.190722465515137,16.7928466796875,7.352099418640137,17.055419921875,7.451708793640137,17.2164306640625C8.661425590515137,19.1629638671875,9.838915824890137,20.797119140625,10.300341606140137,21.424072265625C10.411913871765137,21.5767822265625,10.596484184265137,21.833740234375,10.764452934265137,21.918701171875C10.953661918640137,22.0146484375,11.176806449890137,22.026123046875,11.375292778015137,21.9495849609375C11.550585746765137,21.8822021484375,11.759081840515137,21.642822265625,11.882616996765137,21.498779296875C12.221484184265137,21.1038818359375,12.907031059265137,20.2799072265625,13.696825981140137,19.18505859375C13.807665824890137,19.031494140625,14.016161918640137,19.0032958984375,14.172167778015137,19.1112060546875C14.907519340515137,19.6201171875,15.764697074890137,19.92236328125,16.656055450439453,19.9869384765625C16.846240997314453,20.000732421875,17.154346466064453,20.001220703125,17.343555450439453,19.98828125C19.831104278564453,19.8194580078125,21.819629669189453,17.8314208984375,21.988574981689453,15.34375C22.001514434814453,15.154052734375,22.001514434814453,14.845458984375,21.988574981689453,14.65625C21.839893341064453,12.4906005859375,20.303516387939453,10.66455078125,18.196094512939453,10.1468505859375C18.011524200439453,10.1011962890625,17.877735137939453,9.923095703125,17.893360137939453,9.73388671875C18.344776153564453,4.2008056640625,13.688525199890137,2.1651611328125,11.460009574890137,1.9691162109375C11.271044731140137,1.9525146484375,11.116747856140137,1.9530029296875,11.116747856140137,1.9530029296875ZM11.460986137390137,3.4635009765625C14.213671684265137,3.6600341796875,16.307178497314453,6.1873779296875,16.486377716064453,8.4937744140625C16.500049591064453,8.684326171875,16.496387481689453,8.993896484375,16.484424591064453,9.1834716796875C16.474170684814453,9.3551025390625,16.456836700439453,9.5281982421875,16.435596466064453,9.7025146484375C16.411426544189453,9.890869140625,16.233448028564453,10.060546875,16.047168731689453,10.0965576171875C13.826952934265137,10.526123046875,12.167773246765137,12.400634765625,12.012011528015137,14.65625C11.999072074890137,14.845947265625,11.999072074890137,15.154052734375,12.012743949890137,15.34375C12.066454887390137,16.100341796875,12.291552543640137,16.8348388671875,12.671679496765137,17.4918212890625C12.766650199890137,17.6561279296875,12.765917778015137,17.9097900390625,12.656054496765137,18.064453125C12.096728324890137,18.8487548828125,11.671435356140137,19.35302734375,11.364062309265137,19.7064208984375C11.240527153015137,19.8494873046875,11.047656059265137,19.8411865234375,10.934130668640137,19.68798828125C10.488574028015137,19.0858154296875,9.745654106140137,18.0694580078125,8.728808403015137,16.4324951171875C8.629199028015137,16.271484375,8.468554496765137,16.009033203125,8.369921684265137,15.8465576171875C7.709277153015137,14.7518310546875,7.061327934265137,13.588623046875,6.551074028015137,12.4906005859375C6.470995903015137,12.318115234375,6.345507621765137,12.037109375,6.271533012390137,11.86181640625C5.857226371765137,10.877197265625,5.586962699890137,9.9627685546875,5.517626762390137,9.2923583984375C5.498339653015137,9.1046142578125,5.501025199890137,8.796875,5.512255668640137,8.6072998046875C5.692919731140137,5.4857177734375,7.877245903015137,3.5972900390625,10.772753715515137,3.4593505859375L11.117724418640137,3.4510498046875Z" style="font-family: roboto; stroke-width: 0.135815; stroke-linejoin: round; font-weight: bold; white-space: pre; display: inline; font-size: 13.3333px; fill: rgb(0, 0, 0); fill-opacity: 1;"/></g></g></g></g></g></g></g></g></g></svg>