<svg width="24" xmlns="http://www.w3.org/2000/svg" height="24" id="screenshot-0ef66420-1100-8022-8006-9da504400b22" viewBox="0 0 24 24" xmlns:xlink="http://www.w3.org/1999/xlink" fill="none" version="1.1"><g id="shape-0ef66420-1100-8022-8006-9da504400b22"><g class="frame-container-wrapper"><g class="frame-container-blur"><g class="frame-container-shadows"><g fill="none"><g class="fills" id="fills-0ef66420-1100-8022-8006-9da504400b22"><rect rx="0" ry="0" x="0" y="0" width="24" height="24.000000000000455" transform="matrix(1, 0, 0, 1, 0, 0)" class="frame-background"/></g><g class="frame-children"><g id="shape-0ef66420-1100-8022-8006-9da1ad586746" rx="0" ry="0"><g id="shape-0ef66420-1100-8022-8006-9da0ce81576a" style="opacity: 1;"><g class="fills" id="fills-0ef66420-1100-8022-8006-9da0ce81576a"><path d="M12.080859184265137,2.3302001953125C11.868700981140137,2.327392578125,11.664599418640137,2.4085693359375,11.512499809265137,2.5567626953125L11.512499809265137,2.554443359375L8.640917778015137,5.337890625C8.325243949890137,5.64599609375,8.317919731140137,6.1522216796875,8.626025199890137,6.4686279296875C8.931445121765137,6.78564453125,9.436327934265137,6.7957763671875,9.754687309265137,6.4913330078125L11.223681449890137,5.065673828125L11.223681449890137,11.2664794921875L5.021044731140137,11.2664794921875L6.522265434265137,9.8135986328125C6.837939262390137,9.50537109375,6.844286918640137,9.0010986328125,6.537890434265137,8.6845703125C6.390429496765137,8.5323486328125,6.189257621765137,8.4442138671875,5.976855278015137,8.4405517578125C5.765673637390137,8.4359130859375,5.561816215515137,8.5152587890625,5.408495903015137,8.6611328125L2.537890672683716,11.444580078125C2.382861375808716,11.5916748046875,2.293505907058716,11.794677734375,2.289599657058716,12.0078125C2.284960985183716,12.221435546875,2.366259813308716,12.427734375,2.514941453933716,12.581298828125L5.306200981140137,15.452392578125C5.614306449890137,15.76708984375,6.118945121765137,15.7740478515625,6.434618949890137,15.4671630859375C6.750292778015137,15.159423828125,6.756640434265137,14.6546630859375,6.450243949890137,14.338623046875L5.016406059265137,12.86181640625L11.225390434265137,12.86181640625L11.225390434265137,19.0667724609375L9.772265434265137,17.571044921875C9.463915824890137,17.255859375,8.959277153015137,17.2490234375,8.643603324890137,17.5557861328125C8.327197074890137,17.864013671875,8.320605278015137,18.3701171875,8.627978324890137,18.6866455078125L11.411913871765137,21.5577392578125C11.719042778015137,21.872802734375,12.223925590515137,21.8792724609375,12.540331840515137,21.5728759765625L15.411913871765137,18.78955078125C15.728320121765137,18.483642578125,15.738574028015137,17.9788818359375,15.434130668640137,17.6605224609375C15.286425590515137,17.5069580078125,15.082568168640137,17.4188232421875,14.869433403015137,17.416015625C14.655322074890137,17.4132080078125,14.449511528015137,17.495849609375,14.297167778015137,17.645751953125L12.829150199890137,19.0654296875L12.829150199890137,12.8623046875L19.039112091064453,12.8623046875L17.537891387939453,14.315673828125C17.382862091064453,14.4627685546875,17.293506622314453,14.665771484375,17.289600372314453,14.87890625C17.284961700439453,15.092529296875,17.366260528564453,15.298828125,17.514942169189453,15.452392578125C17.663379669189453,15.6060791015625,17.866504669189453,15.6942138671875,18.080371856689453,15.6968994140625C18.293750762939453,15.69970703125,18.499317169189453,15.6171875,18.651660919189453,15.4671630859375L21.523242950439453,12.6842041015625C21.837940216064453,12.3759765625,21.844287872314453,11.8717041015625,21.537891387939453,11.5552978515625L18.754932403564453,8.6842041015625C18.607471466064453,8.5318603515625,18.406299591064453,8.4437255859375,18.193897247314453,8.4400634765625C17.982715606689453,8.4354248046875,17.778858184814453,8.514892578125,17.625537872314453,8.66064453125C17.309131622314453,8.966552734375,17.298877716064453,9.47119140625,17.603321075439453,9.78955078125L19.030811309814453,11.2659912109375L12.827441215515137,11.2659912109375L12.827441215515137,5.06103515625L14.280566215515137,6.5572509765625C14.588915824890137,6.872314453125,15.093554496765137,6.8787841796875,15.409960746765137,6.572509765625C15.726611137390137,6.2666015625,15.736620903015137,5.7618408203125,15.432177543640137,5.4434814453125L12.641894340515137,2.5723876953125C12.494189262390137,2.420654296875,12.292040824890137,2.3333740234375,12.080859184265137,2.3302001953125Z" style="font-variant: normal; stroke-opacity: 1; vector-effect: none; stroke: none; word-spacing: normal; text-decoration-color: rgb(0, 0, 0); isolation: auto; baseline-shift: baseline; color: rgb(0, 0, 0); fill-rule: nonzero; text-transform: none; overflow: visible; font-variation-settings: normal; image-rendering: auto; stroke-dashoffset: 0; font-stretch: normal; text-anchor: start; font-feature-settings: normal; text-indent: 0px; font-family: sans-serif; writing-mode: lr-tb; letter-spacing: normal; color-rendering: auto; text-orientation: mixed; stroke-linejoin: round; font-style: normal; font-weight: normal; stroke-dasharray: none; white-space: normal; stroke-miterlimit: 4; text-align: start; display: inline; shape-rendering: auto; line-height: normal; font-size: medium; text-rendering: auto; stop-color: rgb(0, 0, 0); dominant-baseline: auto; stroke-linecap: round; inline-size: 0px; visibility: visible; direction: ltr; text-decoration-style: solid; shape-margin: 0px; color-interpolation: srgb; clip-rule: nonzero; text-decoration-line: none; color-interpolation-filters: linearrgb; fill: rgb(0, 0, 0); fill-opacity: 1;"/></g></g></g></g></g></g></g></g></g></svg>