<svg width="24" xmlns="http://www.w3.org/2000/svg" height="24" id="screenshot-31fe8dfc-fa8e-809b-8006-931d23508da7" viewBox="0 0 24 24" xmlns:xlink="http://www.w3.org/1999/xlink" fill="none" version="1.1"><g id="shape-31fe8dfc-fa8e-809b-8006-931d23508da7"><g class="frame-container-wrapper"><g class="frame-container-blur"><g class="frame-container-shadows"><g fill="none"><g class="fills" id="fills-31fe8dfc-fa8e-809b-8006-931d23508da7"><rect rx="0" ry="0" x="0" y="0" width="24" height="24.000000000000455" transform="matrix(1, 0, 0, 1, 0, 0)" class="frame-background"/></g><g class="frame-children"><g id="shape-31fe8dfc-fa8e-809b-8006-931d63ad097d" rx="0" ry="0"><g id="shape-31fe8dfc-fa8e-809b-8006-931d2c026a90" style="opacity: 1;"><g class="fills" id="fills-31fe8dfc-fa8e-809b-8006-931d2c026a90"><path d="M2.99538254737854,3.282470703125C2.85402512550354,3.2760009765625,2.71486496925354,3.2982177734375,2.59108567237854,3.348876953125C2.26173996925354,3.483642578125,1.9931851625442505,3.8416748046875,1.9931851625442505,4.24169921875L1.9931851625442505,19.655517578125C1.9931851625442505,20.9630126953125,3.07008957862854,22.040283203125,4.377462387084961,22.040283203125L18.07961082458496,22.040283203125C18.73854637145996,22.040283203125,19.28859519958496,21.60986328125,19.51100730895996,21.0792236328125C19.73415184020996,20.5491943359375,19.64650535583496,19.85986328125,19.18507957458496,19.3897705078125L6.649435043334961,6.6204833984375C6.649435043334961,6.6195068359375,6.649435043334961,6.619140625,6.649435043334961,6.61865234375C6.617208480834961,6.564697265625,6.577657699584961,6.5157470703125,6.532247543334961,6.471923828125C6.493673324584961,6.43359375,6.450216293334961,6.3994140625,6.403097152709961,6.370361328125L3.64772629737854,3.5616455078125C3.47243332862854,3.383544921875,3.23048996925354,3.2930908203125,2.99538254737854,3.282470703125ZM3.49074387550354,5.5404052734375L4.933126449584961,7.0089111328125L4.473409652709961,7.468017578125C4.332296371459961,7.6087646484375,4.252950668334961,7.7996826171875,4.252950668334961,7.99951171875C4.252950668334961,8.1988525390625,4.332296371459961,8.3897705078125,4.473409652709961,8.530517578125C4.765890121459961,8.8193359375,5.236593246459961,8.8193359375,5.528097152709961,8.530517578125L5.983175277709961,8.079345703125L7.770772933959961,9.89990234375L6.000509262084961,11.6673583984375C5.859395980834961,11.80810546875,5.779073715209961,11.99951171875,5.779073715209961,12.1993408203125C5.779073715209961,12.3990478515625,5.859395980834961,12.591064453125,6.000509262084961,12.7318115234375C6.141866683959961,12.8734130859375,6.334005355834961,12.9532470703125,6.533224105834961,12.9532470703125C6.733419418334961,12.9532470703125,6.924581527709961,12.8734130859375,7.065694808959961,12.7318115234375L8.823507308959961,10.9720458984375L11.196798324584961,13.3878173828125L7.796407699584961,16.7608642578125C7.653585433959961,16.900634765625,7.572286605834961,17.0916748046875,7.570333480834961,17.29150390625C7.569601058959961,17.49169921875,7.647970199584961,17.68359375,7.788106918334961,17.8251953125C7.928487777709961,17.9674072265625,8.119405746459961,18.048095703125,8.318868637084961,18.049072265625C8.518087387084961,18.0504150390625,8.709981918334961,17.971923828125,8.851095199584961,17.8316650390625L12.249532699584961,14.46044921875L14.345235824584961,16.5970458984375L13.472188949584961,17.469970703125C13.331075668334961,17.6107177734375,13.251729965209961,17.80224609375,13.251729965209961,18.00146484375C13.251729965209961,18.2008056640625,13.331075668334961,18.391845703125,13.472188949584961,18.5325927734375C13.612569808959961,18.6737060546875,13.804464340209961,18.7530517578125,14.003683090209961,18.7530517578125C14.203145980834961,18.7530517578125,14.394063949584961,18.6737060546875,14.534444808959961,18.5325927734375L15.396261215209961,17.6656494140625L18.11452293395996,20.43701171875C18.15431785583496,20.4771728515625,18.14137840270996,20.4771728515625,18.13014793395996,20.50537109375C18.11818504333496,20.533447265625,18.13771629333496,20.534912109375,18.07961082458496,20.534912109375L4.377462387084961,20.534912109375C3.88112473487854,20.534912109375,3.49074387550354,20.15283203125,3.49074387550354,19.656005859375Z" style="display: inline; stroke-linecap: round; stroke-linejoin: round; fill: rgb(0, 0, 0); fill-opacity: 1;"/></g></g><g id="shape-31fe8dfc-fa8e-809b-8006-931d2c02cc3a" style="opacity: 1;"><g class="fills" id="fills-31fe8dfc-fa8e-809b-8006-931d2c02cc3a"><path d="M14.878438949584961,1.9127197265625C14.571310043334961,1.91357421875,14.287862777709961,2.0760498046875,14.132833480834961,2.3408203125L12.036397933959961,5.83984375C11.874044418334961,6.1129150390625,11.874044418334961,6.4525146484375,12.036397933959961,6.7257080078125L14.132833480834961,10.2247314453125C14.287862777709961,10.489013671875,14.571310043334961,10.65185546875,14.878438949584961,10.65283203125L19.07155418395996,10.65283203125C19.37526512145996,10.6495361328125,19.65578269958496,10.4871826171875,19.80983543395996,10.2247314453125L21.90627098083496,6.7257080078125C22.06862449645996,6.4525146484375,22.06862449645996,6.1129150390625,21.90627098083496,5.83984375L19.80983543395996,2.3408203125C19.65578269958496,2.0782470703125,19.37526512145996,1.9158935546875,19.07155418395996,1.9127197265625ZM15.365743637084961,3.6474609375L18.57692527770996,3.6474609375L20.14943504333496,6.28271484375L18.57692527770996,8.9180908203125L15.365743637084961,8.9180908203125L13.793478012084961,6.28271484375Z" style="display: inline; stroke-linecap: round; stroke-linejoin: round; fill: rgb(0, 0, 0); fill-opacity: 1;"/></g></g></g></g></g></g></g></g></g></svg>