<svg width="24" xmlns="http://www.w3.org/2000/svg" height="24" id="screenshot-0ef66420-1100-8022-8006-9da49a524027" viewBox="0 0 24 24" xmlns:xlink="http://www.w3.org/1999/xlink" fill="none" version="1.1"><g id="shape-0ef66420-1100-8022-8006-9da49a524027"><g class="frame-container-wrapper"><g class="frame-container-blur"><g class="frame-container-shadows"><g fill="none"><g class="fills" id="fills-0ef66420-1100-8022-8006-9da49a524027"><rect rx="0" ry="0" x="0" y="0" width="24" height="24.000000000000455" transform="matrix(1, 0, 0, 1, 0, 0)" class="frame-background"/></g><g class="frame-children"><g id="shape-0ef66420-1100-8022-8006-9da1a9416e50" rx="0" ry="0"><g id="shape-0ef66420-1100-8022-8006-9da0ce806b99" style="opacity: 1;"><g class="fills" id="fills-0ef66420-1100-8022-8006-9da0ce806b99"><path d="M2.995898485183716,2.3338623046875C2.629443407058716,2.3353271484375,2.333300828933716,2.6319580078125,2.332324266433716,2.998291015625L2.332324266433716,5.0001220703125C2.333300828933716,5.365966796875,2.629443407058716,5.66259765625,2.995898485183716,5.6640625C3.172900438308716,5.6654052734375,3.343798875808716,5.59619140625,3.470019578933716,5.4716796875C3.596484422683716,5.3470458984375,3.667529344558716,5.17724609375,3.667529344558716,5.0001220703125L3.667529344558716,4.6661376953125L14.336230278015137,4.6661376953125L14.336230278015137,5.0001220703125C14.337206840515137,5.365966796875,14.634325981140137,5.66259765625,14.999804496765137,5.6640625C15.366015434265137,5.66259765625,15.662158012390137,5.365966796875,15.664111137390137,5.0001220703125L15.664111137390137,2.998291015625C15.662158012390137,2.6319580078125,15.366015434265137,2.3353271484375,14.999804496765137,2.3338623046875C14.634325981140137,2.3353271484375,14.337206840515137,2.6319580078125,14.336230278015137,2.998291015625L14.336230278015137,3.3304443359375L3.667529344558716,3.3304443359375L3.667529344558716,2.998291015625C3.667529344558716,2.8206787109375,3.596484422683716,2.6513671875,3.470019578933716,2.5262451171875C3.343798875808716,2.4017333984375,3.172900438308716,2.33251953125,2.995898485183716,2.3338623046875ZM19.001514434814453,8.6015625C18.635303497314453,8.60205078125,18.337207794189453,8.898681640625,18.336231231689453,9.2655029296875C18.337207794189453,9.6326904296875,18.635303497314453,9.929443359375,19.001514434814453,9.9298095703125L19.333789825439453,9.9298095703125L19.333789825439453,20.59765625L19.001514434814453,20.59765625C18.824512481689453,20.59765625,18.653614044189453,20.668701171875,18.529102325439453,20.7950439453125C18.404590606689453,20.9210205078125,18.334522247314453,21.0916748046875,18.336231231689453,21.2694091796875C18.337207794189453,21.6365966796875,18.635303497314453,21.9332275390625,19.001514434814453,21.9337158203125L21.002002716064453,21.9337158203125C21.368457794189453,21.932373046875,21.664600372314453,21.6357421875,21.665576934814453,21.2694091796875C21.667285919189453,21.0921630859375,21.598194122314453,20.9219970703125,21.473682403564453,20.7955322265625C21.348926544189453,20.6695556640625,21.179248809814453,20.5985107421875,21.002002716064453,20.59765625L20.669971466064453,20.59765625L20.669971466064453,9.9298095703125L21.002002716064453,9.9298095703125C21.368457794189453,9.928466796875,21.664600372314453,9.6318359375,21.665576934814453,9.2655029296875C21.664600372314453,8.899658203125,21.368457794189453,8.6029052734375,21.002002716064453,8.6015625ZM2.908252000808716,8.912109375C2.505908250808716,8.9139404296875,2.179248094558716,9.2401123046875,2.177294969558716,9.642822265625L2.177294969558716,21.0843505859375C2.176318407058716,21.279052734375,2.252978563308716,21.46630859375,2.389697313308716,21.604736328125C2.527148485183716,21.7431640625,2.713427782058716,21.8216552734375,2.908252000808716,21.822509765625L14.357470512390137,21.822509765625C14.552050590515137,21.8216552734375,14.738574028015137,21.7431640625,14.876025199890137,21.604736328125C15.012499809265137,21.46630859375,15.089159965515137,21.279052734375,15.088183403015137,21.0843505859375L15.088183403015137,9.642822265625C15.086474418640137,9.2401123046875,14.759814262390137,8.9139404296875,14.357470512390137,8.912109375ZM3.646289110183716,10.381103515625L13.619189262390137,10.381103515625L13.619189262390137,20.353515625L3.646289110183716,20.353515625Z" style="display: inline; stroke-linecap: round; stroke-linejoin: round; fill: rgb(0, 0, 0); fill-opacity: 1;"/></g></g></g></g></g></g></g></g></g></svg>