<svg width="24" xmlns="http://www.w3.org/2000/svg" height="24" id="screenshot-0ef66420-1100-8022-8006-9da41cee8efb" viewBox="0 0 24 24" xmlns:xlink="http://www.w3.org/1999/xlink" fill="none" version="1.1"><g id="shape-0ef66420-1100-8022-8006-9da41cee8efb"><g class="frame-container-wrapper"><g class="frame-container-blur"><g class="frame-container-shadows"><g fill="none"><g class="fills" id="fills-0ef66420-1100-8022-8006-9da41cee8efb"><rect rx="0" ry="0" x="0" y="0" width="24" height="24.000000000000455" transform="matrix(1, 0, 0, 1, 0, 0)" class="frame-background"/></g><g class="frame-children"><g id="shape-0ef66420-1100-8022-8006-9da1a2f7f015" rx="0" ry="0"><g id="shape-0ef66420-1100-8022-8006-9da0ce7e9577" style="opacity: 1;"><g class="fills" id="fills-0ef66420-1100-8022-8006-9da0ce7e9577"><path d="M13.970019340515137,3.3516845703125L13.970019340515137,3.353515625C13.798388481140137,3.3623046875,13.636767387390137,3.4388427734375,13.520556449890137,3.566162109375L9.083056449890137,8.46875C8.971484184265137,8.5914306640625,8.910449028015137,8.751953125,8.913378715515137,8.9180908203125L9.083056449890137,15.8280029296875C9.091357231140137,16.172119140625,9.366503715515137,16.4508056640625,9.710497856140137,16.4627685546875L11.479540824890137,16.515869140625C11.543017387390137,16.5264892578125,11.607714653015137,16.52783203125,11.671435356140137,16.51953125L15.977831840515137,16.646484375C16.157764434814453,16.6519775390625,16.331104278564453,16.582763671875,16.458545684814453,16.4554443359375L21.461719512939453,11.45703125C21.712696075439453,11.2041015625,21.712696075439453,10.7962646484375,21.461719512939453,10.54296875C21.339893341064453,10.4202880859375,21.173633575439453,10.3515625,21.001270294189453,10.3515625C20.827686309814453,10.3515625,20.662403106689453,10.4202880859375,20.539844512939453,10.54296875L16.688282012939453,14.3927001953125L11.073534965515137,8.203369140625L14.479296684265137,4.437744140625C14.596484184265137,4.3099365234375,14.657275199890137,4.140625,14.648974418640137,3.9671630859375C14.640673637390137,3.7940673828125,14.563281059265137,3.6317138671875,14.434863090515137,3.515869140625C14.307665824890137,3.4019775390625,14.140673637390137,3.3433837890625,13.970019340515137,3.3516845703125ZM10.220019340515137,9.1602783203125L15.786669731140137,15.2950439453125L15.741503715515137,15.33984375L11.881640434265137,15.22265625L10.326952934265137,13.5137939453125Z" style="display: inline; stroke-linecap: round; stroke-linejoin: round; fill: rgb(0, 0, 0); fill-opacity: 1;"/></g></g><g id="shape-0ef66420-1100-8022-8006-9da0ce7efc6e" style="opacity: 1;"><g class="fills" id="fills-0ef66420-1100-8022-8006-9da0ce7efc6e"><path d="M4.004443168640137,2.2679443359375C3.809619188308716,2.2664794921875,3.622363328933716,2.3426513671875,3.483935594558716,2.4801025390625C3.345507860183716,2.6171875,3.267138719558716,2.8035888671875,3.266162157058716,2.9986572265625L3.266162157058716,19.999267578125C3.267138719558716,20.19384765625,3.345507860183716,20.3807373046875,3.483935594558716,20.517822265625C3.622363328933716,20.65478515625,3.809619188308716,20.73095703125,4.004443168640137,20.72998046875L22.001514434814453,20.72998046875C22.404590606689453,20.7286376953125,22.731250762939453,20.4019775390625,22.732227325439453,19.999267578125C22.731250762939453,19.595947265625,22.404590606689453,19.269775390625,22.001514434814453,19.2684326171875L4.735156059265137,19.2684326171875L4.735156059265137,2.9986572265625C4.734179496765137,2.595458984375,4.407519340515137,2.269287109375,4.004443168640137,2.2679443359375Z" style="display: inline; stroke-linecap: round; stroke-linejoin: round; fill: rgb(0, 0, 0); fill-opacity: 1;"/></g></g></g></g></g></g></g></g></g></svg>