<svg width="24" xmlns="http://www.w3.org/2000/svg" height="24" id="screenshot-63a85700-5cdb-80b5-8006-90bfa9529c78" viewBox="0 0 24 24" xmlns:xlink="http://www.w3.org/1999/xlink" fill="none" version="1.1"><g id="shape-63a85700-5cdb-80b5-8006-90bfa9529c78"><g class="frame-container-wrapper"><g class="frame-container-blur"><g class="frame-container-shadows"><g fill="none"><g class="fills" id="fills-63a85700-5cdb-80b5-8006-90bfa9529c78"><rect rx="0" ry="0" x="0" y="0" width="24" height="24.000000000000455" transform="matrix(1, 0, 0, 1, 0, 0)" class="frame-background"/></g><g class="frame-children"><g id="shape-63a85700-5cdb-80b5-8006-90bec87194c6" rx="0" ry="0"><g id="shape-63a85700-5cdb-80b5-8006-90be5eb0449d" style="opacity: 1;"><g class="fills" id="fills-63a85700-5cdb-80b5-8006-90be5eb0449d"><path d="M5.266894340515137,2.0838623046875C3.516406297683716,2.0838623046875,2.078173875808716,3.5146484375,2.078173875808716,5.265625L2.078173875808716,18.73046875C2.078173875808716,20.481201171875,3.516406297683716,21.91943359375,5.266894340515137,21.91943359375L18.738330841064453,21.91943359375C20.490283966064453,21.91943359375,21.920215606689453,20.481201171875,21.920215606689453,18.73046875L21.920215606689453,5.265625C21.920215606689453,3.5146484375,20.490283966064453,2.0838623046875,18.738330841064453,2.0838623046875ZM5.266894340515137,3.5457763671875L18.738330841064453,3.5457763671875C19.703174591064453,3.5457763671875,20.459033966064453,4.302001953125,20.459033966064453,5.265625L20.459033966064453,18.73046875C20.459033966064453,19.6937255859375,19.703174591064453,20.4500732421875,18.738330841064453,20.4500732421875L5.266894340515137,20.4500732421875C4.303027153015137,20.4500732421875,3.546435594558716,19.6937255859375,3.546435594558716,18.73046875L3.546435594558716,5.265625C3.546435594558716,4.302001953125,4.303027153015137,3.5457763671875,5.266894340515137,3.5457763671875Z" style="display: inline; stroke-linecap: round; stroke-linejoin: round; fill: rgb(0, 0, 0); fill-opacity: 1;"/></g></g><g id="shape-63a85700-5cdb-80b5-8006-90be5eb09b2a" style="opacity: 1;"><g class="fills" id="fills-63a85700-5cdb-80b5-8006-90be5eb09b2a"><path d="M13.002734184265137,5.2666015625C12.922900199890137,5.2669677734375,12.843066215515137,5.281005859375,12.767138481140137,5.3076171875C12.752245903015137,5.312744140625,12.736865043640137,5.318603515625,12.722216606140137,5.3251953125C12.658007621765137,5.3519287109375,12.597704887390137,5.387451171875,12.544238090515137,5.4306640625C12.536913871765137,5.434326171875,12.529833793640137,5.43798828125,12.523241996765137,5.4423828125L5.525683403015137,11.4442138671875C5.220751762390137,11.7049560546875,5.181200981140137,12.1612548828125,5.437060356140137,12.469970703125L10.434863090515137,18.471923828125C10.566699028015137,18.6300048828125,10.760790824890137,18.725341796875,10.966601371765137,18.7340087890625C11.173144340515137,18.7420654296875,11.373095512390137,18.663330078125,11.518847465515137,18.5164794921875L18.517139434814453,11.5185546875C18.670459747314453,11.3665771484375,18.748584747314453,11.1553955078125,18.731006622314453,10.940185546875L18.731006622314453,5.9969482421875C18.730274200439453,5.593994140625,18.403614044189453,5.2684326171875,18.001514434814453,5.2666015625ZM14.776659965515137,6.735107421875L17.270557403564453,6.735107421875L17.270557403564453,9.231201171875ZM12.960253715515137,7.0009765625L14.460253715515137,8.498779296875L8.573779106140137,13.9384765625L7.031298637390137,12.0865478515625ZM15.498827934265137,9.5377197265625L16.965869903564453,11.00244140625L11.053759574890137,16.9146728515625L9.514941215515137,15.0693359375L15.497363090515137,9.53955078125C15.498095512390137,9.5391845703125,15.498827934265137,9.5384521484375,15.498827934265137,9.5377197265625Z" style="display: inline; stroke-linecap: round; stroke-linejoin: round; fill: rgb(0, 0, 0); fill-opacity: 1;"/></g></g></g></g></g></g></g></g></g></svg>